<?xml version="1.0" encoding="UTF-8" standalone="no"?>
<!DOCTYPE svg PUBLIC "-//W3C//DTD SVG 1.1//EN" "http://www.w3.org/Graphics/SVG/1.1/DTD/svg11.dtd">
<svg xmlns="http://www.w3.org/2000/svg" xmlns:xlink="http://www.w3.org/1999/xlink" version="1.1" width="216pt" height="216pt" viewBox="0 0 216 216">
<g enable-background="new">
<clipPath id="cp0">
<path transform="matrix(1,0,0,-1,0,216)" d="M 0 0 L 216 0 L 216 216 L 0 216 Z "/>
</clipPath>
<g clip-path="url(#cp0)">
<path transform="matrix(1,0,0,-1,0,216)" d="M 0 216 L 216 216 L 216 0 L 0 0 Z " fill="#ffffff"/>
</g>
<clipPath id="cp1">
<path transform="matrix(1,0,0,-1,0,216)" d="M 0 .00001034141 L 216 .00001034141 L 216 216.00002 L 0 216.00002 Z "/>
</clipPath>
<g clip-path="url(#cp1)">
<path transform="matrix(1,0,0,-1,0,216)" d="M -6.258939 -166.328 L 300.56227 -166.328 L 300.56227 224.12329 L -6.258939 224.12329 Z " fill="#ffffff"/>
<path transform="matrix(1,0,0,-1,0,216)" d="M 1.598027 215.8668 L 1.864365 215.8668 L 1.864365 -.1331586 L 1.598027 -.1331586 Z M 3.462392 215.8668 L 3.72873 215.8668 L 3.72873 -.1331586 L 3.462392 -.1331586 Z M 5.326757 215.8668 L 5.593095 215.8668 L 5.593095 -.1331586 L 5.326757 -.1331586 Z M 7.191122 215.8668 L 7.45746 215.8668 L 7.45746 -.1331586 L 7.191122 -.1331586 Z M 9.321824 215.8668 L 9.588162 215.8668 L 9.588162 -.1331586 L 9.321824 -.1331586 Z M 11.18619 215.8668 L 11.45253 215.8668 L 11.45253 -.1331586 L 11.18619 -.1331586 Z M 13.05055 215.8668 L 13.31689 215.8668 L 13.31689 -.1331586 L 13.05055 -.1331586 Z M 14.91492 215.8668 L 15.18126 215.8668 L 15.18126 -.1331586 L 14.91492 -.1331586 Z M 16.77928 215.8668 L 17.04562 215.8668 L 17.04562 -.1331586 L 16.77928 -.1331586 Z M 18.90999 215.8668 L 19.17632 215.8668 L 19.17632 -.1331586 L 18.90999 -.1331586 Z M 20.77435 215.8668 L 21.04069 215.8668 L 21.04069 -.1331586 L 20.77435 -.1331586 Z M 22.63872 215.8668 L 22.90505 215.8668 L 22.90505 -.1331586 L 22.63872 -.1331586 Z M 24.50308 215.8668 L 24.76942 215.8668 L 24.76942 -.1331586 L 24.50308 -.1331586 Z M 26.36745 215.8668 L 26.63378 215.8668 L 26.63378 -.1331586 L 26.36745 -.1331586 Z M 28.49815 215.8668 L 28.76449 215.8668 L 28.76449 -.1331586 L 28.49815 -.1331586 Z M 30.36251 215.8668 L 30.62885 215.8668 L 30.62885 -.1331586 L 30.36251 -.1331586 Z M 32.22688 215.8668 L 32.49322 215.8668 L 32.49322 -.1331586 L 32.22688 -.1331586 Z M 34.09124 215.8668 L 34.35758 215.8668 L 34.35758 -.1331586 L 34.09124 -.1331586 Z M 35.95561 215.8668 L 36.22195 215.8668 L 36.22195 -.1331586 L 35.95561 -.1331586 Z M 38.08631 215.8668 L 38.35265 215.8668 L 38.35265 -.1331586 L 38.08631 -.1331586 Z M 39.95068 215.8668 L 40.21701 215.8668 L 40.21701 -.1331586 L 39.95068 -.1331586 Z M 41.81504 215.8668 L 42.08138 215.8668 L 42.08138 -.1331586 L 41.81504 -.1331586 Z M 43.67941 215.8668 L 43.94574 215.8668 L 43.94574 -.1331586 L 43.67941 -.1331586 Z M 45.54377 215.8668 L 45.81011 215.8668 L 45.81011 -.1331586 L 45.54377 -.1331586 Z M 47.67447 215.8668 L 47.94081 215.8668 L 47.94081 -.1331586 L 47.67447 -.1331586 Z M 49.53884 215.8668 L 49.80518 215.8668 L 49.80518 -.1331586 L 49.53884 -.1331586 Z M 51.4032 215.8668 L 51.66954 215.8668 L 51.66954 -.1331586 L 51.4032 -.1331586 Z M 53.26757 215.8668 L 53.53391 215.8668 L 53.53391 -.1331586 L 53.26757 -.1331586 Z M 55.13193 215.8668 L 55.39827 215.8668 L 55.39827 -.1331586 L 55.13193 -.1331586 Z M 57.26264 215.8668 L 57.52897 215.8668 L 57.52897 -.1331586 L 57.26264 -.1331586 Z M 59.127 215.8668 L 59.39334 215.8668 L 59.39334 -.1331586 L 59.127 -.1331586 Z M 60.99137 215.8668 L 61.2577 215.8668 L 61.2577 -.1331586 L 60.99137 -.1331586 Z M 62.85573 215.8668 L 63.12207 215.8668 L 63.12207 -.1331586 L 62.85573 -.1331586 Z M 64.7201 215.8668 L 64.98643 215.8668 L 64.98643 -.1331586 L 64.7201 -.1331586 Z M 66.8508 215.8668 L 67.11714 215.8668 L 67.11714 -.1331586 L 66.8508 -.1331586 Z M 68.71516 215.8668 L 68.9815 215.8668 L 68.9815 -.1331586 L 68.71516 -.1331586 Z M 70.57953 215.8668 L 70.84587 215.8668 L 70.84587 -.1331586 L 70.57953 -.1331586 Z M 72.44389 215.8668 L 72.71023 215.8668 L 72.71023 -.1331586 L 72.44389 -.1331586 Z M 74.30826 215.8668 L 74.5746 215.8668 L 74.5746 -.1331586 L 74.30826 -.1331586 Z M 76.43896 215.8668 L 76.7053 215.8668 L 76.7053 -.1331586 L 76.43896 -.1331586 Z M 78.30333 215.8668 L 78.56966 215.8668 L 78.56966 -.1331586 L 78.30333 -.1331586 Z M 80.16769 215.8668 L 80.43403 215.8668 L 80.43403 -.1331586 L 80.16769 -.1331586 Z M 82.03206 215.8668 L 82.29839 215.8668 L 82.29839 -.1331586 L 82.03206 -.1331586 Z M 83.89642 215.8668 L 84.16276 215.8668 L 84.16276 -.1331586 L 83.89642 -.1331586 Z M 86.02712 215.8668 L 86.29346 215.8668 L 86.29346 -.1331586 L 86.02712 -.1331586 Z M 87.89149 215.8668 L 88.15783 215.8668 L 88.15783 -.1331586 L 87.89149 -.1331586 Z M 89.75585 215.8668 L 90.02219 215.8668 L 90.02219 -.1331586 L 89.75585 -.1331586 Z M 91.62022 215.8668 L 91.88656 215.8668 L 91.88656 -.1331586 L 91.62022 -.1331586 Z M 93.48458 215.8668 L 93.75092 215.8668 L 93.75092 -.1331586 L 93.48458 -.1331586 Z M 95.61529 215.8668 L 95.88162 215.8668 L 95.88162 -.1331586 L 95.61529 -.1331586 Z M 97.47965 215.8668 L 97.74599 215.8668 L 97.74599 -.1331586 L 97.47965 -.1331586 Z M 99.34401 215.8668 L 99.61035 215.8668 L 99.61035 -.1331586 L 99.34401 -.1331586 Z M 101.2084 215.8668 L 101.4747 215.8668 L 101.4747 -.1331586 L 101.2084 -.1331586 Z M 103.0727 215.8668 L 103.3391 215.8668 L 103.3391 -.1331586 L 103.0727 -.1331586 Z M 105.2034 215.8668 L 105.4698 215.8668 L 105.4698 -.1331586 L 105.2034 -.1331586 Z M 107.0678 215.8668 L 107.3342 215.8668 L 107.3342 -.1331586 L 107.0678 -.1331586 Z M 108.9322 215.8668 L 109.1985 215.8668 L 109.1985 -.1331586 L 108.9322 -.1331586 Z M 110.7965 215.8668 L 111.0629 215.8668 L 111.0629 -.1331586 L 110.7965 -.1331586 Z M 112.6609 215.8668 L 112.9272 215.8668 L 112.9272 -.1331586 L 112.6609 -.1331586 Z M 114.7916 215.8668 L 115.0579 215.8668 L 115.0579 -.1331586 L 114.7916 -.1331586 Z M 116.656 215.8668 L 116.9223 215.8668 L 116.9223 -.1331586 L 116.656 -.1331586 Z M 118.5203 215.8668 L 118.7867 215.8668 L 118.7867 -.1331586 L 118.5203 -.1331586 Z M 120.3847 215.8668 L 120.651 215.8668 L 120.651 -.1331586 L 120.3847 -.1331586 Z M 122.2491 215.8668 L 122.5154 215.8668 L 122.5154 -.1331586 L 122.2491 -.1331586 Z M 124.3798 215.8668 L 124.6461 215.8668 L 124.6461 -.1331586 L 124.3798 -.1331586 Z M 126.2441 215.8668 L 126.5105 215.8668 L 126.5105 -.1331586 L 126.2441 -.1331586 Z M 128.1085 215.8668 L 128.3748 215.8668 L 128.3748 -.1331586 L 128.1085 -.1331586 Z M 129.9729 215.8668 L 130.2392 215.8668 L 130.2392 -.1331586 L 129.9729 -.1331586 Z M 131.8372 215.8668 L 132.1036 215.8668 L 132.1036 -.1331586 L 131.8372 -.1331586 Z M 133.9679 215.8668 L 134.2343 215.8668 L 134.2343 -.1331586 L 133.9679 -.1331586 Z M 135.8323 215.8668 L 136.0986 215.8668 L 136.0986 -.1331586 L 135.8323 -.1331586 Z M 137.6967 215.8668 L 137.963 215.8668 L 137.963 -.1331586 L 137.6967 -.1331586 Z M 139.561 215.8668 L 139.8274 215.8668 L 139.8274 -.1331586 L 139.561 -.1331586 Z M 141.4254 215.8668 L 141.6917 215.8668 L 141.6917 -.1331586 L 141.4254 -.1331586 Z M 143.5561 215.8668 L 143.8224 215.8668 L 143.8224 -.1331586 L 143.5561 -.1331586 Z M 145.4205 215.8668 L 145.6868 215.8668 L 145.6868 -.1331586 L 145.4205 -.1331586 Z M 147.2848 215.8668 L 147.5512 215.8668 L 147.5512 -.1331586 L 147.2848 -.1331586 Z M 149.1492 215.8668 L 149.4155 215.8668 L 149.4155 -.1331586 L 149.1492 -.1331586 Z M 151.0136 215.8668 L 151.2799 215.8668 L 151.2799 -.1331586 L 151.0136 -.1331586 Z M 153.1443 215.8668 L 153.4106 215.8668 L 153.4106 -.1331586 L 153.1443 -.1331586 Z M 155.0086 215.8668 L 155.275 215.8668 L 155.275 -.1331586 L 155.0086 -.1331586 Z M 156.873 215.8668 L 157.1393 215.8668 L 157.1393 -.1331586 L 156.873 -.1331586 Z M 158.7374 215.8668 L 159.0037 215.8668 L 159.0037 -.1331586 L 158.7374 -.1331586 Z M 160.6017 215.8668 L 160.8681 215.8668 L 160.8681 -.1331586 L 160.6017 -.1331586 Z M 162.7324 215.8668 L 162.9988 215.8668 L 162.9988 -.1331586 L 162.7324 -.1331586 Z M 164.5968 215.8668 L 164.8631 215.8668 L 164.8631 -.1331586 L 164.5968 -.1331586 Z M 166.4612 215.8668 L 166.7275 215.8668 L 166.7275 -.1331586 L 166.4612 -.1331586 Z M 168.3255 215.8668 L 168.5919 215.8668 L 168.5919 -.1331586 L 168.3255 -.1331586 Z M 170.1899 215.8668 L 170.4562 215.8668 L 170.4562 -.1331586 L 170.1899 -.1331586 Z M 172.3206 215.8668 L 172.5869 215.8668 L 172.5869 -.1331586 L 172.3206 -.1331586 Z M 174.1849 215.8668 L 174.4513 215.8668 L 174.4513 -.1331586 L 174.1849 -.1331586 Z M 176.0493 215.8668 L 176.3157 215.8668 L 176.3157 -.1331586 L 176.0493 -.1331586 Z M 177.9137 215.8668 L 178.18 215.8668 L 178.18 -.1331586 L 177.9137 -.1331586 Z M 179.778 215.8668 L 180.0444 215.8668 L 180.0444 -.1331586 L 179.778 -.1331586 Z M 181.9087 215.8668 L 182.1751 215.8668 L 182.1751 -.1331586 L 181.9087 -.1331586 Z M 183.7731 215.8668 L 184.0394 215.8668 L 184.0394 -.1331586 L 183.7731 -.1331586 Z M 185.6375 215.8668 L 185.9038 215.8668 L 185.9038 -.1331586 L 185.6375 -.1331586 Z M 187.5018 215.8668 L 187.7682 215.8668 L 187.7682 -.1331586 L 187.5018 -.1331586 Z M 189.3662 215.8668 L 189.6325 215.8668 L 189.6325 -.1331586 L 189.3662 -.1331586 Z M 191.4969 215.8668 L 191.7632 215.8668 L 191.7632 -.1331586 L 191.4969 -.1331586 Z M 193.3613 215.8668 L 193.6276 215.8668 L 193.6276 -.1331586 L 193.3613 -.1331586 Z M 195.2256 215.8668 L 195.492 215.8668 L 195.492 -.1331586 L 195.2256 -.1331586 Z M 197.09 215.8668 L 197.3563 215.8668 L 197.3563 -.1331586 L 197.09 -.1331586 Z M 198.9544 215.8668 L 199.2207 215.8668 L 199.2207 -.1331586 L 198.9544 -.1331586 Z M 201.0851 215.8668 L 201.3514 215.8668 L 201.3514 -.1331586 L 201.0851 -.1331586 Z M 202.9494 215.8668 L 203.2158 215.8668 L 203.2158 -.1331586 L 202.9494 -.1331586 Z M 204.8138 215.8668 L 205.0801 215.8668 L 205.0801 -.1331586 L 204.8138 -.1331586 Z M 206.6782 215.8668 L 206.9445 215.8668 L 206.9445 -.1331586 L 206.6782 -.1331586 Z M 208.5425 215.8668 L 208.8089 215.8668 L 208.8089 -.1331586 L 208.5425 -.1331586 Z M 210.6732 215.8668 L 210.9396 215.8668 L 210.9396 -.1331586 L 210.6732 -.1331586 Z M 212.5376 215.8668 L 212.8039 215.8668 L 212.8039 -.1331586 L 212.5376 -.1331586 Z M 214.402 215.8668 L 214.6683 215.8668 L 214.6683 -.1331586 L 214.402 -.1331586 Z M .1331689 214.402 L 216.1332 214.402 L 216.1332 214.1356 L .1331689 214.1356 Z M .1331689 212.5376 L 216.1332 212.5376 L 216.1332 212.2713 L .1331689 212.2713 Z M .1331689 210.6732 L 216.1332 210.6732 L 216.1332 210.4069 L .1331689 210.4069 Z M .1331689 208.5425 L 216.1332 208.5425 L 216.1332 208.2762 L .1331689 208.2762 Z M .1331689 206.6782 L 216.1332 206.6782 L 216.1332 206.4118 L .1331689 206.4118 Z M .1331689 204.8138 L 216.1332 204.8138 L 216.1332 204.5475 L .1331689 204.5475 Z M .1331689 202.9494 L 216.1332 202.9494 L 216.1332 202.6831 L .1331689 202.6831 Z M .1331689 201.0851 L 216.1332 201.0851 L 216.1332 200.8187 L .1331689 200.8187 Z M .1331689 198.9544 L 216.1332 198.9544 L 216.1332 198.688 L .1331689 198.688 Z M .1331689 197.09 L 216.1332 197.09 L 216.1332 196.8237 L .1331689 196.8237 Z M .1331689 195.2256 L 216.1332 195.2256 L 216.1332 194.9593 L .1331689 194.9593 Z M .1331689 193.3613 L 216.1332 193.3613 L 216.1332 193.0949 L .1331689 193.0949 Z M .1331689 191.4969 L 216.1332 191.4969 L 216.1332 191.2306 L .1331689 191.2306 Z M .1331689 189.3662 L 216.1332 189.3662 L 216.1332 189.0999 L .1331689 189.0999 Z M .1331689 187.5019 L 216.1332 187.5019 L 216.1332 187.2355 L .1331689 187.2355 Z M .1331689 185.6375 L 216.1332 185.6375 L 216.1332 185.3711 L .1331689 185.3711 Z M .1331689 183.7731 L 216.1332 183.7731 L 216.1332 183.5068 L .1331689 183.5068 Z M .1331689 181.9088 L 216.1332 181.9088 L 216.1332 181.6424 L .1331689 181.6424 Z M .1331689 179.7781 L 216.1332 179.7781 L 216.1332 179.5117 L .1331689 179.5117 Z M .1331689 177.9137 L 216.1332 177.9137 L 216.1332 177.6474 L .1331689 177.6474 Z M .1331689 176.0493 L 216.1332 176.0493 L 216.1332 175.783 L .1331689 175.783 Z M .1331689 174.185 L 216.1332 174.185 L 216.1332 173.9186 L .1331689 173.9186 Z M .1331689 172.3206 L 216.1332 172.3206 L 216.1332 172.0543 L .1331689 172.0543 Z M .1331689 170.1899 L 216.1332 170.1899 L 216.1332 169.9236 L .1331689 169.9236 Z M .1331689 168.3255 L 216.1332 168.3255 L 216.1332 168.0592 L .1331689 168.0592 Z M .1331689 166.4612 L 216.1332 166.4612 L 216.1332 166.1948 L .1331689 166.1948 Z M .1331689 164.5968 L 216.1332 164.5968 L 216.1332 164.3305 L .1331689 164.3305 Z M .1331689 162.7324 L 216.1332 162.7324 L 216.1332 162.4661 L .1331689 162.4661 Z M .1331689 160.6017 L 216.1332 160.6017 L 216.1332 160.3354 L .1331689 160.3354 Z M .1331689 158.7374 L 216.1332 158.7374 L 216.1332 158.471 L .1331689 158.471 Z M .1331689 156.873 L 216.1332 156.873 L 216.1332 156.6067 L .1331689 156.6067 Z M .1331689 155.0086 L 216.1332 155.0086 L 216.1332 154.7423 L .1331689 154.7423 Z M .1331689 153.1443 L 216.1332 153.1443 L 216.1332 152.8779 L .1331689 152.8779 Z M .1331689 151.0136 L 216.1332 151.0136 L 216.1332 150.7472 L .1331689 150.7472 Z M .1331689 149.1492 L 216.1332 149.1492 L 216.1332 148.8829 L .1331689 148.8829 Z M .1331689 147.2848 L 216.1332 147.2848 L 216.1332 147.0185 L .1331689 147.0185 Z M .1331689 145.4205 L 216.1332 145.4205 L 216.1332 145.1541 L .1331689 145.1541 Z M .1331689 143.5561 L 216.1332 143.5561 L 216.1332 143.2898 L .1331689 143.2898 Z M .1331689 141.4254 L 216.1332 141.4254 L 216.1332 141.1591 L .1331689 141.1591 Z M .1331689 139.561 L 216.1332 139.561 L 216.1332 139.2947 L .1331689 139.2947 Z M .1331689 137.6967 L 216.1332 137.6967 L 216.1332 137.4303 L .1331689 137.4303 Z M .1331689 135.8323 L 216.1332 135.8323 L 216.1332 135.566 L .1331689 135.566 Z M .1331689 133.9679 L 216.1332 133.9679 L 216.1332 133.7016 L .1331689 133.7016 Z M .1331689 131.8372 L 216.1332 131.8372 L 216.1332 131.5709 L .1331689 131.5709 Z M .1331689 129.9729 L 216.1332 129.9729 L 216.1332 129.7065 L .1331689 129.7065 Z M .1331689 128.1085 L 216.1332 128.1085 L 216.1332 127.8422 L .1331689 127.8422 Z M .1331689 126.2441 L 216.1332 126.2441 L 216.1332 125.9778 L .1331689 125.9778 Z M .1331689 124.3798 L 216.1332 124.3798 L 216.1332 124.1134 L .1331689 124.1134 Z M .1331689 122.2491 L 216.1332 122.2491 L 216.1332 121.9827 L .1331689 121.9827 Z M .1331689 120.3847 L 216.1332 120.3847 L 216.1332 120.1184 L .1331689 120.1184 Z M .1331689 118.5203 L 216.1332 118.5203 L 216.1332 118.254 L .1331689 118.254 Z M .1331689 116.656 L 216.1332 116.656 L 216.1332 116.3896 L .1331689 116.3896 Z M .1331689 114.7916 L 216.1332 114.7916 L 216.1332 114.5253 L .1331689 114.5253 Z M .1331689 112.6609 L 216.1332 112.6609 L 216.1332 112.3946 L .1331689 112.3946 Z M .1331689 110.7966 L 216.1332 110.7966 L 216.1332 110.5302 L .1331689 110.5302 Z M .1331689 108.9322 L 216.1332 108.9322 L 216.1332 108.6658 L .1331689 108.6658 Z M .1331689 107.0678 L 216.1332 107.0678 L 216.1332 106.8015 L .1331689 106.8015 Z M .1331689 105.2035 L 216.1332 105.2035 L 216.1332 104.9371 L .1331689 104.9371 Z M .1331689 103.0728 L 216.1332 103.0728 L 216.1332 102.8064 L .1331689 102.8064 Z M .1331689 101.2084 L 216.1332 101.2084 L 216.1332 100.9421 L .1331689 100.9421 Z M .1331689 99.34403 L 216.1332 99.34403 L 216.1332 99.07769 L .1331689 99.07769 Z M .1331689 97.47966 L 216.1332 97.47966 L 216.1332 97.21332 L .1331689 97.21332 Z M .1331689 95.6153 L 216.1332 95.6153 L 216.1332 95.34896 L .1331689 95.34896 Z M .1331689 93.48459 L 216.1332 93.48459 L 216.1332 93.21825 L .1331689 93.21825 Z M .1331689 91.62023 L 216.1332 91.62023 L 216.1332 91.35389 L .1331689 91.35389 Z M .1331689 89.75586 L 216.1332 89.75586 L 216.1332 89.48953 L .1331689 89.48953 Z M .1331689 87.8915 L 216.1332 87.8915 L 216.1332 87.62516 L .1331689 87.62516 Z M .1331689 86.02713 L 216.1332 86.02713 L 216.1332 85.7608 L .1331689 85.7608 Z M .1331689 83.89643 L 216.1332 83.89643 L 216.1332 83.63009 L .1331689 83.63009 Z M .1331689 82.03207 L 216.1332 82.03207 L 216.1332 81.76573 L .1331689 81.76573 Z M .1331689 80.1677 L 216.1332 80.1677 L 216.1332 79.90136 L .1331689 79.90136 Z M .1331689 78.30334 L 216.1332 78.30334 L 216.1332 78.037 L .1331689 78.037 Z M .1331689 76.43897 L 216.1332 76.43897 L 216.1332 76.17263 L .1331689 76.17263 Z M .1331689 74.30827 L 216.1332 74.30827 L 216.1332 74.04193 L .1331689 74.04193 Z M .1331689 72.4439 L 216.1332 72.4439 L 216.1332 72.17757 L .1331689 72.17757 Z M .1331689 70.57954 L 216.1332 70.57954 L 216.1332 70.3132 L .1331689 70.3132 Z M .1331689 68.71517 L 216.1332 68.71517 L 216.1332 68.44884 L .1331689 68.44884 Z M .1331689 66.85081 L 216.1332 66.85081 L 216.1332 66.58447 L .1331689 66.58447 Z M .1331689 64.72011 L 216.1332 64.72011 L 216.1332 64.45377 L .1331689 64.45377 Z M .1331689 62.85574 L 216.1332 62.85574 L 216.1332 62.5894 L .1331689 62.5894 Z M .1331689 60.99138 L 216.1332 60.99138 L 216.1332 60.72504 L .1331689 60.72504 Z M .1331689 59.12701 L 216.1332 59.12701 L 216.1332 58.86067 L .1331689 58.86067 Z M .1331689 57.26265 L 216.1332 57.26265 L 216.1332 56.99631 L .1331689 56.99631 Z M .1331689 55.13194 L 216.1332 55.13194 L 216.1332 54.86561 L .1331689 54.86561 Z M .1331689 53.26758 L 216.1332 53.26758 L 216.1332 53.00124 L .1331689 53.00124 Z M .1331689 51.40321 L 216.1332 51.40321 L 216.1332 51.13688 L .1331689 51.13688 Z M .1331689 49.53885 L 216.1332 49.53885 L 216.1332 49.27251 L .1331689 49.27251 Z M .1331689 47.67448 L 216.1332 47.67448 L 216.1332 47.40815 L .1331689 47.40815 Z M .1331689 45.54378 L 216.1332 45.54378 L 216.1332 45.27744 L .1331689 45.27744 Z M .1331689 43.67942 L 216.1332 43.67942 L 216.1332 43.41308 L .1331689 43.41308 Z M .1331689 41.81505 L 216.1332 41.81505 L 216.1332 41.54871 L .1331689 41.54871 Z M .1331689 39.95069 L 216.1332 39.95069 L 216.1332 39.68435 L .1331689 39.68435 Z M .1331689 38.08632 L 216.1332 38.08632 L 216.1332 37.81998 L .1331689 37.81998 Z M .1331689 35.95562 L 216.1332 35.95562 L 216.1332 35.68928 L .1331689 35.68928 Z M .1331689 34.09125 L 216.1332 34.09125 L 216.1332 33.82492 L .1331689 33.82492 Z M .1331689 32.22689 L 216.1332 32.22689 L 216.1332 31.96055 L .1331689 31.96055 Z M .1331689 30.36252 L 216.1332 30.36252 L 216.1332 30.09619 L .1331689 30.09619 Z M .1331689 28.49816 L 216.1332 28.49816 L 216.1332 28.23182 L .1331689 28.23182 Z M .1331689 26.36746 L 216.1332 26.36746 L 216.1332 26.10112 L .1331689 26.10112 Z M .1331689 24.50309 L 216.1332 24.50309 L 216.1332 24.23675 L .1331689 24.23675 Z M .1331689 22.63873 L 216.1332 22.63873 L 216.1332 22.37239 L .1331689 22.37239 Z M .1331689 20.77436 L 216.1332 20.77436 L 216.1332 20.50802 L .1331689 20.50802 Z M .1331689 18.91 L 216.1332 18.91 L 216.1332 18.64366 L .1331689 18.64366 Z M .1331689 16.77929 L 216.1332 16.77929 L 216.1332 16.51296 L .1331689 16.51296 Z M .1331689 14.91493 L 216.1332 14.91493 L 216.1332 14.64859 L .1331689 14.64859 Z M .1331689 13.05056 L 216.1332 13.05056 L 216.1332 12.78423 L .1331689 12.78423 Z M .1331689 11.1862 L 216.1332 11.1862 L 216.1332 10.91986 L .1331689 10.91986 Z M .1331689 9.321835 L 216.1332 9.321835 L 216.1332 9.055497 L .1331689 9.055497 Z M .1331689 7.191132 L 216.1332 7.191132 L 216.1332 6.924794 L .1331689 6.924794 Z M .1331689 5.326767 L 216.1332 5.326767 L 216.1332 5.060429 L .1331689 5.060429 Z M .1331689 3.462402 L 216.1332 3.462402 L 216.1332 3.196064 L .1331689 3.196064 Z M .1331689 1.598037 L 216.1332 1.598037 L 216.1332 1.3317 L .1331689 1.3317 Z " fill="#cbcbcb" fill-opacity=".8"/>
<path transform="matrix(1,0,0,-1,0,216)" d="M 13.05055 215.8668 L 13.31689 215.8668 L 13.31689 -.1331586 L 13.05055 -.1331586 Z M 32.22688 215.8668 L 32.49322 215.8668 L 32.49322 -.1331586 L 32.22688 -.1331586 Z M 51.4032 215.8668 L 51.66954 215.8668 L 51.66954 -.1331586 L 51.4032 -.1331586 Z M 70.57953 215.8668 L 70.84587 215.8668 L 70.84587 -.1331586 L 70.57953 -.1331586 Z M 89.75585 215.8668 L 90.02219 215.8668 L 90.02219 -.1331586 L 89.75585 -.1331586 Z M 108.9322 215.8668 L 109.1985 215.8668 L 109.1985 -.1331586 L 108.9322 -.1331586 Z M 128.1085 215.8668 L 128.3748 215.8668 L 128.3748 -.1331586 L 128.1085 -.1331586 Z M 147.2848 215.8668 L 147.5512 215.8668 L 147.5512 -.1331586 L 147.2848 -.1331586 Z M 166.4612 215.8668 L 166.7275 215.8668 L 166.7275 -.1331586 L 166.4612 -.1331586 Z M 185.6375 215.8668 L 185.9038 215.8668 L 185.9038 -.1331586 L 185.6375 -.1331586 Z M 204.8138 215.8668 L 205.0801 215.8668 L 205.0801 -.1331586 L 204.8138 -.1331586 Z M .1331689 204.8138 L 216.1332 204.8138 L 216.1332 204.5475 L .1331689 204.5475 Z M .1331689 185.6375 L 216.1332 185.6375 L 216.1332 185.3711 L .1331689 185.3711 Z M .1331689 166.4612 L 216.1332 166.4612 L 216.1332 166.1948 L .1331689 166.1948 Z M .1331689 147.2848 L 216.1332 147.2848 L 216.1332 147.0185 L .1331689 147.0185 Z M .1331689 128.1085 L 216.1332 128.1085 L 216.1332 127.8422 L .1331689 127.8422 Z M .1331689 108.9322 L 216.1332 108.9322 L 216.1332 108.6658 L .1331689 108.6658 Z M .1331689 89.75586 L 216.1332 89.75586 L 216.1332 89.48953 L .1331689 89.48953 Z M .1331689 70.57954 L 216.1332 70.57954 L 216.1332 70.3132 L .1331689 70.3132 Z M .1331689 51.40321 L 216.1332 51.40321 L 216.1332 51.13688 L .1331689 51.13688 Z M .1331689 32.22689 L 216.1332 32.22689 L 216.1332 31.96055 L .1331689 31.96055 Z M .1331689 13.05056 L 216.1332 13.05056 L 216.1332 12.78423 L .1331689 12.78423 Z " fill="#929292"/>
<path transform="matrix(.2663378,0,0,.2663378,-5.992601,-7.8569948)" stroke-width="3" stroke-linecap="round" stroke-linejoin="round" fill="none" stroke="#011893" d="M 72 59.09998 L 72 812.1 "/>
<path transform="matrix(1,0,0,-1,0,216)" d="M 13.18372 4.581021 L 14.30234 7.564005 L 12.0651 7.564005 Z M 13.18372 4.581021 " fill="#011893"/>
<path transform="matrix(.2663378,0,0,.2663378,-5.992601,-7.8569948)" stroke-width="3" stroke-linecap="butt" stroke-miterlimit="10" stroke-linejoin="miter" fill="none" stroke="#011893" d="M 72 823.3 L 76.2 812.1 L 67.8 812.1 Z M 72 823.3 "/>
<path transform="matrix(1,0,0,-1,0,216)" d="M 13.18372 211.0994 L 12.0651 208.1164 L 14.30234 208.1164 Z M 13.18372 211.0994 " fill="#011893"/>
<path transform="matrix(.2663378,0,0,.2663378,-5.992601,-7.8569948)" stroke-width="3" stroke-linecap="butt" stroke-miterlimit="10" stroke-linejoin="miter" fill="none" stroke="#011893" d="M 72 47.90002 L 67.8 59.09998 L 76.2 59.09998 Z M 72 47.90002 "/>
<path transform="matrix(.2663378,0,0,.2663378,-5.992601,-7.8569948)" stroke-width="3" stroke-linecap="round" stroke-linejoin="round" fill="none" stroke="#011893" d="M 63 144 L 81 144 "/>
<path transform="matrix(.2663378,0,0,.2663378,-5.992601,-7.8569948)" stroke-width="3" stroke-linecap="round" stroke-linejoin="round" fill="none" stroke="#011893" d="M 63 180 L 81 180 "/>
<path transform="matrix(.2663378,0,0,.2663378,-5.992601,-7.8569948)" stroke-width="3" stroke-linecap="round" stroke-linejoin="round" fill="none" stroke="#011893" d="M 63 216 L 81 216 "/>
<path transform="matrix(.2663378,0,0,.2663378,-5.992601,-7.8569948)" stroke-width="3" stroke-linecap="round" stroke-linejoin="round" fill="none" stroke="#011893" d="M 63 252 L 81 252 "/>
<path transform="matrix(.2663378,0,0,.2663378,-5.992601,-7.8569948)" stroke-width="3" stroke-linecap="round" stroke-linejoin="round" fill="none" stroke="#011893" d="M 63 288 L 81 288 "/>
<path transform="matrix(.2663378,0,0,.2663378,-5.992601,-7.8569948)" stroke-width="3" stroke-linecap="round" stroke-linejoin="round" fill="none" stroke="#011893" d="M 63 324 L 81 324 "/>
<path transform="matrix(.2663378,0,0,.2663378,-5.992601,-7.8569948)" stroke-width="3" stroke-linecap="round" stroke-linejoin="round" fill="none" stroke="#011893" d="M 63 360 L 81 360 "/>
<path transform="matrix(.2663378,0,0,.2663378,-5.992601,-7.8569948)" stroke-width="3" stroke-linecap="round" stroke-linejoin="round" fill="none" stroke="#011893" d="M 63 396 L 81 396 "/>
<path transform="matrix(.2663378,0,0,.2663378,-5.992601,-7.8569948)" stroke-width="3" stroke-linecap="round" stroke-linejoin="round" fill="none" stroke="#011893" d="M 63 432 L 81 432 "/>
<path transform="matrix(.2663378,0,0,.2663378,-5.992601,-7.8569948)" stroke-width="3" stroke-linecap="round" stroke-linejoin="round" fill="none" stroke="#011893" d="M 63 504 L 81 504 "/>
<path transform="matrix(.2663378,0,0,.2663378,-5.992601,-7.8569948)" stroke-width="3" stroke-linecap="round" stroke-linejoin="round" fill="none" stroke="#011893" d="M 63 540 L 81 540 "/>
<path transform="matrix(.2663378,0,0,.2663378,-5.992601,-7.8569948)" stroke-width="3" stroke-linecap="round" stroke-linejoin="round" fill="none" stroke="#011893" d="M 63 576 L 81 576 "/>
<path transform="matrix(.2663378,0,0,.2663378,-5.992601,-7.8569948)" stroke-width="3" stroke-linecap="round" stroke-linejoin="round" fill="none" stroke="#011893" d="M 63 612 L 81 612 "/>
<path transform="matrix(.2663378,0,0,.2663378,-5.992601,-7.8569948)" stroke-width="3" stroke-linecap="round" stroke-linejoin="round" fill="none" stroke="#011893" d="M 63 648 L 81 648 "/>
<path transform="matrix(.2663378,0,0,.2663378,-5.992601,-7.8569948)" stroke-width="3" stroke-linecap="round" stroke-linejoin="round" fill="none" stroke="#011893" d="M 63 684 L 81 684 "/>
<path transform="matrix(.2663378,0,0,.2663378,-5.992601,-7.8569948)" stroke-width="3" stroke-linecap="round" stroke-linejoin="round" fill="none" stroke="#011893" d="M 63 720 L 81 720 "/>
<path transform="matrix(.2663378,0,0,.2663378,-5.992601,-7.8569948)" stroke-width="3" stroke-linecap="round" stroke-linejoin="round" fill="none" stroke="#011893" d="M 63 756 L 81 756 "/>
<path transform="matrix(.2663378,0,0,.2663378,-5.992601,-7.8569948)" stroke-width="3" stroke-linecap="round" stroke-linejoin="round" fill="none" stroke="#011893" d="M 63 792 L 81 792 "/>
<path transform="matrix(.2663378,0,0,.2663378,-5.992601,-7.8569948)" stroke-width="3" stroke-linecap="round" stroke-linejoin="round" fill="none" stroke="#011893" d="M 72 459 L 72 477 "/>
<path transform="matrix(.2663378,0,0,.2663378,-5.992601,-7.8569948)" stroke-width="3" stroke-linecap="round" stroke-linejoin="round" fill="none" stroke="#011893" d="M 51.9 792 L 804.9 792 "/>
<path transform="matrix(1,0,0,-1,0,216)" d="M 211.3657 12.9174 L 208.3827 14.03601 L 208.3827 11.79878 Z M 211.3657 12.9174 " fill="#011893"/>
<path transform="matrix(.2663378,0,0,.2663378,-5.992601,-7.8569948)" stroke-width="3" stroke-linecap="butt" stroke-miterlimit="10" stroke-linejoin="miter" fill="none" stroke="#011893" d="M 816.1 792 L 804.9 787.8 L 804.9 796.2 Z M 816.1 792 "/>
<path transform="matrix(1,0,0,-1,0,216)" d="M 4.847349 12.9174 L 7.830333 11.79878 L 7.830333 14.03601 Z M 4.847349 12.9174 " fill="#011893"/>
<path transform="matrix(.2663378,0,0,.2663378,-5.992601,-7.8569948)" stroke-width="3" stroke-linecap="butt" stroke-miterlimit="10" stroke-linejoin="miter" fill="none" stroke="#011893" d="M 40.7 792 L 51.9 796.2 L 51.9 787.8 Z M 40.7 792 "/>
<path transform="matrix(.2663378,0,0,.2663378,-5.992601,-7.8569948)" stroke-width="3" stroke-linecap="round" stroke-linejoin="round" fill="none" stroke="#011893" d="M 108 783 L 108 801 "/>
<path transform="matrix(.2663378,0,0,.2663378,-5.992601,-7.8569948)" stroke-width="3" stroke-linecap="round" stroke-linejoin="round" fill="none" stroke="#011893" d="M 144 783 L 144 801 "/>
<path transform="matrix(.2663378,0,0,.2663378,-5.992601,-7.8569948)" stroke-width="3" stroke-linecap="round" stroke-linejoin="round" fill="none" stroke="#011893" d="M 180 783 L 180 801 "/>
<path transform="matrix(.2663378,0,0,.2663378,-5.992601,-7.8569948)" stroke-width="3" stroke-linecap="round" stroke-linejoin="round" fill="none" stroke="#011893" d="M 216 783 L 216 801 "/>
<path transform="matrix(.2663378,0,0,.2663378,-5.992601,-7.8569948)" stroke-width="3" stroke-linecap="round" stroke-linejoin="round" fill="none" stroke="#011893" d="M 252 783 L 252 801 "/>
<path transform="matrix(.2663378,0,0,.2663378,-5.992601,-7.8569948)" stroke-width="3" stroke-linecap="round" stroke-linejoin="round" fill="none" stroke="#011893" d="M 288 783 L 288 801 "/>
<path transform="matrix(.2663378,0,0,.2663378,-5.992601,-7.8569948)" stroke-width="3" stroke-linecap="round" stroke-linejoin="round" fill="none" stroke="#011893" d="M 360 783 L 360 801 "/>
<path transform="matrix(.2663378,0,0,.2663378,-5.992601,-7.8569948)" stroke-width="3" stroke-linecap="round" stroke-linejoin="round" fill="none" stroke="#011893" d="M 396 783 L 396 801 "/>
<path transform="matrix(.2663378,0,0,.2663378,-5.992601,-7.8569948)" stroke-width="3" stroke-linecap="round" stroke-linejoin="round" fill="none" stroke="#011893" d="M 432 783 L 432 801 "/>
<path transform="matrix(.2663378,0,0,.2663378,-5.992601,-7.8569948)" stroke-width="3" stroke-linecap="round" stroke-linejoin="round" fill="none" stroke="#011893" d="M 468 783 L 468 801 "/>
<path transform="matrix(.2663378,0,0,.2663378,-5.992601,-7.8569948)" stroke-width="3" stroke-linecap="round" stroke-linejoin="round" fill="none" stroke="#011893" d="M 504 783 L 504 801 "/>
<path transform="matrix(.2663378,0,0,.2663378,-5.992601,-7.8569948)" stroke-width="3" stroke-linecap="round" stroke-linejoin="round" fill="none" stroke="#011893" d="M 540 783 L 540 801 "/>
<path transform="matrix(.2663378,0,0,.2663378,-5.992601,-7.8569948)" stroke-width="3" stroke-linecap="round" stroke-linejoin="round" fill="none" stroke="#011893" d="M 576 783 L 576 801 "/>
<path transform="matrix(.2663378,0,0,.2663378,-5.992601,-7.8569948)" stroke-width="3" stroke-linecap="round" stroke-linejoin="round" fill="none" stroke="#011893" d="M 324 783 L 324 801 "/>
<path transform="matrix(.2663378,0,0,.2663378,-5.992601,-7.8569948)" stroke-width="3" stroke-linecap="round" stroke-linejoin="round" fill="none" stroke="#011893" d="M 63 468 L 81 468 "/>
<path transform="matrix(.2663378,0,0,.2663378,-5.992601,-7.8569948)" stroke-width="3" stroke-linecap="round" stroke-linejoin="round" fill="none" stroke="#011893" d="M 612 783 L 612 801 "/>
<path transform="matrix(.2663378,0,0,.2663378,-5.992601,-7.8569948)" stroke-width="3" stroke-linecap="round" stroke-linejoin="round" fill="none" stroke="#011893" d="M 648 783 L 648 801 "/>
<path transform="matrix(.2663378,0,0,.2663378,-5.992601,-7.8569948)" stroke-width="3" stroke-linecap="round" stroke-linejoin="round" fill="none" stroke="#011893" d="M 684 783 L 684 801 "/>
<path transform="matrix(.2663378,0,0,.2663378,-5.992601,-7.8569948)" stroke-width="3" stroke-linecap="round" stroke-linejoin="round" fill="none" stroke="#011893" d="M 720 783 L 720 801 "/>
<path transform="matrix(.2663378,0,0,.2663378,-5.992601,-7.8569948)" stroke-width="3" stroke-linecap="round" stroke-linejoin="round" fill="none" stroke="#011893" d="M 63 108 L 81 108 "/>
<path transform="matrix(.2663378,0,0,.2663378,-5.992601,-7.8569948)" stroke-width="3" stroke-linecap="round" stroke-linejoin="round" fill="none" stroke="#011893" d="M 63 72 L 81 72 "/>
<path transform="matrix(.2663378,0,0,.2663378,-5.992601,-7.8569948)" stroke-width="3" stroke-linecap="round" stroke-linejoin="round" fill="none" stroke="#011893" d="M 756 783 L 756 801 "/>
<path transform="matrix(.2663378,0,0,.2663378,-5.992601,-7.8569948)" stroke-width="3" stroke-linecap="round" stroke-linejoin="round" fill="none" stroke="#011893" d="M 792 783 L 792 801 "/>
</g>
</g>
</svg>
