<?xml version="1.0" encoding="UTF-8" standalone="no"?>
<!DOCTYPE svg PUBLIC "-//W3C//DTD SVG 1.1//EN" "http://www.w3.org/Graphics/SVG/1.1/DTD/svg11.dtd">
<svg xmlns="http://www.w3.org/2000/svg" xmlns:xlink="http://www.w3.org/1999/xlink" version="1.1" width="288pt" height="83pt" viewBox="0 0 288 83">
<g enable-background="new">
<clipPath id="cp0">
<path transform="matrix(1,0,0,-1,0,83)" d="M 0 0 L 288 0 L 288 83 L 0 83 Z "/>
</clipPath>
<g clip-path="url(#cp0)">
<path transform="matrix(1,0,0,-1,0,83)" d="M 0 83 L 288 83 L 288 0 L 0 0 Z " fill="#ffffff"/>
</g>
<clipPath id="cp1">
<path transform="matrix(1,0,0,-1,0,83)" d="M 0 .000001907349 L 288 .000001907349 L 288 83 L 0 83 Z "/>
</clipPath>
<g clip-path="url(#cp1)">
<path transform="matrix(1,0,0,-1,0,83)" d="M -33.95821 -150.0881 L 318.08958 -150.0881 L 318.08958 93.7513 L -33.95821 93.7513 Z " fill="#ffffff"/>
<path transform="matrix(.4298508,0,0,.4300518,-33.95821,-10.751297)" stroke-width="1" stroke-linecap="round" stroke-linejoin="round" fill="none" stroke="#000000" d="M 270 27 L 486 27 L 486 171 L 270 171 Z "/>
<path transform="matrix(.4298508,0,0,.4300518,-33.95821,-10.751297)" stroke-width="1" stroke-linecap="round" stroke-linejoin="round" fill="none" stroke="#000000" d="M 486 27 L 747 27 L 747 171 L 486 171 Z "/>
<path transform="matrix(1,0,0,-1,0,83)" d="M 32.39525 69.39488 C 33.90606 67.88334 33.90606 65.43273 32.39525 63.92118 C 30.88445 62.40968 28.43495 62.40968 26.92415 63.92118 C 25.41334 65.43273 25.41334 67.88334 26.92415 69.39488 C 28.43495 70.90638 30.88445 70.90638 32.39525 69.39488 " fill="#47a2f1"/>
<path transform="matrix(.4298508,0,0,.4300518,-33.95821,-10.751297)" stroke-width="1" stroke-linecap="round" stroke-linejoin="round" fill="none" stroke="#000000" d="M 154.364 56.63605 C 157.8787 60.15076 157.8787 65.84924 154.364 69.36395 C 150.8492 72.87869 145.1508 72.87869 141.636 69.36395 C 138.1213 65.84924 138.1213 60.15076 141.636 56.63605 C 145.1508 53.12131 150.8492 53.12131 154.364 56.63605 "/>
<path transform="matrix(1,0,0,-1,0,83)" d="M 55.60721 69.39488 C 57.11801 67.88334 57.11801 65.43273 55.60721 63.92118 C 54.09637 62.40968 51.64691 62.40968 50.13607 63.92118 C 48.62528 65.43273 48.62528 67.88334 50.13607 69.39488 C 51.64691 70.90638 54.09637 70.90638 55.60721 69.39488 " fill="#47a2f1"/>
<path transform="matrix(.4298508,0,0,.4300518,-33.95821,-10.751297)" stroke-width="1" stroke-linecap="round" stroke-linejoin="round" fill="none" stroke="#000000" d="M 208.364 56.63605 C 211.8787 60.15076 211.8787 65.84924 208.364 69.36395 C 204.8492 72.87869 199.1508 72.87869 195.636 69.36395 C 192.1213 65.84924 192.1213 60.15076 195.636 56.63605 C 199.1508 53.12131 204.8492 53.12131 208.364 56.63605 "/>
<path transform="matrix(1,0,0,-1,0,83)" d="M 16.92062 53.91302 C 18.43144 52.40147 18.43144 49.95086 16.92062 48.43932 C 15.40982 46.92781 12.96033 46.92781 11.44953 48.43932 C 9.938713 49.95086 9.938713 52.40147 11.44953 53.91302 C 12.96033 55.42452 15.40982 55.42452 16.92062 53.91302 " fill="#47a2f1"/>
<path transform="matrix(.4298508,0,0,.4300518,-33.95821,-10.751297)" stroke-width="1" stroke-linecap="round" stroke-linejoin="round" fill="none" stroke="#000000" d="M 118.364 92.63605 C 121.8787 96.15076 121.8787 101.8492 118.364 105.364 C 114.8492 108.8787 109.1508 108.8787 105.636 105.364 C 102.1213 101.8492 102.1213 96.15076 105.636 92.63605 C 109.1508 89.12131 114.8492 89.12131 118.364 92.63605 "/>
<path transform="matrix(1,0,0,-1,0,83)" d="M 71.08184 53.91302 C 72.59264 52.40147 72.59264 49.95086 71.08184 48.43932 C 69.571 46.92781 67.12154 46.92781 65.6107 48.43932 C 64.0999 49.95086 64.0999 52.40147 65.6107 53.91302 C 67.12154 55.42452 69.571 55.42452 71.08184 53.91302 " fill="#47a2f1"/>
<path transform="matrix(.4298508,0,0,.4300518,-33.95821,-10.751297)" stroke-width="1" stroke-linecap="round" stroke-linejoin="round" fill="none" stroke="#000000" d="M 244.364 92.63605 C 247.8787 96.15076 247.8787 101.8492 244.364 105.364 C 240.8492 108.8787 235.1508 108.8787 231.636 105.364 C 228.1213 101.8492 228.1213 96.15076 231.636 92.63605 C 235.1508 89.12131 240.8492 89.12131 244.364 92.63605 "/>
<path transform="matrix(1,0,0,-1,0,83)" d="M 32.39525 38.43113 C 33.90606 36.91962 33.90606 34.46898 32.39525 32.95747 C 30.88445 31.44595 28.43495 31.44595 26.92415 32.95747 C 25.41334 34.46898 25.41334 36.91962 26.92415 38.43113 C 28.43495 39.94265 30.88445 39.94265 32.39525 38.43113 " fill="#47a2f1"/>
<path transform="matrix(.4298508,0,0,.4300518,-33.95821,-10.751297)" stroke-width="1" stroke-linecap="round" stroke-linejoin="round" fill="none" stroke="#000000" d="M 154.364 128.636 C 157.8787 132.1508 157.8787 137.8492 154.364 141.364 C 150.8492 144.8787 145.1508 144.8787 141.636 141.364 C 138.1213 137.8492 138.1213 132.1508 141.636 128.636 C 145.1508 125.1213 150.8492 125.1213 154.364 128.636 "/>
<path transform="matrix(1,0,0,-1,0,83)" d="M 55.60721 38.43113 C 57.11801 36.91962 57.11801 34.46898 55.60721 32.95747 C 54.09637 31.44595 51.64691 31.44595 50.13607 32.95747 C 48.62528 34.46898 48.62528 36.91962 50.13607 38.43113 C 51.64691 39.94265 54.09637 39.94265 55.60721 38.43113 " fill="#47a2f1"/>
<path transform="matrix(.4298508,0,0,.4300518,-33.95821,-10.751297)" stroke-width="1" stroke-linecap="round" stroke-linejoin="round" fill="none" stroke="#000000" d="M 208.364 128.636 C 211.8787 132.1508 211.8787 137.8492 208.364 141.364 C 204.8492 144.8787 199.1508 144.8787 195.636 141.364 C 192.1213 137.8492 192.1213 132.1508 195.636 128.636 C 199.1508 125.1213 204.8492 125.1213 208.364 128.636 "/>
<path transform="matrix(1,0,0,-1,0,83)" d="M 44.00124 53.91302 C 45.51204 52.40147 45.51204 49.95086 44.00124 48.43932 C 42.49042 46.92781 40.04092 46.92781 38.53012 48.43932 C 37.01931 49.95086 37.01931 52.40147 38.53012 53.91302 C 40.04092 55.42452 42.49042 55.42452 44.00124 53.91302 " fill="#47a2f1"/>
<path transform="matrix(.4298508,0,0,.4300518,-33.95821,-10.751297)" stroke-width="1" stroke-linecap="round" stroke-linejoin="round" fill="none" stroke="#000000" d="M 181.364 92.63605 C 184.8787 96.15076 184.8787 101.8492 181.364 105.364 C 177.8492 108.8787 172.1508 108.8787 168.636 105.364 C 165.1213 101.8492 165.1213 96.15076 168.636 92.63605 C 172.1508 89.12131 177.8492 89.12131 181.364 92.63605 "/>
<path transform="matrix(1,0,0,-1,0,83)" d="M 118.3654 69.39488 C 119.8762 67.88334 119.8762 65.43273 118.3654 63.92118 C 116.8546 62.40968 114.4051 62.40968 112.8943 63.92118 C 111.3835 65.43273 111.3835 67.88334 112.8943 69.39488 C 114.4051 70.90638 116.8546 70.90638 118.3654 69.39488 " fill="#47a2f1"/>
<path transform="matrix(.4298508,0,0,.4300518,-33.95821,-10.751297)" stroke-width="1" stroke-linecap="round" stroke-linejoin="round" fill="none" stroke="#000000" d="M 354.364 56.63605 C 357.8787 60.15076 357.8787 65.84924 354.364 69.36395 C 350.8492 72.87869 345.1508 72.87869 341.636 69.36395 C 338.1213 65.84924 338.1213 60.15076 341.636 56.63605 C 345.1508 53.12131 350.8492 53.12131 354.364 56.63605 "/>
<path transform="matrix(1,0,0,-1,0,83)" d="M 141.5774 69.39488 C 143.0882 67.88334 143.0882 65.43273 141.5774 63.92118 C 140.0665 62.40968 137.6171 62.40968 136.1062 63.92118 C 134.5954 65.43273 134.5954 67.88334 136.1062 69.39488 C 137.6171 70.90638 140.0665 70.90638 141.5774 69.39488 " fill="#47a2f1"/>
<path transform="matrix(.4298508,0,0,.4300518,-33.95821,-10.751297)" stroke-width="1" stroke-linecap="round" stroke-linejoin="round" fill="none" stroke="#000000" d="M 408.364 56.63605 C 411.8787 60.15076 411.8787 65.84924 408.364 69.36395 C 404.8492 72.87869 399.1508 72.87869 395.636 69.36395 C 392.1213 65.84924 392.1213 60.15076 395.636 56.63605 C 399.1508 53.12131 404.8492 53.12131 408.364 56.63605 "/>
<path transform="matrix(1,0,0,-1,0,83)" d="M 95.15348 59.50369 C 96.66428 57.99214 96.66428 55.54154 95.15348 54.02999 C 93.64264 52.51849 91.19318 52.51849 89.68234 54.02999 C 88.17155 55.54154 88.17155 57.99214 89.68234 59.50369 C 91.19318 61.01519 93.64264 61.01519 95.15348 59.50369 " fill="#47a2f1"/>
<path transform="matrix(.4298508,0,0,.4300518,-33.95821,-10.751297)" stroke-width="1" stroke-linecap="round" stroke-linejoin="round" fill="none" stroke="#000000" d="M 300.364 79.63605 C 303.8787 83.15076 303.8787 88.84924 300.364 92.36395 C 296.8492 95.87868 291.1508 95.87868 287.636 92.36395 C 284.1213 88.84924 284.1213 83.15076 287.636 79.63605 C 291.1508 76.12131 296.8492 76.12131 300.364 79.63605 "/>
<path transform="matrix(1,0,0,-1,0,83)" d="M 118.3654 38.43113 C 119.8762 36.91962 119.8762 34.46898 118.3654 32.95747 C 116.8546 31.44595 114.4051 31.44595 112.8943 32.95747 C 111.3835 34.46898 111.3835 36.91962 112.8943 38.43113 C 114.4051 39.94265 116.8546 39.94265 118.3654 38.43113 " fill="#47a2f1"/>
<path transform="matrix(.4298508,0,0,.4300518,-33.95821,-10.751297)" stroke-width="1" stroke-linecap="round" stroke-linejoin="round" fill="none" stroke="#000000" d="M 354.364 128.636 C 357.8787 132.1508 357.8787 137.8492 354.364 141.364 C 350.8492 144.8787 345.1508 144.8787 341.636 141.364 C 338.1213 137.8492 338.1213 132.1508 341.636 128.636 C 345.1508 125.1213 350.8492 125.1213 354.364 128.636 "/>
<path transform="matrix(1,0,0,-1,0,83)" d="M 141.5774 38.43113 C 143.0882 36.91962 143.0882 34.46898 141.5774 32.95747 C 140.0665 31.44595 137.6171 31.44595 136.1062 32.95747 C 134.5954 34.46898 134.5954 36.91962 136.1062 38.43113 C 137.6171 39.94265 140.0665 39.94265 141.5774 38.43113 " fill="#47a2f1"/>
<path transform="matrix(.4298508,0,0,.4300518,-33.95821,-10.751297)" stroke-width="1" stroke-linecap="round" stroke-linejoin="round" fill="none" stroke="#000000" d="M 408.364 128.636 C 411.8787 132.1508 411.8787 137.8492 408.364 141.364 C 404.8492 144.8787 399.1508 144.8787 395.636 141.364 C 392.1213 137.8492 392.1213 132.1508 395.636 128.636 C 399.1508 125.1213 404.8492 125.1213 408.364 128.636 "/>
<path transform="matrix(1,0,0,-1,0,83)" d="M 129.9714 53.91302 C 131.4822 52.40147 131.4822 49.95086 129.9714 48.43932 C 128.4606 46.92781 126.0111 46.92781 124.5003 48.43932 C 122.9895 49.95086 122.9895 52.40147 124.5003 53.91302 C 126.0111 55.42452 128.4606 55.42452 129.9714 53.91302 " fill="#47a2f1"/>
<path transform="matrix(.4298508,0,0,.4300518,-33.95821,-10.751297)" stroke-width="1" stroke-linecap="round" stroke-linejoin="round" fill="none" stroke="#000000" d="M 381.364 92.63605 C 384.8787 96.15076 384.8787 101.8492 381.364 105.364 C 377.8492 108.8787 372.1508 108.8787 368.636 105.364 C 365.1213 101.8492 365.1213 96.15076 368.636 92.63605 C 372.1508 89.12131 377.8492 89.12131 381.364 92.63605 "/>
<path transform="matrix(1,0,0,-1,0,83)" d="M 95.15348 47.89229 C 96.66428 46.38074 96.66428 43.93014 95.15348 42.41861 C 93.64264 40.90709 91.19318 40.90709 89.68234 42.41861 C 88.17155 43.93014 88.17155 46.38074 89.68234 47.89229 C 91.19318 49.40379 93.64264 49.40379 95.15348 47.89229 " fill="#47a2f1"/>
<path transform="matrix(.4298508,0,0,.4300518,-33.95821,-10.751297)" stroke-width="1" stroke-linecap="round" stroke-linejoin="round" fill="none" stroke="#000000" d="M 300.364 106.636 C 303.8787 110.1508 303.8787 115.8492 300.364 119.364 C 296.8492 122.8787 291.1508 122.8787 287.636 119.364 C 284.1213 115.8492 284.1213 110.1508 287.636 106.636 C 291.1508 103.1213 296.8492 103.1213 300.364 106.636 "/>
<path transform="matrix(1,0,0,-1,0,83)" d="M 106.7595 69.39488 C 108.2702 67.88334 108.2702 65.43273 106.7595 63.92118 C 105.2486 62.40968 102.7992 62.40968 101.2883 63.92118 C 99.77752 65.43273 99.77752 67.88334 101.2883 69.39488 C 102.7992 70.90638 105.2486 70.90638 106.7595 69.39488 " fill="#47a2f1"/>
<path transform="matrix(.4298508,0,0,.4300518,-33.95821,-10.751297)" stroke-width="1" stroke-linecap="round" stroke-linejoin="round" fill="none" stroke="#000000" d="M 327.364 56.63605 C 330.8787 60.15076 330.8787 65.84924 327.364 69.36395 C 323.8492 72.87869 318.1508 72.87869 314.636 69.36395 C 311.1213 65.84924 311.1213 60.15076 314.636 56.63605 C 318.1508 53.12131 323.8492 53.12131 327.364 56.63605 "/>
<path transform="matrix(1,0,0,-1,0,83)" d="M 153.1833 69.39488 C 154.6941 67.88334 154.6941 65.43273 153.1833 63.92118 C 151.6725 62.40968 149.223 62.40968 147.7122 63.92118 C 146.2014 65.43273 146.2014 67.88334 147.7122 69.39488 C 149.223 70.90638 151.6725 70.90638 153.1833 69.39488 " fill="#47a2f1"/>
<path transform="matrix(.4298508,0,0,.4300518,-33.95821,-10.751297)" stroke-width="1" stroke-linecap="round" stroke-linejoin="round" fill="none" stroke="#000000" d="M 435.364 56.63605 C 438.8787 60.15076 438.8787 65.84924 435.364 69.36395 C 431.8492 72.87869 426.1508 72.87869 422.636 69.36395 C 419.1213 65.84924 419.1213 60.15076 422.636 56.63605 C 426.1508 53.12131 431.8492 53.12131 435.364 56.63605 "/>
<path transform="matrix(1,0,0,-1,0,83)" d="M 106.7595 38.43113 C 108.2702 36.91962 108.2702 34.46898 106.7595 32.95747 C 105.2486 31.44595 102.7992 31.44595 101.2883 32.95747 C 99.77752 34.46898 99.77752 36.91962 101.2883 38.43113 C 102.7992 39.94265 105.2486 39.94265 106.7595 38.43113 " fill="#47a2f1"/>
<path transform="matrix(.4298508,0,0,.4300518,-33.95821,-10.751297)" stroke-width="1" stroke-linecap="round" stroke-linejoin="round" fill="none" stroke="#000000" d="M 327.364 128.636 C 330.8787 132.1508 330.8787 137.8492 327.364 141.364 C 323.8492 144.8787 318.1508 144.8787 314.636 141.364 C 311.1213 137.8492 311.1213 132.1508 314.636 128.636 C 318.1508 125.1213 323.8492 125.1213 327.364 128.636 "/>
<path transform="matrix(1,0,0,-1,0,83)" d="M 153.1833 38.43113 C 154.6941 36.91962 154.6941 34.46898 153.1833 32.95747 C 151.6725 31.44595 149.223 31.44595 147.7122 32.95747 C 146.2014 34.46898 146.2014 36.91962 147.7122 38.43113 C 149.223 39.94265 151.6725 39.94265 153.1833 38.43113 " fill="#47a2f1"/>
<path transform="matrix(.4298508,0,0,.4300518,-33.95821,-10.751297)" stroke-width="1" stroke-linecap="round" stroke-linejoin="round" fill="none" stroke="#000000" d="M 435.364 128.636 C 438.8787 132.1508 438.8787 137.8492 435.364 141.364 C 431.8492 144.8787 426.1508 144.8787 422.636 141.364 C 419.1213 137.8492 419.1213 132.1508 422.636 128.636 C 426.1508 125.1213 431.8492 125.1213 435.364 128.636 "/>
<path transform="matrix(1,0,0,-1,0,83)" d="M 164.7893 59.50369 C 166.3001 57.99214 166.3001 55.54154 164.7893 54.02999 C 163.2785 52.51849 160.829 52.51849 159.3182 54.02999 C 157.8074 55.54154 157.8074 57.99214 159.3182 59.50369 C 160.829 61.01519 163.2785 61.01519 164.7893 59.50369 " fill="#47a2f1"/>
<path transform="matrix(.4298508,0,0,.4300518,-33.95821,-10.751297)" stroke-width="1" stroke-linecap="round" stroke-linejoin="round" fill="none" stroke="#000000" d="M 462.364 79.63605 C 465.8787 83.15076 465.8787 88.84924 462.364 92.36395 C 458.8492 95.87868 453.1508 95.87868 449.636 92.36395 C 446.1213 88.84924 446.1213 83.15076 449.636 79.63605 C 453.1508 76.12131 458.8492 76.12131 462.364 79.63605 "/>
<path transform="matrix(1,0,0,-1,0,83)" d="M 164.7893 47.89229 C 166.3001 46.38074 166.3001 43.93014 164.7893 42.41861 C 163.2785 40.90709 160.829 40.90709 159.3182 42.41861 C 157.8074 43.93014 157.8074 46.38074 159.3182 47.89229 C 160.829 49.40379 163.2785 49.40379 164.7893 47.89229 " fill="#47a2f1"/>
<path transform="matrix(.4298508,0,0,.4300518,-33.95821,-10.751297)" stroke-width="1" stroke-linecap="round" stroke-linejoin="round" fill="none" stroke="#000000" d="M 462.364 106.636 C 465.8787 110.1508 465.8787 115.8492 462.364 119.364 C 458.8492 122.8787 453.1508 122.8787 449.636 119.364 C 446.1213 115.8492 446.1213 110.1508 449.636 106.636 C 453.1508 103.1213 458.8492 103.1213 462.364 106.636 "/>
<path transform="matrix(1,0,0,-1,0,83)" d="M 222.3893 73.26535 C 223.9001 71.7538 223.9001 69.30319 222.3893 67.79165 C 220.8785 66.28014 218.429 66.28014 216.9182 67.79165 C 215.4074 69.30319 215.4074 71.7538 216.9182 73.26535 C 218.429 74.77685 220.8785 74.77685 222.3893 73.26535 " fill="#47a2f1"/>
<path transform="matrix(.4298508,0,0,.4300518,-33.95821,-10.751297)" stroke-width="1" stroke-linecap="round" stroke-linejoin="round" fill="none" stroke="#000000" d="M 596.364 47.63605 C 599.8787 51.15076 599.8787 56.84924 596.364 60.36395 C 592.8492 63.87869 587.1508 63.87869 583.636 60.36395 C 580.1213 56.84924 580.1213 51.15076 583.636 47.63605 C 587.1508 44.12131 592.8492 44.12131 596.364 47.63605 "/>
<path transform="matrix(1,0,0,-1,0,83)" d="M 245.6012 73.26535 C 247.112 71.7538 247.112 69.30319 245.6012 67.79165 C 244.0904 66.28014 241.6409 66.28014 240.1301 67.79165 C 238.6193 69.30319 238.6193 71.7538 240.1301 73.26535 C 241.6409 74.77685 244.0904 74.77685 245.6012 73.26535 " fill="#47a2f1"/>
<path transform="matrix(.4298508,0,0,.4300518,-33.95821,-10.751297)" stroke-width="1" stroke-linecap="round" stroke-linejoin="round" fill="none" stroke="#000000" d="M 650.364 47.63605 C 653.8787 51.15076 653.8787 56.84924 650.364 60.36395 C 646.8492 63.87869 641.1508 63.87869 637.636 60.36395 C 634.1213 56.84924 634.1213 51.15076 637.636 47.63605 C 641.1508 44.12131 646.8492 44.12131 650.364 47.63605 "/>
<path transform="matrix(1,0,0,-1,0,83)" d="M 222.3893 34.56066 C 223.9001 33.04916 223.9001 30.59851 222.3893 29.08701 C 220.8785 27.57549 218.429 27.57549 216.9182 29.08701 C 215.4074 30.59851 215.4074 33.04916 216.9182 34.56066 C 218.429 36.07218 220.8785 36.07218 222.3893 34.56066 " fill="#47a2f1"/>
<path transform="matrix(.4298508,0,0,.4300518,-33.95821,-10.751297)" stroke-width="1" stroke-linecap="round" stroke-linejoin="round" fill="none" stroke="#000000" d="M 596.364 137.636 C 599.8787 141.1508 599.8787 146.8492 596.364 150.364 C 592.8492 153.8787 587.1508 153.8787 583.636 150.364 C 580.1213 146.8492 580.1213 141.1508 583.636 137.636 C 587.1508 134.1213 592.8492 134.1213 596.364 137.636 "/>
<path transform="matrix(1,0,0,-1,0,83)" d="M 245.6012 34.56066 C 247.112 33.04916 247.112 30.59851 245.6012 29.08701 C 244.0904 27.57549 241.6409 27.57549 240.1301 29.08701 C 238.6193 30.59851 238.6193 33.04916 240.1301 34.56066 C 241.6409 36.07218 244.0904 36.07218 245.6012 34.56066 " fill="#47a2f1"/>
<path transform="matrix(.4298508,0,0,.4300518,-33.95821,-10.751297)" stroke-width="1" stroke-linecap="round" stroke-linejoin="round" fill="none" stroke="#000000" d="M 650.364 137.636 C 653.8787 141.1508 653.8787 146.8492 650.364 150.364 C 646.8492 153.8787 641.1508 153.8787 637.636 150.364 C 634.1213 146.8492 634.1213 141.1508 637.636 137.636 C 641.1508 134.1213 646.8492 134.1213 650.364 137.636 "/>
<path transform="matrix(1,0,0,-1,0,83)" d="M 233.9953 53.91302 C 235.5061 52.40147 235.5061 49.95086 233.9953 48.43932 C 232.4844 46.92781 230.035 46.92781 228.5241 48.43932 C 227.0133 49.95086 227.0133 52.40147 228.5241 53.91302 C 230.035 55.42452 232.4844 55.42452 233.9953 53.91302 " fill="#47a2f1"/>
<path transform="matrix(.4298508,0,0,.4300518,-33.95821,-10.751297)" stroke-width="1" stroke-linecap="round" stroke-linejoin="round" fill="none" stroke="#000000" d="M 623.364 92.63605 C 626.8787 96.15076 626.8787 101.8492 623.364 105.364 C 619.8492 108.8787 614.1508 108.8787 610.636 105.364 C 607.1213 101.8492 607.1213 96.15076 610.636 92.63605 C 614.1508 89.12131 619.8492 89.12131 623.364 92.63605 "/>
<path transform="matrix(1,0,0,-1,0,83)" d="M 212.5027 73.26535 C 214.0135 71.7538 214.0135 69.30319 212.5027 67.79165 C 210.9919 66.28014 208.5424 66.28014 207.0316 67.79165 C 205.5208 69.30319 205.5208 71.7538 207.0316 73.26535 C 208.5424 74.77685 210.9919 74.77685 212.5027 73.26535 " fill="#47a2f1"/>
<path transform="matrix(.4298508,0,0,.4300518,-33.95821,-10.751297)" stroke-width="1" stroke-linecap="round" stroke-linejoin="round" fill="none" stroke="#000000" d="M 573.364 47.63605 C 576.8787 51.15076 576.8787 56.84924 573.364 60.36395 C 569.8492 63.87869 564.1508 63.87869 560.636 60.36395 C 557.1213 56.84924 557.1213 51.15076 560.636 47.63605 C 564.1508 44.12131 569.8492 44.12131 573.364 47.63605 "/>
<path transform="matrix(1,0,0,-1,0,83)" d="M 255.4878 73.26535 C 256.9986 71.7538 256.9986 69.30319 255.4878 67.79165 C 253.977 66.28014 251.5275 66.28014 250.0167 67.79165 C 248.5059 69.30319 248.5059 71.7538 250.0167 73.26535 C 251.5275 74.77685 253.977 74.77685 255.4878 73.26535 " fill="#47a2f1"/>
<path transform="matrix(.4298508,0,0,.4300518,-33.95821,-10.751297)" stroke-width="1" stroke-linecap="round" stroke-linejoin="round" fill="none" stroke="#000000" d="M 673.364 47.63605 C 676.8787 51.15076 676.8787 56.84924 673.364 60.36395 C 669.8492 63.87869 664.1508 63.87869 660.636 60.36395 C 657.1213 56.84924 657.1213 51.15076 660.636 47.63605 C 664.1508 44.12131 669.8492 44.12131 673.364 47.63605 "/>
<path transform="matrix(1,0,0,-1,0,83)" d="M 212.5027 34.56066 C 214.0135 33.04916 214.0135 30.59851 212.5027 29.08701 C 210.9919 27.57549 208.5424 27.57549 207.0316 29.08701 C 205.5208 30.59851 205.5208 33.04916 207.0316 34.56066 C 208.5424 36.07218 210.9919 36.07218 212.5027 34.56066 " fill="#47a2f1"/>
<path transform="matrix(.4298508,0,0,.4300518,-33.95821,-10.751297)" stroke-width="1" stroke-linecap="round" stroke-linejoin="round" fill="none" stroke="#000000" d="M 573.364 137.636 C 576.8787 141.1508 576.8787 146.8492 573.364 150.364 C 569.8492 153.8787 564.1508 153.8787 560.636 150.364 C 557.1213 146.8492 557.1213 141.1508 560.636 137.636 C 564.1508 134.1213 569.8492 134.1213 573.364 137.636 "/>
<path transform="matrix(1,0,0,-1,0,83)" d="M 255.4878 34.56066 C 256.9986 33.04916 256.9986 30.59851 255.4878 29.08701 C 253.977 27.57549 251.5275 27.57549 250.0167 29.08701 C 248.5059 30.59851 248.5059 33.04916 250.0167 34.56066 C 251.5275 36.07218 253.977 36.07218 255.4878 34.56066 " fill="#47a2f1"/>
<path transform="matrix(.4298508,0,0,.4300518,-33.95821,-10.751297)" stroke-width="1" stroke-linecap="round" stroke-linejoin="round" fill="none" stroke="#000000" d="M 673.364 137.636 C 676.8787 141.1508 676.8787 146.8492 673.364 150.364 C 669.8492 153.8787 664.1508 153.8787 660.636 150.364 C 657.1213 146.8492 657.1213 141.1508 660.636 137.636 C 664.1508 134.1213 669.8492 134.1213 673.364 137.636 "/>
<path transform="matrix(1,0,0,-1,0,83)" d="M 202.6162 73.26535 C 204.127 71.7538 204.127 69.30319 202.6162 67.79165 C 201.1053 66.28014 198.6559 66.28014 197.145 67.79165 C 195.6342 69.30319 195.6342 71.7538 197.145 73.26535 C 198.6559 74.77685 201.1053 74.77685 202.6162 73.26535 " fill="#47a2f1"/>
<path transform="matrix(.4298508,0,0,.4300518,-33.95821,-10.751297)" stroke-width="1" stroke-linecap="round" stroke-linejoin="round" fill="none" stroke="#000000" d="M 550.364 47.63605 C 553.8787 51.15076 553.8787 56.84924 550.364 60.36395 C 546.8492 63.87869 541.1508 63.87869 537.636 60.36395 C 534.1213 56.84924 534.1213 51.15076 537.636 47.63605 C 541.1508 44.12131 546.8492 44.12131 550.364 47.63605 "/>
<path transform="matrix(1,0,0,-1,0,83)" d="M 265.3744 73.26535 C 266.8852 71.7538 266.8852 69.30319 265.3744 67.79165 C 263.8635 66.28014 261.4141 66.28014 259.9032 67.79165 C 258.3924 69.30319 258.3924 71.7538 259.9032 73.26535 C 261.4141 74.77685 263.8635 74.77685 265.3744 73.26535 " fill="#47a2f1"/>
<path transform="matrix(.4298508,0,0,.4300518,-33.95821,-10.751297)" stroke-width="1" stroke-linecap="round" stroke-linejoin="round" fill="none" stroke="#000000" d="M 696.364 47.63605 C 699.8787 51.15076 699.8787 56.84924 696.364 60.36395 C 692.8492 63.87869 687.1508 63.87869 683.636 60.36395 C 680.1213 56.84924 680.1213 51.15076 683.636 47.63605 C 687.1508 44.12131 692.8492 44.12131 696.364 47.63605 "/>
<path transform="matrix(1,0,0,-1,0,83)" d="M 202.6162 34.56066 C 204.127 33.04916 204.127 30.59851 202.6162 29.08701 C 201.1053 27.57549 198.6559 27.57549 197.145 29.08701 C 195.6342 30.59851 195.6342 33.04916 197.145 34.56066 C 198.6559 36.07218 201.1053 36.07218 202.6162 34.56066 " fill="#47a2f1"/>
<path transform="matrix(.4298508,0,0,.4300518,-33.95821,-10.751297)" stroke-width="1" stroke-linecap="round" stroke-linejoin="round" fill="none" stroke="#000000" d="M 550.364 137.636 C 553.8787 141.1508 553.8787 146.8492 550.364 150.364 C 546.8492 153.8787 541.1508 153.8787 537.636 150.364 C 534.1213 146.8492 534.1213 141.1508 537.636 137.636 C 541.1508 134.1213 546.8492 134.1213 550.364 137.636 "/>
<path transform="matrix(1,0,0,-1,0,83)" d="M 265.3744 34.56066 C 266.8852 33.04916 266.8852 30.59851 265.3744 29.08701 C 263.8635 27.57549 261.4141 27.57549 259.9032 29.08701 C 258.3924 30.59851 258.3924 33.04916 259.9032 34.56066 C 261.4141 36.07218 263.8635 36.07218 265.3744 34.56066 " fill="#47a2f1"/>
<path transform="matrix(.4298508,0,0,.4300518,-33.95821,-10.751297)" stroke-width="1" stroke-linecap="round" stroke-linejoin="round" fill="none" stroke="#000000" d="M 696.364 137.636 C 699.8787 141.1508 699.8787 146.8492 696.364 150.364 C 692.8492 153.8787 687.1508 153.8787 683.636 150.364 C 680.1213 146.8492 680.1213 141.1508 683.636 137.636 C 687.1508 134.1213 692.8492 134.1213 696.364 137.636 "/>
<path transform="matrix(1,0,0,-1,0,83)" d="M 277.4102 53.91302 C 278.921 52.40147 278.921 49.95086 277.4102 48.43932 C 275.8994 46.92781 273.4499 46.92781 271.9391 48.43932 C 270.4283 49.95086 270.4283 52.40147 271.9391 53.91302 C 273.4499 55.42452 275.8994 55.42452 277.4102 53.91302 " fill="#47a2f1"/>
<path transform="matrix(.4298508,0,0,.4300518,-33.95821,-10.751297)" stroke-width="1" stroke-linecap="round" stroke-linejoin="round" fill="none" stroke="#000000" d="M 724.364 92.63605 C 727.8787 96.15076 727.8787 101.8492 724.364 105.364 C 720.8492 108.8787 715.1508 108.8787 711.636 105.364 C 708.1213 101.8492 708.1213 96.15076 711.636 92.63605 C 715.1508 89.12131 720.8492 89.12131 724.364 92.63605 "/>
<path transform="matrix(1,0,0,-1,0,83)" d="M 277.4102 44.02182 C 278.921 42.5103 278.921 40.05965 277.4102 38.54815 C 275.8994 37.03663 273.4499 37.03663 271.9391 38.54815 C 270.4283 40.05965 270.4283 42.5103 271.9391 44.02182 C 273.4499 45.53333 275.8994 45.53333 277.4102 44.02182 " fill="#47a2f1"/>
<path transform="matrix(.4298508,0,0,.4300518,-33.95821,-10.751297)" stroke-width="1" stroke-linecap="round" stroke-linejoin="round" fill="none" stroke="#000000" d="M 724.364 115.636 C 727.8787 119.1508 727.8787 124.8492 724.364 128.364 C 720.8492 131.8787 715.1508 131.8787 711.636 128.364 C 708.1213 124.8492 708.1213 119.1508 711.636 115.636 C 715.1508 112.1213 720.8492 112.1213 724.364 115.636 "/>
<path transform="matrix(1,0,0,-1,0,83)" d="M 277.4102 63.80421 C 278.921 62.29266 278.921 59.84205 277.4102 58.33051 C 275.8994 56.81901 273.4499 56.81901 271.9391 58.33051 C 270.4283 59.84205 270.4283 62.29266 271.9391 63.80421 C 273.4499 65.31571 275.8994 65.31571 277.4102 63.80421 " fill="#47a2f1"/>
<path transform="matrix(.4298508,0,0,.4300518,-33.95821,-10.751297)" stroke-width="1" stroke-linecap="round" stroke-linejoin="round" fill="none" stroke="#000000" d="M 724.364 69.63605 C 727.8787 73.15076 727.8787 78.84924 724.364 82.36395 C 720.8492 85.87869 715.1508 85.87869 711.636 82.36395 C 708.1213 78.84924 708.1213 73.15076 711.636 69.63605 C 715.1508 66.12131 720.8492 66.12131 724.364 69.63605 "/>
<path transform="matrix(1,0,0,-1,0,83)" d="M 191.0102 53.91302 C 192.521 52.40147 192.521 49.95086 191.0102 48.43932 C 189.4994 46.92781 187.0499 46.92781 185.5391 48.43932 C 184.0283 49.95086 184.0283 52.40147 185.5391 53.91302 C 187.0499 55.42452 189.4994 55.42452 191.0102 53.91302 " fill="#47a2f1"/>
<path transform="matrix(.4298508,0,0,.4300518,-33.95821,-10.751297)" stroke-width="1" stroke-linecap="round" stroke-linejoin="round" fill="none" stroke="#000000" d="M 523.364 92.63605 C 526.8787 96.15076 526.8787 101.8492 523.364 105.364 C 519.8492 108.8787 514.1508 108.8787 510.636 105.364 C 507.1213 101.8492 507.1213 96.15076 510.636 92.63605 C 514.1508 89.12131 519.8492 89.12131 523.364 92.63605 "/>
<path transform="matrix(1,0,0,-1,0,83)" d="M 191.0102 44.02182 C 192.521 42.5103 192.521 40.05965 191.0102 38.54815 C 189.4994 37.03663 187.0499 37.03663 185.5391 38.54815 C 184.0283 40.05965 184.0283 42.5103 185.5391 44.02182 C 187.0499 45.53333 189.4994 45.53333 191.0102 44.02182 " fill="#47a2f1"/>
<path transform="matrix(.4298508,0,0,.4300518,-33.95821,-10.751297)" stroke-width="1" stroke-linecap="round" stroke-linejoin="round" fill="none" stroke="#000000" d="M 523.364 115.636 C 526.8787 119.1508 526.8787 124.8492 523.364 128.364 C 519.8492 131.8787 514.1508 131.8787 510.636 128.364 C 507.1213 124.8492 507.1213 119.1508 510.636 115.636 C 514.1508 112.1213 519.8492 112.1213 523.364 115.636 "/>
<path transform="matrix(1,0,0,-1,0,83)" d="M 191.0102 63.80421 C 192.521 62.29266 192.521 59.84205 191.0102 58.33051 C 189.4994 56.81901 187.0499 56.81901 185.5391 58.33051 C 184.0283 59.84205 184.0283 62.29266 185.5391 63.80421 C 187.0499 65.31571 189.4994 65.31571 191.0102 63.80421 " fill="#47a2f1"/>
<path transform="matrix(.4298508,0,0,.4300518,-33.95821,-10.751297)" stroke-width="1" stroke-linecap="round" stroke-linejoin="round" fill="none" stroke="#000000" d="M 523.364 69.63605 C 526.8787 73.15076 526.8787 78.84924 523.364 82.36395 C 519.8492 85.87869 514.1508 85.87869 510.636 82.36395 C 507.1213 78.84924 507.1213 73.15076 510.636 69.63605 C 514.1508 66.12131 519.8492 66.12131 523.364 69.63605 "/>
<path transform="matrix(.4298508,0,0,.4300518,-33.95821,-10.751297)" stroke-width="1" stroke-linecap="round" stroke-linejoin="round" fill="none" stroke="#000000" d="M 81 27 L 270 27 L 270 171 L 81 171 Z "/>
<path transform="matrix(.4298508,0,0,.4300518,-33.95821,-10.751297)" stroke-width="1" stroke-linecap="round" stroke-linejoin="round" fill="none" stroke="#000000" d="M 270 171 L 486 171 L 486 216 L 270 216 Z "/>
<path transform="matrix(.4298508,0,0,.4300518,-33.95821,-10.751297)" stroke-width="1" stroke-linecap="round" stroke-linejoin="round" fill="none" stroke="#000000" d="M 486 171 L 747 171 L 747 216 L 486 216 Z "/>
<path transform="matrix(.4298508,0,0,.4300518,-33.95821,-10.751297)" stroke-width="1" stroke-linecap="round" stroke-linejoin="round" fill="none" stroke="#000000" d="M 81 171 L 270 171 L 270 216 L 81 216 Z "/>
</g>
</g>
</svg>
