<?xml version="1.0" encoding="UTF-8" standalone="no"?>
<!DOCTYPE svg PUBLIC "-//W3C//DTD SVG 1.1//EN" "http://www.w3.org/Graphics/SVG/1.1/DTD/svg11.dtd">
<svg xmlns="http://www.w3.org/2000/svg" xmlns:xlink="http://www.w3.org/1999/xlink" version="1.1" width="144pt" height="124pt" viewBox="0 0 144 124">
<g enable-background="new">
<clipPath id="cp0">
<path transform="matrix(1,0,0,-1,0,124)" d="M 0 0 L 144 0 L 144 124 L 0 124 Z "/>
</clipPath>
<g clip-path="url(#cp0)">
<path transform="matrix(1,0,0,-1,0,124)" d="M 0 124 L 144 124 L 144 0 L 0 0 Z " fill="#ffffff"/>
</g>
<clipPath id="cp1">
<path transform="matrix(1,0,0,-1,0,124)" d="M 0 -.000001430511 L 144 -.000001430511 L 144 124 L 0 124 Z "/>
</clipPath>
<g clip-path="url(#cp1)">
<path transform="matrix(.4881356,0,0,.488189,-20.25763,-14.401596)" stroke-width="1" stroke-linecap="round" stroke-linejoin="round" fill="none" stroke="#929292" d="M 72 72 L 288 72 L 288 90 L 72 90 Z "/>
<path transform="matrix(.4881356,0,0,.488189,-20.25763,-14.401596)" stroke-width="1" stroke-linecap="round" stroke-linejoin="round" fill="none" stroke="#929292" d="M 72 90 L 288 90 L 288 108 L 72 108 Z "/>
<path transform="matrix(.4881356,0,0,.488189,-20.25763,-14.401596)" stroke-width="1" stroke-linecap="round" stroke-linejoin="round" fill="none" stroke="#929292" d="M 72 108 L 288 108 L 288 126 L 72 126 Z "/>
<path transform="matrix(.4881356,0,0,.488189,-20.25763,-14.401596)" stroke-width="1" stroke-linecap="round" stroke-linejoin="round" fill="none" stroke="#929292" d="M 72 126 L 288 126 L 288 144 L 72 144 Z "/>
<path transform="matrix(.4881356,0,0,.488189,-20.25763,-14.401596)" stroke-width="1" stroke-linecap="round" stroke-linejoin="round" fill="none" stroke="#929292" d="M 72 144 L 288 144 L 288 162 L 72 162 Z "/>
<path transform="matrix(.4881356,0,0,.488189,-20.25763,-14.401596)" stroke-width="1" stroke-linecap="round" stroke-linejoin="round" fill="none" stroke="#929292" d="M 72 162 L 288 162 L 288 180 L 72 180 Z "/>
<path transform="matrix(.4881356,0,0,.488189,-20.25763,-14.401596)" stroke-width="1" stroke-linecap="round" stroke-linejoin="round" fill="none" stroke="#929292" d="M 72 180 L 288 180 L 288 198 L 72 198 Z "/>
<path transform="matrix(.4881356,0,0,.488189,-20.25763,-14.401596)" stroke-width="1" stroke-linecap="round" stroke-linejoin="round" fill="none" stroke="#929292" d="M 72 198 L 288 198 L 288 216 L 72 216 Z "/>
<path transform="matrix(.4881356,0,0,.488189,-20.25763,-14.401596)" stroke-width="1" stroke-linecap="round" stroke-linejoin="round" fill="none" stroke="#929292" d="M 72 216 L 288 216 L 288 234 L 72 234 Z "/>
<path transform="matrix(.4881356,0,0,.488189,-20.25763,-14.401596)" stroke-width="1" stroke-linecap="round" stroke-linejoin="round" fill="none" stroke="#929292" d="M 72 234 L 288 234 L 288 252 L 72 252 Z "/>
<path transform="matrix(.4881356,0,0,.488189,-20.25763,-14.401596)" stroke-width="1" stroke-linecap="round" stroke-linejoin="round" fill="none" stroke="#929292" d="M 72 72 L 90 72 L 90 252 L 72 252 Z "/>
<path transform="matrix(.4881356,0,0,.488189,-20.25763,-14.401596)" stroke-width="1" stroke-linecap="round" stroke-linejoin="round" fill="none" stroke="#929292" d="M 90 72 L 108 72 L 108 252 L 90 252 Z "/>
<path transform="matrix(.4881356,0,0,.488189,-20.25763,-14.401596)" stroke-width="1" stroke-linecap="round" stroke-linejoin="round" fill="none" stroke="#929292" d="M 108 72 L 126 72 L 126 252 L 108 252 Z "/>
<path transform="matrix(.4881356,0,0,.488189,-20.25763,-14.401596)" stroke-width="1" stroke-linecap="round" stroke-linejoin="round" fill="none" stroke="#929292" d="M 126 72 L 144 72 L 144 252 L 126 252 Z "/>
<path transform="matrix(.4881356,0,0,.488189,-20.25763,-14.401596)" stroke-width="1" stroke-linecap="round" stroke-linejoin="round" fill="none" stroke="#929292" d="M 144 72 L 162 72 L 162 252 L 144 252 Z "/>
<path transform="matrix(.4881356,0,0,.488189,-20.25763,-14.401596)" stroke-width="1" stroke-linecap="round" stroke-linejoin="round" fill="none" stroke="#929292" d="M 162 72 L 180 72 L 180 252 L 162 252 Z "/>
<path transform="matrix(.4881356,0,0,.488189,-20.25763,-14.401596)" stroke-width="1" stroke-linecap="round" stroke-linejoin="round" fill="none" stroke="#929292" d="M 180 72 L 198 72 L 198 252 L 180 252 Z "/>
<path transform="matrix(.4881356,0,0,.488189,-20.25763,-14.401596)" stroke-width="1" stroke-linecap="round" stroke-linejoin="round" fill="none" stroke="#929292" d="M 198 72 L 216 72 L 216 252 L 198 252 Z "/>
<path transform="matrix(.4881356,0,0,.488189,-20.25763,-14.401596)" stroke-width="1" stroke-linecap="round" stroke-linejoin="round" fill="none" stroke="#929292" d="M 216 72 L 234 72 L 234 252 L 216 252 Z "/>
<path transform="matrix(.4881356,0,0,.488189,-20.25763,-14.401596)" stroke-width="1" stroke-linecap="round" stroke-linejoin="round" fill="none" stroke="#929292" d="M 234 72 L 252 72 L 252 252 L 234 252 Z "/>
<path transform="matrix(.4881356,0,0,.488189,-20.25763,-14.401596)" stroke-width="1" stroke-linecap="round" stroke-linejoin="round" fill="none" stroke="#929292" d="M 252 72 L 270 72 L 270 252 L 252 252 Z "/>
<path transform="matrix(.4881356,0,0,.488189,-20.25763,-14.401596)" stroke-width="1" stroke-linecap="round" stroke-linejoin="round" fill="none" stroke="#929292" d="M 270 72 L 288 72 L 288 252 L 270 252 Z "/>
<text xml:space="preserve" transform="matrix(.4881356 0 0 .488189 10.73898 101.7874)" font-size="14" font-family="CaeciliaLTStd" font-weight="bold"><tspan y="2.5" x="-4.144">2</tspan></text>
<text xml:space="preserve" transform="matrix(.4881356 0 0 .488189 10.73898 93)" font-size="14" font-family="CaeciliaLTStd" font-weight="bold"><tspan y="2.5" x="-4.144">4</tspan></text>
<text xml:space="preserve" transform="matrix(.4881356 0 0 .488189 10.73898 84.2126)" font-size="14" font-family="CaeciliaLTStd" font-weight="bold"><tspan y="2.5" x="-4.144">6</tspan></text>
<text xml:space="preserve" transform="matrix(.4881356 0 0 .488189 10.73898 75.4252)" font-size="14" font-family="CaeciliaLTStd" font-weight="bold"><tspan y="2.5" x="-4.144">8</tspan></text>
<text xml:space="preserve" transform="matrix(.4881356 0 0 .488189 8.786441 66.6378)" font-size="14" font-family="CaeciliaLTStd" font-weight="bold"><tspan y="2.5" x="-8.288 0">10</tspan></text>
<text xml:space="preserve" transform="matrix(.4881356 0 0 .488189 10.73898 110.5748)" font-size="14" font-family="CaeciliaLTStd" font-weight="bold"><tspan y="2.5" x="-4.144">0</tspan></text>
<text xml:space="preserve" transform="matrix(.4881356 0 0 .488189 15.1322 115.456699)" font-size="14" font-family="CaeciliaLTStd" font-weight="bold"><tspan y="2.5" x="-4.144">0</tspan></text>
<text xml:space="preserve" transform="matrix(.4881356 0 0 .488189 32.70509 115.456699)" font-size="14" font-family="CaeciliaLTStd" font-weight="bold"><tspan y="2.5" x="-4.144">2</tspan></text>
<text xml:space="preserve" transform="matrix(.4881356 0 0 .488189 50.27797 115.456699)" font-size="14" font-family="CaeciliaLTStd" font-weight="bold"><tspan y="2.5" x="-4.144">4</tspan></text>
<text xml:space="preserve" transform="matrix(.4881356 0 0 .488189 67.85085 115.456699)" font-size="14" font-family="CaeciliaLTStd" font-weight="bold"><tspan y="2.5" x="-4.144">6</tspan></text>
<text xml:space="preserve" transform="matrix(.4881356 0 0 .488189 85.42373 115.456699)" font-size="14" font-family="CaeciliaLTStd" font-weight="bold"><tspan y="2.5" x="-4.144">8</tspan></text>
<text xml:space="preserve" transform="matrix(.4881356 0 0 .488189 102.9966 115.456699)" font-size="14" font-family="CaeciliaLTStd" font-weight="bold"><tspan y="2.5" x="-8.288 0">10</tspan></text>
<text xml:space="preserve" transform="matrix(.4881356 0 0 .488189 120.5695 115.456699)" font-size="14" font-family="CaeciliaLTStd" font-weight="bold"><tspan y="2.5" x="-8.288 0">12</tspan></text>
<path transform="matrix(.4881356,0,0,.488189,-20.25763,-14.401596)" stroke-width="3" stroke-linecap="round" stroke-linejoin="round" fill="none" stroke="#0433ff" d="M 72 72 L 288 180.5 "/>
<text xml:space="preserve" transform="matrix(.4881356 0 0 .488189 8.786441 57.850389)" font-size="14" font-family="CaeciliaLTStd" font-weight="bold"><tspan y="2.5" x="-8.288 0">12</tspan></text>
<text xml:space="preserve" transform="matrix(.4881356 0 0 .488189 8.786441 49.06299)" font-size="14" font-family="CaeciliaLTStd" font-weight="bold"><tspan y="2.5" x="-8.288 0">14</tspan></text>
<text xml:space="preserve" transform="matrix(.4881356 0 0 .488189 8.786441 40.27559)" font-size="14" font-family="CaeciliaLTStd" font-weight="bold"><tspan y="2.5" x="-8.288 0">16</tspan></text>
<text xml:space="preserve" transform="matrix(.4881356 0 0 .488189 8.786441 31.48819)" font-size="14" font-family="CaeciliaLTStd" font-weight="bold"><tspan y="2.5" x="-8.288 0">18</tspan></text>
<text xml:space="preserve" transform="matrix(.4881356 0 0 .488189 8.786441 22.456704)" font-size="14" font-family="CaeciliaLTStd" font-weight="bold"><tspan y="2.5" x="-8.288 0">20</tspan></text>
<path transform="matrix(.4881356,0,0,.488189,-20.25763,-14.401596)" stroke-width="3" stroke-linecap="round" stroke-linejoin="round" fill="none" stroke="#000000" d="M 72 252 L 290.1 252 "/>
<path transform="matrix(1,0,0,-1,0,124)" d="M 126.8176 15.37795 L 121.3505 17.42835 L 121.3505 13.32756 Z M 126.8176 15.37795 "/>
<path transform="matrix(.4881356,0,0,.488189,-20.25763,-14.401596)" stroke-width="3" stroke-linecap="butt" stroke-miterlimit="10" stroke-linejoin="miter" fill="none" stroke="#000000" d="M 301.3 252 L 290.1 247.8 L 290.1 256.2 Z M 301.3 252 "/>
<path transform="matrix(.4881356,0,0,.488189,-20.25763,-14.401596)" stroke-width="3" stroke-linecap="round" stroke-linejoin="round" fill="none" stroke="#000000" d="M 72 252 L 72 64.4 "/>
<path transform="matrix(1,0,0,-1,0,124)" d="M 14.88814 112.4299 L 12.83797 106.9622 L 16.93831 106.9622 Z M 14.88814 112.4299 "/>
<path transform="matrix(.4881356,0,0,.488189,-20.25763,-14.401596)" stroke-width="3" stroke-linecap="butt" stroke-miterlimit="10" stroke-linejoin="miter" fill="none" stroke="#000000" d="M 72 53.2 L 67.8 64.4 L 76.2 64.4 Z M 72 53.2 "/>
<text xml:space="preserve" transform="matrix(.4881356 0 0 .488189 130.3322 112.52756)" font-size="14" font-family="CaeciliaLTStd" font-weight="bold" font-style="italic"><tspan y="2.5" x="-3.892">x</tspan></text>
<text xml:space="preserve" transform="matrix(.4881356 0 0 .488189 9.518644 11.960602)" font-size="14" font-family="CaeciliaLTStd" font-weight="bold" font-style="italic"><tspan y="2.5" x="-3.759">y</tspan></text>
</g>
</g>
</svg>
