<?xml version="1.0" encoding="UTF-8" standalone="no"?>
<!DOCTYPE svg PUBLIC "-//W3C//DTD SVG 1.1//EN" "http://www.w3.org/Graphics/SVG/1.1/DTD/svg11.dtd">
<svg xmlns="http://www.w3.org/2000/svg" xmlns:xlink="http://www.w3.org/1999/xlink" version="1.1" width="454pt" height="205pt" viewBox="0 0 454 205">
<g enable-background="new">
<clipPath id="cp0">
<path transform="matrix(1,0,0,-1,0,205)" d="M 0 0 L 454 0 L 454 205 L 0 205 Z "/>
</clipPath>
<g clip-path="url(#cp0)">
<path transform="matrix(1,0,0,-1,0,205)" d="M 0 205 L 454 205 L 454 0 L 0 0 Z " fill="#ffffff"/>
</g>
<clipPath id="cp1">
<path transform="matrix(1,0,0,-1,0,205)" d="M 0 0 L 454 0 L 454 205 L 0 205 Z "/>
</clipPath>
<g clip-path="url(#cp1)">
<path transform="matrix(.7287319,0,0,.7295374,-64.85714,-18.968003)" stroke-width="1" stroke-linecap="round" stroke-linejoin="round" fill="none" stroke="#000000" d="M 144 72 L 225 72 L 225 261 L 144 261 Z "/>
<path transform="matrix(.7287319,0,0,.7295374,-64.85714,-18.968003)" stroke-width="1" stroke-linecap="round" stroke-linejoin="round" fill="none" stroke="#000000" d="M 234 72 L 351 72 L 351 261 L 234 261 Z "/>
<path transform="matrix(.7287319,0,0,.7295374,-64.85714,-18.968003)" stroke-width="1" stroke-linecap="round" stroke-linejoin="round" fill="none" stroke="#000000" d="M 360 72 L 513 72 L 513 261 L 360 261 Z "/>
<path transform="matrix(.7287319,0,0,.7295374,-64.85714,-18.968003)" stroke-width="1" stroke-linecap="round" stroke-linejoin="round" fill="none" stroke="#000000" d="M 522 72 L 711 72 L 711 261 L 522 261 Z "/>
<path transform="matrix(1,0,0,-1,0,205)" d="M 377.4497 95.53591 C 381.2916 91.68972 387.5206 91.68972 391.3625 95.53591 C 395.2044 99.38203 395.2044 105.618 391.3625 109.4641 C 387.5206 113.3103 381.2916 113.3103 377.4497 109.4641 C 373.6077 105.618 373.6077 99.38203 377.4497 95.53591 " fill="#ffff7f"/>
<path transform="matrix(.7287319,0,0,.7295374,-64.85714,-18.968003)" stroke-width="2" stroke-linecap="round" stroke-linejoin="round" fill="none" stroke="#000000" d="M 606.9541 176.0459 C 612.2261 181.318 620.7739 181.318 626.0459 176.0459 C 631.318 170.7739 631.318 162.2261 626.0459 156.9541 C 620.7739 151.682 612.2261 151.682 606.9541 156.9541 C 601.682 162.2261 601.682 170.7739 606.9541 176.0459 "/>
<path transform="matrix(1,0,0,-1,0,205)" d="M 403.684 95.53591 C 407.5259 91.68972 413.755 91.68972 417.5968 95.53591 C 421.4388 99.38203 421.4388 105.618 417.5968 109.4641 C 413.755 113.3103 407.5259 113.3103 403.684 109.4641 C 399.8421 105.618 399.8421 99.38203 403.684 95.53591 " fill="#ffff7f"/>
<path transform="matrix(.7287319,0,0,.7295374,-64.85714,-18.968003)" stroke-width="2" stroke-linecap="round" stroke-linejoin="round" fill="none" stroke="#000000" d="M 642.9541 176.0459 C 648.2261 181.318 656.7739 181.318 662.0459 176.0459 C 667.318 170.7739 667.318 162.2261 662.0459 156.9541 C 656.7739 151.682 648.2261 151.682 642.9541 156.9541 C 637.682 162.2261 637.682 170.7739 642.9541 176.0459 "/>
<path transform="matrix(1,0,0,-1,0,205)" d="M 403.684 121.7993 C 407.5259 117.9531 413.755 117.9531 417.5968 121.7993 C 421.4388 125.6454 421.4388 131.8813 417.5968 135.7274 C 413.755 139.5736 407.5259 139.5736 403.684 135.7274 C 399.8421 131.8813 399.8421 125.6454 403.684 121.7993 " fill="#ffff7f"/>
<path transform="matrix(.7287319,0,0,.7295374,-64.85714,-18.968003)" stroke-width="2" stroke-linecap="round" stroke-linejoin="round" fill="none" stroke="#000000" d="M 642.9541 140.0459 C 648.2261 145.318 656.7739 145.318 662.0459 140.0459 C 667.318 134.7739 667.318 126.2261 662.0459 120.9541 C 656.7739 115.682 648.2261 115.682 642.9541 120.9541 C 637.682 126.2261 637.682 134.7739 642.9541 140.0459 "/>
<path transform="matrix(1,0,0,-1,0,205)" d="M 429.9184 95.53591 C 433.7603 91.68972 439.9893 91.68972 443.8312 95.53591 C 447.6731 99.38203 447.6731 105.618 443.8312 109.4641 C 439.9893 113.3103 433.7603 113.3103 429.9184 109.4641 C 426.0764 105.618 426.0764 99.38203 429.9184 95.53591 " fill="#ffff7f"/>
<path transform="matrix(.7287319,0,0,.7295374,-64.85714,-18.968003)" stroke-width="2" stroke-linecap="round" stroke-linejoin="round" fill="none" stroke="#000000" d="M 678.9541 176.0459 C 684.2261 181.318 692.7739 181.318 698.0459 176.0459 C 703.318 170.7739 703.318 162.2261 698.0459 156.9541 C 692.7739 151.682 684.2261 151.682 678.9541 156.9541 C 673.682 162.2261 673.682 170.7739 678.9541 176.0459 "/>
<path transform="matrix(1,0,0,-1,0,205)" d="M 429.9184 121.7993 C 433.7603 117.9531 439.9893 117.9531 443.8312 121.7993 C 447.6731 125.6454 447.6731 131.8813 443.8312 135.7274 C 439.9893 139.5736 433.7603 139.5736 429.9184 135.7274 C 426.0764 131.8813 426.0764 125.6454 429.9184 121.7993 " fill="#ffff7f"/>
<path transform="matrix(.7287319,0,0,.7295374,-64.85714,-18.968003)" stroke-width="2" stroke-linecap="round" stroke-linejoin="round" fill="none" stroke="#000000" d="M 678.9541 140.0459 C 684.2261 145.318 692.7739 145.318 698.0459 140.0459 C 703.318 134.7739 703.318 126.2261 698.0459 120.9541 C 692.7739 115.682 684.2261 115.682 678.9541 120.9541 C 673.682 126.2261 673.682 134.7739 678.9541 140.0459 "/>
<path transform="matrix(1,0,0,-1,0,205)" d="M 429.9184 148.0626 C 433.7603 144.2164 439.9893 144.2164 443.8312 148.0626 C 447.6731 151.9087 447.6731 158.1447 443.8312 161.9908 C 439.9893 165.837 433.7603 165.837 429.9184 161.9908 C 426.0764 158.1447 426.0764 151.9087 429.9184 148.0626 " fill="#ffff7f"/>
<path transform="matrix(.7287319,0,0,.7295374,-64.85714,-18.968003)" stroke-width="2" stroke-linecap="round" stroke-linejoin="round" fill="none" stroke="#000000" d="M 678.9541 104.0459 C 684.2261 109.318 692.7739 109.318 698.0459 104.0459 C 703.318 98.77386 703.318 90.22614 698.0459 84.95407 C 692.7739 79.68197 684.2261 79.68197 678.9541 84.95407 C 673.682 90.22614 673.682 98.77386 678.9541 104.0459 "/>
<path transform="matrix(1,0,0,-1,0,205)" d="M 377.4497 69.27254 C 381.2916 65.42635 387.5206 65.42635 391.3625 69.27254 C 395.2044 73.11868 395.2044 79.35462 391.3625 83.20075 C 387.5206 87.04694 381.2916 87.04694 377.4497 83.20075 C 373.6077 79.35462 373.6077 73.11868 377.4497 69.27254 " fill="#ffff7f"/>
<path transform="matrix(.7287319,0,0,.7295374,-64.85714,-18.968003)" stroke-width="2" stroke-linecap="round" stroke-linejoin="round" fill="none" stroke="#000000" d="M 606.9541 212.0459 C 612.2261 217.318 620.7739 217.318 626.0459 212.0459 C 631.318 206.7739 631.318 198.2261 626.0459 192.9541 C 620.7739 187.682 612.2261 187.682 606.9541 192.9541 C 601.682 198.2261 601.682 206.7739 606.9541 212.0459 "/>
<path transform="matrix(1,0,0,-1,0,205)" d="M 403.684 69.27254 C 407.5259 65.42635 413.755 65.42635 417.5968 69.27254 C 421.4388 73.11868 421.4388 79.35462 417.5968 83.20075 C 413.755 87.04694 407.5259 87.04694 403.684 83.20075 C 399.8421 79.35462 399.8421 73.11868 403.684 69.27254 " fill="#ffff7f"/>
<path transform="matrix(.7287319,0,0,.7295374,-64.85714,-18.968003)" stroke-width="2" stroke-linecap="round" stroke-linejoin="round" fill="none" stroke="#000000" d="M 642.9541 212.0459 C 648.2261 217.318 656.7739 217.318 662.0459 212.0459 C 667.318 206.7739 667.318 198.2261 662.0459 192.9541 C 656.7739 187.682 648.2261 187.682 642.9541 192.9541 C 637.682 198.2261 637.682 206.7739 642.9541 212.0459 "/>
<path transform="matrix(1,0,0,-1,0,205)" d="M 429.9184 69.27254 C 433.7603 65.42635 439.9893 65.42635 443.8312 69.27254 C 447.6731 73.11868 447.6731 79.35462 443.8312 83.20075 C 439.9893 87.04694 433.7603 87.04694 429.9184 83.20075 C 426.0764 79.35462 426.0764 73.11868 429.9184 69.27254 " fill="#ffff7f"/>
<path transform="matrix(.7287319,0,0,.7295374,-64.85714,-18.968003)" stroke-width="2" stroke-linecap="round" stroke-linejoin="round" fill="none" stroke="#000000" d="M 678.9541 212.0459 C 684.2261 217.318 692.7739 217.318 698.0459 212.0459 C 703.318 206.7739 703.318 198.2261 698.0459 192.9541 C 692.7739 187.682 684.2261 187.682 678.9541 192.9541 C 673.682 198.2261 673.682 206.7739 678.9541 212.0459 "/>
<path transform="matrix(1,0,0,-1,0,205)" d="M 351.2153 69.27254 C 355.0572 65.42635 361.2863 65.42635 365.1281 69.27254 C 368.9701 73.11868 368.9701 79.35462 365.1281 83.20075 C 361.2863 87.04694 355.0572 87.04694 351.2153 83.20075 C 347.3734 79.35462 347.3734 73.11868 351.2153 69.27254 " fill="#ffff7f"/>
<path transform="matrix(.7287319,0,0,.7295374,-64.85714,-18.968003)" stroke-width="2" stroke-linecap="round" stroke-linejoin="round" fill="none" stroke="#000000" d="M 570.9541 212.0459 C 576.2261 217.318 584.7739 217.318 590.0459 212.0459 C 595.318 206.7739 595.318 198.2261 590.0459 192.9541 C 584.7739 187.682 576.2261 187.682 570.9541 192.9541 C 565.682 198.2261 565.682 206.7739 570.9541 212.0459 "/>
<path transform="matrix(1,0,0,-1,0,205)" d="M 377.4497 43.0092 C 381.2916 39.163 387.5206 39.163 391.3625 43.0092 C 395.2044 46.85537 395.2044 53.09125 391.3625 56.93742 C 387.5206 60.78362 381.2916 60.78362 377.4497 56.93742 C 373.6077 53.09125 373.6077 46.85537 377.4497 43.0092 " fill="#ffff7f"/>
<path transform="matrix(.7287319,0,0,.7295374,-64.85714,-18.968003)" stroke-width="2" stroke-linecap="round" stroke-linejoin="round" fill="none" stroke="#000000" d="M 606.9541 248.0459 C 612.2261 253.318 620.7739 253.318 626.0459 248.0459 C 631.318 242.7739 631.318 234.2261 626.0459 228.9541 C 620.7739 223.682 612.2261 223.682 606.9541 228.9541 C 601.682 234.2261 601.682 242.7739 606.9541 248.0459 "/>
<path transform="matrix(1,0,0,-1,0,205)" d="M 403.684 43.0092 C 407.5259 39.163 413.755 39.163 417.5968 43.0092 C 421.4388 46.85537 421.4388 53.09125 417.5968 56.93742 C 413.755 60.78362 407.5259 60.78362 403.684 56.93742 C 399.8421 53.09125 399.8421 46.85537 403.684 43.0092 " fill="#ffff7f"/>
<path transform="matrix(.7287319,0,0,.7295374,-64.85714,-18.968003)" stroke-width="2" stroke-linecap="round" stroke-linejoin="round" fill="none" stroke="#000000" d="M 642.9541 248.0459 C 648.2261 253.318 656.7739 253.318 662.0459 248.0459 C 667.318 242.7739 667.318 234.2261 662.0459 228.9541 C 656.7739 223.682 648.2261 223.682 642.9541 228.9541 C 637.682 234.2261 637.682 242.7739 642.9541 248.0459 "/>
<path transform="matrix(1,0,0,-1,0,205)" d="M 429.9184 43.0092 C 433.7603 39.163 439.9893 39.163 443.8312 43.0092 C 447.6731 46.85537 447.6731 53.09125 443.8312 56.93742 C 439.9893 60.78362 433.7603 60.78362 429.9184 56.93742 C 426.0764 53.09125 426.0764 46.85537 429.9184 43.0092 " fill="#ffff7f"/>
<path transform="matrix(.7287319,0,0,.7295374,-64.85714,-18.968003)" stroke-width="2" stroke-linecap="round" stroke-linejoin="round" fill="none" stroke="#000000" d="M 678.9541 248.0459 C 684.2261 253.318 692.7739 253.318 698.0459 248.0459 C 703.318 242.7739 703.318 234.2261 698.0459 228.9541 C 692.7739 223.682 684.2261 223.682 678.9541 228.9541 C 673.682 234.2261 673.682 242.7739 678.9541 248.0459 "/>
<path transform="matrix(1,0,0,-1,0,205)" d="M 351.2153 43.0092 C 355.0572 39.163 361.2863 39.163 365.1281 43.0092 C 368.9701 46.85537 368.9701 53.09125 365.1281 56.93742 C 361.2863 60.78362 355.0572 60.78362 351.2153 56.93742 C 347.3734 53.09125 347.3734 46.85537 351.2153 43.0092 " fill="#ffff7f"/>
<path transform="matrix(.7287319,0,0,.7295374,-64.85714,-18.968003)" stroke-width="2" stroke-linecap="round" stroke-linejoin="round" fill="none" stroke="#000000" d="M 570.9541 248.0459 C 576.2261 253.318 584.7739 253.318 590.0459 248.0459 C 595.318 242.7739 595.318 234.2261 590.0459 228.9541 C 584.7739 223.682 576.2261 223.682 570.9541 228.9541 C 565.682 234.2261 565.682 242.7739 570.9541 248.0459 "/>
<path transform="matrix(1,0,0,-1,0,205)" d="M 324.981 43.0092 C 328.8229 39.163 335.0519 39.163 338.8938 43.0092 C 342.7357 46.85537 342.7357 53.09125 338.8938 56.93742 C 335.0519 60.78362 328.8229 60.78362 324.981 56.93742 C 321.139 53.09125 321.139 46.85537 324.981 43.0092 " fill="#ffff7f"/>
<path transform="matrix(.7287319,0,0,.7295374,-64.85714,-18.968003)" stroke-width="2" stroke-linecap="round" stroke-linejoin="round" fill="none" stroke="#000000" d="M 534.9541 248.0459 C 540.2261 253.318 548.7739 253.318 554.0459 248.0459 C 559.318 242.7739 559.318 234.2261 554.0459 228.9541 C 548.7739 223.682 540.2261 223.682 534.9541 228.9541 C 529.682 234.2261 529.682 242.7739 534.9541 248.0459 "/>
<path transform="matrix(.7287319,0,0,.7295374,-64.85714,-18.968003)" stroke-width="1" stroke-linecap="round" stroke-linejoin="round" fill="none" stroke="#000000" d="M 90 72 L 135 72 L 135 261 L 90 261 Z "/>
<path transform="matrix(1,0,0,-1,0,205)" d="M 89.66748 83.20075 C 93.50942 79.35462 93.50942 73.11868 89.66748 69.27254 C 85.8256 65.42635 79.59655 65.42635 75.75467 69.27254 C 71.9127 73.11868 71.9127 79.35462 75.75467 83.20075 C 79.59655 87.04694 85.8256 87.04694 89.66748 83.20075 " fill="#ffff7f"/>
<path transform="matrix(.7287319,0,0,.7295374,-64.85714,-18.968003)" stroke-width="2" stroke-linecap="round" stroke-linejoin="round" fill="none" stroke="#000000" d="M 212.0459 192.9541 C 217.318 198.2261 217.318 206.7739 212.0459 212.0459 C 206.7739 217.318 198.2261 217.318 192.9541 212.0459 C 187.682 206.7739 187.682 198.2261 192.9541 192.9541 C 198.2261 187.682 206.7739 187.682 212.0459 192.9541 "/>
<path transform="matrix(1,0,0,-1,0,205)" d="M 89.66748 56.93742 C 93.50942 53.09125 93.50942 46.85537 89.66748 43.0092 C 85.8256 39.163 79.59655 39.163 75.75467 43.0092 C 71.9127 46.85537 71.9127 53.09125 75.75467 56.93742 C 79.59655 60.78362 85.8256 60.78362 89.66748 56.93742 " fill="#ffff7f"/>
<path transform="matrix(.7287319,0,0,.7295374,-64.85714,-18.968003)" stroke-width="2" stroke-linecap="round" stroke-linejoin="round" fill="none" stroke="#000000" d="M 212.0459 228.9541 C 217.318 234.2261 217.318 242.7739 212.0459 248.0459 C 206.7739 253.318 198.2261 253.318 192.9541 248.0459 C 187.682 242.7739 187.682 234.2261 192.9541 228.9541 C 198.2261 223.682 206.7739 223.682 212.0459 228.9541 "/>
<path transform="matrix(1,0,0,-1,0,205)" d="M 63.43315 56.93742 C 67.2751 53.09125 67.2751 46.85537 63.43315 43.0092 C 59.59122 39.163 53.36223 39.163 49.5203 43.0092 C 45.67835 46.85537 45.67835 53.09125 49.5203 56.93742 C 53.36223 60.78362 59.59122 60.78362 63.43315 56.93742 " fill="#ffff7f"/>
<path transform="matrix(.7287319,0,0,.7295374,-64.85714,-18.968003)" stroke-width="2" stroke-linecap="round" stroke-linejoin="round" fill="none" stroke="#000000" d="M 176.0459 228.9541 C 181.318 234.2261 181.318 242.7739 176.0459 248.0459 C 170.7739 253.318 162.2261 253.318 156.9541 248.0459 C 151.682 242.7739 151.682 234.2261 156.9541 228.9541 C 162.2261 223.682 170.7739 223.682 176.0459 228.9541 "/>
<path transform="matrix(1,0,0,-1,0,205)" d="M 24.08162 56.93742 C 27.92357 53.09125 27.92357 46.85537 24.08162 43.0092 C 20.2397 39.163 14.0107 39.163 10.16878 43.0092 C 6.326827 46.85537 6.326827 53.09125 10.16878 56.93742 C 14.0107 60.78362 20.2397 60.78362 24.08162 56.93742 " fill="#ffff7f"/>
<path transform="matrix(.7287319,0,0,.7295374,-64.85714,-18.968003)" stroke-width="2" stroke-linecap="round" stroke-linejoin="round" fill="none" stroke="#000000" d="M 122.0459 228.9541 C 127.318 234.2261 127.318 242.7739 122.0459 248.0459 C 116.7739 253.318 108.2261 253.318 102.9541 248.0459 C 97.68197 242.7739 97.68197 234.2261 102.9541 228.9541 C 108.2261 223.682 116.7739 223.682 122.0459 228.9541 "/>
<path transform="matrix(1,0,0,-1,0,205)" d="M 181.4877 109.4641 C 185.3296 105.618 185.3296 99.38203 181.4877 95.53591 C 177.6458 91.68972 171.4168 91.68972 167.5749 95.53591 C 163.7329 99.38203 163.7329 105.618 167.5749 109.4641 C 171.4168 113.3103 177.6458 113.3103 181.4877 109.4641 " fill="#ffff7f"/>
<path transform="matrix(.7287319,0,0,.7295374,-64.85714,-18.968003)" stroke-width="2" stroke-linecap="round" stroke-linejoin="round" fill="none" stroke="#000000" d="M 338.0459 156.9541 C 343.318 162.2261 343.318 170.7739 338.0459 176.0459 C 332.7739 181.318 324.2261 181.318 318.9541 176.0459 C 313.682 170.7739 313.682 162.2261 318.9541 156.9541 C 324.2261 151.682 332.7739 151.682 338.0459 156.9541 "/>
<path transform="matrix(1,0,0,-1,0,205)" d="M 181.4877 83.20075 C 185.3296 79.35462 185.3296 73.11868 181.4877 69.27254 C 177.6458 65.42635 171.4168 65.42635 167.5749 69.27254 C 163.7329 73.11868 163.7329 79.35462 167.5749 83.20075 C 171.4168 87.04694 177.6458 87.04694 181.4877 83.20075 " fill="#ffff7f"/>
<path transform="matrix(.7287319,0,0,.7295374,-64.85714,-18.968003)" stroke-width="2" stroke-linecap="round" stroke-linejoin="round" fill="none" stroke="#000000" d="M 338.0459 192.9541 C 343.318 198.2261 343.318 206.7739 338.0459 212.0459 C 332.7739 217.318 324.2261 217.318 318.9541 212.0459 C 313.682 206.7739 313.682 198.2261 318.9541 192.9541 C 324.2261 187.682 332.7739 187.682 338.0459 192.9541 "/>
<path transform="matrix(1,0,0,-1,0,205)" d="M 155.2533 83.20075 C 159.0953 79.35462 159.0953 73.11868 155.2533 69.27254 C 151.4115 65.42635 145.1824 65.42635 141.3405 69.27254 C 137.4986 73.11868 137.4986 79.35462 141.3405 83.20075 C 145.1824 87.04694 151.4115 87.04694 155.2533 83.20075 " fill="#ffff7f"/>
<path transform="matrix(.7287319,0,0,.7295374,-64.85714,-18.968003)" stroke-width="2" stroke-linecap="round" stroke-linejoin="round" fill="none" stroke="#000000" d="M 302.0459 192.9541 C 307.318 198.2261 307.318 206.7739 302.0459 212.0459 C 296.7739 217.318 288.2261 217.318 282.9541 212.0459 C 277.682 206.7739 277.682 198.2261 282.9541 192.9541 C 288.2261 187.682 296.7739 187.682 302.0459 192.9541 "/>
<path transform="matrix(1,0,0,-1,0,205)" d="M 181.4877 56.93742 C 185.3296 53.09125 185.3296 46.85537 181.4877 43.0092 C 177.6458 39.163 171.4168 39.163 167.5749 43.0092 C 163.7329 46.85537 163.7329 53.09125 167.5749 56.93742 C 171.4168 60.78362 177.6458 60.78362 181.4877 56.93742 " fill="#ffff7f"/>
<path transform="matrix(.7287319,0,0,.7295374,-64.85714,-18.968003)" stroke-width="2" stroke-linecap="round" stroke-linejoin="round" fill="none" stroke="#000000" d="M 338.0459 228.9541 C 343.318 234.2261 343.318 242.7739 338.0459 248.0459 C 332.7739 253.318 324.2261 253.318 318.9541 248.0459 C 313.682 242.7739 313.682 234.2261 318.9541 228.9541 C 324.2261 223.682 332.7739 223.682 338.0459 228.9541 "/>
<path transform="matrix(1,0,0,-1,0,205)" d="M 155.2533 56.93742 C 159.0953 53.09125 159.0953 46.85537 155.2533 43.0092 C 151.4115 39.163 145.1824 39.163 141.3405 43.0092 C 137.4986 46.85537 137.4986 53.09125 141.3405 56.93742 C 145.1824 60.78362 151.4115 60.78362 155.2533 56.93742 " fill="#ffff7f"/>
<path transform="matrix(.7287319,0,0,.7295374,-64.85714,-18.968003)" stroke-width="2" stroke-linecap="round" stroke-linejoin="round" fill="none" stroke="#000000" d="M 302.0459 228.9541 C 307.318 234.2261 307.318 242.7739 302.0459 248.0459 C 296.7739 253.318 288.2261 253.318 282.9541 248.0459 C 277.682 242.7739 277.682 234.2261 282.9541 228.9541 C 288.2261 223.682 296.7739 223.682 302.0459 228.9541 "/>
<path transform="matrix(1,0,0,-1,0,205)" d="M 129.019 56.93742 C 132.8609 53.09125 132.8609 46.85537 129.019 43.0092 C 125.1771 39.163 118.9481 39.163 115.1062 43.0092 C 111.2642 46.85537 111.2642 53.09125 115.1062 56.93742 C 118.9481 60.78362 125.1771 60.78362 129.019 56.93742 " fill="#ffff7f"/>
<path transform="matrix(.7287319,0,0,.7295374,-64.85714,-18.968003)" stroke-width="2" stroke-linecap="round" stroke-linejoin="round" fill="none" stroke="#000000" d="M 266.0459 228.9541 C 271.318 234.2261 271.318 242.7739 266.0459 248.0459 C 260.7739 253.318 252.2261 253.318 246.9541 248.0459 C 241.682 242.7739 241.682 234.2261 246.9541 228.9541 C 252.2261 223.682 260.7739 223.682 266.0459 228.9541 "/>
<path transform="matrix(.7287319,0,0,.7295374,-64.85714,-18.968003)" stroke-width="1" stroke-linecap="round" stroke-linejoin="round" fill="none" stroke="#000000" d="M 90 27 L 135 27 L 135 72 L 90 72 Z "/>
<text xml:space="preserve" transform="matrix(.7287319 0 0 .7295374 17.1252 17.144104)" font-size="16" font-family="HelveticaNeue"><tspan y="-3.447998" x="-16.744 -6.3759996 -1.335999 7.256001 16.744002">Step </tspan></text>
<text xml:space="preserve" transform="matrix(.7287319 0 0 .7295374 17.1252 17.144104)" font-size="16" font-family="HelveticaNeue"><tspan y="15" x="-4.448">1</tspan></text>
<path transform="matrix(.7287319,0,0,.7295374,-64.85714,-18.968003)" stroke-width="1" stroke-linecap="round" stroke-linejoin="round" fill="none" stroke="#000000" d="M 144 27 L 225 27 L 225 72 L 144 72 Z "/>
<text xml:space="preserve" transform="matrix(.7287319 0 0 .7295374 69.5939 17.144104)" font-size="16" font-family="HelveticaNeue"><tspan y="5.776001" x="-23.416 -13.048 -8.007999 .5840006 10.072001 14.520002">Step 2</tspan></text>
<path transform="matrix(.7287319,0,0,.7295374,-64.85714,-18.968003)" stroke-width="1" stroke-linecap="round" stroke-linejoin="round" fill="none" stroke="#000000" d="M 234 27 L 351 27 L 351 72 L 234 72 Z "/>
<text xml:space="preserve" transform="matrix(.7287319 0 0 .7295374 148.2969 17.144104)" font-size="16" font-family="HelveticaNeue"><tspan y="5.776001" x="-23.416 -13.048 -8.007999 .5840006 10.072001 14.520002">Step 3</tspan></text>
<path transform="matrix(.7287319,0,0,.7295374,-64.85714,-18.968003)" stroke-width="1" stroke-linecap="round" stroke-linejoin="round" fill="none" stroke="#000000" d="M 360 27 L 513 27 L 513 72 L 360 72 Z "/>
<text xml:space="preserve" transform="matrix(.7287319 0 0 .7295374 253.2343 17.144104)" font-size="16" font-family="HelveticaNeue"><tspan y="5.776001" x="-23.416 -13.048 -8.007999 .5840006 10.072001 14.520002">Step 4</tspan></text>
<path transform="matrix(.7287319,0,0,.7295374,-64.85714,-18.968003)" stroke-width="1" stroke-linecap="round" stroke-linejoin="round" fill="none" stroke="#000000" d="M 522 27 L 711 27 L 711 72 L 522 72 Z "/>
<text xml:space="preserve" transform="matrix(.7287319 0 0 .7295374 384.4061 17.144104)" font-size="16" font-family="HelveticaNeue"><tspan y="5.776001" x="-23.416 -13.048 -8.007999 .5840006 10.072001 14.520002">Step 5</tspan></text>
<path transform="matrix(1,0,0,-1,0,205)" d="M 233.1608 69.27254 C 237.0026 65.42635 243.2317 65.42635 247.0736 69.27254 C 250.9155 73.11868 250.9155 79.35462 247.0736 83.20075 C 243.2317 87.04694 237.0026 87.04694 233.1608 83.20075 C 229.3188 79.35462 229.3188 73.11868 233.1608 69.27254 " fill="#ffff7f"/>
<path transform="matrix(.7287319,0,0,.7295374,-64.85714,-18.968003)" stroke-width="2" stroke-linecap="round" stroke-linejoin="round" fill="none" stroke="#000000" d="M 408.9541 212.0459 C 414.2261 217.318 422.7739 217.318 428.0459 212.0459 C 433.318 206.7739 433.318 198.2261 428.0459 192.9541 C 422.7739 187.682 414.2261 187.682 408.9541 192.9541 C 403.682 198.2261 403.682 206.7739 408.9541 212.0459 "/>
<path transform="matrix(1,0,0,-1,0,205)" d="M 259.3951 69.27254 C 263.237 65.42635 269.466 65.42635 273.3079 69.27254 C 277.1499 73.11868 277.1499 79.35462 273.3079 83.20075 C 269.466 87.04694 263.237 87.04694 259.3951 83.20075 C 255.5532 79.35462 255.5532 73.11868 259.3951 69.27254 " fill="#ffff7f"/>
<path transform="matrix(.7287319,0,0,.7295374,-64.85714,-18.968003)" stroke-width="2" stroke-linecap="round" stroke-linejoin="round" fill="none" stroke="#000000" d="M 444.9541 212.0459 C 450.2261 217.318 458.7739 217.318 464.0459 212.0459 C 469.318 206.7739 469.318 198.2261 464.0459 192.9541 C 458.7739 187.682 450.2261 187.682 444.9541 192.9541 C 439.682 198.2261 439.682 206.7739 444.9541 212.0459 "/>
<path transform="matrix(1,0,0,-1,0,205)" d="M 259.3951 95.53591 C 263.237 91.68972 269.466 91.68972 273.3079 95.53591 C 277.1499 99.38203 277.1499 105.618 273.3079 109.4641 C 269.466 113.3103 263.237 113.3103 259.3951 109.4641 C 255.5532 105.618 255.5532 99.38203 259.3951 95.53591 " fill="#ffff7f"/>
<path transform="matrix(.7287319,0,0,.7295374,-64.85714,-18.968003)" stroke-width="2" stroke-linecap="round" stroke-linejoin="round" fill="none" stroke="#000000" d="M 444.9541 176.0459 C 450.2261 181.318 458.7739 181.318 464.0459 176.0459 C 469.318 170.7739 469.318 162.2261 464.0459 156.9541 C 458.7739 151.682 450.2261 151.682 444.9541 156.9541 C 439.682 162.2261 439.682 170.7739 444.9541 176.0459 "/>
<path transform="matrix(1,0,0,-1,0,205)" d="M 285.6295 69.27254 C 289.4713 65.42635 295.7004 65.42635 299.5423 69.27254 C 303.3842 73.11868 303.3842 79.35462 299.5423 83.20075 C 295.7004 87.04694 289.4713 87.04694 285.6295 83.20075 C 281.7875 79.35462 281.7875 73.11868 285.6295 69.27254 " fill="#ffff7f"/>
<path transform="matrix(.7287319,0,0,.7295374,-64.85714,-18.968003)" stroke-width="2" stroke-linecap="round" stroke-linejoin="round" fill="none" stroke="#000000" d="M 480.9541 212.0459 C 486.2261 217.318 494.7739 217.318 500.0459 212.0459 C 505.318 206.7739 505.318 198.2261 500.0459 192.9541 C 494.7739 187.682 486.2261 187.682 480.9541 192.9541 C 475.682 198.2261 475.682 206.7739 480.9541 212.0459 "/>
<path transform="matrix(1,0,0,-1,0,205)" d="M 285.6295 95.53591 C 289.4713 91.68972 295.7004 91.68972 299.5423 95.53591 C 303.3842 99.38203 303.3842 105.618 299.5423 109.4641 C 295.7004 113.3103 289.4713 113.3103 285.6295 109.4641 C 281.7875 105.618 281.7875 99.38203 285.6295 95.53591 " fill="#ffff7f"/>
<path transform="matrix(.7287319,0,0,.7295374,-64.85714,-18.968003)" stroke-width="2" stroke-linecap="round" stroke-linejoin="round" fill="none" stroke="#000000" d="M 480.9541 176.0459 C 486.2261 181.318 494.7739 181.318 500.0459 176.0459 C 505.318 170.7739 505.318 162.2261 500.0459 156.9541 C 494.7739 151.682 486.2261 151.682 480.9541 156.9541 C 475.682 162.2261 475.682 170.7739 480.9541 176.0459 "/>
<path transform="matrix(1,0,0,-1,0,205)" d="M 285.6295 121.7993 C 289.4713 117.9531 295.7004 117.9531 299.5423 121.7993 C 303.3842 125.6454 303.3842 131.8813 299.5423 135.7274 C 295.7004 139.5736 289.4713 139.5736 285.6295 135.7274 C 281.7875 131.8813 281.7875 125.6454 285.6295 121.7993 " fill="#ffff7f"/>
<path transform="matrix(.7287319,0,0,.7295374,-64.85714,-18.968003)" stroke-width="2" stroke-linecap="round" stroke-linejoin="round" fill="none" stroke="#000000" d="M 480.9541 140.0459 C 486.2261 145.318 494.7739 145.318 500.0459 140.0459 C 505.318 134.7739 505.318 126.2261 500.0459 120.9541 C 494.7739 115.682 486.2261 115.682 480.9541 120.9541 C 475.682 126.2261 475.682 134.7739 480.9541 140.0459 "/>
<path transform="matrix(1,0,0,-1,0,205)" d="M 233.1608 43.0092 C 237.0026 39.163 243.2317 39.163 247.0736 43.0092 C 250.9155 46.85537 250.9155 53.09125 247.0736 56.93742 C 243.2317 60.78362 237.0026 60.78362 233.1608 56.93742 C 229.3188 53.09125 229.3188 46.85537 233.1608 43.0092 " fill="#ffff7f"/>
<path transform="matrix(.7287319,0,0,.7295374,-64.85714,-18.968003)" stroke-width="2" stroke-linecap="round" stroke-linejoin="round" fill="none" stroke="#000000" d="M 408.9541 248.0459 C 414.2261 253.318 422.7739 253.318 428.0459 248.0459 C 433.318 242.7739 433.318 234.2261 428.0459 228.9541 C 422.7739 223.682 414.2261 223.682 408.9541 228.9541 C 403.682 234.2261 403.682 242.7739 408.9541 248.0459 "/>
<path transform="matrix(1,0,0,-1,0,205)" d="M 259.3951 43.0092 C 263.237 39.163 269.466 39.163 273.3079 43.0092 C 277.1499 46.85537 277.1499 53.09125 273.3079 56.93742 C 269.466 60.78362 263.237 60.78362 259.3951 56.93742 C 255.5532 53.09125 255.5532 46.85537 259.3951 43.0092 " fill="#ffff7f"/>
<path transform="matrix(.7287319,0,0,.7295374,-64.85714,-18.968003)" stroke-width="2" stroke-linecap="round" stroke-linejoin="round" fill="none" stroke="#000000" d="M 444.9541 248.0459 C 450.2261 253.318 458.7739 253.318 464.0459 248.0459 C 469.318 242.7739 469.318 234.2261 464.0459 228.9541 C 458.7739 223.682 450.2261 223.682 444.9541 228.9541 C 439.682 234.2261 439.682 242.7739 444.9541 248.0459 "/>
<path transform="matrix(1,0,0,-1,0,205)" d="M 285.6295 43.0092 C 289.4713 39.163 295.7004 39.163 299.5423 43.0092 C 303.3842 46.85537 303.3842 53.09125 299.5423 56.93742 C 295.7004 60.78362 289.4713 60.78362 285.6295 56.93742 C 281.7875 53.09125 281.7875 46.85537 285.6295 43.0092 " fill="#ffff7f"/>
<path transform="matrix(.7287319,0,0,.7295374,-64.85714,-18.968003)" stroke-width="2" stroke-linecap="round" stroke-linejoin="round" fill="none" stroke="#000000" d="M 480.9541 248.0459 C 486.2261 253.318 494.7739 253.318 500.0459 248.0459 C 505.318 242.7739 505.318 234.2261 500.0459 228.9541 C 494.7739 223.682 486.2261 223.682 480.9541 228.9541 C 475.682 234.2261 475.682 242.7739 480.9541 248.0459 "/>
<path transform="matrix(1,0,0,-1,0,205)" d="M 206.9264 43.0092 C 210.7683 39.163 216.9973 39.163 220.8392 43.0092 C 224.6812 46.85537 224.6812 53.09125 220.8392 56.93742 C 216.9973 60.78362 210.7683 60.78362 206.9264 56.93742 C 203.0845 53.09125 203.0845 46.85537 206.9264 43.0092 " fill="#ffff7f"/>
<path transform="matrix(.7287319,0,0,.7295374,-64.85714,-18.968003)" stroke-width="2" stroke-linecap="round" stroke-linejoin="round" fill="none" stroke="#000000" d="M 372.9541 248.0459 C 378.2261 253.318 386.7739 253.318 392.0459 248.0459 C 397.318 242.7739 397.318 234.2261 392.0459 228.9541 C 386.7739 223.682 378.2261 223.682 372.9541 228.9541 C 367.682 234.2261 367.682 242.7739 372.9541 248.0459 "/>
<path transform="matrix(.7287319,0,0,.7295374,-64.85714,-18.968003)" stroke-width="1" stroke-linecap="round" stroke-linejoin="round" fill="none" stroke="#000000" d="M 90 261 L 135 261 L 135 306 L 90 306 Z "/>
<path transform="matrix(.7287319,0,0,.7295374,-64.85714,-18.968003)" stroke-width="1" stroke-linecap="round" stroke-linejoin="round" fill="none" stroke="#000000" d="M 144 261 L 225 261 L 225 306 L 144 306 Z "/>
<path transform="matrix(.7287319,0,0,.7295374,-64.85714,-18.968003)" stroke-width="1" stroke-linecap="round" stroke-linejoin="round" fill="none" stroke="#000000" d="M 234 261 L 351 261 L 351 306 L 234 306 Z "/>
<path transform="matrix(.7287319,0,0,.7295374,-64.85714,-18.968003)" stroke-width="1" stroke-linecap="round" stroke-linejoin="round" fill="none" stroke="#000000" d="M 360 261 L 513 261 L 513 306 L 360 306 Z "/>
<path transform="matrix(.7287319,0,0,.7295374,-64.85714,-18.968003)" stroke-width="1" stroke-linecap="round" stroke-linejoin="round" fill="none" stroke="#000000" d="M 522 261 L 711 261 L 711 306 L 522 306 Z "/>
</g>
</g>
</svg>
