<?xml version="1.0" encoding="UTF-8" standalone="no"?>
<svg
   xmlns:dc="http://purl.org/dc/elements/1.1/"
   xmlns:cc="http://creativecommons.org/ns#"
   xmlns:rdf="http://www.w3.org/1999/02/22-rdf-syntax-ns#"
   xmlns:svg="http://www.w3.org/2000/svg"
   xmlns="http://www.w3.org/2000/svg"
   viewBox="0 0 344 281.33334"
   height="281.33334"
   width="344"
   xml:space="preserve"
   id="svg2"
   version="1.1"><metadata
     id="metadata8"><rdf:RDF><cc:Work
         rdf:about=""><dc:format>image/svg+xml</dc:format><dc:type
           rdf:resource="http://purl.org/dc/dcmitype/StillImage" /></cc:Work></rdf:RDF></metadata><defs
     id="defs6"><clipPath
       id="clipPath20"
       clipPathUnits="userSpaceOnUse"><path
         id="path18"
         d="M 0,0 H 258 V 211 H 0 Z" /></clipPath><clipPath
       id="clipPath30"
       clipPathUnits="userSpaceOnUse"><path
         id="path28"
         d="M 0,-2.96937e-6 H 258 V 211 H 0 Z" /></clipPath></defs><g
     transform="matrix(1.3333333,0,0,-1.3333333,0,281.33333)"
     id="g10"><g
       id="g12" /><g
       id="g14"><g
         clip-path="url(#clipPath20)"
         id="g16"><path
           id="path22"
           style="fill:#ffffff;fill-opacity:1;fill-rule:nonzero;stroke:none"
           d="M 0,211 H 258 V 0 H 0 Z" /></g></g><g
       id="g24"><g
         clip-path="url(#clipPath30)"
         id="g26"><g
           transform="matrix(0.4436721,0,0,-0.4429909,0,223.6464)"
           id="g32"><path
             id="path34"
             style="fill:none;stroke:#000000;stroke-width:1;stroke-linecap:round;stroke-linejoin:round;stroke-miterlimit:10;stroke-dasharray:none;stroke-opacity:1"
             d="m 17,495 h 551 c 4.4183,0 8,-3.5817 8,-8 V 44 c 0,-4.41828 -3.5817,-8 -8,-8 H 17 c -4.41828,0 -8,3.58172 -8,8 v 443 c 0,4.4183 3.58172,8 8,8 z" /></g><g
           transform="matrix(0.4436721,0,0,-0.4429909,0,223.6464)"
           id="g36"><path
             id="path38"
             style="fill:none;stroke:#c0c0c0;stroke-width:1;stroke-linecap:round;stroke-linejoin:round;stroke-miterlimit:10;stroke-dasharray:none;stroke-opacity:1"
             d="M 54,423 H 558" /></g><g
           transform="matrix(0.4436721,0,0,-0.4429909,0,223.6464)"
           id="g40"><path
             id="path42"
             style="fill:none;stroke:#c0c0c0;stroke-width:1;stroke-linecap:round;stroke-linejoin:round;stroke-miterlimit:10;stroke-dasharray:none;stroke-opacity:1"
             d="M 81,54 V 450" /></g><g
           transform="matrix(0.4436721,0,0,-0.4429909,0,223.6464)"
           id="g44"><path
             id="path46"
             style="fill:none;stroke:#c0c0c0;stroke-width:1;stroke-linecap:round;stroke-linejoin:round;stroke-miterlimit:10;stroke-dasharray:none;stroke-opacity:1"
             d="M 144,54 V 450" /></g><g
           transform="matrix(0.4436721,0,0,-0.4429909,0,223.6464)"
           id="g48"><path
             id="path50"
             style="fill:none;stroke:#c0c0c0;stroke-width:1;stroke-linecap:round;stroke-linejoin:round;stroke-miterlimit:10;stroke-dasharray:none;stroke-opacity:1"
             d="M 216,54 V 450" /></g><g
           transform="matrix(0.4436721,0,0,-0.4429909,0,223.6464)"
           id="g52"><path
             id="path54"
             style="fill:none;stroke:#c0c0c0;stroke-width:1;stroke-linecap:round;stroke-linejoin:round;stroke-miterlimit:10;stroke-dasharray:none;stroke-opacity:1"
             d="M 288,54 V 450" /></g><g
           transform="matrix(0.4436721,0,0,-0.4429909,0,223.6464)"
           id="g56"><path
             id="path58"
             style="fill:none;stroke:#c0c0c0;stroke-width:1;stroke-linecap:round;stroke-linejoin:round;stroke-miterlimit:10;stroke-dasharray:none;stroke-opacity:1"
             d="M 360,54 V 450" /></g><g
           transform="matrix(0.4436721,0,0,-0.4429909,0,223.6464)"
           id="g60"><path
             id="path62"
             style="fill:none;stroke:#c0c0c0;stroke-width:1;stroke-linecap:round;stroke-linejoin:round;stroke-miterlimit:10;stroke-dasharray:none;stroke-opacity:1"
             d="M 504,54 V 450" /></g><g
           transform="matrix(0.4436721,0,0,-0.4429909,0,223.6464)"
           id="g64"><path
             id="path66"
             style="fill:none;stroke:#c0c0c0;stroke-width:1;stroke-linecap:round;stroke-linejoin:round;stroke-miterlimit:10;stroke-dasharray:none;stroke-opacity:1"
             d="M 54,144 H 558" /></g><g
           transform="matrix(0.4436721,0,0,-0.4429909,0,223.6464)"
           id="g68"><path
             id="path70"
             style="fill:none;stroke:#c0c0c0;stroke-width:1;stroke-linecap:round;stroke-linejoin:round;stroke-miterlimit:10;stroke-dasharray:none;stroke-opacity:1"
             d="M 54,216 H 558" /></g><g
           transform="matrix(0.4436721,0,0,-0.4429909,0,223.6464)"
           id="g72"><path
             id="path74"
             style="fill:none;stroke:#c0c0c0;stroke-width:1;stroke-linecap:round;stroke-linejoin:round;stroke-miterlimit:10;stroke-dasharray:none;stroke-opacity:1"
             d="M 54,288 H 558" /></g><g
           transform="matrix(0.4436721,0,0,-0.4429909,0,223.6464)"
           id="g76"><path
             id="path78"
             style="fill:none;stroke:#c0c0c0;stroke-width:1;stroke-linecap:round;stroke-linejoin:round;stroke-miterlimit:10;stroke-dasharray:none;stroke-opacity:1"
             d="M 54,360 H 558" /></g><g
           transform="matrix(0.4436721,0,0,-0.4429909,0,223.6464)"
           id="g80"><path
             id="path82"
             style="fill:none;stroke:#c0c0c0;stroke-width:1;stroke-linecap:round;stroke-linejoin:round;stroke-miterlimit:10;stroke-dasharray:none;stroke-opacity:1"
             d="M 54,54 H 558" /></g><g
           transform="matrix(0.4436721,0,0,-0.4429909,0,223.6464)"
           id="g84"><path
             id="path86"
             style="fill:none;stroke:#c0c0c0;stroke-width:1;stroke-linecap:round;stroke-linejoin:round;stroke-miterlimit:10;stroke-dasharray:none;stroke-opacity:1"
             d="M 54,63 H 558" /></g><g
           transform="matrix(0.4436721,0,0,-0.4429909,0,223.6464)"
           id="g88"><path
             id="path90"
             style="fill:none;stroke:#c0c0c0;stroke-width:1;stroke-linecap:round;stroke-linejoin:round;stroke-miterlimit:10;stroke-dasharray:none;stroke-opacity:1"
             d="M 54,81 H 558" /></g><g
           transform="matrix(0.4436721,0,0,-0.4429909,0,223.6464)"
           id="g92"><path
             id="path94"
             style="fill:none;stroke:#c0c0c0;stroke-width:1;stroke-linecap:round;stroke-linejoin:round;stroke-miterlimit:10;stroke-dasharray:none;stroke-opacity:1"
             d="M 54,90 H 558" /></g><g
           transform="matrix(0.4436721,0,0,-0.4429909,0,223.6464)"
           id="g96"><path
             id="path98"
             style="fill:none;stroke:#c0c0c0;stroke-width:1;stroke-linecap:round;stroke-linejoin:round;stroke-miterlimit:10;stroke-dasharray:none;stroke-opacity:1"
             d="M 54,99 H 558" /></g><g
           transform="matrix(0.4436721,0,0,-0.4429909,0,223.6464)"
           id="g100"><path
             id="path102"
             style="fill:none;stroke:#c0c0c0;stroke-width:1;stroke-linecap:round;stroke-linejoin:round;stroke-miterlimit:10;stroke-dasharray:none;stroke-opacity:1"
             d="M 54,108 H 558" /></g><g
           transform="matrix(0.4436721,0,0,-0.4429909,0,223.6464)"
           id="g104"><path
             id="path106"
             style="fill:none;stroke:#c0c0c0;stroke-width:1;stroke-linecap:round;stroke-linejoin:round;stroke-miterlimit:10;stroke-dasharray:none;stroke-opacity:1"
             d="M 54,117 H 558" /></g><g
           transform="matrix(0.4436721,0,0,-0.4429909,0,223.6464)"
           id="g108"><path
             id="path110"
             style="fill:none;stroke:#c0c0c0;stroke-width:1;stroke-linecap:round;stroke-linejoin:round;stroke-miterlimit:10;stroke-dasharray:none;stroke-opacity:1"
             d="M 54,126 H 558" /></g><g
           transform="matrix(0.4436721,0,0,-0.4429909,0,223.6464)"
           id="g112"><path
             id="path114"
             style="fill:none;stroke:#c0c0c0;stroke-width:1;stroke-linecap:round;stroke-linejoin:round;stroke-miterlimit:10;stroke-dasharray:none;stroke-opacity:1"
             d="M 54,135 H 558" /></g><g
           transform="matrix(0.4436721,0,0,-0.4429909,0,223.6464)"
           id="g116"><path
             id="path118"
             style="fill:none;stroke:#c0c0c0;stroke-width:1;stroke-linecap:round;stroke-linejoin:round;stroke-miterlimit:10;stroke-dasharray:none;stroke-opacity:1"
             d="M 54,153 H 558" /></g><g
           transform="matrix(0.4436721,0,0,-0.4429909,0,223.6464)"
           id="g120"><path
             id="path122"
             style="fill:none;stroke:#c0c0c0;stroke-width:1;stroke-linecap:round;stroke-linejoin:round;stroke-miterlimit:10;stroke-dasharray:none;stroke-opacity:1"
             d="M 54,171 H 558" /></g><g
           transform="matrix(0.4436721,0,0,-0.4429909,0,223.6464)"
           id="g124"><path
             id="path126"
             style="fill:none;stroke:#c0c0c0;stroke-width:1;stroke-linecap:round;stroke-linejoin:round;stroke-miterlimit:10;stroke-dasharray:none;stroke-opacity:1"
             d="M 54,180 H 558" /></g><g
           transform="matrix(0.4436721,0,0,-0.4429909,0,223.6464)"
           id="g128"><path
             id="path130"
             style="fill:none;stroke:#c0c0c0;stroke-width:1;stroke-linecap:round;stroke-linejoin:round;stroke-miterlimit:10;stroke-dasharray:none;stroke-opacity:1"
             d="M 54,189 H 558" /></g><g
           transform="matrix(0.4436721,0,0,-0.4429909,0,223.6464)"
           id="g132"><path
             id="path134"
             style="fill:none;stroke:#c0c0c0;stroke-width:1;stroke-linecap:round;stroke-linejoin:round;stroke-miterlimit:10;stroke-dasharray:none;stroke-opacity:1"
             d="M 54,198 H 558" /></g><g
           transform="matrix(0.4436721,0,0,-0.4429909,0,223.6464)"
           id="g136"><path
             id="path138"
             style="fill:none;stroke:#c0c0c0;stroke-width:1;stroke-linecap:round;stroke-linejoin:round;stroke-miterlimit:10;stroke-dasharray:none;stroke-opacity:1"
             d="M 54,207 H 558" /></g><g
           transform="matrix(0.4436721,0,0,-0.4429909,0,223.6464)"
           id="g140"><path
             id="path142"
             style="fill:none;stroke:#c0c0c0;stroke-width:1;stroke-linecap:round;stroke-linejoin:round;stroke-miterlimit:10;stroke-dasharray:none;stroke-opacity:1"
             d="M 54,225 H 558" /></g><g
           transform="matrix(0.4436721,0,0,-0.4429909,0,223.6464)"
           id="g144"><path
             id="path146"
             style="fill:none;stroke:#c0c0c0;stroke-width:1;stroke-linecap:round;stroke-linejoin:round;stroke-miterlimit:10;stroke-dasharray:none;stroke-opacity:1"
             d="M 54,234 H 558" /></g><g
           transform="matrix(0.4436721,0,0,-0.4429909,0,223.6464)"
           id="g148"><path
             id="path150"
             style="fill:none;stroke:#c0c0c0;stroke-width:1;stroke-linecap:round;stroke-linejoin:round;stroke-miterlimit:10;stroke-dasharray:none;stroke-opacity:1"
             d="M 54,243 H 558" /></g><g
           transform="matrix(0.4436721,0,0,-0.4429909,0,223.6464)"
           id="g152"><path
             id="path154"
             style="fill:none;stroke:#c0c0c0;stroke-width:1;stroke-linecap:round;stroke-linejoin:round;stroke-miterlimit:10;stroke-dasharray:none;stroke-opacity:1"
             d="M 54,261 H 558" /></g><g
           transform="matrix(0.4436721,0,0,-0.4429909,0,223.6464)"
           id="g156"><path
             id="path158"
             style="fill:none;stroke:#c0c0c0;stroke-width:1;stroke-linecap:round;stroke-linejoin:round;stroke-miterlimit:10;stroke-dasharray:none;stroke-opacity:1"
             d="M 54,270 H 558" /></g><g
           transform="matrix(0.4436721,0,0,-0.4429909,0,223.6464)"
           id="g160"><path
             id="path162"
             style="fill:none;stroke:#c0c0c0;stroke-width:1;stroke-linecap:round;stroke-linejoin:round;stroke-miterlimit:10;stroke-dasharray:none;stroke-opacity:1"
             d="M 54,279 H 558" /></g><g
           transform="matrix(0.4436721,0,0,-0.4429909,0,223.6464)"
           id="g164"><path
             id="path166"
             style="fill:none;stroke:#c0c0c0;stroke-width:1;stroke-linecap:round;stroke-linejoin:round;stroke-miterlimit:10;stroke-dasharray:none;stroke-opacity:1"
             d="M 54,297 H 558" /></g><g
           transform="matrix(0.4436721,0,0,-0.4429909,0,223.6464)"
           id="g168"><path
             id="path170"
             style="fill:none;stroke:#c0c0c0;stroke-width:1;stroke-linecap:round;stroke-linejoin:round;stroke-miterlimit:10;stroke-dasharray:none;stroke-opacity:1"
             d="M 54,306 H 558" /></g><g
           transform="matrix(0.4436721,0,0,-0.4429909,0,223.6464)"
           id="g172"><path
             id="path174"
             style="fill:none;stroke:#c0c0c0;stroke-width:1;stroke-linecap:round;stroke-linejoin:round;stroke-miterlimit:10;stroke-dasharray:none;stroke-opacity:1"
             d="M 54,315 H 558" /></g><g
           transform="matrix(0.4436721,0,0,-0.4429909,0,223.6464)"
           id="g176"><path
             id="path178"
             style="fill:none;stroke:#c0c0c0;stroke-width:1;stroke-linecap:round;stroke-linejoin:round;stroke-miterlimit:10;stroke-dasharray:none;stroke-opacity:1"
             d="M 54,324 H 558" /></g><g
           transform="matrix(0.4436721,0,0,-0.4429909,0,223.6464)"
           id="g180"><path
             id="path182"
             style="fill:none;stroke:#c0c0c0;stroke-width:1;stroke-linecap:round;stroke-linejoin:round;stroke-miterlimit:10;stroke-dasharray:none;stroke-opacity:1"
             d="M 54,333 H 558" /></g><g
           transform="matrix(0.4436721,0,0,-0.4429909,0,223.6464)"
           id="g184"><path
             id="path186"
             style="fill:none;stroke:#c0c0c0;stroke-width:1;stroke-linecap:round;stroke-linejoin:round;stroke-miterlimit:10;stroke-dasharray:none;stroke-opacity:1"
             d="M 54,351 H 558" /></g><g
           transform="matrix(0.4436721,0,0,-0.4429909,0,223.6464)"
           id="g188"><path
             id="path190"
             style="fill:none;stroke:#c0c0c0;stroke-width:1;stroke-linecap:round;stroke-linejoin:round;stroke-miterlimit:10;stroke-dasharray:none;stroke-opacity:1"
             d="M 54,369 H 558" /></g><g
           transform="matrix(0.4436721,0,0,-0.4429909,0,223.6464)"
           id="g192"><path
             id="path194"
             style="fill:none;stroke:#c0c0c0;stroke-width:1;stroke-linecap:round;stroke-linejoin:round;stroke-miterlimit:10;stroke-dasharray:none;stroke-opacity:1"
             d="M 54,378 H 558" /></g><g
           transform="matrix(0.4436721,0,0,-0.4429909,0,223.6464)"
           id="g196"><path
             id="path198"
             style="fill:none;stroke:#c0c0c0;stroke-width:1;stroke-linecap:round;stroke-linejoin:round;stroke-miterlimit:10;stroke-dasharray:none;stroke-opacity:1"
             d="M 54,387 H 558" /></g><g
           transform="matrix(0.4436721,0,0,-0.4429909,0,223.6464)"
           id="g200"><path
             id="path202"
             style="fill:none;stroke:#c0c0c0;stroke-width:1;stroke-linecap:round;stroke-linejoin:round;stroke-miterlimit:10;stroke-dasharray:none;stroke-opacity:1"
             d="M 54,396 H 558" /></g><g
           transform="matrix(0.4436721,0,0,-0.4429909,0,223.6464)"
           id="g204"><path
             id="path206"
             style="fill:none;stroke:#c0c0c0;stroke-width:1;stroke-linecap:round;stroke-linejoin:round;stroke-miterlimit:10;stroke-dasharray:none;stroke-opacity:1"
             d="M 54,405 H 558" /></g><g
           transform="matrix(0.4436721,0,0,-0.4429909,0,223.6464)"
           id="g208"><path
             id="path210"
             style="fill:none;stroke:#c0c0c0;stroke-width:1;stroke-linecap:round;stroke-linejoin:round;stroke-miterlimit:10;stroke-dasharray:none;stroke-opacity:1"
             d="M 54,414 H 558" /></g><g
           transform="matrix(0.4436721,0,0,-0.4429909,0,223.6464)"
           id="g212"><path
             id="path214"
             style="fill:none;stroke:#c0c0c0;stroke-width:1;stroke-linecap:round;stroke-linejoin:round;stroke-miterlimit:10;stroke-dasharray:none;stroke-opacity:1"
             d="M 90,54 V 450" /></g><g
           transform="matrix(0.4436721,0,0,-0.4429909,0,223.6464)"
           id="g216"><path
             id="path218"
             style="fill:none;stroke:#c0c0c0;stroke-width:1;stroke-linecap:round;stroke-linejoin:round;stroke-miterlimit:10;stroke-dasharray:none;stroke-opacity:1"
             d="M 99,54 V 450" /></g><g
           transform="matrix(0.4436721,0,0,-0.4429909,0,223.6464)"
           id="g220"><path
             id="path222"
             style="fill:none;stroke:#c0c0c0;stroke-width:1;stroke-linecap:round;stroke-linejoin:round;stroke-miterlimit:10;stroke-dasharray:none;stroke-opacity:1"
             d="M 108,54 V 450" /></g><g
           transform="matrix(0.4436721,0,0,-0.4429909,0,223.6464)"
           id="g224"><path
             id="path226"
             style="fill:none;stroke:#c0c0c0;stroke-width:1;stroke-linecap:round;stroke-linejoin:round;stroke-miterlimit:10;stroke-dasharray:none;stroke-opacity:1"
             d="M 117,54 V 450" /></g><g
           transform="matrix(0.4436721,0,0,-0.4429909,0,223.6464)"
           id="g228"><path
             id="path230"
             style="fill:none;stroke:#c0c0c0;stroke-width:1;stroke-linecap:round;stroke-linejoin:round;stroke-miterlimit:10;stroke-dasharray:none;stroke-opacity:1"
             d="M 126,54 V 450" /></g><g
           transform="matrix(0.4436721,0,0,-0.4429909,0,223.6464)"
           id="g232"><path
             id="path234"
             style="fill:none;stroke:#c0c0c0;stroke-width:1;stroke-linecap:round;stroke-linejoin:round;stroke-miterlimit:10;stroke-dasharray:none;stroke-opacity:1"
             d="M 135,54 V 450" /></g><g
           transform="matrix(0.4436721,0,0,-0.4429909,0,223.6464)"
           id="g236"><path
             id="path238"
             style="fill:none;stroke:#c0c0c0;stroke-width:1;stroke-linecap:round;stroke-linejoin:round;stroke-miterlimit:10;stroke-dasharray:none;stroke-opacity:1"
             d="M 153,54 V 450" /></g><g
           transform="matrix(0.4436721,0,0,-0.4429909,0,223.6464)"
           id="g240"><path
             id="path242"
             style="fill:none;stroke:#c0c0c0;stroke-width:1;stroke-linecap:round;stroke-linejoin:round;stroke-miterlimit:10;stroke-dasharray:none;stroke-opacity:1"
             d="M 171,54 V 450" /></g><g
           transform="matrix(0.4436721,0,0,-0.4429909,0,223.6464)"
           id="g244"><path
             id="path246"
             style="fill:none;stroke:#c0c0c0;stroke-width:1;stroke-linecap:round;stroke-linejoin:round;stroke-miterlimit:10;stroke-dasharray:none;stroke-opacity:1"
             d="M 189,54 V 450" /></g><g
           transform="matrix(0.4436721,0,0,-0.4429909,0,223.6464)"
           id="g248"><path
             id="path250"
             style="fill:none;stroke:#c0c0c0;stroke-width:1;stroke-linecap:round;stroke-linejoin:round;stroke-miterlimit:10;stroke-dasharray:none;stroke-opacity:1"
             d="M 180,54 V 450" /></g><g
           transform="matrix(0.4436721,0,0,-0.4429909,0,223.6464)"
           id="g252"><path
             id="path254"
             style="fill:none;stroke:#c0c0c0;stroke-width:1;stroke-linecap:round;stroke-linejoin:round;stroke-miterlimit:10;stroke-dasharray:none;stroke-opacity:1"
             d="M 198,54 V 450" /></g><g
           transform="matrix(0.4436721,0,0,-0.4429909,0,223.6464)"
           id="g256"><path
             id="path258"
             style="fill:none;stroke:#c0c0c0;stroke-width:1;stroke-linecap:round;stroke-linejoin:round;stroke-miterlimit:10;stroke-dasharray:none;stroke-opacity:1"
             d="M 207,54 V 450" /></g><g
           transform="matrix(0.4436721,0,0,-0.4429909,0,223.6464)"
           id="g260"><path
             id="path262"
             style="fill:none;stroke:#c0c0c0;stroke-width:1;stroke-linecap:round;stroke-linejoin:round;stroke-miterlimit:10;stroke-dasharray:none;stroke-opacity:1"
             d="M 225,54 V 450" /></g><g
           transform="matrix(0.4436721,0,0,-0.4429909,0,223.6464)"
           id="g264"><path
             id="path266"
             style="fill:none;stroke:#c0c0c0;stroke-width:1;stroke-linecap:round;stroke-linejoin:round;stroke-miterlimit:10;stroke-dasharray:none;stroke-opacity:1"
             d="M 234,54 V 450" /></g><g
           transform="matrix(0.4436721,0,0,-0.4429909,0,223.6464)"
           id="g268"><path
             id="path270"
             style="fill:none;stroke:#c0c0c0;stroke-width:1;stroke-linecap:round;stroke-linejoin:round;stroke-miterlimit:10;stroke-dasharray:none;stroke-opacity:1"
             d="M 243,54 V 450" /></g><g
           transform="matrix(0.4436721,0,0,-0.4429909,0,223.6464)"
           id="g272"><path
             id="path274"
             style="fill:none;stroke:#c0c0c0;stroke-width:1;stroke-linecap:round;stroke-linejoin:round;stroke-miterlimit:10;stroke-dasharray:none;stroke-opacity:1"
             d="M 261,54 V 450" /></g><g
           transform="matrix(0.4436721,0,0,-0.4429909,0,223.6464)"
           id="g276"><path
             id="path278"
             style="fill:none;stroke:#c0c0c0;stroke-width:1;stroke-linecap:round;stroke-linejoin:round;stroke-miterlimit:10;stroke-dasharray:none;stroke-opacity:1"
             d="M 270,54 V 450" /></g><g
           transform="matrix(0.4436721,0,0,-0.4429909,0,223.6464)"
           id="g280"><path
             id="path282"
             style="fill:none;stroke:#c0c0c0;stroke-width:1;stroke-linecap:round;stroke-linejoin:round;stroke-miterlimit:10;stroke-dasharray:none;stroke-opacity:1"
             d="M 279,54 V 450" /></g><g
           transform="matrix(0.4436721,0,0,-0.4429909,0,223.6464)"
           id="g284"><path
             id="path286"
             style="fill:none;stroke:#c0c0c0;stroke-width:1;stroke-linecap:round;stroke-linejoin:round;stroke-miterlimit:10;stroke-dasharray:none;stroke-opacity:1"
             d="M 297,54 V 450" /></g><g
           transform="matrix(0.4436721,0,0,-0.4429909,0,223.6464)"
           id="g288"><path
             id="path290"
             style="fill:none;stroke:#c0c0c0;stroke-width:1;stroke-linecap:round;stroke-linejoin:round;stroke-miterlimit:10;stroke-dasharray:none;stroke-opacity:1"
             d="M 306,54 V 450" /></g><g
           transform="matrix(0.4436721,0,0,-0.4429909,0,223.6464)"
           id="g292"><path
             id="path294"
             style="fill:none;stroke:#c0c0c0;stroke-width:1;stroke-linecap:round;stroke-linejoin:round;stroke-miterlimit:10;stroke-dasharray:none;stroke-opacity:1"
             d="M 315,54 V 450" /></g><g
           transform="matrix(0.4436721,0,0,-0.4429909,0,223.6464)"
           id="g296"><path
             id="path298"
             style="fill:none;stroke:#c0c0c0;stroke-width:1;stroke-linecap:round;stroke-linejoin:round;stroke-miterlimit:10;stroke-dasharray:none;stroke-opacity:1"
             d="M 324,54 V 450" /></g><g
           transform="matrix(0.4436721,0,0,-0.4429909,0,223.6464)"
           id="g300"><path
             id="path302"
             style="fill:none;stroke:#c0c0c0;stroke-width:1;stroke-linecap:round;stroke-linejoin:round;stroke-miterlimit:10;stroke-dasharray:none;stroke-opacity:1"
             d="M 333,54 V 450" /></g><g
           transform="matrix(0.4436721,0,0,-0.4429909,0,223.6464)"
           id="g304"><path
             id="path306"
             style="fill:none;stroke:#c0c0c0;stroke-width:1;stroke-linecap:round;stroke-linejoin:round;stroke-miterlimit:10;stroke-dasharray:none;stroke-opacity:1"
             d="M 351,54 V 450" /></g><g
           transform="matrix(0.4436721,0,0,-0.4429909,0,223.6464)"
           id="g308"><path
             id="path310"
             style="fill:none;stroke:#c0c0c0;stroke-width:1;stroke-linecap:round;stroke-linejoin:round;stroke-miterlimit:10;stroke-dasharray:none;stroke-opacity:1"
             d="M 369,54 V 450" /></g><g
           transform="matrix(0.4436721,0,0,-0.4429909,0,223.6464)"
           id="g312"><path
             id="path314"
             style="fill:none;stroke:#c0c0c0;stroke-width:1;stroke-linecap:round;stroke-linejoin:round;stroke-miterlimit:10;stroke-dasharray:none;stroke-opacity:1"
             d="M 378,54 V 450" /></g><g
           transform="matrix(0.4436721,0,0,-0.4429909,0,223.6464)"
           id="g316"><path
             id="path318"
             style="fill:none;stroke:#c0c0c0;stroke-width:1;stroke-linecap:round;stroke-linejoin:round;stroke-miterlimit:10;stroke-dasharray:none;stroke-opacity:1"
             d="M 387,54 V 450" /></g><g
           transform="matrix(0.4436721,0,0,-0.4429909,0,223.6464)"
           id="g320"><path
             id="path322"
             style="fill:none;stroke:#c0c0c0;stroke-width:1;stroke-linecap:round;stroke-linejoin:round;stroke-miterlimit:10;stroke-dasharray:none;stroke-opacity:1"
             d="M 396,54 V 450" /></g><g
           transform="matrix(0.4436721,0,0,-0.4429909,0,223.6464)"
           id="g324"><path
             id="path326"
             style="fill:none;stroke:#c0c0c0;stroke-width:1;stroke-linecap:round;stroke-linejoin:round;stroke-miterlimit:10;stroke-dasharray:none;stroke-opacity:1"
             d="M 405,54 V 450" /></g><g
           transform="matrix(0.4436721,0,0,-0.4429909,0,223.6464)"
           id="g328"><path
             id="path330"
             style="fill:none;stroke:#c0c0c0;stroke-width:1;stroke-linecap:round;stroke-linejoin:round;stroke-miterlimit:10;stroke-dasharray:none;stroke-opacity:1"
             d="M 414,54 V 450" /></g><g
           transform="matrix(0.4436721,0,0,-0.4429909,0,223.6464)"
           id="g332"><path
             id="path334"
             style="fill:none;stroke:#c0c0c0;stroke-width:1;stroke-linecap:round;stroke-linejoin:round;stroke-miterlimit:10;stroke-dasharray:none;stroke-opacity:1"
             d="M 423,54 V 450" /></g><g
           transform="matrix(0.4436721,0,0,-0.4429909,0,223.6464)"
           id="g336"><path
             id="path338"
             style="fill:none;stroke:#c0c0c0;stroke-width:1;stroke-linecap:round;stroke-linejoin:round;stroke-miterlimit:10;stroke-dasharray:none;stroke-opacity:1"
             d="M 441,54 V 450" /></g><g
           transform="matrix(0.4436721,0,0,-0.4429909,0,223.6464)"
           id="g340"><path
             id="path342"
             style="fill:none;stroke:#c0c0c0;stroke-width:1;stroke-linecap:round;stroke-linejoin:round;stroke-miterlimit:10;stroke-dasharray:none;stroke-opacity:1"
             d="M 450,54 V 450" /></g><g
           transform="matrix(0.4436721,0,0,-0.4429909,0,223.6464)"
           id="g344"><path
             id="path346"
             style="fill:none;stroke:#c0c0c0;stroke-width:1;stroke-linecap:round;stroke-linejoin:round;stroke-miterlimit:10;stroke-dasharray:none;stroke-opacity:1"
             d="M 459,54 V 450" /></g><g
           transform="matrix(0.4436721,0,0,-0.4429909,0,223.6464)"
           id="g348"><path
             id="path350"
             style="fill:none;stroke:#c0c0c0;stroke-width:1;stroke-linecap:round;stroke-linejoin:round;stroke-miterlimit:10;stroke-dasharray:none;stroke-opacity:1"
             d="M 468,54 V 450" /></g><g
           transform="matrix(0.4436721,0,0,-0.4429909,0,223.6464)"
           id="g352"><path
             id="path354"
             style="fill:none;stroke:#c0c0c0;stroke-width:1;stroke-linecap:round;stroke-linejoin:round;stroke-miterlimit:10;stroke-dasharray:none;stroke-opacity:1"
             d="M 477,54 V 450" /></g><g
           transform="matrix(0.4436721,0,0,-0.4429909,0,223.6464)"
           id="g356"><path
             id="path358"
             style="fill:none;stroke:#c0c0c0;stroke-width:1;stroke-linecap:round;stroke-linejoin:round;stroke-miterlimit:10;stroke-dasharray:none;stroke-opacity:1"
             d="M 486,54 V 450" /></g><g
           transform="matrix(0.4436721,0,0,-0.4429909,0,223.6464)"
           id="g360"><path
             id="path362"
             style="fill:none;stroke:#c0c0c0;stroke-width:1;stroke-linecap:round;stroke-linejoin:round;stroke-miterlimit:10;stroke-dasharray:none;stroke-opacity:1"
             d="M 495,54 V 450" /></g><g
           transform="matrix(0.4436721,0,0,-0.4429909,0,223.6464)"
           id="g364"><path
             id="path366"
             style="fill:none;stroke:#c0c0c0;stroke-width:1;stroke-linecap:round;stroke-linejoin:round;stroke-miterlimit:10;stroke-dasharray:none;stroke-opacity:1"
             d="M 513,54 V 450" /></g><g
           transform="matrix(0.4436721,0,0,-0.4429909,0,223.6464)"
           id="g368"><path
             id="path370"
             style="fill:none;stroke:#c0c0c0;stroke-width:1;stroke-linecap:round;stroke-linejoin:round;stroke-miterlimit:10;stroke-dasharray:none;stroke-opacity:1"
             d="M 531,54 V 450" /></g><g
           transform="matrix(0.4436721,0,0,-0.4429909,0,223.6464)"
           id="g372"><path
             id="path374"
             style="fill:none;stroke:#c0c0c0;stroke-width:1;stroke-linecap:round;stroke-linejoin:round;stroke-miterlimit:10;stroke-dasharray:none;stroke-opacity:1"
             d="M 549,54 V 450" /></g><g
           transform="matrix(0.4436721,0,0,-0.4429909,0,223.6464)"
           id="g376"><path
             id="path378"
             style="fill:none;stroke:#c0c0c0;stroke-width:1;stroke-linecap:round;stroke-linejoin:round;stroke-miterlimit:10;stroke-dasharray:none;stroke-opacity:1"
             d="M 558,54 V 450" /></g><g
           transform="matrix(0.4436721,0,0,-0.4429909,0,223.6464)"
           id="g380"><path
             id="path382"
             style="fill:none;stroke:#c0c0c0;stroke-width:1;stroke-linecap:round;stroke-linejoin:round;stroke-miterlimit:10;stroke-dasharray:none;stroke-opacity:1"
             d="M 540,54 V 450" /></g><g
           transform="matrix(0.4436721,0,0,-0.4429909,0,223.6464)"
           id="g384"><path
             id="path386"
             style="fill:none;stroke:#000000;stroke-width:3;stroke-linecap:round;stroke-linejoin:round;stroke-miterlimit:10;stroke-dasharray:none;stroke-opacity:1"
             d="M 72,54 V 450" /></g><g
           transform="matrix(0.4436721,0,0,-0.4429909,0,223.6464)"
           id="g388"><path
             id="path390"
             style="fill:none;stroke:#000000;stroke-width:2;stroke-linecap:round;stroke-linejoin:round;stroke-miterlimit:10;stroke-dasharray:none;stroke-opacity:1"
             d="M 63,72 H 81" /></g><g
           transform="matrix(0.4436721,0,0,-0.4429909,0,223.6464)"
           id="g392"><path
             id="path394"
             style="fill:none;stroke:#000000;stroke-width:2;stroke-linecap:round;stroke-linejoin:round;stroke-miterlimit:10;stroke-dasharray:none;stroke-opacity:1"
             d="M 63,90 H 81" /></g><g
           transform="matrix(0.4436721,0,0,-0.4429909,0,223.6464)"
           id="g396"><path
             id="path398"
             style="fill:none;stroke:#000000;stroke-width:2;stroke-linecap:round;stroke-linejoin:round;stroke-miterlimit:10;stroke-dasharray:none;stroke-opacity:1"
             d="M 63,108 H 81" /></g><g
           transform="matrix(0.4436721,0,0,-0.4429909,0,223.6464)"
           id="g400"><path
             id="path402"
             style="fill:none;stroke:#000000;stroke-width:2;stroke-linecap:round;stroke-linejoin:round;stroke-miterlimit:10;stroke-dasharray:none;stroke-opacity:1"
             d="M 63,126 H 81" /></g><g
           transform="matrix(0.4436721,0,0,-0.4429909,0,223.6464)"
           id="g404"><path
             id="path406"
             style="fill:none;stroke:#000000;stroke-width:2;stroke-linecap:round;stroke-linejoin:round;stroke-miterlimit:10;stroke-dasharray:none;stroke-opacity:1"
             d="M 63,144 H 81" /></g><g
           transform="matrix(0.4436721,0,0,-0.4429909,0,223.6464)"
           id="g408"><path
             id="path410"
             style="fill:none;stroke:#000000;stroke-width:2;stroke-linecap:round;stroke-linejoin:round;stroke-miterlimit:10;stroke-dasharray:none;stroke-opacity:1"
             d="M 63,162 H 81" /></g><g
           transform="matrix(0.4436721,0,0,-0.4429909,0,223.6464)"
           id="g412"><path
             id="path414"
             style="fill:none;stroke:#000000;stroke-width:2;stroke-linecap:round;stroke-linejoin:round;stroke-miterlimit:10;stroke-dasharray:none;stroke-opacity:1"
             d="M 63,180 H 81" /></g><g
           transform="matrix(0.4436721,0,0,-0.4429909,0,223.6464)"
           id="g416"><path
             id="path418"
             style="fill:none;stroke:#000000;stroke-width:2;stroke-linecap:round;stroke-linejoin:round;stroke-miterlimit:10;stroke-dasharray:none;stroke-opacity:1"
             d="M 63,198 H 81" /></g><g
           transform="matrix(0.4436721,0,0,-0.4429909,0,223.6464)"
           id="g420"><path
             id="path422"
             style="fill:none;stroke:#000000;stroke-width:2;stroke-linecap:round;stroke-linejoin:round;stroke-miterlimit:10;stroke-dasharray:none;stroke-opacity:1"
             d="M 63,216 H 81" /></g><g
           transform="matrix(0.4436721,0,0,-0.4429909,0,223.6464)"
           id="g424"><path
             id="path426"
             style="fill:none;stroke:#000000;stroke-width:2;stroke-linecap:round;stroke-linejoin:round;stroke-miterlimit:10;stroke-dasharray:none;stroke-opacity:1"
             d="M 63,234 H 81" /></g><g
           transform="matrix(0.4436721,0,0,-0.4429909,0,223.6464)"
           id="g428"><path
             id="path430"
             style="fill:none;stroke:#000000;stroke-width:2;stroke-linecap:round;stroke-linejoin:round;stroke-miterlimit:10;stroke-dasharray:none;stroke-opacity:1"
             d="M 63,252 H 81" /></g><g
           transform="matrix(0.4436721,0,0,-0.4429909,0,223.6464)"
           id="g432"><path
             id="path434"
             style="fill:none;stroke:#000000;stroke-width:2;stroke-linecap:round;stroke-linejoin:round;stroke-miterlimit:10;stroke-dasharray:none;stroke-opacity:1"
             d="M 63,270 H 81" /></g><g
           transform="matrix(0.4436721,0,0,-0.4429909,0,223.6464)"
           id="g436"><path
             id="path438"
             style="fill:none;stroke:#000000;stroke-width:2;stroke-linecap:round;stroke-linejoin:round;stroke-miterlimit:10;stroke-dasharray:none;stroke-opacity:1"
             d="M 63,288 H 81" /></g><g
           transform="matrix(0.4436721,0,0,-0.4429909,0,223.6464)"
           id="g440"><path
             id="path442"
             style="fill:none;stroke:#000000;stroke-width:2;stroke-linecap:round;stroke-linejoin:round;stroke-miterlimit:10;stroke-dasharray:none;stroke-opacity:1"
             d="M 63,306 H 81" /></g><g
           transform="matrix(0.4436721,0,0,-0.4429909,0,223.6464)"
           id="g444"><path
             id="path446"
             style="fill:none;stroke:#000000;stroke-width:2;stroke-linecap:round;stroke-linejoin:round;stroke-miterlimit:10;stroke-dasharray:none;stroke-opacity:1"
             d="M 63,324 H 81" /></g><g
           transform="matrix(0.4436721,0,0,-0.4429909,0,223.6464)"
           id="g448"><path
             id="path450"
             style="fill:none;stroke:#000000;stroke-width:2;stroke-linecap:round;stroke-linejoin:round;stroke-miterlimit:10;stroke-dasharray:none;stroke-opacity:1"
             d="M 63,342 H 81" /></g><g
           transform="matrix(0.4436721,0,0,-0.4429909,0,223.6464)"
           id="g452"><path
             id="path454"
             style="fill:none;stroke:#000000;stroke-width:2;stroke-linecap:round;stroke-linejoin:round;stroke-miterlimit:10;stroke-dasharray:none;stroke-opacity:1"
             d="M 63,360 H 81" /></g><g
           transform="matrix(0.4436721,0,0,-0.4429909,0,223.6464)"
           id="g456"><path
             id="path458"
             style="fill:none;stroke:#000000;stroke-width:2;stroke-linecap:round;stroke-linejoin:round;stroke-miterlimit:10;stroke-dasharray:none;stroke-opacity:1"
             d="M 63,378 H 81" /></g><g
           transform="matrix(0.4436721,0,0,-0.4429909,0,223.6464)"
           id="g460"><path
             id="path462"
             style="fill:none;stroke:#000000;stroke-width:2;stroke-linecap:round;stroke-linejoin:round;stroke-miterlimit:10;stroke-dasharray:none;stroke-opacity:1"
             d="M 63,396 H 81" /></g><g
           transform="matrix(0.4436721,0,0,-0.4429909,0,223.6464)"
           id="g464"><path
             id="path466"
             style="fill:none;stroke:#000000;stroke-width:2;stroke-linecap:round;stroke-linejoin:round;stroke-miterlimit:10;stroke-dasharray:none;stroke-opacity:1"
             d="M 63,414 H 81" /></g><g
           transform="matrix(0.4436721,0,0,-0.4429909,0,223.6464)"
           id="g468"><path
             id="path470"
             style="fill:none;stroke:#000000;stroke-width:2;stroke-linecap:round;stroke-linejoin:round;stroke-miterlimit:10;stroke-dasharray:none;stroke-opacity:1"
             d="m 90,423 v 18" /></g><g
           transform="matrix(0.4436721,0,0,-0.4429909,0,223.6464)"
           id="g472"><path
             id="path474"
             style="fill:none;stroke:#000000;stroke-width:3;stroke-linecap:round;stroke-linejoin:round;stroke-miterlimit:10;stroke-dasharray:none;stroke-opacity:1"
             d="M 558,432 H 54" /></g><g
           transform="matrix(0.4436721,0,0,-0.4429909,0,223.6464)"
           id="g476"><path
             id="path478"
             style="fill:none;stroke:#000000;stroke-width:2;stroke-linecap:round;stroke-linejoin:round;stroke-miterlimit:10;stroke-dasharray:none;stroke-opacity:1"
             d="m 108,423 v 18" /></g><g
           transform="matrix(0.4436721,0,0,-0.4429909,0,223.6464)"
           id="g480"><path
             id="path482"
             style="fill:none;stroke:#000000;stroke-width:2;stroke-linecap:round;stroke-linejoin:round;stroke-miterlimit:10;stroke-dasharray:none;stroke-opacity:1"
             d="m 126,423 v 18" /></g><g
           transform="matrix(0.4436721,0,0,-0.4429909,0,223.6464)"
           id="g484"><path
             id="path486"
             style="fill:none;stroke:#000000;stroke-width:2;stroke-linecap:round;stroke-linejoin:round;stroke-miterlimit:10;stroke-dasharray:none;stroke-opacity:1"
             d="m 144,423 v 18" /></g><g
           transform="matrix(0.4436721,0,0,-0.4429909,0,223.6464)"
           id="g488"><path
             id="path490"
             style="fill:none;stroke:#000000;stroke-width:2;stroke-linecap:round;stroke-linejoin:round;stroke-miterlimit:10;stroke-dasharray:none;stroke-opacity:1"
             d="m 162,423 v 18" /></g><g
           transform="matrix(0.4436721,0,0,-0.4429909,0,223.6464)"
           id="g492"><path
             id="path494"
             style="fill:none;stroke:#000000;stroke-width:2;stroke-linecap:round;stroke-linejoin:round;stroke-miterlimit:10;stroke-dasharray:none;stroke-opacity:1"
             d="m 180,423 v 18" /></g><g
           transform="matrix(0.4436721,0,0,-0.4429909,0,223.6464)"
           id="g496"><path
             id="path498"
             style="fill:none;stroke:#000000;stroke-width:2;stroke-linecap:round;stroke-linejoin:round;stroke-miterlimit:10;stroke-dasharray:none;stroke-opacity:1"
             d="m 198,423 v 18" /></g><g
           transform="matrix(0.4436721,0,0,-0.4429909,0,223.6464)"
           id="g500"><path
             id="path502"
             style="fill:none;stroke:#000000;stroke-width:2;stroke-linecap:round;stroke-linejoin:round;stroke-miterlimit:10;stroke-dasharray:none;stroke-opacity:1"
             d="m 216,423 v 18" /></g><g
           transform="matrix(0.4436721,0,0,-0.4429909,0,223.6464)"
           id="g504"><path
             id="path506"
             style="fill:none;stroke:#000000;stroke-width:2;stroke-linecap:round;stroke-linejoin:round;stroke-miterlimit:10;stroke-dasharray:none;stroke-opacity:1"
             d="m 234,423 v 18" /></g><g
           transform="matrix(0.4436721,0,0,-0.4429909,0,223.6464)"
           id="g508"><path
             id="path510"
             style="fill:none;stroke:#000000;stroke-width:2;stroke-linecap:round;stroke-linejoin:round;stroke-miterlimit:10;stroke-dasharray:none;stroke-opacity:1"
             d="m 252,423 v 18" /></g><g
           transform="matrix(0.4436721,0,0,-0.4429909,0,223.6464)"
           id="g512"><path
             id="path514"
             style="fill:none;stroke:#000000;stroke-width:2;stroke-linecap:round;stroke-linejoin:round;stroke-miterlimit:10;stroke-dasharray:none;stroke-opacity:1"
             d="m 270,423 v 18" /></g><g
           transform="matrix(0.4436721,0,0,-0.4429909,0,223.6464)"
           id="g516"><path
             id="path518"
             style="fill:none;stroke:#000000;stroke-width:2;stroke-linecap:round;stroke-linejoin:round;stroke-miterlimit:10;stroke-dasharray:none;stroke-opacity:1"
             d="m 288,423 v 18" /></g><g
           transform="matrix(0.4436721,0,0,-0.4429909,0,223.6464)"
           id="g520"><path
             id="path522"
             style="fill:none;stroke:#000000;stroke-width:2;stroke-linecap:round;stroke-linejoin:round;stroke-miterlimit:10;stroke-dasharray:none;stroke-opacity:1"
             d="m 306,423 v 18" /></g><g
           transform="matrix(0.4436721,0,0,-0.4429909,0,223.6464)"
           id="g524"><path
             id="path526"
             style="fill:none;stroke:#000000;stroke-width:2;stroke-linecap:round;stroke-linejoin:round;stroke-miterlimit:10;stroke-dasharray:none;stroke-opacity:1"
             d="m 324,423 v 18" /></g><g
           transform="matrix(0.4436721,0,0,-0.4429909,0,223.6464)"
           id="g528"><path
             id="path530"
             style="fill:none;stroke:#000000;stroke-width:2;stroke-linecap:round;stroke-linejoin:round;stroke-miterlimit:10;stroke-dasharray:none;stroke-opacity:1"
             d="m 342,423 v 18" /></g><g
           transform="matrix(0.4436721,0,0,-0.4429909,0,223.6464)"
           id="g532"><path
             id="path534"
             style="fill:none;stroke:#000000;stroke-width:2;stroke-linecap:round;stroke-linejoin:round;stroke-miterlimit:10;stroke-dasharray:none;stroke-opacity:1"
             d="m 360,423 v 18" /></g><g
           transform="matrix(0.4436721,0,0,-0.4429909,0,223.6464)"
           id="g536"><path
             id="path538"
             style="fill:none;stroke:#000000;stroke-width:2;stroke-linecap:round;stroke-linejoin:round;stroke-miterlimit:10;stroke-dasharray:none;stroke-opacity:1"
             d="m 378,423 v 18" /></g><g
           transform="matrix(0.4436721,0,0,-0.4429909,0,223.6464)"
           id="g540"><path
             id="path542"
             style="fill:none;stroke:#000000;stroke-width:2;stroke-linecap:round;stroke-linejoin:round;stroke-miterlimit:10;stroke-dasharray:none;stroke-opacity:1"
             d="m 396,423 v 18" /></g><g
           transform="matrix(0.4436721,0,0,-0.4429909,0,223.6464)"
           id="g544"><path
             id="path546"
             style="fill:none;stroke:#000000;stroke-width:2;stroke-linecap:round;stroke-linejoin:round;stroke-miterlimit:10;stroke-dasharray:none;stroke-opacity:1"
             d="m 414,423 v 18" /></g><g
           transform="matrix(0.4436721,0,0,-0.4429909,0,223.6464)"
           id="g548"><path
             id="path550"
             style="fill:none;stroke:#000000;stroke-width:2;stroke-linecap:round;stroke-linejoin:round;stroke-miterlimit:10;stroke-dasharray:none;stroke-opacity:1"
             d="m 450,423 v 18" /></g><g
           transform="matrix(0.4436721,0,0,-0.4429909,0,223.6464)"
           id="g552"><path
             id="path554"
             style="fill:none;stroke:#000000;stroke-width:2;stroke-linecap:round;stroke-linejoin:round;stroke-miterlimit:10;stroke-dasharray:none;stroke-opacity:1"
             d="m 468,423 v 18" /></g><g
           transform="matrix(0.4436721,0,0,-0.4429909,0,223.6464)"
           id="g556"><path
             id="path558"
             style="fill:none;stroke:#000000;stroke-width:2;stroke-linecap:round;stroke-linejoin:round;stroke-miterlimit:10;stroke-dasharray:none;stroke-opacity:1"
             d="m 486,423 v 18" /></g><g
           transform="matrix(0.4436721,0,0,-0.4429909,0,223.6464)"
           id="g560"><path
             id="path562"
             style="fill:none;stroke:#000000;stroke-width:2;stroke-linecap:round;stroke-linejoin:round;stroke-miterlimit:10;stroke-dasharray:none;stroke-opacity:1"
             d="m 504,423 v 18" /></g><g
           transform="matrix(0.4436721,0,0,-0.4429909,0,223.6464)"
           id="g564"><path
             id="path566"
             style="fill:none;stroke:#000000;stroke-width:2;stroke-linecap:round;stroke-linejoin:round;stroke-miterlimit:10;stroke-dasharray:none;stroke-opacity:1"
             d="m 540,423 v 18" /></g><g
           transform="matrix(0.4436721,0,0,-0.4429909,143.7775,12.3397)"
           id="g568"><text
             id="text572"
             style="font-variant:normal;font-weight:normal;font-size:16px;font-family:HelveticaNeue;-inkscape-font-specification:HelveticaNeue;writing-mode:lr-tb;fill:#000000;fill-opacity:1;fill-rule:nonzero;stroke:none"
             transform="translate(-17.488,5.776001)"><tspan
               id="tspan570"
               y="0"
               x="0 9.184 12.736 26.384001">Time</tspan></text>
</g><g
           transform="matrix(0,0.4429909,0.4436721,0,12.00688,115.9996)"
           id="g574"><text
             id="text578"
             style="font-variant:normal;font-weight:normal;font-size:16px;font-family:HelveticaNeue;-inkscape-font-specification:HelveticaNeue;writing-mode:lr-tb;fill:#000000;fill-opacity:1;fill-rule:nonzero;stroke:none"
             transform="translate(-110.696,5.776001)"><tspan
               id="tspan576"
               y="0"
               x="0 11.264 14.816 22.816 27.856001 36.448002 45.344002 53.936001 62.528 66.975998 71.711998 76.751999 85.935997 99.584 104.032 109.072 117.968 126.56 131.008 141.37601 146.416 155.008 160.336 165.37601 168.92799 177.82401 187.008 191.45599 200.35201 203.90401 212.8">Distance from the Starting Line</tspan></text>
</g><g
           transform="matrix(0.4436721,0,0,-0.4429909,0,223.6464)"
           id="g580"><path
             id="path582"
             style="fill:none;stroke:#000000;stroke-width:2;stroke-linecap:round;stroke-linejoin:round;stroke-miterlimit:10;stroke-dasharray:none;stroke-opacity:1"
             d="m 522,423 v 18" /></g><g
           transform="matrix(0.4436721,0,0,-0.4429909,0,223.6464)"
           id="g584"><path
             id="path586"
             style="fill:none;stroke:#000000;stroke-width:2;stroke-linecap:round;stroke-linejoin:round;stroke-miterlimit:10;stroke-dasharray:none;stroke-opacity:1"
             d="m 432,423 v 18" /></g><g
           transform="matrix(0.4436721,0,0,-0.4429909,0,223.6464)"
           id="g588"><path
             id="path590"
             style="fill:none;stroke:#666666;stroke-width:1;stroke-linecap:round;stroke-linejoin:round;stroke-miterlimit:10;stroke-dasharray:none;stroke-opacity:1"
             d="M 432,54 V 450" /></g><g
           transform="matrix(0.4436721,0,0,-0.4429909,0,223.6464)"
           id="g592"><path
             id="path594"
             style="fill:none;stroke:#666666;stroke-width:1;stroke-linecap:round;stroke-linejoin:round;stroke-miterlimit:10;stroke-dasharray:none;stroke-opacity:1"
             d="M 522,54 V 450" /></g><g
           transform="matrix(0.4436721,0,0,-0.4429909,0,223.6464)"
           id="g596"><path
             id="path598"
             style="fill:none;stroke:#666666;stroke-width:1;stroke-linecap:round;stroke-linejoin:round;stroke-miterlimit:10;stroke-dasharray:none;stroke-opacity:1"
             d="M 342,54 V 450" /></g><g
           transform="matrix(0.4436721,0,0,-0.4429909,0,223.6464)"
           id="g600"><path
             id="path602"
             style="fill:none;stroke:#666666;stroke-width:1;stroke-linecap:round;stroke-linejoin:round;stroke-miterlimit:10;stroke-dasharray:none;stroke-opacity:1"
             d="M 252,54 V 450" /></g><g
           transform="matrix(0.4436721,0,0,-0.4429909,0,223.6464)"
           id="g604"><path
             id="path606"
             style="fill:none;stroke:#666666;stroke-width:1;stroke-linecap:round;stroke-linejoin:round;stroke-miterlimit:10;stroke-dasharray:none;stroke-opacity:1"
             d="M 162,54 V 450" /></g><g
           transform="matrix(0.4436721,0,0,-0.4429909,0,223.6464)"
           id="g608"><path
             id="path610"
             style="fill:none;stroke:#666666;stroke-width:1;stroke-linecap:round;stroke-linejoin:round;stroke-miterlimit:10;stroke-dasharray:none;stroke-opacity:1"
             d="M 54,252 H 558" /></g><g
           transform="matrix(0.4436721,0,0,-0.4429909,0,223.6464)"
           id="g612"><path
             id="path614"
             style="fill:none;stroke:#666666;stroke-width:1;stroke-linecap:round;stroke-linejoin:round;stroke-miterlimit:10;stroke-dasharray:none;stroke-opacity:1"
             d="M 54,342 H 558" /></g><g
           transform="matrix(0.4436721,0,0,-0.4429909,0,223.6464)"
           id="g616"><path
             id="path618"
             style="fill:none;stroke:#666666;stroke-width:1;stroke-linecap:round;stroke-linejoin:round;stroke-miterlimit:10;stroke-dasharray:none;stroke-opacity:1"
             d="M 54,72 H 558" /></g><g
           transform="matrix(0.4436721,0,0,-0.4429909,0,223.6464)"
           id="g620"><path
             id="path622"
             style="fill:none;stroke:#666666;stroke-width:1;stroke-linecap:round;stroke-linejoin:round;stroke-miterlimit:10;stroke-dasharray:none;stroke-opacity:1"
             d="M 54,162 H 558" /></g></g></g></g></svg>