<?xml version="1.0" encoding="UTF-8" standalone="no"?>
<!DOCTYPE svg PUBLIC "-//W3C//DTD SVG 1.1//EN" "http://www.w3.org/Graphics/SVG/1.1/DTD/svg11.dtd">
<svg xmlns="http://www.w3.org/2000/svg" xmlns:xlink="http://www.w3.org/1999/xlink" version="1.1" width="468pt" height="622pt" viewBox="0 0 468 622">
<g enable-background="new">
<clipPath id="cp0">
<path transform="matrix(1,0,0,-1,0,622)" d="M 0 0 L 468 0 L 468 622 L 0 622 Z "/>
</clipPath>
<g clip-path="url(#cp0)">
<path transform="matrix(1,0,0,-1,0,622)" d="M 0 622 L 468 622 L 468 0 L 0 0 Z " fill="#ffffff"/>
</g>
<clipPath id="cp1">
<path transform="matrix(1,0,0,-1,0,622)" d="M 468 0 L 468 622 L 0 622 L 0 0 Z "/>
</clipPath>
<g clip-path="url(#cp1)">
<clipPath id="cp2">
<path transform="matrix(1,0,0,-1,0,622)" d="M 468 0 L 468 622 L 0 622 L 0 0 Z "/>
</clipPath>
<g clip-path="url(#cp2)">
<clipPath id="cp3">
<path transform="matrix(1,0,0,-1,0,622)" d="M 0 0 L 468 0 L 468 622 L 0 622 Z "/>
</clipPath>
<g clip-path="url(#cp3)">
<path transform="matrix(1,0,0,-1,0,622)" d="M 2.571429 2.570248 L 2.571429 125.9421 L 156.8571 125.9421 L 156.8571 2.570248 Z M 2.571429 2.570248 " fill="#ffffff"/>
<path transform="matrix(0,-.8567493,.8571429,0,2.571429,619.42977)" stroke-width="3" stroke-linecap="round" stroke-linejoin="round" fill="none" stroke="#000000" d="M 0 0 L 144 0 L 144 180 L 0 180 Z M 0 0 "/>
<text xml:space="preserve" transform="matrix(0 -.8567493 .8571429 0 79.71429 557.7438)" font-size="14" font-family="Helvetica" font-weight="bold" font-style="italic"><tspan y="5.5" x="-33.47217 -25.685372">y </tspan></text>
<text xml:space="preserve" transform="matrix(0 -.8567493 .8571429 0 79.71429 557.7438)" font-size="14" font-family="Helvetica" font-weight="bold"><tspan y="5.5" x="-21.79639 -13.62039 -9.73119">= 8</tspan></text>
<text xml:space="preserve" transform="matrix(0 -.8567493 .8571429 0 79.71429 557.7438)" font-size="14" font-family="Helvetica" font-weight="bold" font-style="italic"><tspan y="5.5" x="-1.944824 5.841976">x </tspan></text>
<text xml:space="preserve" transform="matrix(0 -.8567493 .8571429 0 79.71429 557.7438)" font-size="14" font-family="Helvetica" font-weight="bold"><tspan y="5.5" x="9.730957 13.620157 21.796158 25.685359"> + 5</tspan></text>
<text fill="#ff2f92" xml:space="preserve" transform="matrix(0 -.8567493 .8571429 0 150.8571 557.3154)" font-size="12" font-family="Helvetica" font-weight="bold"><tspan y="4" x="-3.336914">1</tspan></text>
<path transform="matrix(1,0,0,-1,0,622)" d="M 156.8571 496.0578 L 156.8571 619.4297 L 311.1429 619.4297 L 311.1429 496.0578 Z M 156.8571 496.0578 " fill="#ffffff"/>
<path transform="matrix(0,-.8567493,.8571429,0,2.571429,619.42977)" stroke-width="3" stroke-linecap="round" stroke-linejoin="round" fill="none" stroke="#000000" d="M 576 180 L 720 180 L 720 360 L 576 360 Z M 576 180 "/>
<text xml:space="preserve" transform="matrix(0 -.8567493 .8571429 0 234 64.256229)" font-size="10" font-family="Helvetica" font-weight="bold"><tspan y="-62" x="-67 -64.222 -60.892 -54.221998 -48.659997 -43.097997 -37.535997 -34.757997 -29.195994 -26.417994 -23.639994 -17.531994 -9.753993 -4.1919929 -1.4139925 4.148008 10.256008 16.364008 19.142008 22.472008 28.580008 31.358008 34.688009 38.580007 44.142007 49.704008 55.266008 58.044008">I-Pass allows you to travel </tspan></text>
<text xml:space="preserve" transform="matrix(0 -.8567493 .8571429 0 234 64.256229)" font-size="10" font-family="Helvetica" font-weight="bold"><tspan y="-50" x="-67 -63.67 -57.561998 -54.783998 -52.005998 -49.227998 -45.336 -39.227998 -33.665998 -27.557997 -21.995997 -19.217997 -11.439996 -8.661996 -5.331996 .7760042 6.8840048 12.992005 16.322007 19.100007 24.662009 27.992009 34.10001 40.20801 46.316015 49.094015 55.202016 61.310018">toll roads without stopping </tspan></text>
<text xml:space="preserve" transform="matrix(0 -.8567493 .8571429 0 234 64.256229)" font-size="10" font-family="Helvetica" font-weight="bold"><tspan y="-38" x="-67 -61.438 -58.108 -55.33 -52 -45.892 -43.114 -40.336 -37.558 -31.449999 -25.342 -19.234 -15.903999 -9.795999 -4.2339985 -1.4559981 1.3220022 8.544003 14.106003 16.884003 22.992003 29.100003 31.878003 35.208 41.316 46.878004">at toll booths. Using the </tspan></text>
<text xml:space="preserve" transform="matrix(0 -.8567493 .8571429 0 234 64.256229)" font-size="10" font-family="Helvetica" font-weight="bold"><tspan y="-26" x="-67 -64.222 -60.892 -54.221998 -48.659997 -43.097997 -37.535997 -34.757997 -31.979996 -26.417994 -20.309994 -14.201993 -11.423993 -5.861993 -1.9699925 3.5920079 6.3700087 11.932009 18.040009 23.60201 27.494013 33.602014 39.164014 45.272016">I-Pass, you are charged </tspan></text>
<text xml:space="preserve" transform="matrix(0 -.8567493 .8571429 0 234 64.256229)" font-size="10" font-family="Helvetica" font-weight="bold"><tspan y="-14" x="-67 -61.438 -55.876 -53.098 -47.536 -41.974 -39.196 -33.087999 -27.525996 -23.633994 -20.855994 -17.525994 -11.417993 -8.639993 -5.8619925 -3.0839923 -.30599205 2.472008 8.5800089 11.358008 14.688008 17.466008 23.02801 25.80601 28.58401 33.40801 36.18601 38.96401 44.52601 50.63401 56.742013 60.63401">$0.75 per toll. Initially, your </tspan></text>
<text xml:space="preserve" transform="matrix(0 -.8567493 .8571429 0 234 64.256229)" font-size="10" font-family="Helvetica" font-weight="bold"><tspan y="-2" x="-67 -61.438 -55.876 -50.314 -44.205999 -38.097997 -31.989996 -28.659996 -25.881997 -19.773997 -14.211996 -8.649996 -5.8719956 -.30999504 5.252005 10.814006 13.592006 16.370005 22.478005 25.256005 28.034005 31.364005 34.142007">account has $20 in it. </tspan></text>
<text xml:space="preserve" transform="matrix(0 -.8567493 .8571429 0 234 64.256229)" font-size="10" font-family="Helvetica" font-weight="bold"><tspan y="22" x="-67 -59.778 -53.67 -45.892 -43.114 -37.005998 -30.897997 -25.335997 -19.773997 -16.995997 -13.665997 -7.5579965 -1.9959959 .78200438 6.3440048 15.236005 21.344004 27.452004 33.560007 36.890008 39.668008 45.77601 49.10601">How does the amount of </tspan></text>
<text xml:space="preserve" transform="matrix(0 -.8567493 .8571429 0 234 64.256229)" font-size="10" font-family="Helvetica" font-weight="bold"><tspan y="34" x="-67 -58.108 -51.996004 -45.884004 -40.322004 -34.760004 -31.978003 -28.086003 -22.524003 -13.632002 -8.070002 -5.288001 .82399848 3.6059988 9.7179989 15.829998 18.611998 21.393998 27.505997 30.287997 35.85 41.961999 48.073999 51.965997">money remaining in your </tspan></text>
<text xml:space="preserve" transform="matrix(0 -.8567493 .8571429 0 234 64.256229)" font-size="10" font-family="Helvetica" font-weight="bold"><tspan y="46" x="-67 -61.438 -55.876 -50.314 -44.205999 -38.097997 -31.989996 -28.659996 -25.881997 -21.989996 -16.427996 -13.649995 -8.087995 -4.7579948 .80400577 3.5820058 6.9120056 13.020005 15.798005 19.128006 25.236006 30.798007">account relate to the </tspan></text>
<text xml:space="preserve" transform="matrix(0 -.8567493 .8571429 0 234 64.256229)" font-size="10" font-family="Helvetica" font-weight="bold"><tspan y="58" x="-67 -60.892 -54.783998 -45.892 -39.783998 -34.221998 -30.329997 -27.551997 -21.443997 -18.113997 -15.335996 -12.005996 -5.8979957 -3.1199954 -.34199516 5.220005 7.998006 13.560006 19.668005 25.776005 28.554005 34.662008 40.224008 45.786008 51.348009">number of tolls you have </tspan></text>
<text xml:space="preserve" transform="matrix(0 -.8567493 .8571429 0 234 64.256229)" font-size="10" font-family="Helvetica" font-weight="bold"><tspan y="70" x="-67 -60.892 -55.329999 -52.552 -46.443998 -43.665998 -38.103998 -31.995997 -29.217997 -25.887997 -20.325995 -16.433993">paid so far?</tspan></text>
<text fill="#ff2f92" xml:space="preserve" transform="matrix(0 -.8567493 .8571429 0 305.1429 63.82782)" font-size="12" font-family="Helvetica" font-weight="bold"><tspan y="4" x="-6.673828 .0005722046">10</tspan></text>
<path transform="matrix(1,0,0,-1,0,622)" d="M 2.571429 372.6859 L 2.571429 496.0578 L 156.8571 496.0578 L 156.8571 372.6859 Z M 2.571429 372.6859 " fill="#ffffff"/>
<path transform="matrix(0,-.8567493,.8571429,0,2.571429,619.42977)" stroke-width="3" stroke-linecap="round" stroke-linejoin="round" fill="none" stroke="#000000" d="M 432 0 L 576 0 L 576 180 L 432 180 Z M 432 0 "/>
<text xml:space="preserve" transform="matrix(0 -.8567493 .8571429 0 79.71429 187.62812)" font-size="14" font-family="Helvetica" font-weight="bold" font-style="italic"><tspan y="6.775" x="-37.36523">y</tspan></text>
<text xml:space="preserve" transform="matrix(0 -.8567493 .8571429 0 79.71429 187.62812)" font-size="14" font-family="Helvetica" font-weight="bold"><tspan y="6.775" x="-29.5791 -25.6899 -17.513899 -13.624699 -5.837898 -1.9486973"> = 0.5</tspan></text>
<text xml:space="preserve" transform="matrix(0 -.8567493 .8571429 0 79.71429 187.62812)" font-size="14" font-family="Helvetica" font-weight="bold" font-style="italic"><tspan y="6.775" x="5.837891">x</tspan></text>
<text xml:space="preserve" transform="matrix(0 -.8567493 .8571429 0 79.71429 187.62812)" font-size="14" font-family="Helvetica" font-weight="bold"><tspan y="6.775" x="13.62402 17.51322 25.68922 29.57842"> + 8</tspan></text>
<text fill="#ff2f92" xml:space="preserve" transform="matrix(0 -.8567493 .8571429 0 150.8571 187.1997)" font-size="12" font-family="Helvetica" font-weight="bold"><tspan y="4" x="-3.336914">4</tspan></text>
<path transform="matrix(1,0,0,-1,0,622)" d="M 2.571429 496.0578 L 2.571429 619.4297 L 156.8571 619.4297 L 156.8571 496.0578 Z M 2.571429 496.0578 " fill="#ffffff"/>
<path transform="matrix(0,-.8567493,.8571429,0,2.571429,619.42977)" stroke-width="3" stroke-linecap="round" stroke-linejoin="round" fill="none" stroke="#000000" d="M 576 0 L 720 0 L 720 180 L 576 180 Z M 576 0 "/>
<text xml:space="preserve" transform="matrix(0 -.8567493 .8571429 0 79.71429 64.256229)" font-size="10" font-family="Helvetica" font-weight="bold"><tspan y="-48.4" x="-67 -61.066999 -54.958997 -48.850996 -44.958997 -42.180997 -36.072996 -29.964995 -24.402995 -21.624995 -18.846995 -16.068995 -10.506994 -7.728994 -4.398994 1.7090062 4.4870069 12.265008 17.82701 20.60501 26.16701 28.94501 34.507009 40.069009">Your goal is to walk 20 </tspan></text>
<text xml:space="preserve" transform="matrix(0 -.8567493 .8571429 0 79.71429 64.256229)" font-size="10" font-family="Helvetica" font-weight="bold"><tspan y="-34.6" x="-67 -58.108 -55.326 -52.544 -46.982 -41.42 -38.637998 -33.075998 -27.513997 -21.951996 -15.839996 -13.057996 -5.2759954 .28600503 5.8480055 11.410006 14.192006 16.794007 22.726008 28.838007 34.950006 37.732007 45.514009 51.076009 53.85801 59.42001">miles each week. You walk </tspan></text>
<text xml:space="preserve" transform="matrix(0 -.8567493 .8571429 0 79.71429 64.256229)" font-size="10" font-family="Helvetica" font-weight="bold"><tspan y="-20.8" x="-67 -61.438 -58.108 -55.33 -49.768 -46.99 -43.098005 -37.536005 -34.206 -28.644 -25.866 -19.758 -16.428 -13.649999 -8.087998 -5.309998 3.5820025 6.3600027 9.138003 14.700004 20.262005 23.040005 29.148005 34.710004 38.602 41.38 47.488004 53.596006 59.704008 63.049009">at a rate of 3 miles per hour.</tspan></text>
<text xml:space="preserve" transform="matrix(0 -.8567493 .8571429 0 79.71429 64.256229)" font-size="10" font-family="Helvetica" font-weight="bold"><tspan y="3" x="-67 -57.561998 -51.453996 -45.891996 -42.561998 -39.783998 -37.005998 -31.443995 -28.665995 -25.335995 -19.227995 -13.665995 -10.887994 -6.9959938 -1.4339932 1.344007 6.9060075 10.236008 13.0140089 19.122008 25.230008 30.79201 36.90001 39.67801 45.78601">What is the relationship </tspan></text>
<text xml:space="preserve" transform="matrix(0 -.8567493 .8571429 0 79.71429 64.256229)" font-size="10" font-family="Helvetica" font-weight="bold"><tspan y="16.8" x="-67 -60.892 -55.329999 -52 -44.222 -38.66 -33.098 -26.99 -24.212 -20.882 -14.773999 -9.211999 -6.4339988 -.32599847 5.782002 14.674003 20.782002 26.344004 30.236006 33.014009 39.12201 42.45201">between the number of </tspan></text>
<text xml:space="preserve" transform="matrix(0 -.8567493 .8571429 0 79.71429 64.256229)" font-size="10" font-family="Helvetica" font-weight="bold"><tspan y="30.6" x="-67 -60.892 -54.783998 -48.675996 -44.787996 -39.229997 -36.451997 -30.893996 -24.785996 -18.677996 -15.899996 -9.791996 -4.2339956 1.3240051 6.8820059 9.660006 17.438008 22.996008 25.774008 31.332009 36.890008 42.99801 45.77601 51.334009 57.44201 63.55001">hours you have walked and </tspan></text>
<text xml:space="preserve" transform="matrix(0 -.8567493 .8571429 0 79.71429 64.256229)" font-size="10" font-family="Helvetica" font-weight="bold"><tspan y="44.4" x="-67 -63.67 -57.561998 -51.999998 -49.221998 -43.113996 -37.005994 -28.113993 -22.005993 -16.44399 -12.5519909 -9.77399 -3.6659897 -.3359897 2.4420105 11.33401 14.11201 16.890009 22.45201 28.01401 30.79201 36.90001 42.46201 48.02401 54.13201 59.69401 65.80201">the number of miles needed </tspan></text>
<text xml:space="preserve" transform="matrix(0 -.8567493 .8571429 0 79.71429 64.256229)" font-size="10" font-family="Helvetica" font-weight="bold"><tspan y="58.2" x="-67 -63.67 -57.561998 -54.783998 -50.892 -45.329999 -39.767999 -34.205999 -28.097998 -25.319998 -19.757998 -13.649997 -7.5419967 -3.649996 -.8719958 5.2360045 11.344005 16.906006 19.684006">to reach your goal?</tspan></text>
<text fill="#ff2f92" xml:space="preserve" transform="matrix(0 -.8567493 .8571429 0 150.8571 63.82782)" font-size="12" font-family="Helvetica" font-weight="bold"><tspan y="4" x="-3.336914">5</tspan></text>
<path transform="matrix(1,0,0,-1,0,622)" d="M 156.8571 2.570248 L 156.8571 125.9421 L 311.1429 125.9421 L 311.1429 2.570248 Z M 156.8571 2.570248 " fill="#ffffff"/>
<path transform="matrix(0,-.8567493,.8571429,0,2.571429,619.42977)" stroke-width="3" stroke-linecap="round" stroke-linejoin="round" fill="none" stroke="#000000" d="M 0 180 L 144 180 L 144 360 L 0 360 Z M 0 180 "/>
<text fill="#ff2f92" xml:space="preserve" transform="matrix(0 -.8567493 .8571429 0 305.1429 557.3154)" font-size="12" font-family="Helvetica" font-weight="bold"><tspan y="4" x="-3.336914">6</tspan></text>
<path transform="matrix(1,0,0,-1,0,622)" d="M 156.8571 249.314 L 156.8571 372.6859 L 311.1429 372.6859 L 311.1429 249.314 Z M 156.8571 249.314 " fill="#ffffff"/>
<path transform="matrix(0,-.8567493,.8571429,0,2.571429,619.42977)" stroke-width="3" stroke-linecap="round" stroke-linejoin="round" fill="none" stroke="#000000" d="M 288 180 L 432 180 L 432 360 L 288 360 Z M 288 180 "/>
<text fill="#ff2f92" xml:space="preserve" transform="matrix(0 -.8567493 .8571429 0 305.1429 310.5716)" font-size="12" font-family="Helvetica" font-weight="bold"><tspan y="4" x="-3.336914">8</tspan></text>
<path transform="matrix(1,0,0,-1,0,622)" d="M 156.8571 372.6859 L 156.8571 496.0578 L 311.1429 496.0578 L 311.1429 372.6859 Z M 156.8571 372.6859 " fill="#ffffff"/>
<path transform="matrix(0,-.8567493,.8571429,0,2.571429,619.42977)" stroke-width="3" stroke-linecap="round" stroke-linejoin="round" fill="none" stroke="#000000" d="M 432 180 L 576 180 L 576 360 L 432 360 Z M 432 180 "/>
<text fill="#ff2f92" xml:space="preserve" transform="matrix(0 -.8567493 .8571429 0 305.1429 187.1997)" font-size="12" font-family="Helvetica" font-weight="bold"><tspan y="4" x="-3.336914">9</tspan></text>
<path transform="matrix(1,0,0,-1,0,622)" d="M 2.571429 125.9421 L 2.571429 249.314 L 156.8571 249.314 L 156.8571 125.9421 Z M 2.571429 125.9421 " fill="#ffffff"/>
<path transform="matrix(0,-.8567493,.8571429,0,2.571429,619.42977)" stroke-width="3" stroke-linecap="round" stroke-linejoin="round" fill="none" stroke="#000000" d="M 144 0 L 288 0 L 288 180 L 144 180 Z M 144 0 "/>
<text xml:space="preserve" transform="matrix(0 -.8567493 .8571429 0 79.71429 434.3719)" font-size="14" font-family="Helvetica" font-weight="bold" font-style="italic"><tspan y="5.5" x="-49.04443 -41.25763">y </tspan></text>
<text xml:space="preserve" transform="matrix(0 -.8567493 .8571429 0 79.71429 434.3719)" font-size="14" font-family="Helvetica" font-weight="bold"><tspan y="5.5" x="-37.36865 -29.192648 -25.303448 -17.516648 -9.729847 -5.8406469 1.9461541">= &#x2013;0.75</tspan></text>
<text xml:space="preserve" transform="matrix(0 -.8567493 .8571429 0 79.71429 434.3719)" font-size="14" font-family="Helvetica" font-weight="bold" font-style="italic"><tspan y="5.5" x="9.730957">x</tspan></text>
<text xml:space="preserve" transform="matrix(0 -.8567493 .8571429 0 79.71429 434.3719)" font-size="14" font-family="Helvetica" font-weight="bold"><tspan y="5.5" x="17.51709 21.40629 29.58229 33.471494 41.258295"> + 20</tspan></text>
<text fill="#ff2f92" xml:space="preserve" transform="matrix(0 -.8567493 .8571429 0 150.8571 433.94349)" font-size="12" font-family="Helvetica" font-weight="bold"><tspan y="4" x="-3.336914">2</tspan></text>
<path transform="matrix(1,0,0,-1,0,622)" d="M 311.1429 2.570248 L 311.1429 125.9421 L 465.4286 125.9421 L 465.4286 2.570248 Z M 311.1429 2.570248 " fill="#ffffff"/>
<path transform="matrix(0,-.8567493,.8571429,0,2.571429,619.42977)" stroke-width="3" stroke-linecap="round" stroke-linejoin="round" fill="none" stroke="#000000" d="M 0 360 L 144 360 L 144 540 L 0 540 Z M 0 360 "/>
<text fill="#ff2f92" xml:space="preserve" transform="matrix(0 -.8567493 .8571429 0 459.4286 557.3154)" font-size="12" font-family="Helvetica" font-weight="bold"><tspan y="4" x="-6.345703 -.32770253">11</tspan></text>
<path transform="matrix(1,0,0,-1,0,622)" d="M 311.1429 125.9421 L 311.1429 249.314 L 465.4286 249.314 L 465.4286 125.9421 Z M 311.1429 125.9421 " fill="#ffffff"/>
<path transform="matrix(0,-.8567493,.8571429,0,2.571429,619.42977)" stroke-width="3" stroke-linecap="round" stroke-linejoin="round" fill="none" stroke="#000000" d="M 144 360 L 288 360 L 288 540 L 144 540 Z M 144 360 "/>
<text fill="#ff2f92" xml:space="preserve" transform="matrix(0 -.8567493 .8571429 0 459.4286 433.94349)" font-size="12" font-family="Helvetica" font-weight="bold"><tspan y="4" x="-6.673828 .0005722046">12</tspan></text>
<path transform="matrix(1,0,0,-1,0,622)" d="M 2.571429 249.314 L 2.571429 372.6859 L 156.8571 372.6859 L 156.8571 249.314 Z M 2.571429 249.314 " fill="#ffffff"/>
<path transform="matrix(0,-.8567493,.8571429,0,2.571429,619.42977)" stroke-width="3" stroke-linecap="round" stroke-linejoin="round" fill="none" stroke="#000000" d="M 288 0 L 432 0 L 432 180 L 288 180 Z M 288 0 "/>
<text xml:space="preserve" transform="matrix(0 -.8567493 .8571429 0 79.71429 311)" font-size="14" font-family="Helvetica" font-weight="bold" font-style="italic"><tspan y="5.5" x="-31.52734 -23.74054">y </tspan></text>
<text xml:space="preserve" transform="matrix(0 -.8567493 .8571429 0 79.71429 311)" font-size="14" font-family="Helvetica" font-weight="bold"><tspan y="5.5" x="-19.85156 -11.67556 -7.78636">= 5</tspan></text>
<text xml:space="preserve" transform="matrix(0 -.8567493 .8571429 0 79.71429 311)" font-size="14" font-family="Helvetica" font-weight="bold" font-style="italic"><tspan y="5.5" x="0">x</tspan></text>
<text xml:space="preserve" transform="matrix(0 -.8567493 .8571429 0 79.71429 311)" font-size="14" font-family="Helvetica" font-weight="bold"><tspan y="5.5" x="7.786133 11.675333 19.851334 23.740534"> + 8</tspan></text>
<text fill="#ff2f92" xml:space="preserve" transform="matrix(0 -.8567493 .8571429 0 150.8571 310.5716)" font-size="12" font-family="Helvetica" font-weight="bold"><tspan y="4" x="-3.336914">3</tspan></text>
<path transform="matrix(1,0,0,-1,0,622)" d="M 311.1429 372.6859 L 311.1429 496.0578 L 465.4286 496.0578 L 465.4286 372.6859 Z M 311.1429 372.6859 " fill="#ffffff"/>
<path transform="matrix(0,-.8567493,.8571429,0,2.571429,619.42977)" stroke-width="3" stroke-linecap="round" stroke-linejoin="round" fill="none" stroke="#000000" d="M 432 360 L 576 360 L 576 540 L 432 540 Z M 432 360 "/>
<text fill="#ff2f92" xml:space="preserve" transform="matrix(0 -.8567493 .8571429 0 459.4286 187.1997)" font-size="12" font-family="Helvetica" font-weight="bold"><tspan y="4" x="-6.673828 .0005722046">14</tspan></text>
<path transform="matrix(1,0,0,-1,0,622)" d="M 311.1429 496.0578 L 311.1429 619.4297 L 465.4286 619.4297 L 465.4286 496.0578 Z M 311.1429 496.0578 " fill="#ffffff"/>
<path transform="matrix(0,-.8567493,.8571429,0,2.571429,619.42977)" stroke-width="3" stroke-linecap="round" stroke-linejoin="round" fill="none" stroke="#000000" d="M 576 360 L 720 360 L 720 540 L 576 540 Z M 576 360 "/>
<text xml:space="preserve" transform="matrix(0 -.8567493 .8571429 0 388.2857 64.256229)" font-size="10" font-family="Helvetica" font-weight="bold"><tspan y="-44" x="-67 -59.778 -56.447999 -53.67 -48.107999 -45.329999 -36.438 -30.33 -24.768 -21.99 -16.428 -13.649999 -10.319999 -4.2119987 1.3500019 6.912002 10.2420029 15.804003 19.149004 21.927004 24.705004 27.483004 30.813004 33.591005 39.153005 45.261007 50.823007 54.153009 59.715009">At a movie theater, it costs </tspan></text>
<text xml:space="preserve" transform="matrix(0 -.8567493 .8571429 0 388.2857 64.256229)" font-size="10" font-family="Helvetica" font-weight="bold"><tspan y="-32" x="-67 -61.438 -55.876 -53.098 -49.767999 -43.659997 -39.767999 -36.989999 -31.427996 -28.649996 -19.757994 -13.649993 -8.087993 -5.3099925 .2520081 3.0300084 6.3600084 9.138009 14.700009 20.26201 25.82401 29.15401 31.93201 37.49401 43.602014 49.710016 52.488016 58.050016 63.612016">$8 for a movie ticket and $5 </tspan></text>
<text xml:space="preserve" transform="matrix(0 -.8567493 .8571429 0 388.2857 64.256229)" font-size="10" font-family="Helvetica" font-weight="bold"><tspan y="-20" x="-67 -63.67 -57.561998 -53.67 -50.892 -45.329999 -39.767999 -34.205999 -28.097998 -25.319998 -21.427996 -15.865995 -12.5359959 -8.643995 -3.0819948 2.4800058 8.588006 17.480008 23.04201 29.15001 32.48001 35.25801 40.82001 46.928014 53.036016">for each refreshment you </tspan></text>
<text xml:space="preserve" transform="matrix(0 -.8567493 .8571429 0 388.2857 64.256229)" font-size="10" font-family="Helvetica" font-weight="bold"><tspan y="-8" x="-67 -60.892 -54.783998 -49.955999">buy.</tspan></text>
<text xml:space="preserve" transform="matrix(0 -.8567493 .8571429 0 388.2857 64.256229)" font-size="10" font-family="Helvetica" font-weight="bold"><tspan y="16" x="-67 -59.778 -53.67 -45.892 -43.114 -37.005998 -30.897997 -25.335997 -19.773997 -16.995997 -13.665997 -7.5579965 -1.9959959 .78200438 4.1120045 10.220004 13.550004 19.112006 21.890006 24.668005 30.230006 36.338006 41.900007 45.230005 48.008005 51.338006 57.446008">How does the total cost to </tspan></text>
<text xml:space="preserve" transform="matrix(0 -.8567493 .8571429 0 388.2857 64.256229)" font-size="10" font-family="Helvetica" font-weight="bold"><tspan y="28" x="-67 -61.438 -55.876 -50.314 -47.536 -41.974 -39.196 -30.303999 -24.196 -18.633997 -15.855996 -10.293996 -7.5159957 -3.623995 1.9380053 4.716006 10.278007 13.6080069 19.170008 21.948008 25.278008 31.386008 34.16401 37.49401 43.602014 49.164014">see a movie relate to the </tspan></text>
<text xml:space="preserve" transform="matrix(0 -.8567493 .8571429 0 388.2857 64.256229)" font-size="10" font-family="Helvetica" font-weight="bold"><tspan y="40" x="-67 -60.892 -54.783998 -45.892 -39.783998 -34.221998 -30.329997 -27.551997 -21.443997 -18.113997 -15.335996 -11.443995 -5.881995 -2.5519953 1.340005 6.902005 12.464005 18.572005 27.464007 33.026006 39.134008 42.464006 48.026006">number of refreshments </tspan></text>
<text xml:space="preserve" transform="matrix(0 -.8567493 .8571429 0 388.2857 64.256229)" font-size="10" font-family="Helvetica" font-weight="bold"><tspan y="52" x="-67 -61.438 -55.326 -49.214 -46.432 -40.32 -34.208 -28.646">you buy?</tspan></text>
<text fill="#ff2f92" xml:space="preserve" transform="matrix(0 -.8567493 .8571429 0 459.4286 63.82782)" font-size="12" font-family="Helvetica" font-weight="bold"><tspan y="4" x="-6.673828 .0005722046">15</tspan></text>
<path transform="matrix(1,0,0,-1,0,622)" d="M 311.1429 249.314 L 311.1429 372.6859 L 465.4286 372.6859 L 465.4286 249.314 Z M 311.1429 249.314 " fill="#ffffff"/>
<path transform="matrix(0,-.8567493,.8571429,0,2.571429,619.42977)" stroke-width="3" stroke-linecap="round" stroke-linejoin="round" fill="none" stroke="#000000" d="M 288 360 L 432 360 L 432 540 L 288 540 Z M 288 360 "/>
<text fill="#ff2f92" xml:space="preserve" transform="matrix(0 -.8567493 .8571429 0 459.4286 310.5716)" font-size="12" font-family="Helvetica" font-weight="bold"><tspan y="4" x="-6.673828 .0005722046">13</tspan></text>
<path transform="matrix(1,0,0,-1,0,622)" d="M 342 311 L 357.42857 311 L 357.42857 364.97523 L 342 364.97523 Z " fill="#d4feff"/>
<path transform="matrix(0,-.8567493,.8571429,0,2.571429,619.42977)" stroke-width="1" stroke-linecap="round" stroke-linejoin="round" fill="none" stroke="#000000" d="M 360 396 L 423 396 L 423 414 L 360 414 Z M 360 396 "/>
<text xml:space="preserve" transform="matrix(0 -.8567493 .8571429 0 349.7143 284.0124)" font-size="10" font-family="Helvetica" font-weight="bold"><tspan y="4" x="-4.169922"> </tspan></text>
<text xml:space="preserve" transform="matrix(0 -.8567493 .8571429 0 349.7143 284.0124)" font-size="10" font-family="Helvetica" font-weight="bold" font-style="italic"><tspan y="4" x="-1.391602">y</tspan></text>
<path transform="matrix(1,0,0,-1,0,622)" d="M 342 257.0248 L 357.42857 257.0248 L 357.42857 311.00004 L 342 311.00004 Z " fill="#d4feff"/>
<path transform="matrix(0,-.8567493,.8571429,0,2.571429,619.42977)" stroke-width="1" stroke-linecap="round" stroke-linejoin="round" fill="none" stroke="#000000" d="M 297 396 L 360 396 L 360 414 L 297 414 Z M 297 396 "/>
<text xml:space="preserve" transform="matrix(0 -.8567493 .8571429 0 349.7143 337.9876)" font-size="10" font-family="Helvetica" font-weight="bold" font-style="italic"><tspan y="4" x="-2.780762">x</tspan></text>
<path transform="matrix(1,0,0,-1,0,622)" d="M 357.4286 311 L 372.85716 311 L 372.85716 364.97523 L 357.4286 364.97523 Z " fill="#ffffff"/>
<path transform="matrix(0,-.8567493,.8571429,0,2.571429,619.42977)" stroke-width="1" stroke-linecap="round" stroke-linejoin="round" fill="none" stroke="#000000" d="M 360 414 L 423 414 L 423 432 L 360 432 Z M 360 414 "/>
<text xml:space="preserve" transform="matrix(0 -.8567493 .8571429 0 365.1429 284.0124)" font-size="10" font-family="Helvetica" font-weight="bold"><tspan y="4" x="-5.561523 .000477314">17</tspan></text>
<path transform="matrix(1,0,0,-1,0,622)" d="M 357.4286 257.0248 L 372.85716 257.0248 L 372.85716 311.00004 L 357.4286 311.00004 Z " fill="#ffffff"/>
<path transform="matrix(0,-.8567493,.8571429,0,2.571429,619.42977)" stroke-width="1" stroke-linecap="round" stroke-linejoin="round" fill="none" stroke="#000000" d="M 297 414 L 360 414 L 360 432 L 297 432 Z M 297 414 "/>
<text xml:space="preserve" transform="matrix(0 -.8567493 .8571429 0 365.1429 337.9876)" font-size="10" font-family="Helvetica" font-weight="bold"><tspan y="4" x="-2.780762">4</tspan></text>
<path transform="matrix(1,0,0,-1,0,622)" d="M 372.8571 311 L 388.28565 311 L 388.28565 364.97523 L 372.8571 364.97523 Z " fill="#ffffff"/>
<path transform="matrix(0,-.8567493,.8571429,0,2.571429,619.42977)" stroke-width="1" stroke-linecap="round" stroke-linejoin="round" fill="none" stroke="#000000" d="M 360 432 L 423 432 L 423 450 L 360 450 Z M 360 432 "/>
<text xml:space="preserve" transform="matrix(0 -.8567493 .8571429 0 380.5714 284.0124)" font-size="10" font-family="Helvetica" font-weight="bold"><tspan y="4" x="-5.561523 .000477314">14</tspan></text>
<path transform="matrix(1,0,0,-1,0,622)" d="M 372.8571 257.0248 L 388.28565 257.0248 L 388.28565 311.00004 L 372.8571 311.00004 Z " fill="#ffffff"/>
<path transform="matrix(0,-.8567493,.8571429,0,2.571429,619.42977)" stroke-width="1" stroke-linecap="round" stroke-linejoin="round" fill="none" stroke="#000000" d="M 297 432 L 360 432 L 360 450 L 297 450 Z M 297 432 "/>
<text xml:space="preserve" transform="matrix(0 -.8567493 .8571429 0 380.5714 337.9876)" font-size="10" font-family="Helvetica" font-weight="bold"><tspan y="4" x="-2.780762">8</tspan></text>
<path transform="matrix(1,0,0,-1,0,622)" d="M 388.2857 311 L 403.71427 311 L 403.71427 364.97523 L 388.2857 364.97523 Z " fill="#ffffff"/>
<path transform="matrix(0,-.8567493,.8571429,0,2.571429,619.42977)" stroke-width="1" stroke-linecap="round" stroke-linejoin="round" fill="none" stroke="#000000" d="M 360 450 L 423 450 L 423 468 L 360 468 Z M 360 450 "/>
<text xml:space="preserve" transform="matrix(0 -.8567493 .8571429 0 396 284.0124)" font-size="10" font-family="Helvetica" font-weight="bold"><tspan y="4" x="-5.288086 -.27308513">11</tspan></text>
<path transform="matrix(1,0,0,-1,0,622)" d="M 388.2857 257.0248 L 403.71427 257.0248 L 403.71427 311.00004 L 388.2857 311.00004 Z " fill="#ffffff"/>
<path transform="matrix(0,-.8567493,.8571429,0,2.571429,619.42977)" stroke-width="1" stroke-linecap="round" stroke-linejoin="round" fill="none" stroke="#000000" d="M 297 450 L 360 450 L 360 468 L 297 468 Z M 297 450 "/>
<text xml:space="preserve" transform="matrix(0 -.8567493 .8571429 0 396 337.9876)" font-size="10" font-family="Helvetica" font-weight="bold"><tspan y="4" x="-5.561523 .000477314">12</tspan></text>
<path transform="matrix(1,0,0,-1,0,622)" d="M 403.7143 311 L 419.14286 311 L 419.14286 364.97523 L 403.7143 364.97523 Z " fill="#ffffff"/>
<path transform="matrix(0,-.8567493,.8571429,0,2.571429,619.42977)" stroke-width="1" stroke-linecap="round" stroke-linejoin="round" fill="none" stroke="#000000" d="M 360 468 L 423 468 L 423 486 L 360 486 Z M 360 468 "/>
<text xml:space="preserve" transform="matrix(0 -.8567493 .8571429 0 411.4286 284.0124)" font-size="10" font-family="Helvetica" font-weight="bold"><tspan y="4" x="-2.780762">8</tspan></text>
<path transform="matrix(1,0,0,-1,0,622)" d="M 403.7143 257.0248 L 419.14286 257.0248 L 419.14286 311.00004 L 403.7143 311.00004 Z " fill="#ffffff"/>
<path transform="matrix(0,-.8567493,.8571429,0,2.571429,619.42977)" stroke-width="1" stroke-linecap="round" stroke-linejoin="round" fill="none" stroke="#000000" d="M 297 468 L 360 468 L 360 486 L 297 486 Z M 297 468 "/>
<text xml:space="preserve" transform="matrix(0 -.8567493 .8571429 0 411.4286 337.9876)" font-size="10" font-family="Helvetica" font-weight="bold"><tspan y="4" x="-5.561523 .000477314">16</tspan></text>
<path transform="matrix(1,0,0,-1,0,622)" d="M 419.1429 311 L 434.57148 311 L 434.57148 364.97523 L 419.1429 364.97523 Z " fill="#ffffff"/>
<path transform="matrix(0,-.8567493,.8571429,0,2.571429,619.42977)" stroke-width="1" stroke-linecap="round" stroke-linejoin="round" fill="none" stroke="#000000" d="M 360 486 L 423 486 L 423 504 L 360 504 Z M 360 486 "/>
<text xml:space="preserve" transform="matrix(0 -.8567493 .8571429 0 426.8571 284.0124)" font-size="10" font-family="Helvetica" font-weight="bold"><tspan y="4" x="-2.780762">5</tspan></text>
<path transform="matrix(1,0,0,-1,0,622)" d="M 419.1429 257.0248 L 434.57148 257.0248 L 434.57148 311.00004 L 419.1429 311.00004 Z " fill="#ffffff"/>
<path transform="matrix(0,-.8567493,.8571429,0,2.571429,619.42977)" stroke-width="1" stroke-linecap="round" stroke-linejoin="round" fill="none" stroke="#000000" d="M 297 486 L 360 486 L 360 504 L 297 504 Z M 297 486 "/>
<text xml:space="preserve" transform="matrix(0 -.8567493 .8571429 0 426.8571 337.9876)" font-size="10" font-family="Helvetica" font-weight="bold"><tspan y="4" x="-5.561523 .000477314">20</tspan></text>
<path transform="matrix(1,0,0,-1,0,622)" d="M 156.8571 125.9421 L 156.8571 249.314 L 311.1429 249.314 L 311.1429 125.9421 Z M 156.8571 125.9421 " fill="#ffffff"/>
<path transform="matrix(0,-.8567493,.8571429,0,2.571429,619.42977)" stroke-width="3" stroke-linecap="round" stroke-linejoin="round" fill="none" stroke="#000000" d="M 144 180 L 288 180 L 288 360 L 144 360 Z M 144 180 "/>
<text fill="#ff2f92" xml:space="preserve" transform="matrix(0 -.8567493 .8571429 0 305.1429 433.94349)" font-size="12" font-family="Helvetica" font-weight="bold"><tspan y="4" x="-3.336914">7</tspan></text>
<path transform="matrix(1,0,0,-1,0,622)" d="M 342 434.3719 L 357.42857 434.3719 L 357.42857 488.3471 L 342 488.3471 Z " fill="#d4feff"/>
<path transform="matrix(0,-.8567493,.8571429,0,2.571429,619.42977)" stroke-width="1" stroke-linecap="round" stroke-linejoin="round" fill="none" stroke="#000000" d="M 504 396 L 567 396 L 567 414 L 504 414 Z M 504 396 "/>
<text xml:space="preserve" transform="matrix(0 -.8567493 .8571429 0 349.7143 160.6405)" font-size="10" font-family="Helvetica" font-weight="bold"><tspan y="4" x="-4.169922"> </tspan></text>
<text xml:space="preserve" transform="matrix(0 -.8567493 .8571429 0 349.7143 160.6405)" font-size="10" font-family="Helvetica" font-weight="bold" font-style="italic"><tspan y="4" x="-1.391602">y</tspan></text>
<path transform="matrix(1,0,0,-1,0,622)" d="M 342 380.3967 L 357.42857 380.3967 L 357.42857 434.37193 L 342 434.37193 Z " fill="#d4feff"/>
<path transform="matrix(0,-.8567493,.8571429,0,2.571429,619.42977)" stroke-width="1" stroke-linecap="round" stroke-linejoin="round" fill="none" stroke="#000000" d="M 441 396 L 504 396 L 504 414 L 441 414 Z M 441 396 "/>
<text xml:space="preserve" transform="matrix(0 -.8567493 .8571429 0 349.7143 214.61569)" font-size="10" font-family="Helvetica" font-weight="bold" font-style="italic"><tspan y="4" x="-2.780762">x</tspan></text>
<path transform="matrix(1,0,0,-1,0,622)" d="M 357.4286 434.3719 L 372.85716 434.3719 L 372.85716 488.3471 L 357.4286 488.3471 Z " fill="#ffffff"/>
<path transform="matrix(0,-.8567493,.8571429,0,2.571429,619.42977)" stroke-width="1" stroke-linecap="round" stroke-linejoin="round" fill="none" stroke="#000000" d="M 504 414 L 567 414 L 567 432 L 504 432 Z M 504 414 "/>
<text xml:space="preserve" transform="matrix(0 -.8567493 .8571429 0 365.1429 160.6405)" font-size="10" font-family="Helvetica" font-weight="bold"><tspan y="4" x="-5.561523 .000477314">14</tspan></text>
<path transform="matrix(1,0,0,-1,0,622)" d="M 357.4286 380.3967 L 372.85716 380.3967 L 372.85716 434.37193 L 357.4286 434.37193 Z " fill="#ffffff"/>
<path transform="matrix(0,-.8567493,.8571429,0,2.571429,619.42977)" stroke-width="1" stroke-linecap="round" stroke-linejoin="round" fill="none" stroke="#000000" d="M 441 414 L 504 414 L 504 432 L 441 432 Z M 441 414 "/>
<text xml:space="preserve" transform="matrix(0 -.8567493 .8571429 0 365.1429 214.61569)" font-size="10" font-family="Helvetica" font-weight="bold"><tspan y="4" x="-2.780762">2</tspan></text>
<path transform="matrix(1,0,0,-1,0,622)" d="M 372.8571 434.3719 L 388.28565 434.3719 L 388.28565 488.3471 L 372.8571 488.3471 Z " fill="#ffffff"/>
<path transform="matrix(0,-.8567493,.8571429,0,2.571429,619.42977)" stroke-width="1" stroke-linecap="round" stroke-linejoin="round" fill="none" stroke="#000000" d="M 504 432 L 567 432 L 567 450 L 504 450 Z M 504 432 "/>
<text xml:space="preserve" transform="matrix(0 -.8567493 .8571429 0 380.5714 160.6405)" font-size="10" font-family="Helvetica" font-weight="bold"><tspan y="4" x="-2.780762">8</tspan></text>
<path transform="matrix(1,0,0,-1,0,622)" d="M 372.8571 380.3967 L 388.28565 380.3967 L 388.28565 434.37193 L 372.8571 434.37193 Z " fill="#ffffff"/>
<path transform="matrix(0,-.8567493,.8571429,0,2.571429,619.42977)" stroke-width="1" stroke-linecap="round" stroke-linejoin="round" fill="none" stroke="#000000" d="M 441 432 L 504 432 L 504 450 L 441 450 Z M 441 432 "/>
<text xml:space="preserve" transform="matrix(0 -.8567493 .8571429 0 380.5714 214.61569)" font-size="10" font-family="Helvetica" font-weight="bold"><tspan y="4" x="-2.780762">4</tspan></text>
<path transform="matrix(1,0,0,-1,0,622)" d="M 388.2857 434.3719 L 403.71427 434.3719 L 403.71427 488.3471 L 388.2857 488.3471 Z " fill="#ffffff"/>
<path transform="matrix(0,-.8567493,.8571429,0,2.571429,619.42977)" stroke-width="1" stroke-linecap="round" stroke-linejoin="round" fill="none" stroke="#000000" d="M 504 450 L 567 450 L 567 468 L 504 468 Z M 504 450 "/>
<text xml:space="preserve" transform="matrix(0 -.8567493 .8571429 0 396 160.6405)" font-size="10" font-family="Helvetica" font-weight="bold"><tspan y="4" x="-2.780762">2</tspan></text>
<path transform="matrix(1,0,0,-1,0,622)" d="M 388.2857 380.3967 L 403.71427 380.3967 L 403.71427 434.37193 L 388.2857 434.37193 Z " fill="#ffffff"/>
<path transform="matrix(0,-.8567493,.8571429,0,2.571429,619.42977)" stroke-width="1" stroke-linecap="round" stroke-linejoin="round" fill="none" stroke="#000000" d="M 441 450 L 504 450 L 504 468 L 441 468 Z M 441 450 "/>
<text xml:space="preserve" transform="matrix(0 -.8567493 .8571429 0 396 214.61569)" font-size="10" font-family="Helvetica" font-weight="bold"><tspan y="4" x="-2.780762">6</tspan></text>
<path transform="matrix(1,0,0,-1,0,622)" d="M 403.7143 434.3719 L 403.7143 488.3471 L 419.1429 488.3471 L 419.1429 434.3719 Z M 403.7143 434.3719 " fill="#ffffff"/>
<path transform="matrix(0,-.8567493,.8571429,0,2.571429,619.42977)" stroke-width="1" stroke-linecap="round" stroke-linejoin="round" fill="none" stroke="#000000" d="M 504 468 L 567 468 L 567 486 L 504 486 Z M 504 468 "/>
<text xml:space="preserve" transform="matrix(0 -.8567493 .8571429 0 411.4286 160.6405)" font-size="10" font-family="Helvetica" font-weight="bold"><tspan y="4" x="-5.561523 .000477314">&#x2013;4</tspan></text>
<path transform="matrix(1,0,0,-1,0,622)" d="M 403.7143 380.3967 L 419.14286 380.3967 L 419.14286 434.37193 L 403.7143 434.37193 Z " fill="#ffffff"/>
<path transform="matrix(0,-.8567493,.8571429,0,2.571429,619.42977)" stroke-width="1" stroke-linecap="round" stroke-linejoin="round" fill="none" stroke="#000000" d="M 441 468 L 504 468 L 504 486 L 441 486 Z M 441 468 "/>
<text xml:space="preserve" transform="matrix(0 -.8567493 .8571429 0 411.4286 214.61569)" font-size="10" font-family="Helvetica" font-weight="bold"><tspan y="4" x="-2.780762">8</tspan></text>
<path transform="matrix(1,0,0,-1,0,622)" d="M 419.1429 434.3719 L 419.1429 488.3471 L 434.5714 488.3471 L 434.5714 434.3719 Z M 419.1429 434.3719 " fill="#ffffff"/>
<path transform="matrix(0,-.8567493,.8571429,0,2.571429,619.42977)" stroke-width="1" stroke-linecap="round" stroke-linejoin="round" fill="none" stroke="#000000" d="M 504 486 L 567 486 L 567 504 L 504 504 Z M 504 486 "/>
<text xml:space="preserve" transform="matrix(0 -.8567493 .8571429 0 426.8571 160.6405)" font-size="10" font-family="Helvetica" font-weight="bold"><tspan y="4" x="-8.342285 -2.780285 2.7817155">&#x2013;10</tspan></text>
<path transform="matrix(1,0,0,-1,0,622)" d="M 419.1429 380.3967 L 434.57148 380.3967 L 434.57148 434.37193 L 419.1429 434.37193 Z " fill="#ffffff"/>
<path transform="matrix(0,-.8567493,.8571429,0,2.571429,619.42977)" stroke-width="1" stroke-linecap="round" stroke-linejoin="round" fill="none" stroke="#000000" d="M 441 486 L 504 486 L 504 504 L 441 504 Z M 441 486 "/>
<text xml:space="preserve" transform="matrix(0 -.8567493 .8571429 0 426.8571 214.61569)" font-size="10" font-family="Helvetica" font-weight="bold"><tspan y="4" x="-5.561523 .000477314">10</tspan></text>
<path transform="matrix(1,0,0,-1,0,622)" d="M 342 187.6281 L 357.42857 187.6281 L 357.42857 241.6033 L 342 241.6033 Z " fill="#d4feff"/>
<path transform="matrix(0,-.8567493,.8571429,0,2.571429,619.42977)" stroke-width="1" stroke-linecap="round" stroke-linejoin="round" fill="none" stroke="#000000" d="M 216 396 L 279 396 L 279 414 L 216 414 Z M 216 396 "/>
<text xml:space="preserve" transform="matrix(0 -.8567493 .8571429 0 349.7143 407.38429)" font-size="10" font-family="Helvetica" font-weight="bold"><tspan y="4" x="-4.169922"> </tspan></text>
<text xml:space="preserve" transform="matrix(0 -.8567493 .8571429 0 349.7143 407.38429)" font-size="10" font-family="Helvetica" font-weight="bold" font-style="italic"><tspan y="4" x="-1.391602">y</tspan></text>
<path transform="matrix(1,0,0,-1,0,622)" d="M 342 133.6529 L 357.42857 133.6529 L 357.42857 187.6281 L 342 187.6281 Z " fill="#d4feff"/>
<path transform="matrix(0,-.8567493,.8571429,0,2.571429,619.42977)" stroke-width="1" stroke-linecap="round" stroke-linejoin="round" fill="none" stroke="#000000" d="M 153 396 L 216 396 L 216 414 L 153 414 Z M 153 396 "/>
<text xml:space="preserve" transform="matrix(0 -.8567493 .8571429 0 349.7143 461.3595)" font-size="10" font-family="Helvetica" font-weight="bold" font-style="italic"><tspan y="4" x="-2.780762">x</tspan></text>
<path transform="matrix(1,0,0,-1,0,622)" d="M 357.4286 187.6281 L 372.85716 187.6281 L 372.85716 241.6033 L 357.4286 241.6033 Z " fill="#ffffff"/>
<path transform="matrix(0,-.8567493,.8571429,0,2.571429,619.42977)" stroke-width="1" stroke-linecap="round" stroke-linejoin="round" fill="none" stroke="#000000" d="M 216 414 L 279 414 L 279 432 L 216 432 Z M 216 414 "/>
<text xml:space="preserve" transform="matrix(0 -.8567493 .8571429 0 365.1429 407.38429)" font-size="10" font-family="Helvetica" font-weight="bold"><tspan y="4" x="-2.780762">7</tspan></text>
<path transform="matrix(1,0,0,-1,0,622)" d="M 357.4286 133.6529 L 372.85716 133.6529 L 372.85716 187.6281 L 357.4286 187.6281 Z " fill="#ffffff"/>
<path transform="matrix(0,-.8567493,.8571429,0,2.571429,619.42977)" stroke-width="1" stroke-linecap="round" stroke-linejoin="round" fill="none" stroke="#000000" d="M 153 414 L 216 414 L 216 432 L 153 432 Z M 153 414 "/>
<text xml:space="preserve" transform="matrix(0 -.8567493 .8571429 0 365.1429 461.3595)" font-size="10" font-family="Helvetica" font-weight="bold"><tspan y="4" x="-2.780762">4</tspan></text>
<path transform="matrix(1,0,0,-1,0,622)" d="M 372.8571 187.6281 L 388.28565 187.6281 L 388.28565 241.6033 L 372.8571 241.6033 Z " fill="#ffffff"/>
<path transform="matrix(0,-.8567493,.8571429,0,2.571429,619.42977)" stroke-width="1" stroke-linecap="round" stroke-linejoin="round" fill="none" stroke="#000000" d="M 216 432 L 279 432 L 279 450 L 216 450 Z M 216 432 "/>
<text xml:space="preserve" transform="matrix(0 -.8567493 .8571429 0 380.5714 407.38429)" font-size="10" font-family="Helvetica" font-weight="bold"><tspan y="4" x="-2.780762">9</tspan></text>
<path transform="matrix(1,0,0,-1,0,622)" d="M 372.8571 133.6529 L 388.28565 133.6529 L 388.28565 187.6281 L 372.8571 187.6281 Z " fill="#ffffff"/>
<path transform="matrix(0,-.8567493,.8571429,0,2.571429,619.42977)" stroke-width="1" stroke-linecap="round" stroke-linejoin="round" fill="none" stroke="#000000" d="M 153 432 L 216 432 L 216 450 L 153 450 Z M 153 432 "/>
<text xml:space="preserve" transform="matrix(0 -.8567493 .8571429 0 380.5714 461.3595)" font-size="10" font-family="Helvetica" font-weight="bold"><tspan y="4" x="-2.780762">8</tspan></text>
<path transform="matrix(1,0,0,-1,0,622)" d="M 388.2857 187.6281 L 388.2857 241.6033 L 403.7143 241.6033 L 403.7143 187.6281 Z M 388.2857 187.6281 " fill="#ffffff"/>
<path transform="matrix(0,-.8567493,.8571429,0,2.571429,619.42977)" stroke-width="1" stroke-linecap="round" stroke-linejoin="round" fill="none" stroke="#000000" d="M 216 450 L 279 450 L 279 468 L 216 468 Z M 216 450 "/>
<text xml:space="preserve" transform="matrix(0 -.8567493 .8571429 0 396 407.38429)" font-size="10" font-family="Helvetica" font-weight="bold"><tspan y="4" x="-5.288086 -.27308513">11</tspan></text>
<path transform="matrix(1,0,0,-1,0,622)" d="M 388.2857 133.6529 L 388.2857 187.6281 L 403.7143 187.6281 L 403.7143 133.6529 Z M 388.2857 133.6529 " fill="#ffffff"/>
<path transform="matrix(0,-.8567493,.8571429,0,2.571429,619.42977)" stroke-width="1" stroke-linecap="round" stroke-linejoin="round" fill="none" stroke="#000000" d="M 153 450 L 216 450 L 216 468 L 153 468 Z M 153 450 "/>
<text xml:space="preserve" transform="matrix(0 -.8567493 .8571429 0 396 461.3595)" font-size="10" font-family="Helvetica" font-weight="bold"><tspan y="4" x="-5.561523 .000477314">12</tspan></text>
<path transform="matrix(1,0,0,-1,0,622)" d="M 403.7143 187.6281 L 419.14286 187.6281 L 419.14286 241.6033 L 403.7143 241.6033 Z " fill="#ffffff"/>
<path transform="matrix(0,-.8567493,.8571429,0,2.571429,619.42977)" stroke-width="1" stroke-linecap="round" stroke-linejoin="round" fill="none" stroke="#000000" d="M 216 468 L 279 468 L 279 486 L 216 486 Z M 216 468 "/>
<text xml:space="preserve" transform="matrix(0 -.8567493 .8571429 0 411.4286 407.38429)" font-size="10" font-family="Helvetica" font-weight="bold"><tspan y="4" x="-5.561523 .000477314">13</tspan></text>
<path transform="matrix(1,0,0,-1,0,622)" d="M 403.7143 133.6529 L 403.7143 187.6281 L 419.1429 187.6281 L 419.1429 133.6529 Z M 403.7143 133.6529 " fill="#ffffff"/>
<path transform="matrix(0,-.8567493,.8571429,0,2.571429,619.42977)" stroke-width="1" stroke-linecap="round" stroke-linejoin="round" fill="none" stroke="#000000" d="M 153 468 L 216 468 L 216 486 L 153 486 Z M 153 468 "/>
<text xml:space="preserve" transform="matrix(0 -.8567493 .8571429 0 411.4286 461.3595)" font-size="10" font-family="Helvetica" font-weight="bold"><tspan y="4" x="-5.561523 .000477314">16</tspan></text>
<path transform="matrix(1,0,0,-1,0,622)" d="M 419.1429 187.6281 L 434.57148 187.6281 L 434.57148 241.6033 L 419.1429 241.6033 Z " fill="#ffffff"/>
<path transform="matrix(0,-.8567493,.8571429,0,2.571429,619.42977)" stroke-width="1" stroke-linecap="round" stroke-linejoin="round" fill="none" stroke="#000000" d="M 216 486 L 279 486 L 279 504 L 216 504 Z M 216 486 "/>
<text xml:space="preserve" transform="matrix(0 -.8567493 .8571429 0 426.8571 407.38429)" font-size="10" font-family="Helvetica" font-weight="bold"><tspan y="4" x="-5.561523 .000477314">15</tspan></text>
<path transform="matrix(1,0,0,-1,0,622)" d="M 419.1429 133.6529 L 419.1429 187.6281 L 434.5714 187.6281 L 434.5714 133.6529 Z M 419.1429 133.6529 " fill="#ffffff"/>
<path transform="matrix(0,-.8567493,.8571429,0,2.571429,619.42977)" stroke-width="1" stroke-linecap="round" stroke-linejoin="round" fill="none" stroke="#000000" d="M 153 486 L 216 486 L 216 504 L 153 504 Z M 153 486 "/>
<text xml:space="preserve" transform="matrix(0 -.8567493 .8571429 0 426.8571 461.3595)" font-size="10" font-family="Helvetica" font-weight="bold"><tspan y="4" x="-5.561523 .000477314">20</tspan></text>
<path transform="matrix(1,0,0,-1,0,622)" d="M 342 64.2562 L 342 118.2314 L 357.4286 118.2314 L 357.4286 64.2562 Z M 342 64.2562 " fill="#d4feff"/>
<path transform="matrix(0,-.8567493,.8571429,0,2.571429,619.42977)" stroke-width="1" stroke-linecap="round" stroke-linejoin="round" fill="none" stroke="#000000" d="M 72 396 L 135 396 L 135 414 L 72 414 Z M 72 396 "/>
<text xml:space="preserve" transform="matrix(0 -.8567493 .8571429 0 349.7143 530.7562)" font-size="10" font-family="Helvetica" font-weight="bold"><tspan y="4" x="-4.169922"> </tspan></text>
<text xml:space="preserve" transform="matrix(0 -.8567493 .8571429 0 349.7143 530.7562)" font-size="10" font-family="Helvetica" font-weight="bold" font-style="italic"><tspan y="4" x="-1.391602">y</tspan></text>
<path transform="matrix(1,0,0,-1,0,622)" d="M 342 10.28099 L 342 64.2562 L 357.4286 64.2562 L 357.4286 10.28099 Z M 342 10.28099 " fill="#d4feff"/>
<path transform="matrix(0,-.8567493,.8571429,0,2.571429,619.42977)" stroke-width="1" stroke-linecap="round" stroke-linejoin="round" fill="none" stroke="#000000" d="M 9 396 L 72 396 L 72 414 L 9 414 Z M 9 396 "/>
<text xml:space="preserve" transform="matrix(0 -.8567493 .8571429 0 349.7143 584.7314)" font-size="10" font-family="Helvetica" font-weight="bold" font-style="italic"><tspan y="4" x="-2.780762">x</tspan></text>
<path transform="matrix(1,0,0,-1,0,622)" d="M 357.4286 64.2562 L 357.4286 118.2314 L 372.8571 118.2314 L 372.8571 64.2562 Z M 357.4286 64.2562 " fill="#ffffff"/>
<path transform="matrix(0,-.8567493,.8571429,0,2.571429,619.42977)" stroke-width="1" stroke-linecap="round" stroke-linejoin="round" fill="none" stroke="#000000" d="M 72 414 L 135 414 L 135 432 L 72 432 Z M 72 414 "/>
<text xml:space="preserve" transform="matrix(0 -.8567493 .8571429 0 365.1429 530.7562)" font-size="10" font-family="Helvetica" font-weight="bold"><tspan y="4" x="-5.561523 .000477314">13</tspan></text>
<path transform="matrix(1,0,0,-1,0,622)" d="M 357.4286 10.28099 L 357.4286 64.2562 L 372.8571 64.2562 L 372.8571 10.28099 Z M 357.4286 10.28099 " fill="#ffffff"/>
<path transform="matrix(0,-.8567493,.8571429,0,2.571429,619.42977)" stroke-width="1" stroke-linecap="round" stroke-linejoin="round" fill="none" stroke="#000000" d="M 9 414 L 72 414 L 72 432 L 9 432 Z M 9 414 "/>
<text xml:space="preserve" transform="matrix(0 -.8567493 .8571429 0 365.1429 584.7314)" font-size="10" font-family="Helvetica" font-weight="bold"><tspan y="4" x="-5.561523 .000477314">10</tspan></text>
<path transform="matrix(1,0,0,-1,0,622)" d="M 372.8571 64.2562 L 372.8571 118.2314 L 388.2857 118.2314 L 388.2857 64.2562 Z M 372.8571 64.2562 " fill="#ffffff"/>
<path transform="matrix(0,-.8567493,.8571429,0,2.571429,619.42977)" stroke-width="1" stroke-linecap="round" stroke-linejoin="round" fill="none" stroke="#000000" d="M 72 432 L 135 432 L 135 450 L 72 450 Z M 72 432 "/>
<text xml:space="preserve" transform="matrix(0 -.8567493 .8571429 0 380.5714 530.7562)" font-size="10" font-family="Helvetica" font-weight="bold"><tspan y="4" x="-5.561523 .000477314">18</tspan></text>
<path transform="matrix(1,0,0,-1,0,622)" d="M 372.8571 10.28099 L 372.8571 64.2562 L 388.2857 64.2562 L 388.2857 10.28099 Z M 372.8571 10.28099 " fill="#ffffff"/>
<path transform="matrix(0,-.8567493,.8571429,0,2.571429,619.42977)" stroke-width="1" stroke-linecap="round" stroke-linejoin="round" fill="none" stroke="#000000" d="M 9 432 L 72 432 L 72 450 L 9 450 Z M 9 432 "/>
<text xml:space="preserve" transform="matrix(0 -.8567493 .8571429 0 380.5714 584.7314)" font-size="10" font-family="Helvetica" font-weight="bold"><tspan y="4" x="-5.561523 .000477314">20</tspan></text>
<path transform="matrix(1,0,0,-1,0,622)" d="M 388.2857 64.2562 L 388.2857 118.2314 L 403.7143 118.2314 L 403.7143 64.2562 Z M 388.2857 64.2562 " fill="#ffffff"/>
<path transform="matrix(0,-.8567493,.8571429,0,2.571429,619.42977)" stroke-width="1" stroke-linecap="round" stroke-linejoin="round" fill="none" stroke="#000000" d="M 72 450 L 135 450 L 135 468 L 72 468 Z M 72 450 "/>
<text xml:space="preserve" transform="matrix(0 -.8567493 .8571429 0 396 530.7562)" font-size="10" font-family="Helvetica" font-weight="bold"><tspan y="4" x="-5.561523 .000477314">23</tspan></text>
<path transform="matrix(1,0,0,-1,0,622)" d="M 388.2857 10.28099 L 388.2857 64.2562 L 403.7143 64.2562 L 403.7143 10.28099 Z M 388.2857 10.28099 " fill="#ffffff"/>
<path transform="matrix(0,-.8567493,.8571429,0,2.571429,619.42977)" stroke-width="1" stroke-linecap="round" stroke-linejoin="round" fill="none" stroke="#000000" d="M 9 450 L 72 450 L 72 468 L 9 468 Z M 9 450 "/>
<text xml:space="preserve" transform="matrix(0 -.8567493 .8571429 0 396 584.7314)" font-size="10" font-family="Helvetica" font-weight="bold"><tspan y="4" x="-5.561523 .000477314">30</tspan></text>
<path transform="matrix(1,0,0,-1,0,622)" d="M 403.7143 64.2562 L 403.7143 118.2314 L 419.1429 118.2314 L 419.1429 64.2562 Z M 403.7143 64.2562 " fill="#ffffff"/>
<path transform="matrix(0,-.8567493,.8571429,0,2.571429,619.42977)" stroke-width="1" stroke-linecap="round" stroke-linejoin="round" fill="none" stroke="#000000" d="M 72 468 L 135 468 L 135 486 L 72 486 Z M 72 468 "/>
<text xml:space="preserve" transform="matrix(0 -.8567493 .8571429 0 411.4286 530.7562)" font-size="10" font-family="Helvetica" font-weight="bold"><tspan y="4" x="-5.561523 .000477314">28</tspan></text>
<path transform="matrix(1,0,0,-1,0,622)" d="M 403.7143 10.28099 L 403.7143 64.2562 L 419.1429 64.2562 L 419.1429 10.28099 Z M 403.7143 10.28099 " fill="#ffffff"/>
<path transform="matrix(0,-.8567493,.8571429,0,2.571429,619.42977)" stroke-width="1" stroke-linecap="round" stroke-linejoin="round" fill="none" stroke="#000000" d="M 9 468 L 72 468 L 72 486 L 9 486 Z M 9 468 "/>
<text xml:space="preserve" transform="matrix(0 -.8567493 .8571429 0 411.4286 584.7314)" font-size="10" font-family="Helvetica" font-weight="bold"><tspan y="4" x="-5.561523 .000477314">40</tspan></text>
<path transform="matrix(1,0,0,-1,0,622)" d="M 419.1429 64.2562 L 419.1429 118.2314 L 434.5714 118.2314 L 434.5714 64.2562 Z M 419.1429 64.2562 " fill="#ffffff"/>
<path transform="matrix(0,-.8567493,.8571429,0,2.571429,619.42977)" stroke-width="1" stroke-linecap="round" stroke-linejoin="round" fill="none" stroke="#000000" d="M 72 486 L 135 486 L 135 504 L 72 504 Z M 72 486 "/>
<text xml:space="preserve" transform="matrix(0 -.8567493 .8571429 0 426.8571 530.7562)" font-size="10" font-family="Helvetica" font-weight="bold"><tspan y="4" x="-5.561523 .000477314">33</tspan></text>
<path transform="matrix(1,0,0,-1,0,622)" d="M 419.1429 10.28099 L 419.1429 64.2562 L 434.5714 64.2562 L 434.5714 10.28099 Z M 419.1429 10.28099 " fill="#ffffff"/>
<path transform="matrix(0,-.8567493,.8571429,0,2.571429,619.42977)" stroke-width="1" stroke-linecap="round" stroke-linejoin="round" fill="none" stroke="#000000" d="M 9 486 L 72 486 L 72 504 L 9 504 Z M 9 486 "/>
<text xml:space="preserve" transform="matrix(0 -.8567493 .8571429 0 426.8571 584.7314)" font-size="10" font-family="Helvetica" font-weight="bold"><tspan y="4" x="-5.561523 .000477314">50</tspan></text>
</g>
</g>
</g>
<clipPath id="cp4">
<path transform="matrix(1,0,0,-1,0,622)" d="M 468 0 L 468 622 L 0 622 L 0 0 Z "/>
</clipPath>
<g clip-path="url(#cp4)">
<clipPath id="cp5">
<path transform="matrix(1,0,0,-1,0,622)" d="M 175.2549 253.0939 L 175.2549 376.4658 L 280.7955 376.4658 L 280.7955 253.0939 Z M 175.2549 253.0939 "/>
</clipPath>
<g clip-path="url(#cp5)">
<clipPath id="cp6">
<path transform="matrix(1,0,0,-1,0,622)" d="M 280.7955 253.0939 L 280.7955 376.4658 L 175.2549 376.4658 L 175.2549 253.0939 Z "/>
</clipPath>
<g clip-path="url(#cp6)">
<clipPath id="cp7">
<path transform="matrix(1,0,0,-1,0,622)" d="M 0 0 L 468 0 L 468 622 L 0 622 Z "/>
</clipPath>
<g clip-path="url(#cp7)">
<path transform="matrix(0,-.4469996,.4472063,0,157.8138,392.1502)" stroke-width="1" stroke-linecap="round" stroke-linejoin="round" fill="none" stroke="#929292" d="M 71.99996 72.00001 L 287.9999 72.00001 L 287.9999 90 L 71.99996 90 Z M 71.99996 72.00001 "/>
<path transform="matrix(0,-.4469996,.4472063,0,157.8138,392.1502)" stroke-width="1" stroke-linecap="round" stroke-linejoin="round" fill="none" stroke="#929292" d="M 71.99996 90 L 287.9999 90 L 287.9999 108 L 71.99996 108 Z M 71.99996 90 "/>
<path transform="matrix(0,-.4469996,.4472063,0,157.8138,392.1502)" stroke-width="1" stroke-linecap="round" stroke-linejoin="round" fill="none" stroke="#929292" d="M 71.99996 108 L 287.9999 108 L 287.9999 126 L 71.99996 126 Z M 71.99996 108 "/>
<path transform="matrix(0,-.4469996,.4472063,0,157.8138,392.1502)" stroke-width="1" stroke-linecap="round" stroke-linejoin="round" fill="none" stroke="#929292" d="M 71.99996 126 L 287.9999 126 L 287.9999 144 L 71.99996 144 Z M 71.99996 126 "/>
<path transform="matrix(0,-.4469996,.4472063,0,157.8138,392.1502)" stroke-width="1" stroke-linecap="round" stroke-linejoin="round" fill="none" stroke="#929292" d="M 71.99996 144 L 287.9999 144 L 287.9999 162 L 71.99996 162 Z M 71.99996 144 "/>
<path transform="matrix(0,-.4469996,.4472063,0,157.8138,392.1502)" stroke-width="1" stroke-linecap="round" stroke-linejoin="round" fill="none" stroke="#929292" d="M 71.99996 162 L 287.9999 162 L 287.9999 180 L 71.99996 180 Z M 71.99996 162 "/>
<path transform="matrix(0,-.4469996,.4472063,0,157.8138,392.1502)" stroke-width="1" stroke-linecap="round" stroke-linejoin="round" fill="none" stroke="#929292" d="M 71.99996 180 L 287.9999 180 L 287.9999 198 L 71.99996 198 Z M 71.99996 180 "/>
<path transform="matrix(0,-.4469996,.4472063,0,157.8138,392.1502)" stroke-width="1" stroke-linecap="round" stroke-linejoin="round" fill="none" stroke="#929292" d="M 71.99996 198 L 287.9999 198 L 287.9999 216 L 71.99996 216 Z M 71.99996 198 "/>
<path transform="matrix(0,-.4469996,.4472063,0,157.8138,392.1502)" stroke-width="1" stroke-linecap="round" stroke-linejoin="round" fill="none" stroke="#929292" d="M 71.99996 216 L 287.9999 216 L 287.9999 234 L 71.99996 234 Z M 71.99996 216 "/>
<path transform="matrix(0,-.4469996,.4472063,0,157.8138,392.1502)" stroke-width="1" stroke-linecap="round" stroke-linejoin="round" fill="none" stroke="#929292" d="M 71.99996 234 L 287.9999 234 L 287.9999 252 L 71.99996 252 Z M 71.99996 234 "/>
<path transform="matrix(0,-.4469996,.4472063,0,157.8138,392.1502)" stroke-width="1" stroke-linecap="round" stroke-linejoin="round" fill="none" stroke="#929292" d="M 71.99996 72.00001 L 89.99995 72.00001 L 89.99995 252 L 71.99996 252 Z M 71.99996 72.00001 "/>
<path transform="matrix(0,-.4469996,.4472063,0,157.8138,392.1502)" stroke-width="1" stroke-linecap="round" stroke-linejoin="round" fill="none" stroke="#929292" d="M 89.99995 72.00001 L 108 72.00001 L 108 252 L 89.99995 252 Z M 89.99995 72.00001 "/>
<path transform="matrix(0,-.4469996,.4472063,0,157.8138,392.1502)" stroke-width="1" stroke-linecap="round" stroke-linejoin="round" fill="none" stroke="#929292" d="M 108 72.00001 L 126 72.00001 L 126 252 L 108 252 Z M 108 72.00001 "/>
<path transform="matrix(0,-.4469996,.4472063,0,157.8138,392.1502)" stroke-width="1" stroke-linecap="round" stroke-linejoin="round" fill="none" stroke="#929292" d="M 126 72.00001 L 144 72.00001 L 144 252 L 126 252 Z M 126 72.00001 "/>
<path transform="matrix(0,-.4469996,.4472063,0,157.8138,392.1502)" stroke-width="1" stroke-linecap="round" stroke-linejoin="round" fill="none" stroke="#929292" d="M 144 72.00001 L 161.9999 72.00001 L 161.9999 252 L 144 252 Z M 144 72.00001 "/>
<path transform="matrix(0,-.4469996,.4472063,0,157.8138,392.1502)" stroke-width="1" stroke-linecap="round" stroke-linejoin="round" fill="none" stroke="#929292" d="M 161.9999 72.00001 L 180 72.00001 L 180 252 L 161.9999 252 Z M 161.9999 72.00001 "/>
<path transform="matrix(0,-.4469996,.4472063,0,157.8138,392.1502)" stroke-width="1" stroke-linecap="round" stroke-linejoin="round" fill="none" stroke="#929292" d="M 180 72.00001 L 198 72.00001 L 198 252 L 180 252 Z M 180 72.00001 "/>
<path transform="matrix(0,-.4469996,.4472063,0,157.8138,392.1502)" stroke-width="1" stroke-linecap="round" stroke-linejoin="round" fill="none" stroke="#929292" d="M 198 72.00001 L 216 72.00001 L 216 252 L 198 252 Z M 198 72.00001 "/>
<path transform="matrix(0,-.4469996,.4472063,0,157.8138,392.1502)" stroke-width="1" stroke-linecap="round" stroke-linejoin="round" fill="none" stroke="#929292" d="M 216 72.00001 L 233.9999 72.00001 L 233.9999 252 L 216 252 Z M 216 72.00001 "/>
<path transform="matrix(0,-.4469996,.4472063,0,157.8138,392.1502)" stroke-width="1" stroke-linecap="round" stroke-linejoin="round" fill="none" stroke="#929292" d="M 233.9999 72.00001 L 252 72.00001 L 252 252 L 233.9999 252 Z M 233.9999 72.00001 "/>
<path transform="matrix(0,-.4469996,.4472063,0,157.8138,392.1502)" stroke-width="1" stroke-linecap="round" stroke-linejoin="round" fill="none" stroke="#929292" d="M 252 72.00001 L 270 72.00001 L 270 252 L 252 252 Z M 252 72.00001 "/>
<path transform="matrix(0,-.4469996,.4472063,0,157.8138,392.1502)" stroke-width="1" stroke-linecap="round" stroke-linejoin="round" fill="none" stroke="#929292" d="M 270 72.00001 L 287.9999 72.00001 L 287.9999 252 L 270 252 Z M 270 72.00001 "/>
<text xml:space="preserve" transform="matrix(0 -.4469996 .4472063 0 262.4965 363.9892)" font-size="14" font-family="Helvetica" font-weight="bold"><tspan y="5.5" x="-3.893066">4</tspan></text>
<text xml:space="preserve" transform="matrix(0 -.4469996 .4472063 0 254.4467 364.7688)" font-size="14" font-family="Helvetica" font-weight="bold"><tspan y="5.5" x="-3.893066">8</tspan></text>
<text xml:space="preserve" transform="matrix(0 -.4469996 .4472063 0 246.397 365.3302)" font-size="14" font-family="Helvetica" font-weight="bold"><tspan y="5.5" x="-7.786133 .000667572">12</tspan></text>
<text xml:space="preserve" transform="matrix(0 -.4469996 .4472063 0 238.3473 365.3302)" font-size="14" font-family="Helvetica" font-weight="bold"><tspan y="5.5" x="-7.786133 .000667572">16</tspan></text>
<text xml:space="preserve" transform="matrix(0 -.4469996 .4472063 0 230.2612 365.3302)" font-size="14" font-family="Helvetica" font-weight="bold"><tspan y="5.5" x="-7.786133 .000667572">20</tspan></text>
<text xml:space="preserve" transform="matrix(0 -.4469996 .4472063 0 270.5826 363.7657)" font-size="14" font-family="Helvetica" font-weight="bold"><tspan y="5.5" x="-3.893066">0</tspan></text>
<text xml:space="preserve" transform="matrix(0 -.4469996 .4472063 0 276.9943 359.5192)" font-size="14" font-family="Helvetica" font-weight="bold"><tspan y="5.5" x="-3.893066">0</tspan></text>
<text xml:space="preserve" transform="matrix(0 -.4469996 .4472063 0 276.9943 343.4272)" font-size="14" font-family="Helvetica" font-weight="bold"><tspan y="5.5" x="-3.893066">2</tspan></text>
<text xml:space="preserve" transform="matrix(0 -.4469996 .4472063 0 276.9943 327.3352)" font-size="14" font-family="Helvetica" font-weight="bold"><tspan y="5.5" x="-3.893066">4</tspan></text>
<text xml:space="preserve" transform="matrix(0 -.4469996 .4472063 0 276.9943 311.2432)" font-size="14" font-family="Helvetica" font-weight="bold"><tspan y="5.5" x="-3.893066">6</tspan></text>
<text xml:space="preserve" transform="matrix(0 -.4469996 .4472063 0 276.9943 295.1513)" font-size="14" font-family="Helvetica" font-weight="bold"><tspan y="5.5" x="-3.893066">8</tspan></text>
<text xml:space="preserve" transform="matrix(0 -.4469996 .4472063 0 276.9943 279.0593)" font-size="14" font-family="Helvetica" font-weight="bold"><tspan y="5.5" x="-7.786133 .000667572">10</tspan></text>
<text xml:space="preserve" transform="matrix(0 -.4469996 .4472063 0 276.9943 262.9673)" font-size="14" font-family="Helvetica" font-weight="bold"><tspan y="5.5" x="-7.786133 .000667572">12</tspan></text>
<text xml:space="preserve" transform="matrix(0 -.4469996 .4472063 0 222.2115 365.3302)" font-size="14" font-family="Helvetica" font-weight="bold"><tspan y="5.5" x="-7.786133 .000667572">24</tspan></text>
<text xml:space="preserve" transform="matrix(0 -.4469996 .4472063 0 213.9381 365.3302)" font-size="14" font-family="Helvetica" font-weight="bold"><tspan y="5.5" x="-7.786133 .000667572">28</tspan></text>
<text xml:space="preserve" transform="matrix(0 -.4469996 .4472063 0 205.6648 365.3302)" font-size="14" font-family="Helvetica" font-weight="bold"><tspan y="5.5" x="-7.786133 .000667572">32</tspan></text>
<text xml:space="preserve" transform="matrix(0 -.4469996 .4472063 0 197.6151 365.3302)" font-size="14" font-family="Helvetica" font-weight="bold"><tspan y="5.5" x="-7.786133 .000667572">36</tspan></text>
<text xml:space="preserve" transform="matrix(0 -.4469996 .4472063 0 190.2363 365.3302)" font-size="14" font-family="Helvetica" font-weight="bold"><tspan y="5.5" x="-7.786133 .000667572">40</tspan></text>
<path transform="matrix(0,-.4469996,.4472063,0,157.8138,392.1502)" stroke-width="3" stroke-linecap="round" stroke-linejoin="round" fill="none" stroke="#000000" d="M 71.99996 252 L 290.1 252 "/>
<path transform="matrix(1,0,0,-1,0,622)" d="M 270.5097 364.5308 L 268.6315 359.5245 L 272.388 359.5245 Z M 270.5097 364.5308 "/>
<path transform="matrix(0,-.4469996,.4472063,0,157.8138,392.1502)" stroke-width="3" stroke-linecap="butt" stroke-miterlimit="10" stroke-linejoin="miter" fill="none" stroke="#000000" d="M 301.3 252 L 290.1 247.8 L 290.1 256.2 Z M 301.3 252 "/>
<path transform="matrix(0,-.4469996,.4472063,0,157.8138,392.1502)" stroke-width="3" stroke-linecap="round" stroke-linejoin="round" fill="none" stroke="#000000" d="M 71.99996 252 L 71.99996 64.39999 "/>
<path transform="matrix(1,0,0,-1,0,622)" d="M 181.6052 262.0338 L 186.6139 260.1564 L 186.6139 263.9113 Z M 181.6052 262.0338 "/>
<path transform="matrix(0,-.4469996,.4472063,0,157.8138,392.1502)" stroke-width="3" stroke-linecap="butt" stroke-miterlimit="10" stroke-linejoin="miter" fill="none" stroke="#000000" d="M 71.99996 53.20003 L 67.79994 64.39999 L 76.19998 64.39999 Z M 71.99996 53.20003 "/>
<text xml:space="preserve" transform="matrix(0 -.4469996 .4472063 0 274.311 254.02732)" font-size="14" font-family="Helvetica" font-weight="bold" font-style="italic"><tspan y="5.5" x="-3.893066">x</tspan></text>
<text xml:space="preserve" transform="matrix(0 -.4469996 .4472063 0 182.1865 364.6597)" font-size="14" font-family="Helvetica" font-weight="bold" font-style="italic"><tspan y="5.5" x="-3.893066">y</tspan></text>
<path transform="matrix(0,-.4469996,.4472063,0,157.8138,392.1502)" stroke-width="3" stroke-linecap="round" stroke-linejoin="round" fill="none" stroke="#0433ff" d="M 73.16273 216.2093 L 187.1395 71.5116 "/>
</g>
</g>
</g>
</g>
<clipPath id="cp8">
<path transform="matrix(1,0,0,-1,0,622)" d="M 468 0 L 468 622 L 0 622 L 0 0 Z "/>
</clipPath>
<g clip-path="url(#cp8)">
<clipPath id="cp9">
<path transform="matrix(1,0,0,-1,0,622)" d="M 174.1765 129.2431 L 174.1765 252.6154 L 279.7172 252.6154 L 279.7172 129.2431 Z M 174.1765 129.2431 "/>
</clipPath>
<g clip-path="url(#cp9)">
<clipPath id="cp10">
<path transform="matrix(1,0,0,-1,0,622)" d="M 279.7172 129.2431 L 279.7172 252.6153 L 174.1765 252.6153 L 174.1765 129.2431 Z "/>
</clipPath>
<g clip-path="url(#cp10)">
<clipPath id="cp11">
<path transform="matrix(1,0,0,-1,0,622)" d="M 0 0 L 468 0 L 468 622 L 0 622 Z "/>
</clipPath>
<g clip-path="url(#cp11)">
<path transform="matrix(0,-.4470006,.4472063,0,156.7354,516.0009)" stroke-width="1" stroke-linecap="round" stroke-linejoin="round" fill="none" stroke="#929292" d="M 72.00002 72.00001 L 288 72.00001 L 288 89.99999 L 72.00002 89.99999 Z M 72.00002 72.00001 "/>
<path transform="matrix(0,-.4470006,.4472063,0,156.7354,516.0009)" stroke-width="1" stroke-linecap="round" stroke-linejoin="round" fill="none" stroke="#929292" d="M 72.00002 89.99999 L 288 89.99999 L 288 108 L 72.00002 108 Z M 72.00002 89.99999 "/>
<path transform="matrix(0,-.4470006,.4472063,0,156.7354,516.0009)" stroke-width="1" stroke-linecap="round" stroke-linejoin="round" fill="none" stroke="#929292" d="M 72.00002 108 L 288 108 L 288 126 L 72.00002 126 Z M 72.00002 108 "/>
<path transform="matrix(0,-.4470006,.4472063,0,156.7354,516.0009)" stroke-width="1" stroke-linecap="round" stroke-linejoin="round" fill="none" stroke="#929292" d="M 72.00002 126 L 288 126 L 288 144 L 72.00002 144 Z M 72.00002 126 "/>
<path transform="matrix(0,-.4470006,.4472063,0,156.7354,516.0009)" stroke-width="1" stroke-linecap="round" stroke-linejoin="round" fill="none" stroke="#929292" d="M 72.00002 144 L 288 144 L 288 162 L 72.00002 162 Z M 72.00002 144 "/>
<path transform="matrix(0,-.4470006,.4472063,0,156.7354,516.0009)" stroke-width="1" stroke-linecap="round" stroke-linejoin="round" fill="none" stroke="#929292" d="M 72.00002 162 L 288 162 L 288 180 L 72.00002 180 Z M 72.00002 162 "/>
<path transform="matrix(0,-.4470006,.4472063,0,156.7354,516.0009)" stroke-width="1" stroke-linecap="round" stroke-linejoin="round" fill="none" stroke="#929292" d="M 72.00002 180 L 288 180 L 288 198 L 72.00002 198 Z M 72.00002 180 "/>
<path transform="matrix(0,-.4470006,.4472063,0,156.7354,516.0009)" stroke-width="1" stroke-linecap="round" stroke-linejoin="round" fill="none" stroke="#929292" d="M 72.00002 198 L 288 198 L 288 216 L 72.00002 216 Z M 72.00002 198 "/>
<path transform="matrix(0,-.4470006,.4472063,0,156.7354,516.0009)" stroke-width="1" stroke-linecap="round" stroke-linejoin="round" fill="none" stroke="#929292" d="M 72.00002 216 L 288 216 L 288 234 L 72.00002 234 Z M 72.00002 216 "/>
<path transform="matrix(0,-.4470006,.4472063,0,156.7354,516.0009)" stroke-width="1" stroke-linecap="round" stroke-linejoin="round" fill="none" stroke="#929292" d="M 72.00002 234 L 288 234 L 288 252 L 72.00002 252 Z M 72.00002 234 "/>
<path transform="matrix(0,-.4470006,.4472063,0,156.7354,516.0009)" stroke-width="1" stroke-linecap="round" stroke-linejoin="round" fill="none" stroke="#929292" d="M 72.00002 72.00001 L 90.00002 72.00001 L 90.00002 252 L 72.00002 252 Z M 72.00002 72.00001 "/>
<path transform="matrix(0,-.4470006,.4472063,0,156.7354,516.0009)" stroke-width="1" stroke-linecap="round" stroke-linejoin="round" fill="none" stroke="#929292" d="M 90.00002 72.00001 L 108 72.00001 L 108 252 L 90.00002 252 Z M 90.00002 72.00001 "/>
<path transform="matrix(0,-.4470006,.4472063,0,156.7354,516.0009)" stroke-width="1" stroke-linecap="round" stroke-linejoin="round" fill="none" stroke="#929292" d="M 108 72.00001 L 126 72.00001 L 126 252 L 108 252 Z M 108 72.00001 "/>
<path transform="matrix(0,-.4470006,.4472063,0,156.7354,516.0009)" stroke-width="1" stroke-linecap="round" stroke-linejoin="round" fill="none" stroke="#929292" d="M 126 72.00001 L 144 72.00001 L 144 252 L 126 252 Z M 126 72.00001 "/>
<path transform="matrix(0,-.4470006,.4472063,0,156.7354,516.0009)" stroke-width="1" stroke-linecap="round" stroke-linejoin="round" fill="none" stroke="#929292" d="M 144 72.00001 L 162 72.00001 L 162 252 L 144 252 Z M 144 72.00001 "/>
<path transform="matrix(0,-.4470006,.4472063,0,156.7354,516.0009)" stroke-width="1" stroke-linecap="round" stroke-linejoin="round" fill="none" stroke="#929292" d="M 162 72.00001 L 180 72.00001 L 180 252 L 162 252 Z M 162 72.00001 "/>
<path transform="matrix(0,-.4470006,.4472063,0,156.7354,516.0009)" stroke-width="1" stroke-linecap="round" stroke-linejoin="round" fill="none" stroke="#929292" d="M 180 72.00001 L 198 72.00001 L 198 252 L 180 252 Z M 180 72.00001 "/>
<path transform="matrix(0,-.4470006,.4472063,0,156.7354,516.0009)" stroke-width="1" stroke-linecap="round" stroke-linejoin="round" fill="none" stroke="#929292" d="M 198 72.00001 L 216 72.00001 L 216 252 L 198 252 Z M 198 72.00001 "/>
<path transform="matrix(0,-.4470006,.4472063,0,156.7354,516.0009)" stroke-width="1" stroke-linecap="round" stroke-linejoin="round" fill="none" stroke="#929292" d="M 216 72.00001 L 234 72.00001 L 234 252 L 216 252 Z M 216 72.00001 "/>
<path transform="matrix(0,-.4470006,.4472063,0,156.7354,516.0009)" stroke-width="1" stroke-linecap="round" stroke-linejoin="round" fill="none" stroke="#929292" d="M 234 72.00001 L 252 72.00001 L 252 252 L 234 252 Z M 234 72.00001 "/>
<path transform="matrix(0,-.4470006,.4472063,0,156.7354,516.0009)" stroke-width="1" stroke-linecap="round" stroke-linejoin="round" fill="none" stroke="#929292" d="M 252 72.00001 L 270 72.00001 L 270 252 L 252 252 Z M 252 72.00001 "/>
<path transform="matrix(0,-.4470006,.4472063,0,156.7354,516.0009)" stroke-width="1" stroke-linecap="round" stroke-linejoin="round" fill="none" stroke="#929292" d="M 270 72.00001 L 288 72.00001 L 288 252 L 270 252 Z M 270 72.00001 "/>
<text xml:space="preserve" transform="matrix(0 -.4470006 .4472063 0 261.3817 487.83979)" font-size="14" font-family="Helvetica" font-weight="bold"><tspan y="5.5" x="-3.893066">2</tspan></text>
<text xml:space="preserve" transform="matrix(0 -.4470006 .4472063 0 253.332 487.83979)" font-size="14" font-family="Helvetica" font-weight="bold"><tspan y="5.5" x="-3.893066">4</tspan></text>
<text xml:space="preserve" transform="matrix(0 -.4470006 .4472063 0 245.2823 487.83979)" font-size="14" font-family="Helvetica" font-weight="bold"><tspan y="5.5" x="-3.893066">6</tspan></text>
<text xml:space="preserve" transform="matrix(0 -.4470006 .4472063 0 237.2325 487.83979)" font-size="14" font-family="Helvetica" font-weight="bold"><tspan y="5.5" x="-3.893066">8</tspan></text>
<text xml:space="preserve" transform="matrix(0 -.4470006 .4472063 0 229.1829 489.1808)" font-size="14" font-family="Helvetica" font-weight="bold"><tspan y="5.5" x="-7.786133 .000667572">10</tspan></text>
<text xml:space="preserve" transform="matrix(0 -.4470006 .4472063 0 269.4314 487.6163)" font-size="14" font-family="Helvetica" font-weight="bold"><tspan y="5.5" x="-3.893066">0</tspan></text>
<text xml:space="preserve" transform="matrix(0 -.4470006 .4472063 0 275.9159 483.3698)" font-size="14" font-family="Helvetica" font-weight="bold"><tspan y="5.5" x="-3.893066">0</tspan></text>
<text xml:space="preserve" transform="matrix(0 -.4470006 .4472063 0 275.9159 467.2778)" font-size="14" font-family="Helvetica" font-weight="bold"><tspan y="5.5" x="-3.893066">6</tspan></text>
<text xml:space="preserve" transform="matrix(0 -.4470006 .4472063 0 275.9159 451.1858)" font-size="14" font-family="Helvetica" font-weight="bold"><tspan y="5.5" x="-7.786133 .000667572">12</tspan></text>
<text xml:space="preserve" transform="matrix(0 -.4470006 .4472063 0 275.9159 435.0938)" font-size="14" font-family="Helvetica" font-weight="bold"><tspan y="5.5" x="-7.786133 .000667572">18</tspan></text>
<text xml:space="preserve" transform="matrix(0 -.4470006 .4472063 0 275.9159 419.0017)" font-size="14" font-family="Helvetica" font-weight="bold"><tspan y="5.5" x="-7.786133 .000667572">24</tspan></text>
<text xml:space="preserve" transform="matrix(0 -.4470006 .4472063 0 275.9159 402.9098)" font-size="14" font-family="Helvetica" font-weight="bold"><tspan y="5.5" x="-7.786133 .000667572">30</tspan></text>
<text xml:space="preserve" transform="matrix(0 -.4470006 .4472063 0 275.9159 386.8177)" font-size="14" font-family="Helvetica" font-weight="bold"><tspan y="5.5" x="-7.786133 .000667572">36</tspan></text>
<path transform="matrix(0,-.4470006,.4472063,0,156.7354,516.0009)" stroke-width="3" stroke-linecap="round" stroke-linejoin="round" fill="none" stroke="#0433ff" d="M 72.00002 180.5 L 216.5 72.49999 "/>
<text xml:space="preserve" transform="matrix(0 -.4470006 .4472063 0 221.1332 489.1808)" font-size="14" font-family="Helvetica" font-weight="bold"><tspan y="5.5" x="-7.786133 .000667572">12</tspan></text>
<text xml:space="preserve" transform="matrix(0 -.4470006 .4472063 0 213.0834 489.1808)" font-size="14" font-family="Helvetica" font-weight="bold"><tspan y="5.5" x="-7.786133 .000667572">14</tspan></text>
<text xml:space="preserve" transform="matrix(0 -.4470006 .4472063 0 205.0337 489.1808)" font-size="14" font-family="Helvetica" font-weight="bold"><tspan y="5.5" x="-7.786133 .000667572">16</tspan></text>
<text xml:space="preserve" transform="matrix(0 -.4470006 .4472063 0 196.984 489.1808)" font-size="14" font-family="Helvetica" font-weight="bold"><tspan y="5.5" x="-7.786133 .000667572">18</tspan></text>
<text xml:space="preserve" transform="matrix(0 -.4470006 .4472063 0 188.9343 489.1808)" font-size="14" font-family="Helvetica" font-weight="bold"><tspan y="5.5" x="-7.786133 .000667572">20</tspan></text>
<path transform="matrix(0,-.4470006,.4472063,0,156.7354,516.0009)" stroke-width="3" stroke-linecap="round" stroke-linejoin="round" fill="none" stroke="#000000" d="M 72.00002 252 L 290.1 252 "/>
<path transform="matrix(1,0,0,-1,0,622)" d="M 269.4314 240.6804 L 267.5531 235.674 L 271.3097 235.674 Z M 269.4314 240.6804 "/>
<path transform="matrix(0,-.4470006,.4472063,0,156.7354,516.0009)" stroke-width="3" stroke-linecap="butt" stroke-miterlimit="10" stroke-linejoin="miter" fill="none" stroke="#000000" d="M 301.3 252 L 290.1 247.8 L 290.1 256.2 Z M 301.3 252 "/>
<path transform="matrix(0,-.4470006,.4472063,0,156.7354,516.0009)" stroke-width="3" stroke-linecap="round" stroke-linejoin="round" fill="none" stroke="#000000" d="M 72.00002 252 L 72.00002 64.39999 "/>
<path transform="matrix(1,0,0,-1,0,622)" d="M 180.5268 138.1831 L 185.5355 136.3057 L 185.5355 140.0606 Z M 180.5268 138.1831 "/>
<path transform="matrix(0,-.4470006,.4472063,0,156.7354,516.0009)" stroke-width="3" stroke-linecap="butt" stroke-miterlimit="10" stroke-linejoin="miter" fill="none" stroke="#000000" d="M 72.00002 53.20002 L 67.80001 64.39999 L 76.2 64.39999 Z M 72.00002 53.20002 "/>
<text xml:space="preserve" transform="matrix(0 -.4470006 .4472063 0 273.2326 377.8777)" font-size="14" font-family="Helvetica" font-weight="bold" font-style="italic"><tspan y="5.5" x="-3.893066">x</tspan></text>
<text xml:space="preserve" transform="matrix(0 -.4470006 .4472063 0 181.1082 488.5103)" font-size="14" font-family="Helvetica" font-weight="bold" font-style="italic"><tspan y="5.5" x="-3.893066">y</tspan></text>
</g>
</g>
</g>
</g>
<clipPath id="cp12">
<path transform="matrix(1,0,0,-1,0,622)" d="M 468 0 L 468 622 L 0 622 L 0 0 Z "/>
</clipPath>
<g clip-path="url(#cp12)">
<clipPath id="cp13">
<path transform="matrix(1,0,0,-1,0,622)" d="M 173.5462 6.350024 L 173.5462 129.7215 L 279.0863 129.7215 L 279.0863 6.350024 Z M 173.5462 6.350024 "/>
</clipPath>
<g clip-path="url(#cp13)">
<clipPath id="cp14">
<path transform="matrix(1,0,0,-1,0,622)" d="M 279.0863 6.350024 L 279.0863 129.7216 L 173.5462 129.7216 L 173.5462 6.350024 Z "/>
</clipPath>
<g clip-path="url(#cp14)">
<clipPath id="cp15">
<path transform="matrix(1,0,0,-1,0,622)" d="M 0 0 L 468 0 L 468 622 L 0 622 Z "/>
</clipPath>
<g clip-path="url(#cp15)">
<path transform="matrix(0,-.4469983,.4472037,0,156.1053,638.8939)" stroke-width="1" stroke-linecap="round" stroke-linejoin="round" fill="none" stroke="#929292" d="M 72 72.00004 L 288 72.00004 L 288 90.00002 L 72 90.00002 Z M 72 72.00004 "/>
<path transform="matrix(0,-.4469983,.4472037,0,156.1053,638.8939)" stroke-width="1" stroke-linecap="round" stroke-linejoin="round" fill="none" stroke="#929292" d="M 72 90.00002 L 288 90.00002 L 288 108 L 72 108 Z M 72 90.00002 "/>
<path transform="matrix(0,-.4469983,.4472037,0,156.1053,638.8939)" stroke-width="1" stroke-linecap="round" stroke-linejoin="round" fill="none" stroke="#929292" d="M 72 108 L 288 108 L 288 126 L 72 126 Z M 72 108 "/>
<path transform="matrix(0,-.4469983,.4472037,0,156.1053,638.8939)" stroke-width="1" stroke-linecap="round" stroke-linejoin="round" fill="none" stroke="#929292" d="M 72 126 L 288 126 L 288 144 L 72 144 Z M 72 126 "/>
<path transform="matrix(0,-.4469983,.4472037,0,156.1053,638.8939)" stroke-width="1" stroke-linecap="round" stroke-linejoin="round" fill="none" stroke="#929292" d="M 72 144 L 288 144 L 288 162 L 72 162 Z M 72 144 "/>
<path transform="matrix(0,-.4469983,.4472037,0,156.1053,638.8939)" stroke-width="1" stroke-linecap="round" stroke-linejoin="round" fill="none" stroke="#929292" d="M 72 162 L 288 162 L 288 180 L 72 180 Z M 72 162 "/>
<path transform="matrix(0,-.4469983,.4472037,0,156.1053,638.8939)" stroke-width="1" stroke-linecap="round" stroke-linejoin="round" fill="none" stroke="#929292" d="M 72 180 L 288 180 L 288 198 L 72 198 Z M 72 180 "/>
<path transform="matrix(0,-.4469983,.4472037,0,156.1053,638.8939)" stroke-width="1" stroke-linecap="round" stroke-linejoin="round" fill="none" stroke="#929292" d="M 72 198 L 288 198 L 288 216 L 72 216 Z M 72 198 "/>
<path transform="matrix(0,-.4469983,.4472037,0,156.1053,638.8939)" stroke-width="1" stroke-linecap="round" stroke-linejoin="round" fill="none" stroke="#929292" d="M 72 216 L 288 216 L 288 234 L 72 234 Z M 72 216 "/>
<path transform="matrix(0,-.4469983,.4472037,0,156.1053,638.8939)" stroke-width="1" stroke-linecap="round" stroke-linejoin="round" fill="none" stroke="#929292" d="M 72 234 L 288 234 L 288 252 L 72 252 Z M 72 234 "/>
<path transform="matrix(0,-.4469983,.4472037,0,156.1053,638.8939)" stroke-width="1" stroke-linecap="round" stroke-linejoin="round" fill="none" stroke="#929292" d="M 72 72.00004 L 90 72.00004 L 90 252 L 72 252 Z M 72 72.00004 "/>
<path transform="matrix(0,-.4469983,.4472037,0,156.1053,638.8939)" stroke-width="1" stroke-linecap="round" stroke-linejoin="round" fill="none" stroke="#929292" d="M 90 72.00004 L 108 72.00004 L 108 252 L 90 252 Z M 90 72.00004 "/>
<path transform="matrix(0,-.4469983,.4472037,0,156.1053,638.8939)" stroke-width="1" stroke-linecap="round" stroke-linejoin="round" fill="none" stroke="#929292" d="M 108 72.00004 L 126 72.00004 L 126 252 L 108 252 Z M 108 72.00004 "/>
<path transform="matrix(0,-.4469983,.4472037,0,156.1053,638.8939)" stroke-width="1" stroke-linecap="round" stroke-linejoin="round" fill="none" stroke="#929292" d="M 126 72.00004 L 144 72.00004 L 144 252 L 126 252 Z M 126 72.00004 "/>
<path transform="matrix(0,-.4469983,.4472037,0,156.1053,638.8939)" stroke-width="1" stroke-linecap="round" stroke-linejoin="round" fill="none" stroke="#929292" d="M 144 72.00004 L 162 72.00004 L 162 252 L 144 252 Z M 144 72.00004 "/>
<path transform="matrix(0,-.4469983,.4472037,0,156.1053,638.8939)" stroke-width="1" stroke-linecap="round" stroke-linejoin="round" fill="none" stroke="#929292" d="M 162 72.00004 L 180 72.00004 L 180 252 L 162 252 Z M 162 72.00004 "/>
<path transform="matrix(0,-.4469983,.4472037,0,156.1053,638.8939)" stroke-width="1" stroke-linecap="round" stroke-linejoin="round" fill="none" stroke="#929292" d="M 180 72.00004 L 198 72.00004 L 198 252 L 180 252 Z M 180 72.00004 "/>
<path transform="matrix(0,-.4469983,.4472037,0,156.1053,638.8939)" stroke-width="1" stroke-linecap="round" stroke-linejoin="round" fill="none" stroke="#929292" d="M 198 72.00004 L 216 72.00004 L 216 252 L 198 252 Z M 198 72.00004 "/>
<path transform="matrix(0,-.4469983,.4472037,0,156.1053,638.8939)" stroke-width="1" stroke-linecap="round" stroke-linejoin="round" fill="none" stroke="#929292" d="M 216 72.00004 L 234 72.00004 L 234 252 L 216 252 Z M 216 72.00004 "/>
<path transform="matrix(0,-.4469983,.4472037,0,156.1053,638.8939)" stroke-width="1" stroke-linecap="round" stroke-linejoin="round" fill="none" stroke="#929292" d="M 234 72.00004 L 252 72.00004 L 252 252 L 234 252 Z M 234 72.00004 "/>
<path transform="matrix(0,-.4469983,.4472037,0,156.1053,638.8939)" stroke-width="1" stroke-linecap="round" stroke-linejoin="round" fill="none" stroke="#929292" d="M 252 72.00004 L 270 72.00004 L 270 252 L 252 252 Z M 252 72.00004 "/>
<path transform="matrix(0,-.4469983,.4472037,0,156.1053,638.8939)" stroke-width="1" stroke-linecap="round" stroke-linejoin="round" fill="none" stroke="#929292" d="M 270 72.00004 L 288 72.00004 L 288 252 L 270 252 Z M 270 72.00004 "/>
<text xml:space="preserve" transform="matrix(0 -.4469983 .4472037 0 260.7509 610.733)" font-size="14" font-family="Helvetica" font-weight="bold"><tspan y="5.5" x="-3.893066">2</tspan></text>
<text xml:space="preserve" transform="matrix(0 -.4469983 .4472037 0 252.7012 610.733)" font-size="14" font-family="Helvetica" font-weight="bold"><tspan y="5.5" x="-3.893066">4</tspan></text>
<text xml:space="preserve" transform="matrix(0 -.4469983 .4472037 0 244.6516 610.733)" font-size="14" font-family="Helvetica" font-weight="bold"><tspan y="5.5" x="-3.893066">6</tspan></text>
<text xml:space="preserve" transform="matrix(0 -.4469983 .4472037 0 236.6019 610.733)" font-size="14" font-family="Helvetica" font-weight="bold"><tspan y="5.5" x="-3.893066">8</tspan></text>
<text xml:space="preserve" transform="matrix(0 -.4469983 .4472037 0 228.5523 612.074)" font-size="14" font-family="Helvetica" font-weight="bold"><tspan y="5.5" x="-7.786133 .000667572">10</tspan></text>
<text xml:space="preserve" transform="matrix(0 -.4469983 .4472037 0 268.8006 610.50949)" font-size="14" font-family="Helvetica" font-weight="bold"><tspan y="5.5" x="-3.893066">0</tspan></text>
<text xml:space="preserve" transform="matrix(0 -.4469983 .4472037 0 275.2851 606.263)" font-size="14" font-family="Helvetica" font-weight="bold"><tspan y="5.5" x="-3.893066">0</tspan></text>
<text xml:space="preserve" transform="matrix(0 -.4469983 .4472037 0 275.2851 590.1711)" font-size="14" font-family="Helvetica" font-weight="bold"><tspan y="5.5" x="-3.893066">1</tspan></text>
<text xml:space="preserve" transform="matrix(0 -.4469983 .4472037 0 275.2851 574.0791)" font-size="14" font-family="Helvetica" font-weight="bold"><tspan y="5.5" x="-3.893066">2</tspan></text>
<text xml:space="preserve" transform="matrix(0 -.4469983 .4472037 0 275.2851 557.9872)" font-size="14" font-family="Helvetica" font-weight="bold"><tspan y="5.5" x="-3.893066">3</tspan></text>
<text xml:space="preserve" transform="matrix(0 -.4469983 .4472037 0 275.2851 541.89529)" font-size="14" font-family="Helvetica" font-weight="bold"><tspan y="5.5" x="-3.893066">4</tspan></text>
<text xml:space="preserve" transform="matrix(0 -.4469983 .4472037 0 275.2851 525.80337)" font-size="14" font-family="Helvetica" font-weight="bold"><tspan y="5.5" x="-3.893066">5</tspan></text>
<text xml:space="preserve" transform="matrix(0 -.4469983 .4472037 0 275.2851 509.7114)" font-size="14" font-family="Helvetica" font-weight="bold"><tspan y="5.5" x="-3.893066">6</tspan></text>
<path transform="matrix(0,-.4469983,.4472037,0,156.1053,638.8939)" stroke-width="3" stroke-linecap="round" stroke-linejoin="round" fill="none" stroke="#0433ff" d="M 72 72.50003 L 288.5 234 "/>
<text xml:space="preserve" transform="matrix(0 -.4469983 .4472037 0 220.5026 612.074)" font-size="14" font-family="Helvetica" font-weight="bold"><tspan y="5.5" x="-7.786133 .000667572">12</tspan></text>
<text xml:space="preserve" transform="matrix(0 -.4469983 .4472037 0 212.453 612.074)" font-size="14" font-family="Helvetica" font-weight="bold"><tspan y="5.5" x="-7.786133 .000667572">14</tspan></text>
<text xml:space="preserve" transform="matrix(0 -.4469983 .4472037 0 204.4033 612.074)" font-size="14" font-family="Helvetica" font-weight="bold"><tspan y="5.5" x="-7.786133 .000667572">16</tspan></text>
<text xml:space="preserve" transform="matrix(0 -.4469983 .4472037 0 196.3536 612.074)" font-size="14" font-family="Helvetica" font-weight="bold"><tspan y="5.5" x="-7.786133 .000667572">18</tspan></text>
<text xml:space="preserve" transform="matrix(0 -.4469983 .4472037 0 188.3039 612.074)" font-size="14" font-family="Helvetica" font-weight="bold"><tspan y="5.5" x="-7.786133 .000667572">20</tspan></text>
<path transform="matrix(0,-.4469983,.4472037,0,156.1053,638.8939)" stroke-width="3" stroke-linecap="round" stroke-linejoin="round" fill="none" stroke="#000000" d="M 72 252 L 290.1 252 "/>
<path transform="matrix(1,0,0,-1,0,622)" d="M 268.8006 117.7867 L 266.9223 112.7803 L 270.6789 112.7803 Z M 268.8006 117.7867 "/>
<path transform="matrix(0,-.4469983,.4472037,0,156.1053,638.8939)" stroke-width="3" stroke-linecap="butt" stroke-miterlimit="10" stroke-linejoin="miter" fill="none" stroke="#000000" d="M 301.3 252 L 290.1 247.8 L 290.1 256.2 Z M 301.3 252 "/>
<path transform="matrix(0,-.4469983,.4472037,0,156.1053,638.8939)" stroke-width="3" stroke-linecap="round" stroke-linejoin="round" fill="none" stroke="#000000" d="M 72 252 L 72 64.40003 "/>
<path transform="matrix(1,0,0,-1,0,622)" d="M 179.8965 15.28999 L 184.9052 13.4126 L 184.9052 17.16739 Z M 179.8965 15.28999 "/>
<path transform="matrix(0,-.4469983,.4472037,0,156.1053,638.8939)" stroke-width="3" stroke-linecap="butt" stroke-miterlimit="10" stroke-linejoin="miter" fill="none" stroke="#000000" d="M 72 53.2 L 67.8 64.40003 L 76.2 64.40003 Z M 72 53.2 "/>
<text xml:space="preserve" transform="matrix(0 -.4469983 .4472037 0 272.6019 500.7714)" font-size="14" font-family="Helvetica" font-weight="bold" font-style="italic"><tspan y="5.5" x="-3.893066">x</tspan></text>
<text xml:space="preserve" transform="matrix(0 -.4469983 .4472037 0 180.4779 611.4035)" font-size="14" font-family="Helvetica" font-weight="bold" font-style="italic"><tspan y="5.5" x="-3.893066">y</tspan></text>
</g>
</g>
</g>
</g>
<clipPath id="cp16">
<path transform="matrix(1,0,0,-1,0,622)" d="M 468 0 L 468 622 L 0 622 L 0 0 Z "/>
</clipPath>
<g clip-path="url(#cp16)">
<clipPath id="cp17">
<path transform="matrix(1,0,0,-1,0,622)" d="M 174.7543 376.1142 L 174.7543 499.4863 L 278.9533 499.4863 L 278.9533 376.1142 Z M 174.7543 376.1142 "/>
</clipPath>
<g clip-path="url(#cp17)">
<clipPath id="cp18">
<path transform="matrix(1,0,0,-1,0,622)" d="M 278.9533 376.1142 L 278.9533 499.4863 L 174.7543 499.4863 L 174.7543 376.1142 Z "/>
</clipPath>
<g clip-path="url(#cp18)">
<clipPath id="cp19">
<path transform="matrix(1,0,0,-1,0,622)" d="M 0 0 L 468 0 L 468 622 L 0 622 Z "/>
</clipPath>
<g clip-path="url(#cp19)">
<path transform="matrix(0,-.4470004,.4472061,0,157.3132,269.1298)" stroke-width="1" stroke-linecap="round" stroke-linejoin="round" fill="none" stroke="#929292" d="M 72.00002 71.99998 L 288 71.99998 L 288 89.99998 L 72.00002 89.99998 Z M 72.00002 71.99998 "/>
<path transform="matrix(0,-.4470004,.4472061,0,157.3132,269.1298)" stroke-width="1" stroke-linecap="round" stroke-linejoin="round" fill="none" stroke="#929292" d="M 72.00002 89.99998 L 288 89.99998 L 288 108 L 72.00002 108 Z M 72.00002 89.99998 "/>
<path transform="matrix(0,-.4470004,.4472061,0,157.3132,269.1298)" stroke-width="1" stroke-linecap="round" stroke-linejoin="round" fill="none" stroke="#929292" d="M 72.00002 108 L 288 108 L 288 126 L 72.00002 126 Z M 72.00002 108 "/>
<path transform="matrix(0,-.4470004,.4472061,0,157.3132,269.1298)" stroke-width="1" stroke-linecap="round" stroke-linejoin="round" fill="none" stroke="#929292" d="M 72.00002 126 L 288 126 L 288 144 L 72.00002 144 Z M 72.00002 126 "/>
<path transform="matrix(0,-.4470004,.4472061,0,157.3132,269.1298)" stroke-width="1" stroke-linecap="round" stroke-linejoin="round" fill="none" stroke="#929292" d="M 72.00002 144 L 288 144 L 288 162 L 72.00002 162 Z M 72.00002 144 "/>
<path transform="matrix(0,-.4470004,.4472061,0,157.3132,269.1298)" stroke-width="1" stroke-linecap="round" stroke-linejoin="round" fill="none" stroke="#929292" d="M 72.00002 162 L 288 162 L 288 180 L 72.00002 180 Z M 72.00002 162 "/>
<path transform="matrix(0,-.4470004,.4472061,0,157.3132,269.1298)" stroke-width="1" stroke-linecap="round" stroke-linejoin="round" fill="none" stroke="#929292" d="M 72.00002 180 L 288 180 L 288 198 L 72.00002 198 Z M 72.00002 180 "/>
<path transform="matrix(0,-.4470004,.4472061,0,157.3132,269.1298)" stroke-width="1" stroke-linecap="round" stroke-linejoin="round" fill="none" stroke="#929292" d="M 72.00002 198 L 288 198 L 288 216 L 72.00002 216 Z M 72.00002 198 "/>
<path transform="matrix(0,-.4470004,.4472061,0,157.3132,269.1298)" stroke-width="1" stroke-linecap="round" stroke-linejoin="round" fill="none" stroke="#929292" d="M 72.00002 216 L 288 216 L 288 234 L 72.00002 234 Z M 72.00002 216 "/>
<path transform="matrix(0,-.4470004,.4472061,0,157.3132,269.1298)" stroke-width="1" stroke-linecap="round" stroke-linejoin="round" fill="none" stroke="#929292" d="M 72.00002 234 L 288 234 L 288 252 L 72.00002 252 Z M 72.00002 234 "/>
<path transform="matrix(0,-.4470004,.4472061,0,157.3132,269.1298)" stroke-width="1" stroke-linecap="round" stroke-linejoin="round" fill="none" stroke="#929292" d="M 72.00002 71.99998 L 90.00004 71.99998 L 90.00004 252 L 72.00002 252 Z M 72.00002 71.99998 "/>
<path transform="matrix(0,-.4470004,.4472061,0,157.3132,269.1298)" stroke-width="1" stroke-linecap="round" stroke-linejoin="round" fill="none" stroke="#929292" d="M 90.00004 71.99998 L 108 71.99998 L 108 252 L 90.00004 252 Z M 90.00004 71.99998 "/>
<path transform="matrix(0,-.4470004,.4472061,0,157.3132,269.1298)" stroke-width="1" stroke-linecap="round" stroke-linejoin="round" fill="none" stroke="#929292" d="M 108 71.99998 L 126 71.99998 L 126 252 L 108 252 Z M 108 71.99998 "/>
<path transform="matrix(0,-.4470004,.4472061,0,157.3132,269.1298)" stroke-width="1" stroke-linecap="round" stroke-linejoin="round" fill="none" stroke="#929292" d="M 126 71.99998 L 144 71.99998 L 144 252 L 126 252 Z M 126 71.99998 "/>
<path transform="matrix(0,-.4470004,.4472061,0,157.3132,269.1298)" stroke-width="1" stroke-linecap="round" stroke-linejoin="round" fill="none" stroke="#929292" d="M 144 71.99998 L 162 71.99998 L 162 252 L 144 252 Z M 144 71.99998 "/>
<path transform="matrix(0,-.4470004,.4472061,0,157.3132,269.1298)" stroke-width="1" stroke-linecap="round" stroke-linejoin="round" fill="none" stroke="#929292" d="M 162 71.99998 L 180.0001 71.99998 L 180.0001 252 L 162 252 Z M 162 71.99998 "/>
<path transform="matrix(0,-.4470004,.4472061,0,157.3132,269.1298)" stroke-width="1" stroke-linecap="round" stroke-linejoin="round" fill="none" stroke="#929292" d="M 180.0001 71.99998 L 198 71.99998 L 198 252 L 180.0001 252 Z M 180.0001 71.99998 "/>
<path transform="matrix(0,-.4470004,.4472061,0,157.3132,269.1298)" stroke-width="1" stroke-linecap="round" stroke-linejoin="round" fill="none" stroke="#929292" d="M 198 71.99998 L 216.0001 71.99998 L 216.0001 252 L 198 252 Z M 198 71.99998 "/>
<path transform="matrix(0,-.4470004,.4472061,0,157.3132,269.1298)" stroke-width="1" stroke-linecap="round" stroke-linejoin="round" fill="none" stroke="#929292" d="M 216.0001 71.99998 L 234 71.99998 L 234 252 L 216.0001 252 Z M 216.0001 71.99998 "/>
<path transform="matrix(0,-.4470004,.4472061,0,157.3132,269.1298)" stroke-width="1" stroke-linecap="round" stroke-linejoin="round" fill="none" stroke="#929292" d="M 234 71.99998 L 252 71.99998 L 252 252 L 234 252 Z M 234 71.99998 "/>
<path transform="matrix(0,-.4470004,.4472061,0,157.3132,269.1298)" stroke-width="1" stroke-linecap="round" stroke-linejoin="round" fill="none" stroke="#929292" d="M 252 71.99998 L 270.0001 71.99998 L 270.0001 252 L 252 252 Z M 252 71.99998 "/>
<path transform="matrix(0,-.4470004,.4472061,0,157.3132,269.1298)" stroke-width="1" stroke-linecap="round" stroke-linejoin="round" fill="none" stroke="#929292" d="M 270.0001 71.99998 L 288 71.99998 L 288 252 L 270.0001 252 Z M 270.0001 71.99998 "/>
<text xml:space="preserve" transform="matrix(0 -.4470004 .4472061 0 262.1831 240.52179)" font-size="14" font-family="Helvetica" font-weight="bold"><tspan y="5.5" x="-3.893066">4</tspan></text>
<text xml:space="preserve" transform="matrix(0 -.4470004 .4472061 0 254.1333 240.52179)" font-size="14" font-family="Helvetica" font-weight="bold"><tspan y="5.5" x="-3.893066">8</tspan></text>
<text xml:space="preserve" transform="matrix(0 -.4470004 .4472061 0 246.0837 242.30982)" font-size="14" font-family="Helvetica" font-weight="bold"><tspan y="5.5" x="-7.786133 .000667572">12</tspan></text>
<text xml:space="preserve" transform="matrix(0 -.4470004 .4472061 0 238.034 242.30982)" font-size="14" font-family="Helvetica" font-weight="bold"><tspan y="5.5" x="-7.786133 .000667572">16</tspan></text>
<text xml:space="preserve" transform="matrix(0 -.4470004 .4472061 0 229.9842 242.30982)" font-size="14" font-family="Helvetica" font-weight="bold"><tspan y="5.5" x="-7.786133 .000667572">20</tspan></text>
<text xml:space="preserve" transform="matrix(0 -.4470004 .4472061 0 270.2328 240.52179)" font-size="14" font-family="Helvetica" font-weight="bold"><tspan y="5.5" x="-3.893066">0</tspan></text>
<text xml:space="preserve" transform="matrix(0 -.4470004 .4472061 0 275.152 236.49881)" font-size="14" font-family="Helvetica" font-weight="bold"><tspan y="5.5" x="-3.893066">0</tspan></text>
<text xml:space="preserve" transform="matrix(0 -.4470004 .4472061 0 275.152 220.40671)" font-size="14" font-family="Helvetica" font-weight="bold"><tspan y="5.5" x="-3.893066">4</tspan></text>
<text xml:space="preserve" transform="matrix(0 -.4470004 .4472061 0 275.152 204.31479)" font-size="14" font-family="Helvetica" font-weight="bold"><tspan y="5.5" x="-3.893066">8</tspan></text>
<text xml:space="preserve" transform="matrix(0 -.4470004 .4472061 0 275.152 188.22281)" font-size="14" font-family="Helvetica" font-weight="bold"><tspan y="5.5" x="-7.786133 .000667572">12</tspan></text>
<text xml:space="preserve" transform="matrix(0 -.4470004 .4472061 0 275.152 172.1307)" font-size="14" font-family="Helvetica" font-weight="bold"><tspan y="5.5" x="-7.786133 .000667572">16</tspan></text>
<text xml:space="preserve" transform="matrix(0 -.4470004 .4472061 0 275.152 156.0387)" font-size="14" font-family="Helvetica" font-weight="bold"><tspan y="5.5" x="-7.786133 .000667572">20</tspan></text>
<text xml:space="preserve" transform="matrix(0 -.4470004 .4472061 0 275.152 139.94681)" font-size="14" font-family="Helvetica" font-weight="bold"><tspan y="5.5" x="-7.786133 .000667572">24</tspan></text>
<path transform="matrix(0,-.4470004,.4472061,0,157.3132,269.1298)" stroke-width="3" stroke-linecap="round" stroke-linejoin="round" fill="none" stroke="#0433ff" d="M 72.00002 161.5 L 288 80.49996 "/>
<text xml:space="preserve" transform="matrix(0 -.4470004 .4472061 0 221.9345 242.30982)" font-size="14" font-family="Helvetica" font-weight="bold"><tspan y="5.5" x="-7.786133 .000667572">24</tspan></text>
<text xml:space="preserve" transform="matrix(0 -.4470004 .4472061 0 213.6612 242.0863)" font-size="14" font-family="Helvetica" font-weight="bold"><tspan y="5.5" x="-7.786133 .000667572">28</tspan></text>
<text xml:space="preserve" transform="matrix(0 -.4470004 .4472061 0 205.6115 242.30982)" font-size="14" font-family="Helvetica" font-weight="bold"><tspan y="5.5" x="-7.786133 .000667572">32</tspan></text>
<text xml:space="preserve" transform="matrix(0 -.4470004 .4472061 0 197.5618 242.30982)" font-size="14" font-family="Helvetica" font-weight="bold"><tspan y="5.5" x="-7.786133 .000667572">36</tspan></text>
<text xml:space="preserve" transform="matrix(0 -.4470004 .4472061 0 189.5121 242.30982)" font-size="14" font-family="Helvetica" font-weight="bold"><tspan y="5.5" x="-7.786133 .000667572">40</tspan></text>
<path transform="matrix(0,-.4470004,.4472061,0,157.3132,269.1298)" stroke-width="3" stroke-linecap="round" stroke-linejoin="round" fill="none" stroke="#000000" d="M 72.00002 252 L 290.1 252 "/>
<path transform="matrix(1,0,0,-1,0,622)" d="M 270.0092 487.5514 L 268.1309 482.545 L 271.8874 482.545 Z M 270.0092 487.5514 "/>
<path transform="matrix(0,-.4470004,.4472061,0,157.3132,269.1298)" stroke-width="3" stroke-linecap="butt" stroke-miterlimit="10" stroke-linejoin="miter" fill="none" stroke="#000000" d="M 301.3 252 L 290.1 247.8 L 290.1 256.2 Z M 301.3 252 "/>
<path transform="matrix(0,-.4470004,.4472061,0,157.3132,269.1298)" stroke-width="3" stroke-linecap="round" stroke-linejoin="round" fill="none" stroke="#000000" d="M 72.00002 252 L 72.00002 64.39996 "/>
<path transform="matrix(1,0,0,-1,0,622)" d="M 181.1046 385.0542 L 186.1133 383.1768 L 186.1133 386.9316 Z M 181.1046 385.0542 "/>
<path transform="matrix(0,-.4470004,.4472061,0,157.3132,269.1298)" stroke-width="3" stroke-linecap="butt" stroke-miterlimit="10" stroke-linejoin="miter" fill="none" stroke="#000000" d="M 72.00002 53.19999 L 67.80001 64.39996 L 76.20004 64.39996 Z M 72.00002 53.19999 "/>
<text xml:space="preserve" transform="matrix(0 -.4470004 .4472061 0 273.8104 131.00672)" font-size="14" font-family="Helvetica" font-weight="bold" font-style="italic"><tspan y="5.5" x="-3.893066">x</tspan></text>
<text xml:space="preserve" transform="matrix(0 -.4470004 .4472061 0 181.686 241.63932)" font-size="14" font-family="Helvetica" font-weight="bold" font-style="italic"><tspan y="5.5" x="-3.893066">y</tspan></text>
</g>
</g>
</g>
</g>
</g>
</svg>
