<?xml version="1.0" encoding="UTF-8" standalone="no"?>
<!DOCTYPE svg PUBLIC "-//W3C//DTD SVG 1.1//EN" "http://www.w3.org/Graphics/SVG/1.1/DTD/svg11.dtd">
<svg xmlns="http://www.w3.org/2000/svg" xmlns:xlink="http://www.w3.org/1999/xlink" version="1.1" width="180pt" height="180pt" viewBox="0 0 180 180">
<g enable-background="new">
<clipPath id="cp0">
<path transform="matrix(1,0,0,-1,0,180)" d="M 0 0 L 180 0 L 180 180 L 0 180 Z "/>
</clipPath>
<g clip-path="url(#cp0)">
<path transform="matrix(1,0,0,-1,0,180)" d="M 0 180 L 180 180 L 180 0 L 0 0 Z " fill="#ffffff"/>
</g>
<clipPath id="cp1">
<path transform="matrix(1,0,0,-1,0,180)" d="M 0 0 L 180 0 L 180 180 L 0 180 Z "/>
</clipPath>
<g clip-path="url(#cp1)">
<path transform="matrix(1,0,0,-1,0,180)" d="M -79.0099 -116.4356 L 232.87129 -116.4356 L 232.87129 220.39609 L -79.0099 220.39609 Z " fill="#ffffff"/>
<path transform="matrix(.5940594,0,0,.5940594,-79.0099,-40.395998)" stroke-width="1" stroke-linecap="round" stroke-linejoin="round" fill="none" stroke="#d6d6d6" d="M 162 72 L 162 360 "/>
<path transform="matrix(.5940594,0,0,.5940594,-79.0099,-40.395998)" stroke-width="1" stroke-linecap="round" stroke-linejoin="round" fill="none" stroke="#d6d6d6" d="M 180 72 L 180 360 "/>
<path transform="matrix(.5940594,0,0,.5940594,-79.0099,-40.395998)" stroke-width="1" stroke-linecap="round" stroke-linejoin="round" fill="none" stroke="#d6d6d6" d="M 198 72 L 198 360 "/>
<path transform="matrix(.5940594,0,0,.5940594,-79.0099,-40.395998)" stroke-width="1" stroke-linecap="round" stroke-linejoin="round" fill="none" stroke="#d6d6d6" d="M 216 72 L 216 360 "/>
<path transform="matrix(.5940594,0,0,.5940594,-79.0099,-40.395998)" stroke-width="1" stroke-linecap="round" stroke-linejoin="round" fill="none" stroke="#d6d6d6" d="M 234 72 L 234 360 "/>
<path transform="matrix(.5940594,0,0,.5940594,-79.0099,-40.395998)" stroke-width="1" stroke-linecap="round" stroke-linejoin="round" fill="none" stroke="#d6d6d6" d="M 252 72 L 252 360 "/>
<path transform="matrix(.5940594,0,0,.5940594,-79.0099,-40.395998)" stroke-width="1" stroke-linecap="round" stroke-linejoin="round" fill="none" stroke="#d6d6d6" d="M 270 72 L 270 360 "/>
<path transform="matrix(.5940594,0,0,.5940594,-79.0099,-40.395998)" stroke-width="1" stroke-linecap="round" stroke-linejoin="round" fill="none" stroke="#d6d6d6" d="M 288 72 L 288 360 "/>
<path transform="matrix(.5940594,0,0,.5940594,-79.0099,-40.395998)" stroke-width="1" stroke-linecap="round" stroke-linejoin="round" fill="none" stroke="#d6d6d6" d="M 306 72 L 306 360 "/>
<path transform="matrix(.5940594,0,0,.5940594,-79.0099,-40.395998)" stroke-width="1" stroke-linecap="round" stroke-linejoin="round" fill="none" stroke="#d6d6d6" d="M 324 72 L 324 360 "/>
<path transform="matrix(.5940594,0,0,.5940594,-79.0099,-40.395998)" stroke-width="1" stroke-linecap="round" stroke-linejoin="round" fill="none" stroke="#d6d6d6" d="M 342 72 L 342 360 "/>
<path transform="matrix(.5940594,0,0,.5940594,-79.0099,-40.395998)" stroke-width="1" stroke-linecap="round" stroke-linejoin="round" fill="none" stroke="#d6d6d6" d="M 360 72 L 360 360 "/>
<path transform="matrix(.5940594,0,0,.5940594,-79.0099,-40.395998)" stroke-width="1" stroke-linecap="round" stroke-linejoin="round" fill="none" stroke="#d6d6d6" d="M 378 72 L 378 360 "/>
<path transform="matrix(.5940594,0,0,.5940594,-79.0099,-40.395998)" stroke-width="1" stroke-linecap="round" stroke-linejoin="round" fill="none" stroke="#d6d6d6" d="M 396 72 L 396 360 "/>
<path transform="matrix(.5940594,0,0,.5940594,-79.0099,-40.395998)" stroke-width="1" stroke-linecap="round" stroke-linejoin="round" fill="none" stroke="#d6d6d6" d="M 414 72 L 414 360 "/>
<path transform="matrix(.5940594,0,0,.5940594,-79.0099,-40.395998)" stroke-width="1" stroke-linecap="round" stroke-linejoin="round" fill="none" stroke="#d6d6d6" d="M 432 72 L 432 360 "/>
<path transform="matrix(.5940594,0,0,.5940594,-79.0099,-40.395998)" stroke-width="1" stroke-linecap="round" stroke-linejoin="round" fill="none" stroke="#d6d6d6" d="M 432 72 L 144 72 "/>
<path transform="matrix(.5940594,0,0,.5940594,-79.0099,-40.395998)" stroke-width="1" stroke-linecap="round" stroke-linejoin="round" fill="none" stroke="#d6d6d6" d="M 432 90 L 144 90 "/>
<path transform="matrix(.5940594,0,0,.5940594,-79.0099,-40.395998)" stroke-width="1" stroke-linecap="round" stroke-linejoin="round" fill="none" stroke="#d6d6d6" d="M 432 108 L 144 108 "/>
<path transform="matrix(.5940594,0,0,.5940594,-79.0099,-40.395998)" stroke-width="1" stroke-linecap="round" stroke-linejoin="round" fill="none" stroke="#d6d6d6" d="M 432 126 L 144 126 "/>
<path transform="matrix(.5940594,0,0,.5940594,-79.0099,-40.395998)" stroke-width="1" stroke-linecap="round" stroke-linejoin="round" fill="none" stroke="#d6d6d6" d="M 432 144 L 144 144 "/>
<path transform="matrix(.5940594,0,0,.5940594,-79.0099,-40.395998)" stroke-width="1" stroke-linecap="round" stroke-linejoin="round" fill="none" stroke="#d6d6d6" d="M 432 162 L 144 162 "/>
<path transform="matrix(.5940594,0,0,.5940594,-79.0099,-40.395998)" stroke-width="1" stroke-linecap="round" stroke-linejoin="round" fill="none" stroke="#d6d6d6" d="M 432 180 L 144 180 "/>
<path transform="matrix(.5940594,0,0,.5940594,-79.0099,-40.395998)" stroke-width="1" stroke-linecap="round" stroke-linejoin="round" fill="none" stroke="#d6d6d6" d="M 432 198 L 144 198 "/>
<path transform="matrix(.5940594,0,0,.5940594,-79.0099,-40.395998)" stroke-width="1" stroke-linecap="round" stroke-linejoin="round" fill="none" stroke="#d6d6d6" d="M 432 216 L 144 216 "/>
<path transform="matrix(.5940594,0,0,.5940594,-79.0099,-40.395998)" stroke-width="1" stroke-linecap="round" stroke-linejoin="round" fill="none" stroke="#d6d6d6" d="M 432 234 L 144 234 "/>
<path transform="matrix(.5940594,0,0,.5940594,-79.0099,-40.395998)" stroke-width="1" stroke-linecap="round" stroke-linejoin="round" fill="none" stroke="#d6d6d6" d="M 432 252 L 144 252 "/>
<path transform="matrix(.5940594,0,0,.5940594,-79.0099,-40.395998)" stroke-width="1" stroke-linecap="round" stroke-linejoin="round" fill="none" stroke="#d6d6d6" d="M 432 270 L 144 270 "/>
<path transform="matrix(.5940594,0,0,.5940594,-79.0099,-40.395998)" stroke-width="1" stroke-linecap="round" stroke-linejoin="round" fill="none" stroke="#d6d6d6" d="M 432 288 L 144 288 "/>
<path transform="matrix(.5940594,0,0,.5940594,-79.0099,-40.395998)" stroke-width="1" stroke-linecap="round" stroke-linejoin="round" fill="none" stroke="#d6d6d6" d="M 432 306 L 144 306 "/>
<path transform="matrix(.5940594,0,0,.5940594,-79.0099,-40.395998)" stroke-width="1" stroke-linecap="round" stroke-linejoin="round" fill="none" stroke="#d6d6d6" d="M 432 324 L 144 324 "/>
<path transform="matrix(.5940594,0,0,.5940594,-79.0099,-40.395998)" stroke-width="1" stroke-linecap="round" stroke-linejoin="round" fill="none" stroke="#d6d6d6" d="M 432 342 L 144 342 "/>
<path transform="matrix(.5940594,0,0,.5940594,-79.0099,-40.395998)" stroke-width="3" stroke-linecap="round" stroke-linejoin="round" fill="none" stroke="#000000" d="M 144 87.89999 L 144 360 "/>
<path transform="matrix(1,0,0,-1,0,180)" d="M 6.534653 174.8317 L 4.039604 168.1782 L 9.029703 168.1782 Z M 6.534653 174.8317 "/>
<path transform="matrix(.5940594,0,0,.5940594,-79.0099,-40.395998)" stroke-width="3" stroke-linecap="butt" stroke-miterlimit="10" stroke-linejoin="miter" fill="none" stroke="#000000" d="M 144 76.70001 L 139.8 87.89999 L 148.2 87.89999 Z M 144 76.70001 "/>
<path transform="matrix(.5940594,0,0,.5940594,-79.0099,-40.395998)" stroke-width="3" stroke-linecap="round" stroke-linejoin="round" fill="none" stroke="#000000" d="M 416.1 360 L 144 360 "/>
<path transform="matrix(1,0,0,-1,0,180)" d="M 174.8317 6.534653 L 168.1782 9.029702 L 168.1782 4.039603 Z M 174.8317 6.534653 "/>
<path transform="matrix(.5940594,0,0,.5940594,-79.0099,-40.395998)" stroke-width="3" stroke-linecap="butt" stroke-miterlimit="10" stroke-linejoin="miter" fill="none" stroke="#000000" d="M 427.3 360 L 416.1 355.8 L 416.1 364.2 Z M 427.3 360 "/>
<path transform="matrix(.5940594,0,0,.5940594,-79.0099,-40.395998)" stroke-width="2" stroke-linecap="round" stroke-linejoin="round" fill="none" stroke="#008f51" d="M 219.682 267.318 C 221.4393 269.0754 221.4393 271.9246 219.682 273.682 C 217.9246 275.4393 215.0754 275.4393 213.318 273.682 C 211.5607 271.9246 211.5607 269.0754 213.318 267.318 C 215.0754 265.5607 217.9246 265.5607 219.682 267.318 "/>
<path transform="matrix(.5940594,0,0,.5940594,-79.0099,-40.395998)" stroke-width="2" stroke-linecap="round" stroke-linejoin="round" fill="none" stroke="#008f51" d="M 381.682 114.318 C 383.4393 116.0754 383.4393 118.9246 381.682 120.682 C 379.9246 122.4393 377.0754 122.4393 375.318 120.682 C 373.5607 118.9246 373.5607 116.0754 375.318 114.318 C 377.0754 112.5607 379.9246 112.5607 381.682 114.318 "/>
<path transform="matrix(.5940594,0,0,.5940594,-79.0099,-40.395998)" stroke-width="2" stroke-linecap="round" stroke-linejoin="round" fill="none" stroke="#008f51" d="M 345.682 222.318 C 347.4393 224.0754 347.4393 226.9246 345.682 228.682 C 343.9246 230.4393 341.0754 230.4393 339.318 228.682 C 337.5607 226.9246 337.5607 224.0754 339.318 222.318 C 341.0754 220.5607 343.9246 220.5607 345.682 222.318 "/>
<path transform="matrix(.5940594,0,0,.5940594,-79.0099,-40.395998)" stroke-width="1" stroke-linecap="round" stroke-linejoin="round" fill="none" stroke="#000000" d="M 162 351 L 162 369 "/>
<path transform="matrix(.5940594,0,0,.5940594,-79.0099,-40.395998)" stroke-width="1" stroke-linecap="round" stroke-linejoin="round" fill="none" stroke="#000000" d="M 180 351 L 180 369 "/>
<path transform="matrix(.5940594,0,0,.5940594,-79.0099,-40.395998)" stroke-width="1" stroke-linecap="round" stroke-linejoin="round" fill="none" stroke="#000000" d="M 198 351 L 198 369 "/>
<path transform="matrix(.5940594,0,0,.5940594,-79.0099,-40.395998)" stroke-width="1" stroke-linecap="round" stroke-linejoin="round" fill="none" stroke="#000000" d="M 216 351 L 216 369 "/>
<path transform="matrix(.5940594,0,0,.5940594,-79.0099,-40.395998)" stroke-width="1" stroke-linecap="round" stroke-linejoin="round" fill="none" stroke="#000000" d="M 234 351 L 234 369 "/>
<path transform="matrix(.5940594,0,0,.5940594,-79.0099,-40.395998)" stroke-width="1" stroke-linecap="round" stroke-linejoin="round" fill="none" stroke="#000000" d="M 252 351 L 252 369 "/>
<path transform="matrix(.5940594,0,0,.5940594,-79.0099,-40.395998)" stroke-width="1" stroke-linecap="round" stroke-linejoin="round" fill="none" stroke="#000000" d="M 270 351 L 270 369 "/>
<path transform="matrix(.5940594,0,0,.5940594,-79.0099,-40.395998)" stroke-width="1" stroke-linecap="round" stroke-linejoin="round" fill="none" stroke="#000000" d="M 288 351 L 288 369 "/>
<path transform="matrix(.5940594,0,0,.5940594,-79.0099,-40.395998)" stroke-width="1" stroke-linecap="round" stroke-linejoin="round" fill="none" stroke="#000000" d="M 306 351 L 306 369 "/>
<path transform="matrix(.5940594,0,0,.5940594,-79.0099,-40.395998)" stroke-width="1" stroke-linecap="round" stroke-linejoin="round" fill="none" stroke="#000000" d="M 324 351 L 324 369 "/>
<path transform="matrix(.5940594,0,0,.5940594,-79.0099,-40.395998)" stroke-width="1" stroke-linecap="round" stroke-linejoin="round" fill="none" stroke="#000000" d="M 342 351 L 342 369 "/>
<path transform="matrix(.5940594,0,0,.5940594,-79.0099,-40.395998)" stroke-width="1" stroke-linecap="round" stroke-linejoin="round" fill="none" stroke="#000000" d="M 360 351 L 360 369 "/>
<path transform="matrix(.5940594,0,0,.5940594,-79.0099,-40.395998)" stroke-width="1" stroke-linecap="round" stroke-linejoin="round" fill="none" stroke="#000000" d="M 378 351 L 378 369 "/>
<path transform="matrix(.5940594,0,0,.5940594,-79.0099,-40.395998)" stroke-width="1" stroke-linecap="round" stroke-linejoin="round" fill="none" stroke="#000000" d="M 396 351 L 396 369 "/>
<path transform="matrix(.5940594,0,0,.5940594,-79.0099,-40.395998)" stroke-width="1" stroke-linecap="round" stroke-linejoin="round" fill="none" stroke="#000000" d="M 135 342 L 153 342 "/>
<path transform="matrix(.5940594,0,0,.5940594,-79.0099,-40.395998)" stroke-width="1" stroke-linecap="round" stroke-linejoin="round" fill="none" stroke="#000000" d="M 135 324 L 153 324 "/>
<path transform="matrix(.5940594,0,0,.5940594,-79.0099,-40.395998)" stroke-width="1" stroke-linecap="round" stroke-linejoin="round" fill="none" stroke="#000000" d="M 135 306 L 153 306 "/>
<path transform="matrix(.5940594,0,0,.5940594,-79.0099,-40.395998)" stroke-width="1" stroke-linecap="round" stroke-linejoin="round" fill="none" stroke="#000000" d="M 135 288 L 153 288 "/>
<path transform="matrix(.5940594,0,0,.5940594,-79.0099,-40.395998)" stroke-width="1" stroke-linecap="round" stroke-linejoin="round" fill="none" stroke="#000000" d="M 135 270 L 153 270 "/>
<path transform="matrix(.5940594,0,0,.5940594,-79.0099,-40.395998)" stroke-width="1" stroke-linecap="round" stroke-linejoin="round" fill="none" stroke="#000000" d="M 135 252 L 153 252 "/>
<path transform="matrix(.5940594,0,0,.5940594,-79.0099,-40.395998)" stroke-width="1" stroke-linecap="round" stroke-linejoin="round" fill="none" stroke="#000000" d="M 135 234 L 153 234 "/>
<path transform="matrix(.5940594,0,0,.5940594,-79.0099,-40.395998)" stroke-width="1" stroke-linecap="round" stroke-linejoin="round" fill="none" stroke="#000000" d="M 135 216 L 153 216 "/>
<path transform="matrix(.5940594,0,0,.5940594,-79.0099,-40.395998)" stroke-width="1" stroke-linecap="round" stroke-linejoin="round" fill="none" stroke="#000000" d="M 135 198 L 153 198 "/>
<path transform="matrix(.5940594,0,0,.5940594,-79.0099,-40.395998)" stroke-width="1" stroke-linecap="round" stroke-linejoin="round" fill="none" stroke="#000000" d="M 135 180 L 153 180 "/>
<path transform="matrix(.5940594,0,0,.5940594,-79.0099,-40.395998)" stroke-width="1" stroke-linecap="round" stroke-linejoin="round" fill="none" stroke="#000000" d="M 135 162 L 153 162 "/>
<path transform="matrix(.5940594,0,0,.5940594,-79.0099,-40.395998)" stroke-width="1" stroke-linecap="round" stroke-linejoin="round" fill="none" stroke="#000000" d="M 135 144 L 153 144 "/>
<path transform="matrix(.5940594,0,0,.5940594,-79.0099,-40.395998)" stroke-width="1" stroke-linecap="round" stroke-linejoin="round" fill="none" stroke="#000000" d="M 135 126 L 153 126 "/>
<path transform="matrix(.5940594,0,0,.5940594,-79.0099,-40.395998)" stroke-width="1" stroke-linecap="round" stroke-linejoin="round" fill="none" stroke="#000000" d="M 135 108 L 153 108 "/>
<path transform="matrix(.5940594,0,0,.5940594,-79.0099,-40.395998)" stroke-width="2" stroke-linecap="round" stroke-linejoin="round" fill="none" stroke="#ff2600" d="M 162 339 L 432 97 "/>
<path transform="matrix(.5940594,0,0,.5940594,-79.0099,-40.395998)" stroke-width="1" stroke-linecap="round" stroke-linejoin="round" fill="none" stroke="#000000" d="M 216 270 L 216 288 "/>
<path transform="matrix(.5940594,0,0,.5940594,-79.0099,-40.395998)" stroke-width="1" stroke-linecap="round" stroke-linejoin="round" fill="none" stroke="#000000" d="M 342 178 L 342 225 "/>
<path transform="matrix(.5940594,0,0,.5940594,-79.0099,-40.395998)" stroke-width="1" stroke-linecap="round" stroke-linejoin="round" fill="none" stroke="#000000" d="M 378 117 L 378 144 "/>
</g>
</g>
</svg>
