<?xml version="1.0" encoding="UTF-8" standalone="no"?>
<!DOCTYPE svg PUBLIC "-//W3C//DTD SVG 1.1//EN" "http://www.w3.org/Graphics/SVG/1.1/DTD/svg11.dtd">
<svg xmlns="http://www.w3.org/2000/svg" xmlns:xlink="http://www.w3.org/1999/xlink" version="1.1" width="470pt" height="528pt" viewBox="0 0 470 528">
<g enable-background="new">
<clipPath id="cp0">
<path transform="matrix(1,0,0,-1,0,528)" d="M 0 0 L 470 0 L 470 528 L 0 528 Z "/>
</clipPath>
<g clip-path="url(#cp0)">
<path transform="matrix(1,0,0,-1,0,528)" d="M 0 528 L 470 528 L 470 0 L 0 0 Z " fill="#ffffff"/>
</g>
<clipPath id="cp1">
<path transform="matrix(1,0,0,-1,0,528)" d="M 1 1.000011 L 469 1.000011 L 469 527 L 1 527 Z "/>
</clipPath>
<g clip-path="url(#cp1)">
<path transform="matrix(1,0,0,-1,0,528)" d="M -55.48276 -55.47238 L 525.4827 -55.47238 L 525.4827 583.4724 L -55.48276 583.4724 Z " fill="#ffffff"/>
<path transform="matrix(1,0,0,-1,0,528)" d="M 235 351.1288 L 351.1931 351.1288 L 351.1931 525.38656 L 235 525.38656 Z " fill="#ffffff"/>
<path transform="matrix(.8068966,0,0,.8067484,-55.48276,-55.472414)" stroke-width="1" stroke-linecap="round" stroke-linejoin="round" fill="none" stroke="#000000" d="M 360 72 L 504 72 L 504 288 L 360 288 Z "/>
<text xml:space="preserve" transform="matrix(.8068966 0 0 .8067484 293.0966 89.74231)" font-size="16" font-family="HelveticaNeue"><tspan y="-67.56799" x="-50.288 -38.143999 -32.815999 -24.223999 -14.735998 -5.8399975">Graph </tspan></text>
<text xml:space="preserve" transform="matrix(.8068966 0 0 .8067484 293.0966 89.74231)" font-size="16" font-family="HelveticaNeue" font-style="italic"><tspan y="-67.56799" x="-1.392">y</tspan></text>
<text xml:space="preserve" transform="matrix(.8068966 0 0 .8067484 293.0966 89.74231)" font-size="16" font-family="HelveticaNeue"><tspan y="-67.56799" x="6.304 10.752001 20.352002 24.800002 33.696004"> = 25</tspan></text>
<text xml:space="preserve" transform="matrix(.8068966 0 0 .8067484 293.0966 89.74231)" font-size="16" font-family="HelveticaNeue" font-style="italic"><tspan y="-67.56799" x="42.592">x</tspan></text>
<text xml:space="preserve" transform="matrix(.8068966 0 0 .8067484 293.0966 89.74231)" font-size="16" font-family="HelveticaNeue" font-style="italic"><tspan y="-31.12" x="-67 -59.304">x-</tspan></text>
<text xml:space="preserve" transform="matrix(.8068966 0 0 .8067484 293.0966 89.74231)" font-size="16" font-family="HelveticaNeue"><tspan y="-31.12" x="-53.08 -39.432 -35.879999 -26.983998 -22.535998 -12.935997 -8.487997">min = 0</tspan></text>
<text xml:space="preserve" transform="matrix(.8068966 0 0 .8067484 293.0966 89.74231)" font-size="16" font-family="HelveticaNeue" font-style="italic"><tspan y="-12.672" x="-67">x</tspan></text>
<text xml:space="preserve" transform="matrix(.8068966 0 0 .8067484 293.0966 89.74231)" font-size="16" font-family="HelveticaNeue"><tspan y="-12.672" x="-59.304 -53.08 -39.432 -30.84 -22.552 -18.104 -8.504 -4.0559995 4.8400018 13.736002">-max = 10 </tspan></text>
<text xml:space="preserve" transform="matrix(.8068966 0 0 .8067484 293.0966 89.74231)" font-size="16" font-family="HelveticaNeue" font-style="italic"><tspan y="5.776001" x="-67">x</tspan></text>
<text xml:space="preserve" transform="matrix(.8068966 0 0 .8067484 293.0966 89.74231)" font-size="16" font-family="HelveticaNeue"><tspan y="5.776001" x="-59.304 -53.08 -45.08 -36.488004 -27.896004 -24.344004 -15.752004 -11.304003 -1.7040024 2.743998">-scale = 2</tspan></text>
<text xml:space="preserve" transform="matrix(.8068966 0 0 .8067484 293.0966 89.74231)" font-size="16" font-family="HelveticaNeue" font-style="italic"><tspan y="42.224" x="-67 -59.304">y-</tspan></text>
<text xml:space="preserve" transform="matrix(.8068966 0 0 .8067484 293.0966 89.74231)" font-size="16" font-family="HelveticaNeue"><tspan y="42.224" x="-53.08 -39.432 -35.879999 -26.983998 -22.535998 -12.935997 -8.487997">min = 0</tspan></text>
<text xml:space="preserve" transform="matrix(.8068966 0 0 .8067484 293.0966 89.74231)" font-size="16" font-family="HelveticaNeue" font-style="italic"><tspan y="60.672" x="-67">y</tspan></text>
<text xml:space="preserve" transform="matrix(.8068966 0 0 .8067484 293.0966 89.74231)" font-size="16" font-family="HelveticaNeue"><tspan y="60.672" x="-59.304 -53.08 -39.432 -30.84 -22.552 -18.104 -8.504 -4.0559995 4.8400018 13.736002 22.632004">-max = 250 </tspan></text>
<text xml:space="preserve" transform="matrix(.8068966 0 0 .8067484 293.0966 89.74231)" font-size="16" font-family="HelveticaNeue" font-style="italic"><tspan y="79.12" x="-67">y</tspan></text>
<text xml:space="preserve" transform="matrix(.8068966 0 0 .8067484 293.0966 89.74231)" font-size="16" font-family="HelveticaNeue"><tspan y="79.12" x="-59.304 -53.08 -45.08 -36.488004 -27.896004 -24.344004 -15.752004 -11.304003 -1.7040024 2.743998 11.639999">-scale = 50</tspan></text>
<path transform="matrix(1,0,0,-1,0,528)" d="M 351.1931 351.1288 L 467.38624 351.1288 L 467.38624 525.38656 L 351.1931 525.38656 Z " fill="#ffffff"/>
<path transform="matrix(.8068966,0,0,.8067484,-55.48276,-55.472414)" stroke-width="1" stroke-linecap="round" stroke-linejoin="round" fill="none" stroke="#000000" d="M 504 72 L 648 72 L 648 288 L 504 288 Z "/>
<text xml:space="preserve" transform="matrix(.8068966 0 0 .8067484 409.2897 89.74231)" font-size="16" font-family="HelveticaNeue"><tspan y="-67.56799" x="-50.288 -38.143999 -32.815999 -24.223999 -14.735998 -5.8399975">Graph </tspan></text>
<text xml:space="preserve" transform="matrix(.8068966 0 0 .8067484 409.2897 89.74231)" font-size="16" font-family="HelveticaNeue" font-style="italic"><tspan y="-67.56799" x="-1.392">y</tspan></text>
<text xml:space="preserve" transform="matrix(.8068966 0 0 .8067484 409.2897 89.74231)" font-size="16" font-family="HelveticaNeue"><tspan y="-67.56799" x="6.304 10.752001 20.352002 24.800002 33.696004"> = 50</tspan></text>
<text xml:space="preserve" transform="matrix(.8068966 0 0 .8067484 409.2897 89.74231)" font-size="16" font-family="HelveticaNeue" font-style="italic"><tspan y="-67.56799" x="42.592">x</tspan></text>
<text xml:space="preserve" transform="matrix(.8068966 0 0 .8067484 409.2897 89.74231)" font-size="16" font-family="HelveticaNeue" font-style="italic"><tspan y="-31.12" x="-67 -59.304">x-</tspan></text>
<text xml:space="preserve" transform="matrix(.8068966 0 0 .8067484 409.2897 89.74231)" font-size="16" font-family="HelveticaNeue"><tspan y="-31.12" x="-53.08 -39.432 -35.879999 -26.983998 -22.535998 -12.935997 -8.487997">min = 0</tspan></text>
<text xml:space="preserve" transform="matrix(.8068966 0 0 .8067484 409.2897 89.74231)" font-size="16" font-family="HelveticaNeue" font-style="italic"><tspan y="-12.672" x="-67">x</tspan></text>
<text xml:space="preserve" transform="matrix(.8068966 0 0 .8067484 409.2897 89.74231)" font-size="16" font-family="HelveticaNeue"><tspan y="-12.672" x="-59.304 -53.08 -39.432 -30.84 -22.552 -18.104 -8.504 -4.0559995 4.8400018 13.736002">-max = 25 </tspan></text>
<text xml:space="preserve" transform="matrix(.8068966 0 0 .8067484 409.2897 89.74231)" font-size="16" font-family="HelveticaNeue" font-style="italic"><tspan y="5.776001" x="-67">x</tspan></text>
<text xml:space="preserve" transform="matrix(.8068966 0 0 .8067484 409.2897 89.74231)" font-size="16" font-family="HelveticaNeue"><tspan y="5.776001" x="-59.304 -53.08 -45.08 -36.488004 -27.896004 -24.344004 -15.752004 -11.304003 -1.7040024 2.743998">-scale = 5</tspan></text>
<text xml:space="preserve" transform="matrix(.8068966 0 0 .8067484 409.2897 89.74231)" font-size="16" font-family="HelveticaNeue" font-style="italic"><tspan y="42.224" x="-67 -59.304">y-</tspan></text>
<text xml:space="preserve" transform="matrix(.8068966 0 0 .8067484 409.2897 89.74231)" font-size="16" font-family="HelveticaNeue"><tspan y="42.224" x="-53.08 -39.432 -35.879999 -26.983998 -22.535998 -12.935997 -8.487997">min = 0</tspan></text>
<text xml:space="preserve" transform="matrix(.8068966 0 0 .8067484 409.2897 89.74231)" font-size="16" font-family="HelveticaNeue" font-style="italic"><tspan y="60.672" x="-67">y</tspan></text>
<text xml:space="preserve" transform="matrix(.8068966 0 0 .8067484 409.2897 89.74231)" font-size="16" font-family="HelveticaNeue"><tspan y="60.672" x="-59.304 -53.08 -39.432 -30.84 -22.552 -18.104 -8.504 -4.0559995 4.8400018 13.736002 22.632004 31.528004">-max = 1250 </tspan></text>
<text xml:space="preserve" transform="matrix(.8068966 0 0 .8067484 409.2897 89.74231)" font-size="16" font-family="HelveticaNeue" font-style="italic"><tspan y="79.12" x="-67">y</tspan></text>
<text xml:space="preserve" transform="matrix(.8068966 0 0 .8067484 409.2897 89.74231)" font-size="16" font-family="HelveticaNeue"><tspan y="79.12" x="-59.304 -53.08 -45.08 -36.488004 -27.896004 -24.344004 -15.752004 -11.304003 -1.7040024 2.743998 11.639999 20.536">-scale = 250</tspan></text>
<path transform="matrix(1,0,0,-1,0,528)" d="M 118.8069 351.1288 L 235 351.1288 L 235 525.38656 L 118.8069 525.38656 Z " fill="#ffffff"/>
<path transform="matrix(.8068966,0,0,.8067484,-55.48276,-55.472414)" stroke-width="1" stroke-linecap="round" stroke-linejoin="round" fill="none" stroke="#000000" d="M 216 72 L 360 72 L 360 288 L 216 288 Z "/>
<text xml:space="preserve" transform="matrix(.8068966 0 0 .8067484 176.9035 89.74231)" font-size="16" font-family="HelveticaNeue"><tspan y="-67.56799" x="-50.288 -38.143999 -32.815999 -24.223999 -14.735998 -5.8399975">Graph </tspan></text>
<text xml:space="preserve" transform="matrix(.8068966 0 0 .8067484 176.9035 89.74231)" font-size="16" font-family="HelveticaNeue" font-style="italic"><tspan y="-67.56799" x="-1.392">y</tspan></text>
<text xml:space="preserve" transform="matrix(.8068966 0 0 .8067484 176.9035 89.74231)" font-size="16" font-family="HelveticaNeue"><tspan y="-67.56799" x="6.304 10.752001 20.352002 24.800002 33.696004"> = 10</tspan></text>
<text xml:space="preserve" transform="matrix(.8068966 0 0 .8067484 176.9035 89.74231)" font-size="16" font-family="HelveticaNeue" font-style="italic"><tspan y="-67.56799" x="42.592">x</tspan></text>
<text xml:space="preserve" transform="matrix(.8068966 0 0 .8067484 176.9035 89.74231)" font-size="16" font-family="HelveticaNeue" font-style="italic"><tspan y="-31.12" x="-67 -59.304">x-</tspan></text>
<text xml:space="preserve" transform="matrix(.8068966 0 0 .8067484 176.9035 89.74231)" font-size="16" font-family="HelveticaNeue"><tspan y="-31.12" x="-53.08 -39.432 -35.879999 -26.983998 -22.535998 -12.935997 -8.487997">min = 0</tspan></text>
<text xml:space="preserve" transform="matrix(.8068966 0 0 .8067484 176.9035 89.74231)" font-size="16" font-family="HelveticaNeue" font-style="italic"><tspan y="-12.672" x="-67">x</tspan></text>
<text xml:space="preserve" transform="matrix(.8068966 0 0 .8067484 176.9035 89.74231)" font-size="16" font-family="HelveticaNeue"><tspan y="-12.672" x="-59.304 -53.08 -39.432 -30.84 -22.552 -18.104 -8.504 -4.0559995 4.8400018 13.736002">-max = 10 </tspan></text>
<text xml:space="preserve" transform="matrix(.8068966 0 0 .8067484 176.9035 89.74231)" font-size="16" font-family="HelveticaNeue" font-style="italic"><tspan y="5.776001" x="-67">x</tspan></text>
<text xml:space="preserve" transform="matrix(.8068966 0 0 .8067484 176.9035 89.74231)" font-size="16" font-family="HelveticaNeue"><tspan y="5.776001" x="-59.304 -53.08 -45.08 -36.488004 -27.896004 -24.344004 -15.752004 -11.304003 -1.7040024 2.743998">-scale = 2</tspan></text>
<text xml:space="preserve" transform="matrix(.8068966 0 0 .8067484 176.9035 89.74231)" font-size="16" font-family="HelveticaNeue" font-style="italic"><tspan y="42.224" x="-67 -59.304">y-</tspan></text>
<text xml:space="preserve" transform="matrix(.8068966 0 0 .8067484 176.9035 89.74231)" font-size="16" font-family="HelveticaNeue"><tspan y="42.224" x="-53.08 -39.432 -35.879999 -26.983998 -22.535998 -12.935997 -8.487997">min = 0</tspan></text>
<text xml:space="preserve" transform="matrix(.8068966 0 0 .8067484 176.9035 89.74231)" font-size="16" font-family="HelveticaNeue" font-style="italic"><tspan y="60.672" x="-67">y</tspan></text>
<text xml:space="preserve" transform="matrix(.8068966 0 0 .8067484 176.9035 89.74231)" font-size="16" font-family="HelveticaNeue"><tspan y="60.672" x="-59.304 -53.08 -39.432 -30.84 -22.552 -18.104 -8.504 -4.0559995 4.8400018 13.736002 22.632004">-max = 100 </tspan></text>
<text xml:space="preserve" transform="matrix(.8068966 0 0 .8067484 176.9035 89.74231)" font-size="16" font-family="HelveticaNeue" font-style="italic"><tspan y="79.12" x="-67">y</tspan></text>
<text xml:space="preserve" transform="matrix(.8068966 0 0 .8067484 176.9035 89.74231)" font-size="16" font-family="HelveticaNeue"><tspan y="79.12" x="-59.304 -53.08 -45.08 -36.488004 -27.896004 -24.344004 -15.752004 -11.304003 -1.7040024 2.743998 11.639999">-scale = 20</tspan></text>
<path transform="matrix(1,0,0,-1,0,528)" d="M 2.613793 351.1288 L 118.80689 351.1288 L 118.80689 525.38656 L 2.613793 525.38656 Z " fill="#ffffff"/>
<path transform="matrix(.8068966,0,0,.8067484,-55.48276,-55.472414)" stroke-width="1" stroke-linecap="round" stroke-linejoin="round" fill="none" stroke="#000000" d="M 72 72 L 216 72 L 216 288 L 72 288 Z "/>
<text xml:space="preserve" transform="matrix(.8068966 0 0 .8067484 60.71035 89.74231)" font-size="16" font-family="HelveticaNeue"><tspan y="-67.56799" x="-45.84 -33.696 -28.368 -19.776001 -10.288 -1.3919993">Graph </tspan></text>
<text xml:space="preserve" transform="matrix(.8068966 0 0 .8067484 60.71035 89.74231)" font-size="16" font-family="HelveticaNeue" font-style="italic"><tspan y="-67.56799" x="3.056">y</tspan></text>
<text xml:space="preserve" transform="matrix(.8068966 0 0 .8067484 60.71035 89.74231)" font-size="16" font-family="HelveticaNeue"><tspan y="-67.56799" x="10.752 15.200001 24.800002 29.248002"> = 5</tspan></text>
<text xml:space="preserve" transform="matrix(.8068966 0 0 .8067484 60.71035 89.74231)" font-size="16" font-family="HelveticaNeue" font-style="italic"><tspan y="-67.56799" x="38.144">x</tspan></text>
<text xml:space="preserve" transform="matrix(.8068966 0 0 .8067484 60.71035 89.74231)" font-size="16" font-family="HelveticaNeue" font-style="italic"><tspan y="-31.12" x="-67 -59.304">x-</tspan></text>
<text xml:space="preserve" transform="matrix(.8068966 0 0 .8067484 60.71035 89.74231)" font-size="16" font-family="HelveticaNeue"><tspan y="-31.12" x="-53.08 -39.432 -35.879999 -26.983998 -22.535998 -12.935997 -8.487997">min = 0</tspan></text>
<text xml:space="preserve" transform="matrix(.8068966 0 0 .8067484 60.71035 89.74231)" font-size="16" font-family="HelveticaNeue" font-style="italic"><tspan y="-12.672" x="-67">x</tspan></text>
<text xml:space="preserve" transform="matrix(.8068966 0 0 .8067484 60.71035 89.74231)" font-size="16" font-family="HelveticaNeue"><tspan y="-12.672" x="-59.304 -53.08 -39.432 -30.84 -22.552 -18.104 -8.504 -4.0559995 4.8400018 13.736002">-max = 10 </tspan></text>
<text xml:space="preserve" transform="matrix(.8068966 0 0 .8067484 60.71035 89.74231)" font-size="16" font-family="HelveticaNeue" font-style="italic"><tspan y="5.776001" x="-67">x</tspan></text>
<text xml:space="preserve" transform="matrix(.8068966 0 0 .8067484 60.71035 89.74231)" font-size="16" font-family="HelveticaNeue"><tspan y="5.776001" x="-59.304 -53.08 -45.08 -36.488004 -27.896004 -24.344004 -15.752004 -11.304003 -1.7040024 2.743998">-scale = 2</tspan></text>
<text xml:space="preserve" transform="matrix(.8068966 0 0 .8067484 60.71035 89.74231)" font-size="16" font-family="HelveticaNeue" font-style="italic"><tspan y="42.224" x="-67 -59.304">y-</tspan></text>
<text xml:space="preserve" transform="matrix(.8068966 0 0 .8067484 60.71035 89.74231)" font-size="16" font-family="HelveticaNeue"><tspan y="42.224" x="-53.08 -39.432 -35.879999 -26.983998 -22.535998 -12.935997 -8.487997">min = 0</tspan></text>
<text xml:space="preserve" transform="matrix(.8068966 0 0 .8067484 60.71035 89.74231)" font-size="16" font-family="HelveticaNeue" font-style="italic"><tspan y="60.672" x="-67">y</tspan></text>
<text xml:space="preserve" transform="matrix(.8068966 0 0 .8067484 60.71035 89.74231)" font-size="16" font-family="HelveticaNeue"><tspan y="60.672" x="-59.304 -53.08 -39.432 -30.84 -22.552 -18.104 -8.504 -4.0559995 4.8400018 13.736002">-max = 50 </tspan></text>
<text xml:space="preserve" transform="matrix(.8068966 0 0 .8067484 60.71035 89.74231)" font-size="16" font-family="HelveticaNeue" font-style="italic"><tspan y="79.12" x="-67">y</tspan></text>
<text xml:space="preserve" transform="matrix(.8068966 0 0 .8067484 60.71035 89.74231)" font-size="16" font-family="HelveticaNeue"><tspan y="79.12" x="-59.304 -53.08 -45.08 -36.488004 -27.896004 -24.344004 -15.752004 -11.304003 -1.7040024 2.743998 11.639999">-scale = 10</tspan></text>
<path transform="matrix(1,0,0,-1,0,528)" d="M 2.613793 176.8712 L 118.80689 176.8712 L 118.80689 351.1289 L 2.613793 351.1289 Z " fill="#ffffff"/>
<path transform="matrix(.8068966,0,0,.8067484,-55.48276,-55.472414)" stroke-width="1" stroke-linecap="round" stroke-linejoin="round" fill="none" stroke="#000000" d="M 72 288 L 216 288 L 216 504 L 72 504 Z "/>
<text xml:space="preserve" transform="matrix(.8068966 0 0 .8067484 60.71035 264)" font-size="16" font-family="HelveticaNeue"><tspan y="-67.56799" x="-57.096 -44.952 -39.624 -31.032002 -21.544 -12.648">Graph </tspan></text>
<text xml:space="preserve" transform="matrix(.8068966 0 0 .8067484 60.71035 264)" font-size="16" font-family="HelveticaNeue" font-style="italic"><tspan y="-67.56799" x="-8.2">y</tspan></text>
<text xml:space="preserve" transform="matrix(.8068966 0 0 .8067484 60.71035 264)" font-size="16" font-family="HelveticaNeue"><tspan y="-67.56799" x="-.504 3.9440006 13.544001 17.992 22.136002 31.032002 36.36 45.256"> = (1/2)</tspan></text>
<text xml:space="preserve" transform="matrix(.8068966 0 0 .8067484 60.71035 264)" font-size="16" font-family="HelveticaNeue" font-style="italic"><tspan y="-67.56799" x="49.4">x</tspan></text>
<text xml:space="preserve" transform="matrix(.8068966 0 0 .8067484 60.71035 264)" font-size="16" font-family="HelveticaNeue" font-style="italic"><tspan y="-31.12" x="-67 -59.304">x-</tspan></text>
<text xml:space="preserve" transform="matrix(.8068966 0 0 .8067484 60.71035 264)" font-size="16" font-family="HelveticaNeue"><tspan y="-31.12" x="-53.08 -39.432 -35.879999 -26.983998 -22.535998 -12.935997 -8.487997">min = 0</tspan></text>
<text xml:space="preserve" transform="matrix(.8068966 0 0 .8067484 60.71035 264)" font-size="16" font-family="HelveticaNeue" font-style="italic"><tspan y="-12.672" x="-67">x</tspan></text>
<text xml:space="preserve" transform="matrix(.8068966 0 0 .8067484 60.71035 264)" font-size="16" font-family="HelveticaNeue"><tspan y="-12.672" x="-59.304 -53.08 -39.432 -30.84 -22.552 -18.104 -8.504 -4.0559995 4.8400018">-max = 5 </tspan></text>
<text xml:space="preserve" transform="matrix(.8068966 0 0 .8067484 60.71035 264)" font-size="16" font-family="HelveticaNeue" font-style="italic"><tspan y="5.776001" x="-67">x</tspan></text>
<text xml:space="preserve" transform="matrix(.8068966 0 0 .8067484 60.71035 264)" font-size="16" font-family="HelveticaNeue"><tspan y="5.776001" x="-59.304 -53.08 -45.08 -36.488004 -27.896004 -24.344004 -15.752004 -11.304003 -1.7040024 2.743998">-scale = 1</tspan></text>
<text xml:space="preserve" transform="matrix(.8068966 0 0 .8067484 60.71035 264)" font-size="16" font-family="HelveticaNeue" font-style="italic"><tspan y="42.224" x="-67 -59.304">y-</tspan></text>
<text xml:space="preserve" transform="matrix(.8068966 0 0 .8067484 60.71035 264)" font-size="16" font-family="HelveticaNeue"><tspan y="42.224" x="-53.08 -39.432 -35.879999 -26.983998 -22.535998 -12.935997 -8.487997">min = 0</tspan></text>
<text xml:space="preserve" transform="matrix(.8068966 0 0 .8067484 60.71035 264)" font-size="16" font-family="HelveticaNeue" font-style="italic"><tspan y="60.672" x="-67">y</tspan></text>
<text xml:space="preserve" transform="matrix(.8068966 0 0 .8067484 60.71035 264)" font-size="16" font-family="HelveticaNeue"><tspan y="60.672" x="-59.304 -53.08 -39.432 -30.84 -22.552 -18.104 -8.504 -4.0559995 4.8400018 9.288002 18.184002">-max = 2.5 </tspan></text>
<text xml:space="preserve" transform="matrix(.8068966 0 0 .8067484 60.71035 264)" font-size="16" font-family="HelveticaNeue" font-style="italic"><tspan y="79.12" x="-67">y</tspan></text>
<text xml:space="preserve" transform="matrix(.8068966 0 0 .8067484 60.71035 264)" font-size="16" font-family="HelveticaNeue"><tspan y="79.12" x="-59.304 -53.08 -45.08 -36.488004 -27.896004 -24.344004 -15.752004 -11.304003 -1.7040024 2.743998 11.639999 16.088">-scale = 0.5</tspan></text>
<path transform="matrix(1,0,0,-1,0,528)" d="M 118.8069 176.8712 L 235 176.8712 L 235 351.1289 L 118.8069 351.1289 Z " fill="#ffffff"/>
<path transform="matrix(.8068966,0,0,.8067484,-55.48276,-55.472414)" stroke-width="1" stroke-linecap="round" stroke-linejoin="round" fill="none" stroke="#000000" d="M 216 288 L 360 288 L 360 504 L 216 504 Z "/>
<text xml:space="preserve" transform="matrix(.8068966 0 0 .8067484 176.9035 264)" font-size="16" font-family="HelveticaNeue"><tspan y="-67.56799" x="-57.096 -44.952 -39.624 -31.032002 -21.544 -12.648">Graph </tspan></text>
<text xml:space="preserve" transform="matrix(.8068966 0 0 .8067484 176.9035 264)" font-size="16" font-family="HelveticaNeue" font-style="italic"><tspan y="-67.56799" x="-8.2">y</tspan></text>
<text xml:space="preserve" transform="matrix(.8068966 0 0 .8067484 176.9035 264)" font-size="16" font-family="HelveticaNeue"><tspan y="-67.56799" x="-.504 3.9440006 13.544001 17.992 22.136002 31.032002 36.36 45.256"> = (1/3)</tspan></text>
<text xml:space="preserve" transform="matrix(.8068966 0 0 .8067484 176.9035 264)" font-size="16" font-family="HelveticaNeue" font-style="italic"><tspan y="-67.56799" x="49.4">x</tspan></text>
<text xml:space="preserve" transform="matrix(.8068966 0 0 .8067484 176.9035 264)" font-size="16" font-family="HelveticaNeue" font-style="italic"><tspan y="-31.12" x="-67 -59.304">x-</tspan></text>
<text xml:space="preserve" transform="matrix(.8068966 0 0 .8067484 176.9035 264)" font-size="16" font-family="HelveticaNeue"><tspan y="-31.12" x="-53.08 -39.432 -35.879999 -26.983998 -22.535998 -12.935997 -8.487997">min = 0</tspan></text>
<text xml:space="preserve" transform="matrix(.8068966 0 0 .8067484 176.9035 264)" font-size="16" font-family="HelveticaNeue" font-style="italic"><tspan y="-12.672" x="-67">x</tspan></text>
<text xml:space="preserve" transform="matrix(.8068966 0 0 .8067484 176.9035 264)" font-size="16" font-family="HelveticaNeue"><tspan y="-12.672" x="-59.304 -53.08 -39.432 -30.84 -22.552 -18.104 -8.504 -4.0559995 4.8400018">-max = 5 </tspan></text>
<text xml:space="preserve" transform="matrix(.8068966 0 0 .8067484 176.9035 264)" font-size="16" font-family="HelveticaNeue" font-style="italic"><tspan y="5.776001" x="-67">x</tspan></text>
<text xml:space="preserve" transform="matrix(.8068966 0 0 .8067484 176.9035 264)" font-size="16" font-family="HelveticaNeue"><tspan y="5.776001" x="-59.304 -53.08 -45.08 -36.488004 -27.896004 -24.344004 -15.752004 -11.304003 -1.7040024 2.743998">-scale = 1</tspan></text>
<text xml:space="preserve" transform="matrix(.8068966 0 0 .8067484 176.9035 264)" font-size="16" font-family="HelveticaNeue" font-style="italic"><tspan y="42.224" x="-67 -59.304">y-</tspan></text>
<text xml:space="preserve" transform="matrix(.8068966 0 0 .8067484 176.9035 264)" font-size="16" font-family="HelveticaNeue"><tspan y="42.224" x="-53.08 -39.432 -35.879999 -26.983998 -22.535998 -12.935997 -8.487997">min = 0</tspan></text>
<text xml:space="preserve" transform="matrix(.8068966 0 0 .8067484 176.9035 264)" font-size="16" font-family="HelveticaNeue" font-style="italic"><tspan y="60.672" x="-67">y</tspan></text>
<text xml:space="preserve" transform="matrix(.8068966 0 0 .8067484 176.9035 264)" font-size="16" font-family="HelveticaNeue"><tspan y="60.672" x="-59.304 -53.08 -39.432 -30.84 -22.552 -18.104 -8.504 -4.0559995 4.8400018 10.168001 19.064003">-max = 5/3 </tspan></text>
<text xml:space="preserve" transform="matrix(.8068966 0 0 .8067484 176.9035 264)" font-size="16" font-family="HelveticaNeue" font-style="italic"><tspan y="79.12" x="-67">y</tspan></text>
<text xml:space="preserve" transform="matrix(.8068966 0 0 .8067484 176.9035 264)" font-size="16" font-family="HelveticaNeue"><tspan y="79.12" x="-59.304 -53.08 -45.08 -36.488004 -27.896004 -24.344004 -15.752004 -11.304003 -1.7040024 2.743998 11.639999 16.967999">-scale = 1/3</tspan></text>
<path transform="matrix(1,0,0,-1,0,528)" d="M 235 176.8712 L 351.1931 176.8712 L 351.1931 351.1289 L 235 351.1289 Z " fill="#ffffff"/>
<path transform="matrix(.8068966,0,0,.8067484,-55.48276,-55.472414)" stroke-width="1" stroke-linecap="round" stroke-linejoin="round" fill="none" stroke="#000000" d="M 360 288 L 504 288 L 504 504 L 360 504 Z "/>
<text xml:space="preserve" transform="matrix(.8068966 0 0 .8067484 293.0966 264)" font-size="16" font-family="HelveticaNeue"><tspan y="-67.56799" x="-57.096 -44.952 -39.624 -31.032002 -21.544 -12.648">Graph </tspan></text>
<text xml:space="preserve" transform="matrix(.8068966 0 0 .8067484 293.0966 264)" font-size="16" font-family="HelveticaNeue" font-style="italic"><tspan y="-67.56799" x="-8.2">y</tspan></text>
<text xml:space="preserve" transform="matrix(.8068966 0 0 .8067484 293.0966 264)" font-size="16" font-family="HelveticaNeue"><tspan y="-67.56799" x="-.504 3.9440006 13.544001 17.992 22.136002 31.032002 36.36 45.256"> = (1/6)</tspan></text>
<text xml:space="preserve" transform="matrix(.8068966 0 0 .8067484 293.0966 264)" font-size="16" font-family="HelveticaNeue" font-style="italic"><tspan y="-67.56799" x="49.4">x</tspan></text>
<text xml:space="preserve" transform="matrix(.8068966 0 0 .8067484 293.0966 264)" font-size="16" font-family="HelveticaNeue" font-style="italic"><tspan y="-31.12" x="-67 -59.304">x-</tspan></text>
<text xml:space="preserve" transform="matrix(.8068966 0 0 .8067484 293.0966 264)" font-size="16" font-family="HelveticaNeue"><tspan y="-31.12" x="-53.08 -39.432 -35.879999 -26.983998 -22.535998 -12.935997 -8.487997">min = 0</tspan></text>
<text xml:space="preserve" transform="matrix(.8068966 0 0 .8067484 293.0966 264)" font-size="16" font-family="HelveticaNeue" font-style="italic"><tspan y="-12.672" x="-67">x</tspan></text>
<text xml:space="preserve" transform="matrix(.8068966 0 0 .8067484 293.0966 264)" font-size="16" font-family="HelveticaNeue"><tspan y="-12.672" x="-59.304 -53.08 -39.432 -30.84 -22.552 -18.104 -8.504 -4.0559995 4.8400018">-max = 5 </tspan></text>
<text xml:space="preserve" transform="matrix(.8068966 0 0 .8067484 293.0966 264)" font-size="16" font-family="HelveticaNeue" font-style="italic"><tspan y="5.776001" x="-67">x</tspan></text>
<text xml:space="preserve" transform="matrix(.8068966 0 0 .8067484 293.0966 264)" font-size="16" font-family="HelveticaNeue"><tspan y="5.776001" x="-59.304 -53.08 -45.08 -36.488004 -27.896004 -24.344004 -15.752004 -11.304003 -1.7040024 2.743998">-scale = 1</tspan></text>
<text xml:space="preserve" transform="matrix(.8068966 0 0 .8067484 293.0966 264)" font-size="16" font-family="HelveticaNeue" font-style="italic"><tspan y="42.224" x="-67 -59.304">y-</tspan></text>
<text xml:space="preserve" transform="matrix(.8068966 0 0 .8067484 293.0966 264)" font-size="16" font-family="HelveticaNeue"><tspan y="42.224" x="-53.08 -39.432 -35.879999 -26.983998 -22.535998 -12.935997 -8.487997">min = 0</tspan></text>
<text xml:space="preserve" transform="matrix(.8068966 0 0 .8067484 293.0966 264)" font-size="16" font-family="HelveticaNeue" font-style="italic"><tspan y="60.672" x="-67">y</tspan></text>
<text xml:space="preserve" transform="matrix(.8068966 0 0 .8067484 293.0966 264)" font-size="16" font-family="HelveticaNeue"><tspan y="60.672" x="-59.304 -53.08 -39.432 -30.84 -22.552 -18.104 -8.504 -4.0559995 4.8400018 10.168001 19.064003">-max = 5/6 </tspan></text>
<text xml:space="preserve" transform="matrix(.8068966 0 0 .8067484 293.0966 264)" font-size="16" font-family="HelveticaNeue" font-style="italic"><tspan y="79.12" x="-67">y</tspan></text>
<text xml:space="preserve" transform="matrix(.8068966 0 0 .8067484 293.0966 264)" font-size="16" font-family="HelveticaNeue"><tspan y="79.12" x="-59.304 -53.08 -45.08 -36.488004 -27.896004 -24.344004 -15.752004 -11.304003 -1.7040024 2.743998 11.639999 16.967999">-scale = 1/6</tspan></text>
<path transform="matrix(1,0,0,-1,0,528)" d="M 351.1931 176.8712 L 467.38624 176.8712 L 467.38624 351.1289 L 351.1931 351.1289 Z " fill="#ffffff"/>
<path transform="matrix(.8068966,0,0,.8067484,-55.48276,-55.472414)" stroke-width="1" stroke-linecap="round" stroke-linejoin="round" fill="none" stroke="#000000" d="M 504 288 L 648 288 L 648 504 L 504 504 Z "/>
<text xml:space="preserve" transform="matrix(.8068966 0 0 .8067484 409.2897 264)" font-size="16" font-family="HelveticaNeue"><tspan y="-67.56799" x="-61.544 -49.399999 -44.072 -35.48 -25.991999 -17.095997">Graph </tspan></text>
<text xml:space="preserve" transform="matrix(.8068966 0 0 .8067484 409.2897 264)" font-size="16" font-family="HelveticaNeue" font-style="italic"><tspan y="-67.56799" x="-12.648">y</tspan></text>
<text xml:space="preserve" transform="matrix(.8068966 0 0 .8067484 409.2897 264)" font-size="16" font-family="HelveticaNeue"><tspan y="-67.56799" x="-4.952 -.5039997 9.096001 13.544001 17.688 26.584 31.911999 40.808 49.704"> = (1/12)</tspan></text>
<text xml:space="preserve" transform="matrix(.8068966 0 0 .8067484 409.2897 264)" font-size="16" font-family="HelveticaNeue" font-style="italic"><tspan y="-67.56799" x="53.848">x</tspan></text>
<text xml:space="preserve" transform="matrix(.8068966 0 0 .8067484 409.2897 264)" font-size="16" font-family="HelveticaNeue" font-style="italic"><tspan y="-31.12" x="-67 -59.304">x-</tspan></text>
<text xml:space="preserve" transform="matrix(.8068966 0 0 .8067484 409.2897 264)" font-size="16" font-family="HelveticaNeue"><tspan y="-31.12" x="-53.08 -39.432 -35.879999 -26.983998 -22.535998 -12.935997 -8.487997">min = 0</tspan></text>
<text xml:space="preserve" transform="matrix(.8068966 0 0 .8067484 409.2897 264)" font-size="16" font-family="HelveticaNeue" font-style="italic"><tspan y="-12.672" x="-67">x</tspan></text>
<text xml:space="preserve" transform="matrix(.8068966 0 0 .8067484 409.2897 264)" font-size="16" font-family="HelveticaNeue"><tspan y="-12.672" x="-59.304 -53.08 -39.432 -30.84 -22.552 -18.104 -8.504 -4.0559995 4.8400018">-max = 5 </tspan></text>
<text xml:space="preserve" transform="matrix(.8068966 0 0 .8067484 409.2897 264)" font-size="16" font-family="HelveticaNeue" font-style="italic"><tspan y="5.776001" x="-67">x</tspan></text>
<text xml:space="preserve" transform="matrix(.8068966 0 0 .8067484 409.2897 264)" font-size="16" font-family="HelveticaNeue"><tspan y="5.776001" x="-59.304 -53.08 -45.08 -36.488004 -27.896004 -24.344004 -15.752004 -11.304003 -1.7040024 2.743998">-scale = 1</tspan></text>
<text xml:space="preserve" transform="matrix(.8068966 0 0 .8067484 409.2897 264)" font-size="16" font-family="HelveticaNeue" font-style="italic"><tspan y="42.224" x="-67 -59.304">y-</tspan></text>
<text xml:space="preserve" transform="matrix(.8068966 0 0 .8067484 409.2897 264)" font-size="16" font-family="HelveticaNeue"><tspan y="42.224" x="-53.08 -39.432 -35.879999 -26.983998 -22.535998 -12.935997 -8.487997">min = 0</tspan></text>
<text xml:space="preserve" transform="matrix(.8068966 0 0 .8067484 409.2897 264)" font-size="16" font-family="HelveticaNeue" font-style="italic"><tspan y="60.672" x="-67">y</tspan></text>
<text xml:space="preserve" transform="matrix(.8068966 0 0 .8067484 409.2897 264)" font-size="16" font-family="HelveticaNeue"><tspan y="60.672" x="-59.304 -53.08 -39.432 -30.84 -22.552 -18.104 -8.504 -4.0559995 4.8400018 10.168001 19.064003 27.960003">-max = 5/12 </tspan></text>
<text xml:space="preserve" transform="matrix(.8068966 0 0 .8067484 409.2897 264)" font-size="16" font-family="HelveticaNeue" font-style="italic"><tspan y="79.12" x="-67">y</tspan></text>
<text xml:space="preserve" transform="matrix(.8068966 0 0 .8067484 409.2897 264)" font-size="16" font-family="HelveticaNeue"><tspan y="79.12" x="-59.304 -53.08 -45.08 -36.488004 -27.896004 -24.344004 -15.752004 -11.304003 -1.7040024 2.743998 11.639999 16.967999 25.863999">-scale = 1/12</tspan></text>
<path transform="matrix(1,0,0,-1,0,528)" d="M 235 2.613508 L 351.1931 2.613508 L 351.1931 176.87122 L 235 176.87122 Z " fill="#ffffff"/>
<path transform="matrix(.8068966,0,0,.8067484,-55.48276,-55.472414)" stroke-width="1" stroke-linecap="round" stroke-linejoin="round" fill="none" stroke="#000000" d="M 360 504 L 504 504 L 504 720 L 360 720 Z "/>
<text xml:space="preserve" transform="matrix(.8068966 0 0 .8067484 293.0966 438.25767)" font-size="16" font-family="HelveticaNeue"><tspan y="-67.56799" x="-50.288 -38.143999 -32.815999 -24.223999 -14.735998 -5.8399975">Graph </tspan></text>
<text xml:space="preserve" transform="matrix(.8068966 0 0 .8067484 293.0966 438.25767)" font-size="16" font-family="HelveticaNeue" font-style="italic"><tspan y="-67.56799" x="-1.392">y</tspan></text>
<text xml:space="preserve" transform="matrix(.8068966 0 0 .8067484 293.0966 438.25767)" font-size="16" font-family="HelveticaNeue"><tspan y="-67.56799" x="6.304 10.752001 20.352002 24.800002 33.696004"> = 16</tspan></text>
<text xml:space="preserve" transform="matrix(.8068966 0 0 .8067484 293.0966 438.25767)" font-size="16" font-family="HelveticaNeue" font-style="italic"><tspan y="-67.56799" x="42.592">x</tspan></text>
<text xml:space="preserve" transform="matrix(.8068966 0 0 .8067484 293.0966 438.25767)" font-size="16" font-family="HelveticaNeue" font-style="italic"><tspan y="-31.12" x="-67 -59.304">x-</tspan></text>
<text xml:space="preserve" transform="matrix(.8068966 0 0 .8067484 293.0966 438.25767)" font-size="16" font-family="HelveticaNeue"><tspan y="-31.12" x="-53.08 -39.432 -35.879999 -26.983998 -22.535998 -12.935997 -8.487997">min = 0</tspan></text>
<text xml:space="preserve" transform="matrix(.8068966 0 0 .8067484 293.0966 438.25767)" font-size="16" font-family="HelveticaNeue" font-style="italic"><tspan y="-12.672" x="-67">x</tspan></text>
<text xml:space="preserve" transform="matrix(.8068966 0 0 .8067484 293.0966 438.25767)" font-size="16" font-family="HelveticaNeue"><tspan y="-12.672" x="-59.304 -53.08 -39.432 -30.84 -22.552 -18.104 -8.504 -4.0559995 4.8400018 13.736002">-max = 10 </tspan></text>
<text xml:space="preserve" transform="matrix(.8068966 0 0 .8067484 293.0966 438.25767)" font-size="16" font-family="HelveticaNeue" font-style="italic"><tspan y="5.776001" x="-67">x</tspan></text>
<text xml:space="preserve" transform="matrix(.8068966 0 0 .8067484 293.0966 438.25767)" font-size="16" font-family="HelveticaNeue"><tspan y="5.776001" x="-59.304 -53.08 -45.08 -36.488004 -27.896004 -24.344004 -15.752004 -11.304003 -1.7040024 2.743998">-scale = 2</tspan></text>
<text xml:space="preserve" transform="matrix(.8068966 0 0 .8067484 293.0966 438.25767)" font-size="16" font-family="HelveticaNeue" font-style="italic"><tspan y="42.224" x="-67 -59.304">y-</tspan></text>
<text xml:space="preserve" transform="matrix(.8068966 0 0 .8067484 293.0966 438.25767)" font-size="16" font-family="HelveticaNeue"><tspan y="42.224" x="-53.08 -39.432 -35.879999 -26.983998 -22.535998 -12.935997 -8.487997">min = 0</tspan></text>
<text xml:space="preserve" transform="matrix(.8068966 0 0 .8067484 293.0966 438.25767)" font-size="16" font-family="HelveticaNeue" font-style="italic"><tspan y="60.672" x="-67">y</tspan></text>
<text xml:space="preserve" transform="matrix(.8068966 0 0 .8067484 293.0966 438.25767)" font-size="16" font-family="HelveticaNeue"><tspan y="60.672" x="-59.304 -53.08 -39.432 -30.84 -22.552 -18.104 -8.504 -4.0559995 4.8400018 13.736002 22.632004">-max = 160 </tspan></text>
<text xml:space="preserve" transform="matrix(.8068966 0 0 .8067484 293.0966 438.25767)" font-size="16" font-family="HelveticaNeue" font-style="italic"><tspan y="79.12" x="-67">y</tspan></text>
<text xml:space="preserve" transform="matrix(.8068966 0 0 .8067484 293.0966 438.25767)" font-size="16" font-family="HelveticaNeue"><tspan y="79.12" x="-59.304 -53.08 -45.08 -36.488004 -27.896004 -24.344004 -15.752004 -11.304003 -1.7040024 2.743998 11.639999">-scale = 32</tspan></text>
<path transform="matrix(1,0,0,-1,0,528)" d="M 351.1931 2.613508 L 467.38624 2.613508 L 467.38624 176.87122 L 351.1931 176.87122 Z " fill="#ffffff"/>
<path transform="matrix(.8068966,0,0,.8067484,-55.48276,-55.472414)" stroke-width="1" stroke-linecap="round" stroke-linejoin="round" fill="none" stroke="#000000" d="M 504 504 L 648 504 L 648 720 L 504 720 Z "/>
<text xml:space="preserve" transform="matrix(.8068966 0 0 .8067484 409.2897 438.25767)" font-size="16" font-family="HelveticaNeue"><tspan y="-67.56799" x="-50.288 -38.143999 -32.815999 -24.223999 -14.735998 -5.8399975">Graph </tspan></text>
<text xml:space="preserve" transform="matrix(.8068966 0 0 .8067484 409.2897 438.25767)" font-size="16" font-family="HelveticaNeue" font-style="italic"><tspan y="-67.56799" x="-1.392">y</tspan></text>
<text xml:space="preserve" transform="matrix(.8068966 0 0 .8067484 409.2897 438.25767)" font-size="16" font-family="HelveticaNeue"><tspan y="-67.56799" x="6.304 10.752001 20.352002 24.800002 33.696004"> = 20</tspan></text>
<text xml:space="preserve" transform="matrix(.8068966 0 0 .8067484 409.2897 438.25767)" font-size="16" font-family="HelveticaNeue" font-style="italic"><tspan y="-67.56799" x="42.592">x</tspan></text>
<text xml:space="preserve" transform="matrix(.8068966 0 0 .8067484 409.2897 438.25767)" font-size="16" font-family="HelveticaNeue" font-style="italic"><tspan y="-31.12" x="-67 -59.304">x-</tspan></text>
<text xml:space="preserve" transform="matrix(.8068966 0 0 .8067484 409.2897 438.25767)" font-size="16" font-family="HelveticaNeue"><tspan y="-31.12" x="-53.08 -39.432 -35.879999 -26.983998 -22.535998 -12.935997 -8.487997">min = 0</tspan></text>
<text xml:space="preserve" transform="matrix(.8068966 0 0 .8067484 409.2897 438.25767)" font-size="16" font-family="HelveticaNeue" font-style="italic"><tspan y="-12.672" x="-67">x</tspan></text>
<text xml:space="preserve" transform="matrix(.8068966 0 0 .8067484 409.2897 438.25767)" font-size="16" font-family="HelveticaNeue"><tspan y="-12.672" x="-59.304 -53.08 -39.432 -30.84 -22.552 -18.104 -8.504 -4.0559995 4.8400018 13.736002">-max = 10 </tspan></text>
<text xml:space="preserve" transform="matrix(.8068966 0 0 .8067484 409.2897 438.25767)" font-size="16" font-family="HelveticaNeue" font-style="italic"><tspan y="5.776001" x="-67">x</tspan></text>
<text xml:space="preserve" transform="matrix(.8068966 0 0 .8067484 409.2897 438.25767)" font-size="16" font-family="HelveticaNeue"><tspan y="5.776001" x="-59.304 -53.08 -45.08 -36.488004 -27.896004 -24.344004 -15.752004 -11.304003 -1.7040024 2.743998">-scale = 2</tspan></text>
<text xml:space="preserve" transform="matrix(.8068966 0 0 .8067484 409.2897 438.25767)" font-size="16" font-family="HelveticaNeue" font-style="italic"><tspan y="42.224" x="-67 -59.304">y-</tspan></text>
<text xml:space="preserve" transform="matrix(.8068966 0 0 .8067484 409.2897 438.25767)" font-size="16" font-family="HelveticaNeue"><tspan y="42.224" x="-53.08 -39.432 -35.879999 -26.983998 -22.535998 -12.935997 -8.487997">min = 0</tspan></text>
<text xml:space="preserve" transform="matrix(.8068966 0 0 .8067484 409.2897 438.25767)" font-size="16" font-family="HelveticaNeue" font-style="italic"><tspan y="60.672" x="-67">y</tspan></text>
<text xml:space="preserve" transform="matrix(.8068966 0 0 .8067484 409.2897 438.25767)" font-size="16" font-family="HelveticaNeue"><tspan y="60.672" x="-59.304 -53.08 -39.432 -30.84 -22.552 -18.104 -8.504 -4.0559995 4.8400018 13.736002 22.632004">-max = 200 </tspan></text>
<text xml:space="preserve" transform="matrix(.8068966 0 0 .8067484 409.2897 438.25767)" font-size="16" font-family="HelveticaNeue" font-style="italic"><tspan y="79.12" x="-67">y</tspan></text>
<text xml:space="preserve" transform="matrix(.8068966 0 0 .8067484 409.2897 438.25767)" font-size="16" font-family="HelveticaNeue"><tspan y="79.12" x="-59.304 -53.08 -45.08 -36.488004 -27.896004 -24.344004 -15.752004 -11.304003 -1.7040024 2.743998 11.639999">-scale = 40</tspan></text>
<path transform="matrix(1,0,0,-1,0,528)" d="M 118.8069 2.613508 L 235 2.613508 L 235 176.87122 L 118.8069 176.87122 Z " fill="#ffffff"/>
<path transform="matrix(.8068966,0,0,.8067484,-55.48276,-55.472414)" stroke-width="1" stroke-linecap="round" stroke-linejoin="round" fill="none" stroke="#000000" d="M 216 504 L 360 504 L 360 720 L 216 720 Z "/>
<text xml:space="preserve" transform="matrix(.8068966 0 0 .8067484 176.9035 438.25767)" font-size="16" font-family="HelveticaNeue"><tspan y="-67.56799" x="-50.288 -38.143999 -32.815999 -24.223999 -14.735998 -5.8399975">Graph </tspan></text>
<text xml:space="preserve" transform="matrix(.8068966 0 0 .8067484 176.9035 438.25767)" font-size="16" font-family="HelveticaNeue" font-style="italic"><tspan y="-67.56799" x="-1.392">y</tspan></text>
<text xml:space="preserve" transform="matrix(.8068966 0 0 .8067484 176.9035 438.25767)" font-size="16" font-family="HelveticaNeue"><tspan y="-67.56799" x="6.304 10.752001 20.352002 24.800002 33.696004"> = 12</tspan></text>
<text xml:space="preserve" transform="matrix(.8068966 0 0 .8067484 176.9035 438.25767)" font-size="16" font-family="HelveticaNeue" font-style="italic"><tspan y="-67.56799" x="42.592">x</tspan></text>
<text xml:space="preserve" transform="matrix(.8068966 0 0 .8067484 176.9035 438.25767)" font-size="16" font-family="HelveticaNeue" font-style="italic"><tspan y="-31.12" x="-67 -59.304">x-</tspan></text>
<text xml:space="preserve" transform="matrix(.8068966 0 0 .8067484 176.9035 438.25767)" font-size="16" font-family="HelveticaNeue"><tspan y="-31.12" x="-53.08 -39.432 -35.879999 -26.983998 -22.535998 -12.935997 -8.487997">min = 0</tspan></text>
<text xml:space="preserve" transform="matrix(.8068966 0 0 .8067484 176.9035 438.25767)" font-size="16" font-family="HelveticaNeue" font-style="italic"><tspan y="-12.672" x="-67">x</tspan></text>
<text xml:space="preserve" transform="matrix(.8068966 0 0 .8067484 176.9035 438.25767)" font-size="16" font-family="HelveticaNeue"><tspan y="-12.672" x="-59.304 -53.08 -39.432 -30.84 -22.552 -18.104 -8.504 -4.0559995 4.8400018 13.736002">-max = 10 </tspan></text>
<text xml:space="preserve" transform="matrix(.8068966 0 0 .8067484 176.9035 438.25767)" font-size="16" font-family="HelveticaNeue" font-style="italic"><tspan y="5.776001" x="-67">x</tspan></text>
<text xml:space="preserve" transform="matrix(.8068966 0 0 .8067484 176.9035 438.25767)" font-size="16" font-family="HelveticaNeue"><tspan y="5.776001" x="-59.304 -53.08 -45.08 -36.488004 -27.896004 -24.344004 -15.752004 -11.304003 -1.7040024 2.743998">-scale = 2</tspan></text>
<text xml:space="preserve" transform="matrix(.8068966 0 0 .8067484 176.9035 438.25767)" font-size="16" font-family="HelveticaNeue" font-style="italic"><tspan y="42.224" x="-67 -59.304">y-</tspan></text>
<text xml:space="preserve" transform="matrix(.8068966 0 0 .8067484 176.9035 438.25767)" font-size="16" font-family="HelveticaNeue"><tspan y="42.224" x="-53.08 -39.432 -35.879999 -26.983998 -22.535998 -12.935997 -8.487997">min = 0</tspan></text>
<text xml:space="preserve" transform="matrix(.8068966 0 0 .8067484 176.9035 438.25767)" font-size="16" font-family="HelveticaNeue" font-style="italic"><tspan y="60.672" x="-67">y</tspan></text>
<text xml:space="preserve" transform="matrix(.8068966 0 0 .8067484 176.9035 438.25767)" font-size="16" font-family="HelveticaNeue"><tspan y="60.672" x="-59.304 -53.08 -39.432 -30.84 -22.552 -18.104 -8.504 -4.0559995 4.8400018 13.736002 22.632004">-max = 120 </tspan></text>
<text xml:space="preserve" transform="matrix(.8068966 0 0 .8067484 176.9035 438.25767)" font-size="16" font-family="HelveticaNeue" font-style="italic"><tspan y="79.12" x="-67">y</tspan></text>
<text xml:space="preserve" transform="matrix(.8068966 0 0 .8067484 176.9035 438.25767)" font-size="16" font-family="HelveticaNeue"><tspan y="79.12" x="-59.304 -53.08 -45.08 -36.488004 -27.896004 -24.344004 -15.752004 -11.304003 -1.7040024 2.743998 11.639999">-scale = 24</tspan></text>
<path transform="matrix(1,0,0,-1,0,528)" d="M 2.613793 2.613508 L 118.80689 2.613508 L 118.80689 176.87122 L 2.613793 176.87122 Z " fill="#ffffff"/>
<path transform="matrix(.8068966,0,0,.8067484,-55.48276,-55.472414)" stroke-width="1" stroke-linecap="round" stroke-linejoin="round" fill="none" stroke="#000000" d="M 72 504 L 216 504 L 216 720 L 72 720 Z "/>
<text xml:space="preserve" transform="matrix(.8068966 0 0 .8067484 60.71035 438.25767)" font-size="16" font-family="HelveticaNeue"><tspan y="-67.56799" x="-45.84 -33.696 -28.368 -19.776001 -10.288 -1.3919993">Graph </tspan></text>
<text xml:space="preserve" transform="matrix(.8068966 0 0 .8067484 60.71035 438.25767)" font-size="16" font-family="HelveticaNeue" font-style="italic"><tspan y="-67.56799" x="3.056">y</tspan></text>
<text xml:space="preserve" transform="matrix(.8068966 0 0 .8067484 60.71035 438.25767)" font-size="16" font-family="HelveticaNeue"><tspan y="-67.56799" x="10.752 15.200001 24.800002 29.248002"> = 8</tspan></text>
<text xml:space="preserve" transform="matrix(.8068966 0 0 .8067484 60.71035 438.25767)" font-size="16" font-family="HelveticaNeue" font-style="italic"><tspan y="-67.56799" x="38.144">x</tspan></text>
<text xml:space="preserve" transform="matrix(.8068966 0 0 .8067484 60.71035 438.25767)" font-size="16" font-family="HelveticaNeue" font-style="italic"><tspan y="-31.12" x="-67 -59.304">x-</tspan></text>
<text xml:space="preserve" transform="matrix(.8068966 0 0 .8067484 60.71035 438.25767)" font-size="16" font-family="HelveticaNeue"><tspan y="-31.12" x="-53.08 -39.432 -35.879999 -26.983998 -22.535998 -12.935997 -8.487997">min = 0</tspan></text>
<text xml:space="preserve" transform="matrix(.8068966 0 0 .8067484 60.71035 438.25767)" font-size="16" font-family="HelveticaNeue" font-style="italic"><tspan y="-12.672" x="-67">x</tspan></text>
<text xml:space="preserve" transform="matrix(.8068966 0 0 .8067484 60.71035 438.25767)" font-size="16" font-family="HelveticaNeue"><tspan y="-12.672" x="-59.304 -53.08 -39.432 -30.84 -22.552 -18.104 -8.504 -4.0559995 4.8400018 13.736002">-max = 10 </tspan></text>
<text xml:space="preserve" transform="matrix(.8068966 0 0 .8067484 60.71035 438.25767)" font-size="16" font-family="HelveticaNeue" font-style="italic"><tspan y="5.776001" x="-67">x</tspan></text>
<text xml:space="preserve" transform="matrix(.8068966 0 0 .8067484 60.71035 438.25767)" font-size="16" font-family="HelveticaNeue"><tspan y="5.776001" x="-59.304 -53.08 -45.08 -36.488004 -27.896004 -24.344004 -15.752004 -11.304003 -1.7040024 2.743998">-scale = 2</tspan></text>
<text xml:space="preserve" transform="matrix(.8068966 0 0 .8067484 60.71035 438.25767)" font-size="16" font-family="HelveticaNeue" font-style="italic"><tspan y="42.224" x="-67 -59.304">y-</tspan></text>
<text xml:space="preserve" transform="matrix(.8068966 0 0 .8067484 60.71035 438.25767)" font-size="16" font-family="HelveticaNeue"><tspan y="42.224" x="-53.08 -39.432 -35.879999 -26.983998 -22.535998 -12.935997 -8.487997">min = 0</tspan></text>
<text xml:space="preserve" transform="matrix(.8068966 0 0 .8067484 60.71035 438.25767)" font-size="16" font-family="HelveticaNeue" font-style="italic"><tspan y="60.672" x="-67">y</tspan></text>
<text xml:space="preserve" transform="matrix(.8068966 0 0 .8067484 60.71035 438.25767)" font-size="16" font-family="HelveticaNeue"><tspan y="60.672" x="-59.304 -53.08 -39.432 -30.84 -22.552 -18.104 -8.504 -4.0559995 4.8400018 13.736002">-max = 80 </tspan></text>
<text xml:space="preserve" transform="matrix(.8068966 0 0 .8067484 60.71035 438.25767)" font-size="16" font-family="HelveticaNeue" font-style="italic"><tspan y="79.12" x="-67">y</tspan></text>
<text xml:space="preserve" transform="matrix(.8068966 0 0 .8067484 60.71035 438.25767)" font-size="16" font-family="HelveticaNeue"><tspan y="79.12" x="-59.304 -53.08 -45.08 -36.488004 -27.896004 -24.344004 -15.752004 -11.304003 -1.7040024 2.743998 11.639999">-scale = 16</tspan></text>
</g>
<path transform="matrix(.00007874016,0,0,.00007874016,1,1)" stroke-width="9525" stroke-linecap="butt" stroke-linejoin="round" fill="none" stroke="#4472c4" d="M -4762.314 -4762.335 L 5948362.7 -4762.335 L 5948362.7 6684962.7 L -4762.314 6684962.7 Z "/>
</g>
</svg>
