<?xml version="1.0" encoding="UTF-8" standalone="no"?>
<!DOCTYPE svg PUBLIC "-//W3C//DTD SVG 1.1//EN" "http://www.w3.org/Graphics/SVG/1.1/DTD/svg11.dtd">
<svg xmlns="http://www.w3.org/2000/svg" xmlns:xlink="http://www.w3.org/1999/xlink" version="1.1" width="216pt" height="95pt" viewBox="0 0 216 95">
<g enable-background="new">
<clipPath id="cp0">
<path transform="matrix(1,0,0,-1,0,95)" d="M 0 0 L 216 0 L 216 95 L 0 95 Z "/>
</clipPath>
<g clip-path="url(#cp0)">
<path transform="matrix(1,0,0,-1,0,95)" d="M 0 95 L 216 95 L 216 0 L 0 0 Z " fill="#ffffff"/>
</g>
<clipPath id="cp1">
<path transform="matrix(1,0,0,-1,0,95)" d="M 0 .000006625204 L 216 .000006625204 L 216 95 L 0 95 Z "/>
</clipPath>
<g clip-path="url(#cp1)">
<path transform="matrix(1,0,0,-1,0,95)" d="M -31.43451 -254.0616 L 247.43448 -254.0616 L 247.43448 213.10231 L -31.43451 213.10231 Z " fill="#ffffff"/>
<path transform="matrix(1,0,0,-1,0,95)" d="M .8981289 116.4477 L 17.06445 116.4477 L 17.06445 205.04773 L .8981289 205.04773 Z " fill="#cbcbcb"/>
<path transform="matrix(.4490645,0,0,.447475,-31.43451,-118.1022)" stroke-width="1" stroke-linecap="round" stroke-linejoin="round" fill="none" stroke="#000000" d="M 72 18 L 108 18 L 108 216 L 72 216 Z "/>
<path transform="matrix(1,0,0,-1,0,95)" d="M 25.14761 116.4477 L 41.31393 116.4477 L 41.31393 205.04773 L 25.14761 205.04773 Z " fill="#cbcbcb"/>
<path transform="matrix(.4490645,0,0,.447475,-31.43451,-118.1022)" stroke-width="1" stroke-linecap="round" stroke-linejoin="round" fill="none" stroke="#000000" d="M 126 18 L 162 18 L 162 216 L 126 216 Z "/>
<path transform="matrix(1,0,0,-1,0,95)" d="M 49.39709 116.4477 L 65.563419 116.4477 L 65.563419 205.04773 L 49.39709 205.04773 Z " fill="#cbcbcb"/>
<path transform="matrix(.4490645,0,0,.447475,-31.43451,-118.1022)" stroke-width="1" stroke-linecap="round" stroke-linejoin="round" fill="none" stroke="#000000" d="M 180 18 L 216 18 L 216 216 L 180 216 Z "/>
<path transform="matrix(1,0,0,-1,0,95)" d="M 73.64657 188.9386 L 89.81289 188.9386 L 89.81289 205.0477 L 73.64657 205.0477 Z " fill="#cbcbcb"/>
<path transform="matrix(.4490645,0,0,.447475,-31.43451,-118.1022)" stroke-width="1" stroke-linecap="round" stroke-linejoin="round" fill="none" stroke="#000000" d="M 234 18 L 270 18 L 270 54 L 234 54 Z "/>
<path transform="matrix(1,0,0,-1,0,95)" d="M 73.64657 164.775 L 89.81289 164.775 L 89.81289 180.8841 L 73.64657 180.8841 Z " fill="#cbcbcb"/>
<path transform="matrix(.4490645,0,0,.447475,-31.43451,-118.1022)" stroke-width="1" stroke-linecap="round" stroke-linejoin="round" fill="none" stroke="#000000" d="M 234 72 L 270 72 L 270 108 L 234 108 Z "/>
<path transform="matrix(1,0,0,-1,0,95)" d="M 73.64657 140.6113 L 89.81289 140.6113 L 89.81289 156.7204 L 73.64657 156.7204 Z " fill="#cbcbcb"/>
<path transform="matrix(.4490645,0,0,.447475,-31.43451,-118.1022)" stroke-width="1" stroke-linecap="round" stroke-linejoin="round" fill="none" stroke="#000000" d="M 234 126 L 270 126 L 270 162 L 234 162 Z "/>
<path transform="matrix(1,0,0,-1,0,95)" d="M 73.64657 116.4477 L 89.81289 116.4477 L 89.81289 132.5568 L 73.64657 132.5568 Z " fill="#cbcbcb"/>
<path transform="matrix(.4490645,0,0,.447475,-31.43451,-118.1022)" stroke-width="1" stroke-linecap="round" stroke-linejoin="round" fill="none" stroke="#000000" d="M 234 180 L 270 180 L 270 216 L 234 216 Z "/>
<path transform="matrix(1,0,0,-1,0,95)" d="M .8981289 3.683969 L 17.06445 3.683969 L 17.06445 92.284008 L .8981289 92.284008 Z " fill="#cbcbcb"/>
<path transform="matrix(.4490645,0,0,.447475,-31.43451,-118.1022)" stroke-width="1" stroke-linecap="round" stroke-linejoin="round" fill="none" stroke="#000000" d="M 72 270 L 108 270 L 108 468 L 72 468 Z "/>
<path transform="matrix(1,0,0,-1,0,95)" d="M 25.14761 3.683969 L 41.31393 3.683969 L 41.31393 92.284008 L 25.14761 92.284008 Z " fill="#cbcbcb"/>
<path transform="matrix(.4490645,0,0,.447475,-31.43451,-118.1022)" stroke-width="1" stroke-linecap="round" stroke-linejoin="round" fill="none" stroke="#000000" d="M 126 270 L 162 270 L 162 468 L 126 468 Z "/>
<path transform="matrix(1,0,0,-1,0,95)" d="M 49.39709 3.683969 L 65.563419 3.683969 L 65.563419 92.284008 L 49.39709 92.284008 Z " fill="#cbcbcb"/>
<path transform="matrix(.4490645,0,0,.447475,-31.43451,-118.1022)" stroke-width="1" stroke-linecap="round" stroke-linejoin="round" fill="none" stroke="#000000" d="M 180 270 L 216 270 L 216 468 L 180 468 Z "/>
<path transform="matrix(1,0,0,-1,0,95)" d="M 73.64657 76.17491 L 89.81289 76.17491 L 89.81289 92.28401 L 73.64657 92.28401 Z " fill="#cbcbcb"/>
<path transform="matrix(.4490645,0,0,.447475,-31.43451,-118.1022)" stroke-width="1" stroke-linecap="round" stroke-linejoin="round" fill="none" stroke="#000000" d="M 234 270 L 270 270 L 270 306 L 234 306 Z "/>
<path transform="matrix(1,0,0,-1,0,95)" d="M 73.64657 52.01126 L 89.81289 52.01126 L 89.81289 68.12036 L 73.64657 68.12036 Z " fill="#cbcbcb"/>
<path transform="matrix(.4490645,0,0,.447475,-31.43451,-118.1022)" stroke-width="1" stroke-linecap="round" stroke-linejoin="round" fill="none" stroke="#000000" d="M 234 324 L 270 324 L 270 360 L 234 360 Z "/>
<path transform="matrix(1,0,0,-1,0,95)" d="M 73.64657 27.84762 L 89.81289 27.84762 L 89.81289 43.95672 L 73.64657 43.95672 Z " fill="#cbcbcb"/>
<path transform="matrix(.4490645,0,0,.447475,-31.43451,-118.1022)" stroke-width="1" stroke-linecap="round" stroke-linejoin="round" fill="none" stroke="#000000" d="M 234 378 L 270 378 L 270 414 L 234 414 Z "/>
<path transform="matrix(1,0,0,-1,0,95)" d="M 73.64657 3.683969 L 89.81289 3.683969 L 89.81289 19.79307 L 73.64657 19.79307 Z " fill="#cbcbcb"/>
<path transform="matrix(.4490645,0,0,.447475,-31.43451,-118.1022)" stroke-width="1" stroke-linecap="round" stroke-linejoin="round" fill="none" stroke="#000000" d="M 234 432 L 270 432 L 270 468 L 234 468 Z "/>
<path transform="matrix(1,0,0,-1,0,95)" d="M 126.1871 3.683969 L 142.35343 3.683969 L 142.35343 92.284008 L 126.1871 92.284008 Z " fill="#cbcbcb"/>
<path transform="matrix(.4490645,0,0,.447475,-31.43451,-118.1022)" stroke-width="1" stroke-linecap="round" stroke-linejoin="round" fill="none" stroke="#000000" d="M 351 270 L 387 270 L 387 468 L 351 468 Z "/>
<path transform="matrix(1,0,0,-1,0,95)" d="M 150.4366 3.683969 L 166.60292 3.683969 L 166.60292 92.284008 L 150.4366 92.284008 Z " fill="#cbcbcb"/>
<path transform="matrix(.4490645,0,0,.447475,-31.43451,-118.1022)" stroke-width="1" stroke-linecap="round" stroke-linejoin="round" fill="none" stroke="#000000" d="M 405 270 L 441 270 L 441 468 L 405 468 Z "/>
<path transform="matrix(1,0,0,-1,0,95)" d="M 198.9356 52.01126 L 215.10192 52.01126 L 215.10192 68.12036 L 198.9356 68.12036 Z " fill="#cbcbcb"/>
<path transform="matrix(.4490645,0,0,.447475,-31.43451,-118.1022)" stroke-width="1" stroke-linecap="round" stroke-linejoin="round" fill="none" stroke="#000000" d="M 513 324 L 549 324 L 549 360 L 513 360 Z "/>
<path transform="matrix(1,0,0,-1,0,95)" d="M 198.9356 27.84762 L 215.10192 27.84762 L 215.10192 43.95672 L 198.9356 43.95672 Z " fill="#cbcbcb"/>
<path transform="matrix(.4490645,0,0,.447475,-31.43451,-118.1022)" stroke-width="1" stroke-linecap="round" stroke-linejoin="round" fill="none" stroke="#000000" d="M 513 378 L 549 378 L 549 414 L 513 414 Z "/>
<path transform="matrix(1,0,0,-1,0,95)" d="M 198.9356 3.683969 L 215.10192 3.683969 L 215.10192 19.79307 L 198.9356 19.79307 Z " fill="#cbcbcb"/>
<path transform="matrix(.4490645,0,0,.447475,-31.43451,-118.1022)" stroke-width="1" stroke-linecap="round" stroke-linejoin="round" fill="none" stroke="#000000" d="M 513 432 L 549 432 L 549 468 L 513 468 Z "/>
<text xml:space="preserve" transform="matrix(.4490645 0 0 .447475 106.0073 45.00237)" font-size="24" font-family="HelveticaNeue"><tspan y="8.664001" x="-7.2">+</tspan></text>
<path transform="matrix(1,0,0,-1,0,95)" d="M 174.6861 76.17491 L 190.85242 76.17491 L 190.85242 92.28401 L 174.6861 92.28401 Z " fill="#cbcbcb"/>
<path transform="matrix(.4490645,0,0,.447475,-31.43451,-118.1022)" stroke-width="1" stroke-linecap="round" stroke-linejoin="round" fill="none" stroke="#000000" d="M 459 270 L 495 270 L 495 306 L 459 306 Z "/>
<path transform="matrix(1,0,0,-1,0,95)" d="M 174.6861 52.01126 L 190.85242 52.01126 L 190.85242 68.12036 L 174.6861 68.12036 Z " fill="#cbcbcb"/>
<path transform="matrix(.4490645,0,0,.447475,-31.43451,-118.1022)" stroke-width="1" stroke-linecap="round" stroke-linejoin="round" fill="none" stroke="#000000" d="M 459 324 L 495 324 L 495 360 L 459 360 Z "/>
<path transform="matrix(1,0,0,-1,0,95)" d="M 174.6861 27.84762 L 190.85242 27.84762 L 190.85242 43.95672 L 174.6861 43.95672 Z " fill="#cbcbcb"/>
<path transform="matrix(.4490645,0,0,.447475,-31.43451,-118.1022)" stroke-width="1" stroke-linecap="round" stroke-linejoin="round" fill="none" stroke="#000000" d="M 459 378 L 495 378 L 495 414 L 459 414 Z "/>
<path transform="matrix(1,0,0,-1,0,95)" d="M 174.6861 3.683969 L 190.85242 3.683969 L 190.85242 19.79307 L 174.6861 19.79307 Z " fill="#cbcbcb"/>
<path transform="matrix(.4490645,0,0,.447475,-31.43451,-118.1022)" stroke-width="1" stroke-linecap="round" stroke-linejoin="round" fill="none" stroke="#000000" d="M 459 432 L 495 432 L 495 468 L 459 468 Z "/>
<path transform="matrix(1,0,0,-1,0,95)" d="M .8981289 -109.0797 L 17.06445 -109.0797 L 17.06445 -20.47966 L .8981289 -20.47966 Z " fill="#cbcbcb"/>
<path transform="matrix(.4490645,0,0,.447475,-31.43451,-118.1022)" stroke-width="1" stroke-linecap="round" stroke-linejoin="round" fill="none" stroke="#000000" d="M 72 522 L 108 522 L 108 720 L 72 720 Z "/>
<path transform="matrix(1,0,0,-1,0,95)" d="M 25.14761 -109.0797 L 41.31393 -109.0797 L 41.31393 -20.47966 L 25.14761 -20.47966 Z " fill="#cbcbcb"/>
<path transform="matrix(.4490645,0,0,.447475,-31.43451,-118.1022)" stroke-width="1" stroke-linecap="round" stroke-linejoin="round" fill="none" stroke="#000000" d="M 126 522 L 162 522 L 162 720 L 126 720 Z "/>
<path transform="matrix(1,0,0,-1,0,95)" d="M 49.39709 -109.0797 L 65.563419 -109.0797 L 65.563419 -20.47966 L 49.39709 -20.47966 Z " fill="#cbcbcb"/>
<path transform="matrix(.4490645,0,0,.447475,-31.43451,-118.1022)" stroke-width="1" stroke-linecap="round" stroke-linejoin="round" fill="none" stroke="#000000" d="M 180 522 L 216 522 L 216 720 L 180 720 Z "/>
<path transform="matrix(1,0,0,-1,0,95)" d="M 73.64657 -36.58878 L 89.81289 -36.58878 L 89.81289 -20.47968 L 73.64657 -20.47968 Z " fill="#cbcbcb"/>
<path transform="matrix(.4490645,0,0,.447475,-31.43451,-118.1022)" stroke-width="1" stroke-linecap="round" stroke-linejoin="round" fill="none" stroke="#000000" d="M 234 522 L 270 522 L 270 558 L 234 558 Z "/>
<path transform="matrix(1,0,0,-1,0,95)" d="M 73.64657 -60.75242 L 89.81289 -60.75242 L 89.81289 -44.64332 L 73.64657 -44.64332 Z " fill="#cbcbcb"/>
<path transform="matrix(.4490645,0,0,.447475,-31.43451,-118.1022)" stroke-width="1" stroke-linecap="round" stroke-linejoin="round" fill="none" stroke="#000000" d="M 234 576 L 270 576 L 270 612 L 234 612 Z "/>
<path transform="matrix(1,0,0,-1,0,95)" d="M 73.64657 -84.91607 L 89.81289 -84.91607 L 89.81289 -68.80697 L 73.64657 -68.80697 Z " fill="#cbcbcb"/>
<path transform="matrix(.4490645,0,0,.447475,-31.43451,-118.1022)" stroke-width="1" stroke-linecap="round" stroke-linejoin="round" fill="none" stroke="#000000" d="M 234 630 L 270 630 L 270 666 L 234 666 Z "/>
<path transform="matrix(1,0,0,-1,0,95)" d="M 73.64657 -109.0797 L 89.81289 -109.0797 L 89.81289 -92.9706 L 73.64657 -92.9706 Z " fill="#cbcbcb"/>
<path transform="matrix(.4490645,0,0,.447475,-31.43451,-118.1022)" stroke-width="1" stroke-linecap="round" stroke-linejoin="round" fill="none" stroke="#000000" d="M 234 684 L 270 684 L 270 720 L 234 720 Z "/>
<path transform="matrix(1,0,0,-1,0,95)" d="M 126.1871 -109.0797 L 142.35343 -109.0797 L 142.35343 -20.47966 L 126.1871 -20.47966 Z " fill="#cbcbcb"/>
<path transform="matrix(.4490645,0,0,.447475,-31.43451,-118.1022)" stroke-width="1" stroke-linecap="round" stroke-linejoin="round" fill="none" stroke="#000000" d="M 351 522 L 387 522 L 387 720 L 351 720 Z "/>
<path transform="matrix(1,0,0,-1,0,95)" d="M 150.4366 -109.0797 L 166.60292 -109.0797 L 166.60292 -20.47966 L 150.4366 -20.47966 Z " fill="#cbcbcb"/>
<path transform="matrix(.4490645,0,0,.447475,-31.43451,-118.1022)" stroke-width="1" stroke-linecap="round" stroke-linejoin="round" fill="none" stroke="#000000" d="M 405 522 L 441 522 L 441 720 L 405 720 Z "/>
<text xml:space="preserve" transform="matrix(.4490645 0 0 .447475 106.0073 157.76605)" font-size="24" font-family="HelveticaNeue"><tspan y="8.664001" x="-6">&#x2013;</tspan></text>
<path transform="matrix(1,0,0,-1,0,95)" d="M 174.6861 -60.75242 L 190.85242 -60.75242 L 190.85242 -44.64332 L 174.6861 -44.64332 Z " fill="#cbcbcb"/>
<path transform="matrix(.4490645,0,0,.447475,-31.43451,-118.1022)" stroke-width="1" stroke-linecap="round" stroke-linejoin="round" fill="none" stroke="#000000" d="M 459 576 L 495 576 L 495 612 L 459 612 Z "/>
<path transform="matrix(1,0,0,-1,0,95)" d="M 174.6861 -84.91607 L 190.85242 -84.91607 L 190.85242 -68.80697 L 174.6861 -68.80697 Z " fill="#cbcbcb"/>
<path transform="matrix(.4490645,0,0,.447475,-31.43451,-118.1022)" stroke-width="1" stroke-linecap="round" stroke-linejoin="round" fill="none" stroke="#000000" d="M 459 630 L 495 630 L 495 666 L 459 666 Z "/>
<path transform="matrix(1,0,0,-1,0,95)" d="M 174.6861 -109.0797 L 190.85242 -109.0797 L 190.85242 -92.9706 L 174.6861 -92.9706 Z " fill="#cbcbcb"/>
<path transform="matrix(.4490645,0,0,.447475,-31.43451,-118.1022)" stroke-width="1" stroke-linecap="round" stroke-linejoin="round" fill="none" stroke="#000000" d="M 459 684 L 495 684 L 495 720 L 459 720 Z "/>
<path transform="matrix(1,0,0,-1,0,95)" d="M .8981289 -221.8434 L 89.81289 -221.8434 L 89.81289 -133.24337 L .8981289 -133.24337 Z " fill="#cbcbcb"/>
<path transform="matrix(.4490645,0,0,.447475,-31.43451,-118.1022)" stroke-width="1" stroke-linecap="round" stroke-linejoin="round" fill="none" stroke="#000000" d="M 72 774 L 270 774 L 270 972 L 72 972 Z "/>
<path transform="matrix(1,0,0,-1,0,95)" d="M 97.89605 -221.8434 L 114.06237 -221.8434 L 114.06237 -133.24337 L 97.89605 -133.24337 Z " fill="#cbcbcb"/>
<path transform="matrix(.4490645,0,0,.447475,-31.43451,-118.1022)" stroke-width="1" stroke-linecap="round" stroke-linejoin="round" fill="none" stroke="#000000" d="M 288 774 L 324 774 L 324 972 L 288 972 Z "/>
<path transform="matrix(1,0,0,-1,0,95)" d="M 122.1455 -221.8434 L 138.31183 -221.8434 L 138.31183 -133.24337 L 122.1455 -133.24337 Z " fill="#cbcbcb"/>
<path transform="matrix(.4490645,0,0,.447475,-31.43451,-118.1022)" stroke-width="1" stroke-linecap="round" stroke-linejoin="round" fill="none" stroke="#000000" d="M 342 774 L 378 774 L 378 972 L 342 972 Z "/>
<path transform="matrix(1,0,0,-1,0,95)" d="M 146.395 -221.8434 L 162.56133 -221.8434 L 162.56133 -205.7343 L 146.395 -205.7343 Z " fill="#cbcbcb"/>
<path transform="matrix(.4490645,0,0,.447475,-31.43451,-118.1022)" stroke-width="1" stroke-linecap="round" stroke-linejoin="round" fill="none" stroke="#000000" d="M 396 936 L 432 936 L 432 972 L 396 972 Z "/>
<path transform="matrix(1,0,0,-1,0,95)" d="M 146.395 -173.5161 L 162.56133 -173.5161 L 162.56133 -157.407 L 146.395 -157.407 Z " fill="#cbcbcb"/>
<path transform="matrix(.4490645,0,0,.447475,-31.43451,-118.1022)" stroke-width="1" stroke-linecap="round" stroke-linejoin="round" fill="none" stroke="#000000" d="M 396 828 L 432 828 L 432 864 L 396 864 Z "/>
<path transform="matrix(1,0,0,-1,0,95)" d="M 146.395 -197.6798 L 162.56133 -197.6798 L 162.56133 -181.5707 L 146.395 -181.5707 Z " fill="#cbcbcb"/>
<path transform="matrix(.4490645,0,0,.447475,-31.43451,-118.1022)" stroke-width="1" stroke-linecap="round" stroke-linejoin="round" fill="none" stroke="#000000" d="M 396 882 L 432 882 L 432 918 L 396 918 Z "/>
<path transform="matrix(1,0,0,-1,0,95)" d="M 170.6445 -221.8434 L 186.81082 -221.8434 L 186.81082 -205.7343 L 170.6445 -205.7343 Z " fill="#cbcbcb"/>
<path transform="matrix(.4490645,0,0,.447475,-31.43451,-118.1022)" stroke-width="1" stroke-linecap="round" stroke-linejoin="round" fill="none" stroke="#000000" d="M 450 936 L 486 936 L 486 972 L 450 972 Z "/>
<path transform="matrix(1,0,0,-1,0,95)" d="M 170.6445 -197.6798 L 186.81082 -197.6798 L 186.81082 -181.5707 L 170.6445 -181.5707 Z " fill="#cbcbcb"/>
<path transform="matrix(.4490645,0,0,.447475,-31.43451,-118.1022)" stroke-width="1" stroke-linecap="round" stroke-linejoin="round" fill="none" stroke="#000000" d="M 450 882 L 486 882 L 486 918 L 450 918 Z "/>
</g>
</g>
</svg>
