<?xml version="1.0" encoding="UTF-8" standalone="no"?>
<!DOCTYPE svg PUBLIC "-//W3C//DTD SVG 1.1//EN" "http://www.w3.org/Graphics/SVG/1.1/DTD/svg11.dtd">
<svg xmlns="http://www.w3.org/2000/svg" xmlns:xlink="http://www.w3.org/1999/xlink" version="1.1" width="141pt" height="99pt" viewBox="0 0 141 99">
<g enable-background="new">
<clipPath id="cp0">
<path transform="matrix(1,0,0,-1,0,99)" d="M 0 0 L 141 0 L 141 99 L 0 99 Z "/>
</clipPath>
<g clip-path="url(#cp0)">
<path transform="matrix(1,0,0,-1,0,99)" d="M 0 99 L 141 99 L 141 0 L 0 0 Z " fill="#ffffff"/>
</g>
<clipPath id="cp1">
<path transform="matrix(1,0,0,-1,0,99)" d="M 0 -.000001460809 L 141 -.000001460809 L 141 99 L 0 99 Z "/>
</clipPath>
<g clip-path="url(#cp1)">
<path transform="matrix(1,0,0,-1,0,99)" d="M -196.9746 .4324155 L -58.899599 .4324155 L -58.899599 98.11201 L -196.9746 98.11201 Z " fill="#ffffff"/>
<path transform="matrix(.5888059,0,0,.5919975,-241.135,-33.743898)" stroke-width="2" stroke-linecap="round" stroke-linejoin="round" fill="none" stroke="#7f7f7f" d="M 75 58.5 L 309.5 58.5 L 309.5 223.5 L 75 223.5 Z "/>
<text xml:space="preserve" transform="matrix(.5888059 0 0 .5919975 -211.0691 9.471962)" font-size="16" font-family="HelveticaNeue"><tspan y="5.776001" x="-6.52 2.072">a.</tspan></text>
<path transform="matrix(.5888059,0,0,.5919975,-241.135,-33.743898)" stroke-width="2" stroke-linecap="round" stroke-linejoin="round" fill="none" stroke="#003776" d="M 88.24023 195.25 L 296.2598 86.75 "/>
<path transform="matrix(1,0,0,-1,0,99)" d="M 2.299399 .4324155 L 140.37439 .4324155 L 140.37439 98.11201 L 2.299399 98.11201 Z " fill="#ffffff"/>
<path transform="matrix(.5888059,0,0,.5919975,-241.135,-33.743898)" stroke-width="2" stroke-linecap="round" stroke-linejoin="round" fill="none" stroke="#7f7f7f" d="M 413.4375 58.5 L 647.9375 58.5 L 647.9375 223.5 L 413.4375 223.5 Z "/>
<text xml:space="preserve" transform="matrix(.5888059 0 0 .5919975 -11.79514 9.471962)" font-size="16" font-family="HelveticaNeue"><tspan y="5.776001" x="-6.968 2.520001">b.</tspan></text>
<path transform="matrix(.5888059,0,0,.5919975,-241.135,-33.743898)" stroke-width="2" stroke-linecap="round" stroke-linejoin="round" fill="none" stroke="#003776" d="M 426.6777 89.25 L 634.6973 204.75 "/>
<path transform="matrix(1,0,0,-1,0,99)" d="M -196.9746 -119.1511 L -58.899599 -119.1511 L -58.899599 -21.471512 L -196.9746 -21.471512 Z " fill="#ffffff"/>
<path transform="matrix(.5888059,0,0,.5919975,-241.135,-33.743898)" stroke-width="2" stroke-linecap="round" stroke-linejoin="round" fill="none" stroke="#7f7f7f" d="M 75 260.5 L 309.5 260.5 L 309.5 425.5 L 75 425.5 Z "/>
<text xml:space="preserve" transform="matrix(.5888059 0 0 .5919975 -211.0691 129.05547)" font-size="16" font-family="HelveticaNeue"><tspan y="5.776001" x="-6.52 2.072">c.</tspan></text>
<path transform="matrix(.5888059,0,0,.5919975,-241.135,-33.743898)" stroke-width="2" stroke-linecap="round" stroke-linejoin="round" fill="none" stroke="#003776" d="M 88.24023 347.25 L 296.2598 344.75 "/>
<path transform="matrix(1,0,0,-1,0,99)" d="M 2.299399 -119.1511 L 140.37439 -119.1511 L 140.37439 -21.471512 L 2.299399 -21.471512 Z " fill="#ffffff"/>
<path transform="matrix(.5888059,0,0,.5919975,-241.135,-33.743898)" stroke-width="2" stroke-linecap="round" stroke-linejoin="round" fill="none" stroke="#7f7f7f" d="M 413.4375 260.5 L 647.9375 260.5 L 647.9375 425.5 L 413.4375 425.5 Z "/>
<text xml:space="preserve" transform="matrix(.5888059 0 0 .5919975 -11.79514 129.05547)" font-size="16" font-family="HelveticaNeue"><tspan y="5.776001" x="-6.968 2.520001">d.</tspan></text>
<path transform="matrix(.5888059,0,0,.5919975,-241.135,-33.743898)" stroke-width="2" stroke-linecap="round" stroke-linejoin="round" fill="none" stroke="#003776" d="M 426.6777 403.25 L 551.0117 317.0586 L 634.6973 406.75 "/>
<path transform="matrix(1,0,0,-1,0,99)" d="M -196.9746 -238.7346 L -58.899599 -238.7346 L -58.899599 -141.05503 L -196.9746 -141.05503 Z " fill="#ffffff"/>
<path transform="matrix(.5888059,0,0,.5919975,-241.135,-33.743898)" stroke-width="2" stroke-linecap="round" stroke-linejoin="round" fill="none" stroke="#7f7f7f" d="M 75 462.5 L 309.5 462.5 L 309.5 627.5 L 75 627.5 Z "/>
<text xml:space="preserve" transform="matrix(.5888059 0 0 .5919975 -211.0691 248.639)" font-size="16" font-family="HelveticaNeue"><tspan y="5.776001" x="-6.52 2.072">e.</tspan></text>
<path transform="matrix(.5888059,0,0,.5919975,-241.135,-33.743898)" stroke-width="2" stroke-linecap="round" stroke-linejoin="round" fill="none" stroke="#003776" d="M 88.24023 497.25 L 187.7656 578.7266 L 296.2598 490.75 "/>
<path transform="matrix(1,0,0,-1,0,99)" d="M 2.299399 -238.7346 L 140.37439 -238.7346 L 140.37439 -141.05503 L 2.299399 -141.05503 Z " fill="#ffffff"/>
<path transform="matrix(.5888059,0,0,.5919975,-241.135,-33.743898)" stroke-width="2" stroke-linecap="round" stroke-linejoin="round" fill="none" stroke="#7f7f7f" d="M 413.4375 462.5 L 647.9375 462.5 L 647.9375 627.5 L 413.4375 627.5 Z "/>
<text xml:space="preserve" transform="matrix(.5888059 0 0 .5919975 -11.79514 248.639)" font-size="16" font-family="HelveticaNeue"><tspan y="5.776001" x="-4.592 .14400006">f.</tspan></text>
<path transform="matrix(.5888059,0,0,.5919975,-241.135,-33.743898)" stroke-width="2" stroke-linecap="round" stroke-linejoin="round" fill="none" stroke="#003776" d="M 426.6777 607.25 L 465.0391 549.6875 L 553.9824 550.2969 L 635.5 484 "/>
<path transform="matrix(1,0,0,-1,0,99)" d="M -196.9746 -358.3181 L -58.899599 -358.3181 L -58.899599 -260.63853 L -196.9746 -260.63853 Z " fill="#ffffff"/>
<path transform="matrix(.5888059,0,0,.5919975,-241.135,-33.743898)" stroke-width="2" stroke-linecap="round" stroke-linejoin="round" fill="none" stroke="#7f7f7f" d="M 75 664.5 L 309.5 664.5 L 309.5 829.5 L 75 829.5 Z "/>
<text xml:space="preserve" transform="matrix(.5888059 0 0 .5919975 -211.0691 368.2224)" font-size="16" font-family="HelveticaNeue"><tspan y="5.776001" x="-6.816 2.368">g.</tspan></text>
<path transform="matrix(.5888059,0,0,.5919975,-241.135,-33.743898)" stroke-width="2" stroke-linecap="round" stroke-linejoin="round" fill="none" stroke="#003776" d="M 88.24023 801.25 L 138.9688 800.3672 L 198.332 715.8281 L 262.0156 714.793 L 296.2598 802.75 "/>
<path transform="matrix(1,0,0,-1,0,99)" d="M 2.299399 -358.3181 L 140.37439 -358.3181 L 140.37439 -260.63853 L 2.299399 -260.63853 Z " fill="#ffffff"/>
<path transform="matrix(.5888059,0,0,.5919975,-241.135,-33.743898)" stroke-width="2" stroke-linecap="round" stroke-linejoin="round" fill="none" stroke="#7f7f7f" d="M 413.4375 664.5 L 647.9375 664.5 L 647.9375 829.5 L 413.4375 829.5 Z "/>
<text xml:space="preserve" transform="matrix(.5888059 0 0 .5919975 -11.79514 368.2224)" font-size="16" font-family="HelveticaNeue"><tspan y="5.776001" x="-6.672 2.224001">h.</tspan></text>
<path transform="matrix(.5888059,0,0,.5919975,-241.135,-33.743898)" stroke-width="2" stroke-linecap="round" stroke-linejoin="round" fill="none" stroke="#003776" d="M 421 802 L 462.3672 802 "/>
<path transform="matrix(.5888059,0,0,.5919975,-241.135,-33.743898)" stroke-width="2" stroke-linecap="round" stroke-linejoin="round" fill="none" stroke="#003776" d="M 465.5 777 L 506.8672 777 "/>
<path transform="matrix(.5888059,0,0,.5919975,-241.135,-33.743898)" stroke-width="2" stroke-linecap="round" stroke-linejoin="round" fill="none" stroke="#003776" d="M 509.5 752 L 550.8672 752 "/>
<path transform="matrix(.5888059,0,0,.5919975,-241.135,-33.743898)" stroke-width="2" stroke-linecap="round" stroke-linejoin="round" fill="none" stroke="#003776" d="M 554.5 727 L 595.8672 727 "/>
<path transform="matrix(.5888059,0,0,.5919975,-241.135,-33.743898)" stroke-width="2" stroke-linecap="round" stroke-linejoin="round" fill="none" stroke="#003776" d="M 599.5 701 L 640.8672 701 "/>
</g>
</g>
</svg>
