<?xml version="1.0" encoding="UTF-8" standalone="no"?>
<!DOCTYPE svg PUBLIC "-//W3C//DTD SVG 1.1//EN" "http://www.w3.org/Graphics/SVG/1.1/DTD/svg11.dtd">
<svg xmlns="http://www.w3.org/2000/svg" xmlns:xlink="http://www.w3.org/1999/xlink" version="1.1" width="144pt" height="103pt" viewBox="0 0 144 103">
<g enable-background="new">
<clipPath id="cp0">
<path transform="matrix(1,0,0,-1,0,103)" d="M 0 0 L 144 0 L 144 103 L 0 103 Z "/>
</clipPath>
<g clip-path="url(#cp0)">
<path transform="matrix(1,0,0,-1,0,103)" d="M 0 103 L 144 103 L 144 0 L 0 0 Z " fill="#ffffff"/>
</g>
<clipPath id="cp1">
<path transform="matrix(1,0,0,-1,0,103)" d="M 0 0 L 144 0 L 144 100.3372 L 0 100.3372 Z "/>
</clipPath>
<g clip-path="url(#cp1)">
<path transform="matrix(1,0,0,-1,0,103)" d="M 2.565566 1.747856 L 140.96247 1.747856 L 140.96247 99.44904 L 2.565566 99.44904 Z " fill="#ffffff"/>
<path transform="matrix(.5901787,0,0,.5921284,-41.69783,-31.088593)" stroke-width="2" stroke-linecap="round" stroke-linejoin="round" fill="none" stroke="#7f7f7f" d="M 75 58.5 L 309.5 58.5 L 309.5 223.5 L 75 223.5 Z "/>
<text xml:space="preserve" transform="matrix(.5901787 0 0 .5921284 -11.56184 12.136818)" font-size="16" font-family="HelveticaNeue"><tspan y="5.776001" x="-6.52 2.072">a.</tspan></text>
<path transform="matrix(.5901787,0,0,.5921284,-41.69783,-31.088593)" stroke-width="2" stroke-linecap="round" stroke-linejoin="round" fill="none" stroke="#003776" d="M 88.24023 195.25 L 296.2598 86.75 "/>
<path transform="matrix(1,0,0,-1,0,103)" d="M 202.3042 1.747856 L 340.7011 1.747856 L 340.7011 99.44904 L 202.3042 99.44904 Z " fill="#ffffff"/>
<path transform="matrix(.5901787,0,0,.5921284,-41.69783,-31.088593)" stroke-width="2" stroke-linecap="round" stroke-linejoin="round" fill="none" stroke="#7f7f7f" d="M 413.4375 58.5 L 647.9375 58.5 L 647.9375 223.5 L 413.4375 223.5 Z "/>
<text xml:space="preserve" transform="matrix(.5901787 0 0 .5921284 188.1768 12.136818)" font-size="16" font-family="HelveticaNeue"><tspan y="5.776001" x="-6.968 2.520001">b.</tspan></text>
<path transform="matrix(.5901787,0,0,.5921284,-41.69783,-31.088593)" stroke-width="2" stroke-linecap="round" stroke-linejoin="round" fill="none" stroke="#003776" d="M 426.6777 89.25 L 634.6973 204.75 "/>
<path transform="matrix(1,0,0,-1,0,103)" d="M 2.565566 -117.8621 L 140.96247 -117.8621 L 140.96247 -20.160912 L 2.565566 -20.160912 Z " fill="#ffffff"/>
<path transform="matrix(.5901787,0,0,.5921284,-41.69783,-31.088593)" stroke-width="2" stroke-linecap="round" stroke-linejoin="round" fill="none" stroke="#7f7f7f" d="M 75 260.5 L 309.5 260.5 L 309.5 425.5 L 75 425.5 Z "/>
<text xml:space="preserve" transform="matrix(.5901787 0 0 .5921284 -11.56184 131.74677)" font-size="16" font-family="HelveticaNeue"><tspan y="5.776001" x="-6.52 2.072">c.</tspan></text>
<path transform="matrix(.5901787,0,0,.5921284,-41.69783,-31.088593)" stroke-width="2" stroke-linecap="round" stroke-linejoin="round" fill="none" stroke="#003776" d="M 88.24023 347.25 L 296.2598 344.75 "/>
<path transform="matrix(1,0,0,-1,0,103)" d="M 202.3042 -117.8621 L 340.7011 -117.8621 L 340.7011 -20.160912 L 202.3042 -20.160912 Z " fill="#ffffff"/>
<path transform="matrix(.5901787,0,0,.5921284,-41.69783,-31.088593)" stroke-width="2" stroke-linecap="round" stroke-linejoin="round" fill="none" stroke="#7f7f7f" d="M 413.4375 260.5 L 647.9375 260.5 L 647.9375 425.5 L 413.4375 425.5 Z "/>
<text xml:space="preserve" transform="matrix(.5901787 0 0 .5921284 188.1768 131.74677)" font-size="16" font-family="HelveticaNeue"><tspan y="5.776001" x="-6.968 2.520001">d.</tspan></text>
<path transform="matrix(.5901787,0,0,.5921284,-41.69783,-31.088593)" stroke-width="2" stroke-linecap="round" stroke-linejoin="round" fill="none" stroke="#003776" d="M 426.6777 403.25 L 551.0117 317.0586 L 634.6973 406.75 "/>
<path transform="matrix(1,0,0,-1,0,103)" d="M 2.565566 -237.472 L 140.96247 -237.472 L 140.96247 -139.77082 L 2.565566 -139.77082 Z " fill="#ffffff"/>
<path transform="matrix(.5901787,0,0,.5921284,-41.69783,-31.088593)" stroke-width="2" stroke-linecap="round" stroke-linejoin="round" fill="none" stroke="#7f7f7f" d="M 75 462.5 L 309.5 462.5 L 309.5 627.5 L 75 627.5 Z "/>
<text xml:space="preserve" transform="matrix(.5901787 0 0 .5921284 -11.56184 251.3567)" font-size="16" font-family="HelveticaNeue"><tspan y="5.776001" x="-6.52 2.072">e.</tspan></text>
<path transform="matrix(.5901787,0,0,.5921284,-41.69783,-31.088593)" stroke-width="2" stroke-linecap="round" stroke-linejoin="round" fill="none" stroke="#003776" d="M 88.24023 497.25 L 187.7656 578.7266 L 296.2598 490.75 "/>
<path transform="matrix(1,0,0,-1,0,103)" d="M 202.3042 -237.472 L 340.7011 -237.472 L 340.7011 -139.77082 L 202.3042 -139.77082 Z " fill="#ffffff"/>
<path transform="matrix(.5901787,0,0,.5921284,-41.69783,-31.088593)" stroke-width="2" stroke-linecap="round" stroke-linejoin="round" fill="none" stroke="#7f7f7f" d="M 413.4375 462.5 L 647.9375 462.5 L 647.9375 627.5 L 413.4375 627.5 Z "/>
<text xml:space="preserve" transform="matrix(.5901787 0 0 .5921284 188.1768 251.3567)" font-size="16" font-family="HelveticaNeue"><tspan y="5.776001" x="-4.592 .14400006">f.</tspan></text>
<path transform="matrix(.5901787,0,0,.5921284,-41.69783,-31.088593)" stroke-width="2" stroke-linecap="round" stroke-linejoin="round" fill="none" stroke="#003776" d="M 426.6777 607.25 L 465.0391 549.6875 L 553.9824 550.2969 L 635.5 484 "/>
<path transform="matrix(1,0,0,-1,0,103)" d="M 2.565566 -357.082 L 140.96247 -357.082 L 140.96247 -259.3808 L 2.565566 -259.3808 Z " fill="#ffffff"/>
<path transform="matrix(.5901787,0,0,.5921284,-41.69783,-31.088593)" stroke-width="2" stroke-linecap="round" stroke-linejoin="round" fill="none" stroke="#7f7f7f" d="M 75 664.5 L 309.5 664.5 L 309.5 829.5 L 75 829.5 Z "/>
<text xml:space="preserve" transform="matrix(.5901787 0 0 .5921284 -11.56184 370.9666)" font-size="16" font-family="HelveticaNeue"><tspan y="5.776001" x="-6.816 2.368">g.</tspan></text>
<path transform="matrix(.5901787,0,0,.5921284,-41.69783,-31.088593)" stroke-width="2" stroke-linecap="round" stroke-linejoin="round" fill="none" stroke="#003776" d="M 88.24023 801.25 L 138.9688 800.3672 L 198.332 715.8281 L 262.0156 714.793 L 296.2598 802.75 "/>
<path transform="matrix(1,0,0,-1,0,103)" d="M 202.3042 -357.082 L 340.7011 -357.082 L 340.7011 -259.3808 L 202.3042 -259.3808 Z " fill="#ffffff"/>
<path transform="matrix(.5901787,0,0,.5921284,-41.69783,-31.088593)" stroke-width="2" stroke-linecap="round" stroke-linejoin="round" fill="none" stroke="#7f7f7f" d="M 413.4375 664.5 L 647.9375 664.5 L 647.9375 829.5 L 413.4375 829.5 Z "/>
<text xml:space="preserve" transform="matrix(.5901787 0 0 .5921284 188.1768 370.9666)" font-size="16" font-family="HelveticaNeue"><tspan y="5.776001" x="-6.672 2.224001">h.</tspan></text>
<path transform="matrix(.5901787,0,0,.5921284,-41.69783,-31.088593)" stroke-width="2" stroke-linecap="round" stroke-linejoin="round" fill="none" stroke="#003776" d="M 421 802 L 462.3672 802 "/>
<path transform="matrix(.5901787,0,0,.5921284,-41.69783,-31.088593)" stroke-width="2" stroke-linecap="round" stroke-linejoin="round" fill="none" stroke="#003776" d="M 465.5 777 L 506.8672 777 "/>
<path transform="matrix(.5901787,0,0,.5921284,-41.69783,-31.088593)" stroke-width="2" stroke-linecap="round" stroke-linejoin="round" fill="none" stroke="#003776" d="M 509.5 752 L 550.8672 752 "/>
<path transform="matrix(.5901787,0,0,.5921284,-41.69783,-31.088593)" stroke-width="2" stroke-linecap="round" stroke-linejoin="round" fill="none" stroke="#003776" d="M 554.5 727 L 595.8672 727 "/>
<path transform="matrix(.5901787,0,0,.5921284,-41.69783,-31.088593)" stroke-width="2" stroke-linecap="round" stroke-linejoin="round" fill="none" stroke="#003776" d="M 599.5 701 L 640.8672 701 "/>
</g>
</g>
</svg>
